#include <stdint.h>
const uint8_t midifile[] = {
0x4d,0x54,0x68,0x64,0x00,0x00,0x00,0x06,0x00,0x01,0x00,0x02,0x04,0x00,0x4d,0x54,
0x72,0x6b,0x00,0x00,0x00,0x45,0x00,0xff,0x58,0x04,0x04,0x02,0x18,0x08,0x00,0xff,
0x59,0x02,0xfd,0x00,0x00,0xff,0x51,0x03,0x0c,0x0b,0xe1,0x00,0xff,0x51,0x03,0x0c,
0x0b,0xe1,0xe0,0x00,0xff,0x58,0x04,0x02,0x02,0x18,0x08,0x90,0x00,0xff,0x58,0x04,
0x04,0x02,0x18,0x08,0xa0,0x00,0xff,0x51,0x03,0x07,0x44,0x1e,0x8f,0x80,0x00,0xff,
0x51,0x03,0x07,0x44,0x1e,0x8f,0x80,0x00,0xff,0x2f,0x00,0x4d,0x54,0x72,0x6b,0x00,
0x00,0x41,0xd2,0x00,0xff,0x03,0x14,0x41,0x63,0x6f,0x75,0x73,0x74,0x69,0x63,0x20,
0x47,0x72,0x61,0x6e,0x64,0x20,0x50,0x69,0x61,0x6e,0x6f,0x00,0xc0,0x00,0x00,0x90,
0x48,0x40,0x00,0x90,0x3c,0x40,0x00,0x90,0x3f,0x40,0x00,0x90,0x43,0x40,0x88,0x00,
0x80,0x48,0x00,0x00,0x90,0x4b,0x40,0x88,0x00,0x80,0x4b,0x00,0x00,0x90,0x4d,0x40,
0x00,0x80,0x3c,0x00,0x00,0x80,0x3f,0x00,0x00,0x80,0x43,0x00,0x00,0x90,0x3c,0x40,
0x00,0x90,0x41,0x40,0x00,0x90,0x44,0x40,0x86,0x00,0x80,0x4d,0x00,0x00,0x90,0x4b,
0x40,0x86,0x00,0x80,0x4b,0x00,0x00,0x90,0x4d,0x40,0x84,0x00,0x80,0x4d,0x00,0x00,
0x80,0x3c,0x00,0x00,0x80,0x41,0x00,0x00,0x80,0x44,0x00,0x00,0x90,0x4d,0x40,0x00,
0x90,0x3a,0x40,0x00,0x90,0x3e,0x40,0x00,0x90,0x41,0x40,0x84,0x00,0x80,0x4d,0x00,
0x00,0x90,0x4d,0x40,0x84,0x00,0x80,0x4d,0x00,0x00,0x90,0x52,0x40,0x84,0x00,0x80,
0x52,0x00,0x00,0x90,0x50,0x40,0x84,0x00,0x80,0x50,0x00,0x00,0x90,0x4f,0x40,0x00,
0x80,0x3a,0x00,0x00,0x80,0x3e,0x00,0x00,0x80,0x41,0x00,0x00,0x90,0x3f,0x40,0x00,
0x90,0x46,0x40,0x82,0x00,0x80,0x4f,0x00,0x00,0x90,0x4d,0x40,0x84,0x00,0x80,0x4d,
0x00,0x00,0x90,0x4f,0x40,0x8a,0x00,0x80,0x4f,0x00,0x00,0x80,0x3f,0x00,0x00,0x80,
0x46,0x00,0x00,0x90,0x4f,0x40,0x00,0x90,0x3c,0x40,0x00,0x90,0x3f,0x40,0x00,0x90,
0x43,0x40,0x88,0x00,0x80,0x4f,0x00,0x00,0x90,0x52,0x40,0x88,0x00,0x80,0x52,0x00,
0x00,0x90,0x54,0x40,0x00,0x80,0x3c,0x00,0x00,0x80,0x3f,0x00,0x00,0x80,0x43,0x00,
0x00,0x90,0x3f,0x40,0x00,0x90,0x41,0x40,0x00,0x90,0x44,0x40,0x00,0x90,0x48,0x40,
0x86,0x00,0x80,0x54,0x00,0x00,0x90,0x4d,0x40,0x86,0x00,0x80,0x4d,0x00,0x00,0x90,
0x4b,0x40,0x84,0x00,0x80,0x4b,0x00,0x00,0x80,0x3f,0x00,0x00,0x80,0x41,0x00,0x00,
0x80,0x44,0x00,0x00,0x80,0x48,0x00,0x00,0x90,0x52,0x40,0x00,0x90,0x4a,0x40,0x00,
0x90,0x3e,0x40,0x00,0x90,0x41,0x40,0x00,0x90,0x43,0x40,0x00,0x90,0x46,0x40,0x84,
0x00,0x80,0x52,0x00,0x00,0x90,0x52,0x40,0x84,0x00,0x80,0x52,0x00,0x00,0x90,0x4f,
0x40,0x84,0x00,0x80,0x4f,0x00,0x00,0x90,0x52,0x40,0x84,0x00,0x80,0x52,0x00,0x00,
0x80,0x4a,0x00,0x00,0x80,0x3e,0x00,0x00,0x80,0x41,0x00,0x00,0x80,0x43,0x00,0x00,
0x80,0x46,0x00,0x00,0x90,0x52,0x40,0x00,0x90,0x43,0x40,0x00,0x90,0x44,0x40,0x00,
0x90,0x48,0x40,0x00,0x90,0x4b,0x40,0x86,0x00,0x80,0x52,0x00,0x00,0x90,0x54,0x40,
0x9a,0x00,0x80,0x54,0x00,0x00,0x80,0x43,0x00,0x00,0x80,0x44,0x00,0x00,0x80,0x48,
0x00,0x00,0x80,0x4b,0x00,0x00,0x90,0x3c,0x40,0x00,0x90,0x30,0x40,0x84,0x00,0x80,
0x30,0x00,0x00,0x90,0x30,0x40,0x84,0x00,0x80,0x3c,0x00,0x00,0x90,0x3f,0x40,0x00,
0x80,0x30,0x00,0x00,0x90,0x30,0x40,0x84,0x00,0x80,0x30,0x00,0x00,0x90,0x33,0x40,
0x84,0x00,0x80,0x3f,0x00,0x00,0x90,0x38,0x40,0x00,0x90,0x3c,0x40,0x00,0x90,0x41,
0x40,0x00,0x80,0x33,0x00,0x00,0x90,0x35,0x40,0x82,0x00,0x80,0x35,0x00,0x00,0x90,
0x35,0x40,0x82,0x00,0x80,0x35,0x00,0x82,0x00,0x80,0x38,0x00,0x00,0x80,0x3c,0x00,
0x00,0x80,0x41,0x00,0x00,0x90,0x3f,0x40,0x00,0x90,0x35,0x40,0x84,0x00,0x80,0x35,
0x00,0x00,0x90,0x35,0x40,0x82,0x00,0x80,0x3f,0x00,0x00,0x90,0x41,0x40,0x00,0x80,
0x35,0x00,0x00,0x90,0x30,0x40,0x84,0x00,0x80,0x41,0x00,0x00,0x80,0x30,0x00,0x00,
0x90,0x3a,0x40,0x00,0x90,0x3e,0x40,0x00,0x90,0x41,0x40,0x00,0x90,0x2e,0x40,0x84,
0x00,0x80,0x3a,0x00,0x00,0x80,0x3e,0x00,0x00,0x80,0x41,0x00,0x00,0x90,0x41,0x40,
0x00,0x80,0x2e,0x00,0x00,0x90,0x2e,0x40,0x84,0x00,0x80,0x41,0x00,0x00,0x90,0x46,
0x40,0x00,0x80,0x2e,0x00,0x00,0x90,0x2e,0x40,0x84,0x00,0x80,0x46,0x00,0x00,0x90,
0x44,0x40,0x00,0x80,0x2e,0x00,0x00,0x90,0x32,0x40,0x84,0x00,0x80,0x44,0x00,0x00,
0x90,0x43,0x40,0x00,0x80,0x32,0x00,0x00,0x90,0x33,0x40,0x82,0x00,0x80,0x43,0x00,
0x00,0x90,0x41,0x40,0x00,0x80,0x33,0x00,0x00,0x90,0x33,0x40,0x82,0x00,0x80,0x33,
0x00,0x82,0x00,0x80,0x41,0x00,0x00,0x90,0x43,0x40,0x00,0x90,0x33,0x40,0x82,0x00,
0x80,0x33,0x00,0x00,0x90,0x33,0x40,0x84,0x00,0x80,0x33,0x00,0x00,0x90,0x32,0x40,
0x84,0x00,0x80,0x43,0x00,0x00,0x80,0x32,0x00,0x00,0x90,0x3f,0x40,0x00,0x90,0x43,
0x40,0x00,0x90,0x30,0x40,0x84,0x00,0x80,0x30,0x00,0x00,0x90,0x30,0x40,0x84,0x00,
0x80,0x3f,0x00,0x00,0x80,0x43,0x00,0x00,0x90,0x46,0x40,0x00,0x80,0x30,0x00,0x00,
0x90,0x30,0x40,0x84,0x00,0x80,0x30,0x00,0x00,0x90,0x33,0x40,0x84,0x00,0x80,0x46,
0x00,0x00,0x90,0x41,0x40,0x00,0x90,0x44,0x40,0x00,0x90,0x48,0x40,0x00,0x80,0x33,
0x00,0x00,0x90,0x35,0x40,0x82,0x00,0x80,0x35,0x00,0x00,0x90,0x35,0x40,0x82,0x00,
0x80,0x35,0x00,0x82,0x00,0x80,0x41,0x00,0x00,0x80,0x44,0x00,0x00,0x80,0x48,0x00,
0x00,0x90,0x41,0x40,0x00,0x90,0x35,0x40,0x84,0x00,0x80,0x35,0x00,0x00,0x90,0x35,
0x40,0x82,0x00,0x80,0x41,0x00,0x00,0x90,0x3f,0x40,0x00,0x80,0x35,0x00,0x00,0x90,
0x30,0x40,0x84,0x00,0x80,0x3f,0x00,0x00,0x80,0x30,0x00,0x00,0x90,0x3e,0x40,0x00,
0x90,0x41,0x40,0x00,0x90,0x46,0x40,0x00,0x90,0x2e,0x40,0x84,0x00,0x80,0x3e,0x00,
0x00,0x80,0x41,0x00,0x00,0x80,0x46,0x00,0x00,0x90,0x3e,0x40,0x00,0x90,0x41,0x40,
0x00,0x90,0x46,0x40,0x00,0x80,0x2e,0x00,0x00,0x90,0x2e,0x40,0x84,0x00,0x80,0x3e,
0x00,0x00,0x80,0x41,0x00,0x00,0x80,0x46,0x00,0x00,0x90,0x3e,0x40,0x00,0x90,0x41,
0x40,0x00,0x90,0x43,0x40,0x00,0x80,0x2e,0x00,0x00,0x90,0x2e,0x40,0x84,0x00,0x80,
0x3e,0x00,0x00,0x80,0x41,0x00,0x00,0x80,0x43,0x00,0x00,0x90,0x3e,0x40,0x00,0x90,
0x41,0x40,0x00,0x90,0x46,0x40,0x00,0x80,0x2e,0x00,0x00,0x90,0x2f,0x40,0x84,0x00,
0x80,0x3e,0x00,0x00,0x80,0x41,0x00,0x00,0x80,0x46,0x00,0x00,0x90,0x43,0x40,0x00,
0x90,0x46,0x40,0x00,0x80,0x2f,0x00,0x00,0x90,0x30,0x40,0x82,0x00,0x80,0x30,0x00,
0x00,0x90,0x30,0x40,0x84,0x00,0x80,0x43,0x00,0x00,0x80,0x46,0x00,0x00,0x90,0x43,
0x40,0x00,0x90,0x48,0x40,0x00,0x80,0x30,0x00,0x00,0x90,0x30,0x40,0x82,0x00,0x80,
0x30,0x00,0x00,0x90,0x2e,0x40,0x88,0x00,0x80,0x43,0x00,0x00,0x80,0x48,0x00,0x00,
0x80,0x2e,0x00,0x00,0x90,0x33,0x40,0x00,0x90,0x37,0x40,0x00,0x90,0x3a,0x40,0x88,
0x00,0x90,0x4b,0x40,0x84,0x00,0x80,0x4b,0x00,0x00,0x90,0x46,0x40,0x82,0x00,0x80,
0x46,0x00,0x00,0x90,0x46,0x40,0x8a,0x00,0x80,0x46,0x00,0x84,0x00,0x90,0x4b,0x40,
0x84,0x00,0x80,0x4b,0x00,0x00,0x80,0x33,0x00,0x00,0x80,0x37,0x00,0x00,0x80,0x3a,
0x00,0x00,0x90,0x4b,0x40,0x00,0x90,0x2e,0x40,0x00,0x90,0x32,0x40,0x00,0x90,0x35,
0x40,0x00,0x90,0x3a,0x40,0x86,0x00,0x80,0x4b,0x00,0x00,0x90,0x4d,0x40,0x86,0x00,
0x80,0x4d,0x00,0x00,0x90,0x46,0x40,0x84,0x00,0x80,0x46,0x00,0x00,0x90,0x46,0x40,
0x88,0x00,0x80,0x46,0x00,0x84,0x00,0x90,0x46,0x40,0x84,0x00,0x80,0x46,0x00,0x00,
0x80,0x2e,0x00,0x00,0x80,0x32,0x00,0x00,0x80,0x35,0x00,0x00,0x80,0x3a,0x00,0x00,
0x90,0x4f,0x40,0x00,0x90,0x30,0x40,0x00,0x90,0x33,0x40,0x00,0x90,0x37,0x40,0x86,
0x00,0x80,0x4f,0x00,0x00,0x90,0x50,0x40,0x86,0x00,0x80,0x50,0x00,0x00,0x90,0x4f,
0x40,0x84,0x00,0x80,0x4f,0x00,0x00,0x90,0x4d,0x40,0x00,0x80,0x30,0x00,0x00,0x80,
0x33,0x00,0x00,0x80,0x37,0x00,0x00,0x90,0x2e,0x40,0x00,0x90,0x32,0x40,0x00,0x90,
0x35,0x40,0x00,0x90,0x37,0x40,0x86,0x00,0x80,0x4d,0x00,0x00,0x90,0x4b,0x40,0x86,
0x00,0x80,0x4b,0x00,0x00,0x90,0x4d,0x40,0x84,0x00,0x80,0x4d,0x00,0x00,0x80,0x2e,
0x00,0x00,0x80,0x32,0x00,0x00,0x80,0x35,0x00,0x00,0x80,0x37,0x00,0x00,0x90,0x4f,
0x40,0x00,0x90,0x2c,0x40,0x00,0x90,0x30,0x40,0x00,0x90,0x33,0x40,0x00,0x90,0x37,
0x40,0x86,0x00,0x80,0x4f,0x00,0x00,0x90,0x50,0x40,0x86,0x00,0x80,0x50,0x00,0x00,
0x90,0x4f,0x40,0x84,0x00,0x80,0x4f,0x00,0x00,0x90,0x48,0x40,0x88,0x00,0x80,0x48,
0x00,0x84,0x00,0x90,0x48,0x40,0x82,0x00,0x80,0x48,0x00,0x00,0x90,0x4a,0x40,0x82,
0x00,0x80,0x4a,0x00,0x00,0x80,0x2c,0x00,0x00,0x80,0x30,0x00,0x00,0x80,0x33,0x00,
0x00,0x80,0x37,0x00,0x00,0x90,0x4b,0x40,0x00,0x90,0x2e,0x40,0x00,0x90,0x33,0x40,
0x00,0x90,0x35,0x40,0x86,0x00,0x80,0x4b,0x00,0x00,0x90,0x4b,0x40,0x86,0x00,0x80,
0x4b,0x00,0x00,0x90,0x4a,0x40,0x84,0x00,0x80,0x4a,0x00,0x00,0x90,0x4a,0x40,0x00,
0x80,0x2e,0x00,0x00,0x80,0x33,0x00,0x00,0x80,0x35,0x00,0x00,0x90,0x2e,0x40,0x00,
0x90,0x32,0x40,0x00,0x90,0x35,0x40,0x88,0x00,0x80,0x4a,0x00,0x84,0x00,0x90,0x4b,
0x40,0x82,0x00,0x80,0x4b,0x00,0x00,0x90,0x4d,0x40,0x82,0x00,0x80,0x4d,0x00,0x00,
0x80,0x2e,0x00,0x00,0x80,0x32,0x00,0x00,0x80,0x35,0x00,0x00,0x90,0x50,0x40,0x00,
0x90,0x33,0x40,0x00,0x90,0x3a,0x40,0x86,0x00,0x80,0x50,0x00,0x00,0x90,0x4f,0x40,
0x86,0x00,0x80,0x4f,0x00,0x00,0x90,0x4d,0x40,0x84,0x00,0x80,0x4d,0x00,0x00,0x90,
0x4b,0x40,0x00,0x80,0x33,0x00,0x00,0x80,0x3a,0x00,0x00,0x90,0x30,0x40,0x00,0x90,
0x3a,0x40,0x88,0x00,0x80,0x4b,0x00,0x84,0x00,0x90,0x4f,0x40,0x84,0x00,0x80,0x4f,
0x00,0x00,0x80,0x30,0x00,0x00,0x80,0x3a,0x00,0x00,0x90,0x4f,0x40,0x00,0x90,0x32,
0x40,0x00,0x90,0x3c,0x40,0x86,0x00,0x80,0x4f,0x00,0x00,0x90,0x4d,0x40,0x86,0x00,
0x80,0x4d,0x00,0x00,0x90,0x4c,0x40,0x84,0x00,0x80,0x4c,0x00,0x00,0x90,0x4d,0x40,
0x88,0x00,0x80,0x4d,0x00,0x00,0x90,0x48,0x40,0x88,0x00,0x80,0x48,0x00,0x00,0x80,
0x32,0x00,0x00,0x80,0x3c,0x00,0x00,0x90,0x48,0x40,0x00,0x90,0x41,0x40,0x00,0x90,
0x45,0x40,0x00,0x90,0x2b,0x40,0x8c,0x00,0x80,0x48,0x00,0x00,0x90,0x4a,0x40,0x84,
0x00,0x80,0x4a,0x00,0x00,0x90,0x4a,0x40,0x00,0x80,0x41,0x00,0x00,0x80,0x45,0x00,
0x00,0x90,0x43,0x40,0x00,0x90,0x47,0x40,0x00,0x80,0x2b,0x00,0x00,0x90,0x2b,0x40,
0x90,0x00,0x80,0x4a,0x00,0x00,0x80,0x43,0x00,0x00,0x80,0x47,0x00,0x00,0x80,0x2b,
0x00,0x00,0x90,0x33,0x40,0x00,0x90,0x37,0x40,0x00,0x90,0x3a,0x40,0x88,0x00,0x90,
0x4b,0x40,0x84,0x00,0x80,0x4b,0x00,0x00,0x90,0x46,0x40,0x82,0x00,0x80,0x46,0x00,
0x00,0x90,0x46,0x40,0x8a,0x00,0x80,0x46,0x00,0x84,0x00,0x90,0x4b,0x40,0x84,0x00,
0x80,0x4b,0x00,0x00,0x80,0x33,0x00,0x00,0x80,0x37,0x00,0x00,0x80,0x3a,0x00,0x00,
0x90,0x4b,0x40,0x00,0x90,0x2e,0x40,0x00,0x90,0x32,0x40,0x00,0x90,0x35,0x40,0x00,
0x90,0x3a,0x40,0x86,0x00,0x80,0x4b,0x00,0x00,0x90,0x4d,0x40,0x86,0x00,0x80,0x4d,
0x00,0x00,0x90,0x46,0x40,0x84,0x00,0x80,0x46,0x00,0x00,0x90,0x46,0x40,0x88,0x00,
0x80,0x46,0x00,0x84,0x00,0x90,0x46,0x40,0x84,0x00,0x80,0x46,0x00,0x00,0x80,0x2e,
0x00,0x00,0x80,0x32,0x00,0x00,0x80,0x35,0x00,0x00,0x80,0x3a,0x00,0x00,0x90,0x4f,
0x40,0x00,0x90,0x30,0x40,0x00,0x90,0x33,0x40,0x00,0x90,0x37,0x40,0x86,0x00,0x80,
0x4f,0x00,0x00,0x90,0x50,0x40,0x86,0x00,0x80,0x50,0x00,0x00,0x90,0x4f,0x40,0x84,
0x00,0x80,0x4f,0x00,0x00,0x90,0x4d,0x40,0x00,0x80,0x30,0x00,0x00,0x80,0x33,0x00,
0x00,0x80,0x37,0x00,0x00,0x90,0x2e,0x40,0x00,0x90,0x32,0x40,0x00,0x90,0x35,0x40,
0x00,0x90,0x37,0x40,0x86,0x00,0x80,0x4d,0x00,0x00,0x90,0x4b,0x40,0x86,0x00,0x80,
0x4b,0x00,0x00,0x90,0x4d,0x40,0x84,0x00,0x80,0x4d,0x00,0x00,0x80,0x2e,0x00,0x00,
0x80,0x32,0x00,0x00,0x80,0x35,0x00,0x00,0x80,0x37,0x00,0x00,0x90,0x4f,0x40,0x00,
0x90,0x2c,0x40,0x00,0x90,0x30,0x40,0x00,0x90,0x33,0x40,0x00,0x90,0x37,0x40,0x86,
0x00,0x80,0x4f,0x00,0x00,0x90,0x50,0x40,0x86,0x00,0x80,0x50,0x00,0x00,0x90,0x4f,
0x40,0x84,0x00,0x80,0x4f,0x00,0x00,0x90,0x48,0x40,0x88,0x00,0x80,0x48,0x00,0x84,
0x00,0x90,0x48,0x40,0x82,0x00,0x80,0x48,0x00,0x00,0x90,0x4a,0x40,0x82,0x00,0x80,
0x4a,0x00,0x00,0x80,0x2c,0x00,0x00,0x80,0x30,0x00,0x00,0x80,0x33,0x00,0x00,0x80,
0x37,0x00,0x00,0x90,0x4b,0x40,0x00,0x90,0x2e,0x40,0x00,0x90,0x33,0x40,0x00,0x90,
0x35,0x40,0x86,0x00,0x80,0x4b,0x00,0x00,0x90,0x4b,0x40,0x86,0x00,0x80,0x4b,0x00,
0x00,0x90,0x4a,0x40,0x84,0x00,0x80,0x4a,0x00,0x00,0x90,0x4a,0x40,0x00,0x80,0x2e,
0x00,0x00,0x80,0x33,0x00,0x00,0x80,0x35,0x00,0x00,0x90,0x2e,0x40,0x00,0x90,0x32,
0x40,0x00,0x90,0x35,0x40,0x88,0x00,0x80,0x4a,0x00,0x84,0x00,0x90,0x4b,0x40,0x82,
0x00,0x80,0x4b,0x00,0x00,0x90,0x4d,0x40,0x82,0x00,0x80,0x4d,0x00,0x00,0x80,0x2e,
0x00,0x00,0x80,0x32,0x00,0x00,0x80,0x35,0x00,0x00,0x90,0x50,0x40,0x00,0x90,0x33,
0x40,0x00,0x90,0x3a,0x40,0x86,0x00,0x80,0x50,0x00,0x00,0x90,0x4f,0x40,0x86,0x00,
0x80,0x4f,0x00,0x00,0x90,0x4d,0x40,0x84,0x00,0x80,0x4d,0x00,0x00,0x90,0x4b,0x40,
0x00,0x80,0x33,0x00,0x00,0x80,0x3a,0x00,0x00,0x90,0x30,0x40,0x00,0x90,0x3a,0x40,
0x88,0x00,0x80,0x4b,0x00,0x84,0x00,0x90,0x4f,0x40,0x84,0x00,0x80,0x4f,0x00,0x00,
0x80,0x30,0x00,0x00,0x80,0x3a,0x00,0x00,0x90,0x4f,0x40,0x00,0x90,0x32,0x40,0x00,
0x90,0x3c,0x40,0x86,0x00,0x80,0x4f,0x00,0x00,0x90,0x4d,0x40,0x86,0x00,0x80,0x4d,
0x00,0x00,0x90,0x4c,0x40,0x84,0x00,0x80,0x4c,0x00,0x00,0x90,0x4d,0x40,0x86,0x00,
0x80,0x4d,0x00,0x00,0x90,0x4f,0x40,0x86,0x00,0x80,0x4f,0x00,0x00,0x90,0x50,0x40,
0x84,0x00,0x80,0x50,0x00,0x00,0x80,0x32,0x00,0x00,0x80,0x3c,0x00,0x00,0x90,0x4f,
0x40,0x00,0x90,0x45,0x40,0x00,0x90,0x48,0x40,0x00,0x90,0x2b,0x40,0x88,0x00,0x80,
0x45,0x00,0x00,0x80,0x48,0x00,0x00,0x90,0x43,0x40,0x00,0x90,0x47,0x40,0x00,0x80,
0x2b,0x00,0x00,0x90,0x2b,0x40,0x88,0x00,0x80,0x43,0x00,0x00,0x80,0x47,0x00,0x00,
0x90,0x45,0x40,0x00,0x90,0x48,0x40,0x00,0x80,0x2b,0x00,0x00,0x90,0x2b,0x40,0x88,
0x00,0x80,0x4f,0x00,0x00,0x80,0x45,0x00,0x00,0x80,0x48,0x00,0x00,0x90,0x47,0x40,
0x00,0x90,0x4a,0x40,0x00,0x80,0x2b,0x00,0x00,0x90,0x2b,0x40,0x88,0x00,0x80,0x47,
0x00,0x00,0x80,0x4a,0x00,0x00,0x80,0x2b,0x00,0x00,0x90,0x4b,0x40,0x00,0x90,0x43,
0x40,0x00,0x90,0x48,0x40,0x00,0x90,0x2c,0x40,0x84,0x00,0x80,0x2c,0x00,0x00,0x90,
0x2c,0x40,0x82,0x00,0x80,0x4b,0x00,0x00,0x90,0x4b,0x40,0x82,0x00,0x80,0x2c,0x00,
0x00,0x90,0x2c,0x40,0x84,0x00,0x80,0x4b,0x00,0x00,0x90,0x4a,0x40,0x00,0x80,0x2c,
0x00,0x00,0x90,0x2c,0x40,0x84,0x00,0x80,0x4a,0x00,0x00,0x90,0x4b,0x40,0x00,0x80,
0x2c,0x00,0x00,0x90,0x2c,0x40,0x84,0x00,0x80,0x2c,0x00,0x00,0x90,0x2c,0x40,0x82,
0x00,0x80,0x4b,0x00,0x00,0x90,0x4b,0x40,0x82,0x00,0x80,0x2c,0x00,0x00,0x90,0x2c,
0x40,0x84,0x00,0x80,0x4b,0x00,0x00,0x90,0x4a,0x40,0x00,0x80,0x2c,0x00,0x00,0x90,
0x2c,0x40,0x84,0x00,0x80,0x4a,0x00,0x00,0x80,0x43,0x00,0x00,0x80,0x48,0x00,0x00,
0x80,0x2c,0x00,0x00,0x90,0x4d,0x40,0x00,0x90,0x46,0x40,0x00,0x90,0x4a,0x40,0x00,
0x90,0x2b,0x40,0x84,0x00,0x80,0x2b,0x00,0x00,0x90,0x2b,0x40,0x82,0x00,0x80,0x4d,
0x00,0x00,0x90,0x4d,0x40,0x82,0x00,0x80,0x2b,0x00,0x00,0x90,0x2b,0x40,0x84,0x00,
0x80,0x4d,0x00,0x00,0x90,0x4b,0x40,0x00,0x80,0x2b,0x00,0x00,0x90,0x2b,0x40,0x84,
0x00,0x80,0x4b,0x00,0x00,0x90,0x4a,0x40,0x00,0x80,0x46,0x00,0x00,0x80,0x4a,0x00,
0x00,0x90,0x43,0x40,0x00,0x90,0x46,0x40,0x00,0x80,0x2b,0x00,0x00,0x90,0x30,0x40,
0x84,0x00,0x80,0x30,0x00,0x00,0x90,0x30,0x40,0x82,0x00,0x80,0x4a,0x00,0x00,0x90,
0x48,0x40,0x82,0x00,0x80,0x30,0x00,0x00,0x90,0x30,0x40,0x84,0x00,0x80,0x48,0x00,
0x00,0x90,0x4a,0x40,0x00,0x80,0x30,0x00,0x00,0x90,0x30,0x40,0x84,0x00,0x80,0x4a,
0x00,0x00,0x80,0x43,0x00,0x00,0x80,0x46,0x00,0x00,0x80,0x30,0x00,0x00,0x90,0x4b,
0x40,0x00,0x90,0x44,0x40,0x00,0x90,0x48,0x40,0x00,0x90,0x29,0x40,0x84,0x00,0x80,
0x29,0x00,0x00,0x90,0x29,0x40,0x82,0x00,0x80,0x4b,0x00,0x00,0x90,0x4b,0x40,0x82,
0x00,0x80,0x29,0x00,0x00,0x90,0x29,0x40,0x84,0x00,0x80,0x4b,0x00,0x00,0x90,0x4a,
0x40,0x00,0x80,0x29,0x00,0x00,0x90,0x29,0x40,0x84,0x00,0x80,0x4a,0x00,0x00,0x90,
0x4d,0x40,0x00,0x80,0x44,0x00,0x00,0x80,0x48,0x00,0x00,0x90,0x44,0x40,0x00,0x90,
0x48,0x40,0x00,0x80,0x29,0x00,0x00,0x90,0x2e,0x40,0x84,0x00,0x80,0x2e,0x00,0x00,
0x90,0x2e,0x40,0x82,0x00,0x80,0x4d,0x00,0x00,0x90,0x4a,0x40,0x82,0x00,0x80,0x2e,
0x00,0x00,0x90,0x2e,0x40,0x84,0x00,0x80,0x4a,0x00,0x00,0x90,0x48,0x40,0x00,0x80,
0x2e,0x00,0x00,0x90,0x2e,0x40,0x84,0x00,0x80,0x48,0x00,0x00,0x80,0x44,0x00,0x00,
0x80,0x48,0x00,0x00,0x80,0x2e,0x00,0x00,0x90,0x49,0x40,0x00,0x90,0x4d,0x40,0x00,
0x90,0x46,0x40,0x00,0x90,0x2e,0x40,0x84,0x00,0x80,0x2e,0x00,0x00,0x90,0x2e,0x40,
0x84,0x00,0x80,0x49,0x00,0x00,0x80,0x4d,0x00,0x00,0x90,0x4b,0x40,0x00,0x90,0x4f,
0x40,0x00,0x80,0x2e,0x00,0x00,0x90,0x35,0x40,0x84,0x00,0x80,0x35,0x00,0x00,0x90,
0x34,0x40,0x84,0x00,0x80,0x4b,0x00,0x00,0x80,0x4f,0x00,0x00,0x90,0x4d,0x40,0x00,
0x90,0x50,0x40,0x00,0x80,0x46,0x00,0x00,0x80,0x34,0x00,0x00,0x90,0x33,0x40,0x84,
0x00,0x80,0x33,0x00,0x00,0x90,0x33,0x40,0x84,0x00,0x80,0x4d,0x00,0x00,0x80,0x50,
0x00,0x00,0x90,0x4f,0x40,0x00,0x90,0x52,0x40,0x00,0x80,0x33,0x00,0x00,0x90,0x2e,
0x40,0x84,0x00,0x80,0x2e,0x00,0x00,0x90,0x2d,0x40,0x84,0x00,0x80,0x4f,0x00,0x00,
0x80,0x52,0x00,0x00,0x80,0x2d,0x00,0x00,0x90,0x48,0x40,0x00,0x90,0x4b,0x40,0x00,
0x90,0x2c,0x40,0x84,0x00,0x80,0x2c,0x00,0x00,0x90,0x2c,0x40,0x82,0x00,0x80,0x48,
0x00,0x00,0x80,0x4b,0x00,0x00,0x90,0x48,0x40,0x00,0x90,0x4b,0x40,0x82,0x00,0x80,
0x2c,0x00,0x00,0x90,0x2c,0x40,0x84,0x00,0x80,0x48,0x00,0x00,0x80,0x4b,0x00,0x00,
0x90,0x46,0x40,0x00,0x90,0x4a,0x40,0x00,0x80,0x2c,0x00,0x00,0x90,0x2c,0x40,0x84,
0x00,0x80,0x46,0x00,0x00,0x80,0x4a,0x00,0x00,0x90,0x48,0x40,0x00,0x90,0x4b,0x40,
0x00,0x80,0x2c,0x00,0x00,0x90,0x2c,0x40,0x84,0x00,0x80,0x2c,0x00,0x00,0x90,0x2c,
0x40,0x82,0x00,0x80,0x48,0x00,0x00,0x80,0x4b,0x00,0x00,0x90,0x48,0x40,0x00,0x90,
0x4b,0x40,0x82,0x00,0x80,0x2c,0x00,0x00,0x90,0x2c,0x40,0x84,0x00,0x80,0x48,0x00,
0x00,0x80,0x4b,0x00,0x00,0x90,0x46,0x40,0x00,0x90,0x4a,0x40,0x00,0x80,0x2c,0x00,
0x00,0x90,0x2c,0x40,0x84,0x00,0x80,0x46,0x00,0x00,0x80,0x4a,0x00,0x00,0x80,0x2c,
0x00,0x00,0x90,0x4a,0x40,0x00,0x90,0x4d,0x40,0x00,0x90,0x2b,0x40,0x84,0x00,0x80,
0x2b,0x00,0x00,0x90,0x2b,0x40,0x82,0x00,0x80,0x4a,0x00,0x00,0x80,0x4d,0x00,0x00,
0x90,0x4a,0x40,0x00,0x90,0x4d,0x40,0x82,0x00,0x80,0x2b,0x00,0x00,0x90,0x2b,0x40,
0x84,0x00,0x80,0x4a,0x00,0x00,0x80,0x4d,0x00,0x00,0x90,0x48,0x40,0x00,0x90,0x4b,
0x40,0x00,0x80,0x2b,0x00,0x00,0x90,0x2b,0x40,0x84,0x00,0x80,0x48,0x00,0x00,0x80,
0x4b,0x00,0x00,0x90,0x46,0x40,0x00,0x90,0x4a,0x40,0x00,0x80,0x2b,0x00,0x00,0x90,
0x30,0x40,0x84,0x00,0x80,0x30,0x00,0x00,0x90,0x30,0x40,0x82,0x00,0x80,0x46,0x00,
0x00,0x80,0x4a,0x00,0x00,0x90,0x48,0x40,0x00,0x90,0x4b,0x40,0x82,0x00,0x80,0x30,
0x00,0x00,0x90,0x30,0x40,0x84,0x00,0x80,0x48,0x00,0x00,0x80,0x4b,0x00,0x00,0x90,
0x4a,0x40,0x00,0x90,0x4d,0x40,0x00,0x80,0x30,0x00,0x00,0x90,0x30,0x40,0x84,0x00,
0x80,0x4a,0x00,0x00,0x80,0x4d,0x00,0x00,0x80,0x30,0x00,0x00,0x90,0x48,0x40,0x00,
0x90,0x4a,0x40,0x00,0x90,0x4f,0x40,0x00,0x90,0x32,0x40,0x84,0x00,0x80,0x32,0x00,
0x00,0x90,0x32,0x40,0x82,0x00,0x80,0x48,0x00,0x00,0x80,0x4a,0x00,0x00,0x80,0x4f,
0x00,0x00,0x90,0x48,0x40,0x00,0x90,0x4a,0x40,0x00,0x90,0x50,0x40,0x82,0x00,0x80,
0x32,0x00,0x00,0x90,0x32,0x40,0x84,0x00,0x80,0x48,0x00,0x00,0x80,0x4a,0x00,0x00,
0x80,0x50,0x00,0x00,0x90,0x48,0x40,0x00,0x90,0x4a,0x40,0x00,0x90,0x4f,0x40,0x00,
0x80,0x32,0x00,0x00,0x90,0x32,0x40,0x84,0x00,0x80,0x48,0x00,0x00,0x80,0x4a,0x00,
0x00,0x80,0x4f,0x00,0x00,0x90,0x48,0x40,0x00,0x90,0x4a,0x40,0x00,0x90,0x4d,0x40,
0x00,0x80,0x32,0x00,0x00,0x90,0x32,0x40,0x84,0x00,0x80,0x32,0x00,0x00,0x90,0x32,
0x40,0x82,0x00,0x80,0x48,0x00,0x00,0x80,0x4a,0x00,0x00,0x80,0x4d,0x00,0x00,0x90,
0x48,0x40,0x00,0x90,0x4b,0x40,0x82,0x00,0x80,0x32,0x00,0x00,0x90,0x32,0x40,0x84,
0x00,0x80,0x48,0x00,0x00,0x80,0x4b,0x00,0x00,0x90,0x48,0x40,0x00,0x90,0x4a,0x40,
0x00,0x90,0x4d,0x40,0x00,0x80,0x32,0x00,0x00,0x90,0x32,0x40,0x84,0x00,0x80,0x48,
0x00,0x00,0x80,0x4a,0x00,0x00,0x80,0x4d,0x00,0x00,0x80,0x32,0x00,0x00,0x90,0x45,
0x40,0x00,0x90,0x48,0x40,0x00,0x90,0x4d,0x40,0x00,0x90,0x4f,0x40,0x00,0x90,0x2b,
0x40,0x90,0x00,0x80,0x45,0x00,0x00,0x80,0x48,0x00,0x00,0x80,0x4d,0x00,0x00,0x80,
0x4f,0x00,0x00,0x90,0x47,0x40,0x00,0x90,0x4a,0x40,0x00,0x90,0x4f,0x40,0x00,0x80,
0x2b,0x00,0x00,0x90,0x2b,0x40,0x86,0x00,0x80,0x47,0x00,0x00,0x80,0x4a,0x00,0x00,
0x80,0x4f,0x00,0x00,0x90,0x48,0x40,0x00,0x90,0x4d,0x40,0x00,0x90,0x51,0x40,0x00,
0x80,0x2b,0x00,0x00,0x90,0x2b,0x40,0x86,0x00,0x80,0x48,0x00,0x00,0x80,0x4d,0x00,
0x00,0x80,0x51,0x00,0x00,0x90,0x4a,0x40,0x00,0x90,0x4f,0x40,0x00,0x90,0x53,0x40,
0x00,0x80,0x2b,0x00,0x00,0x90,0x2b,0x40,0x84,0x00,0x80,0x4a,0x00,0x00,0x80,0x4f,
0x00,0x00,0x80,0x53,0x00,0x00,0x80,0x2b,0x00,0x00,0x90,0x48,0x40,0x00,0x90,0x30,
0x40,0x84,0x00,0x80,0x30,0x00,0x00,0x90,0x30,0x40,0x84,0x00,0x80,0x48,0x00,0x00,
0x90,0x43,0x40,0x00,0x90,0x48,0x40,0x00,0x90,0x4b,0x40,0x00,0x80,0x30,0x00,0x00,
0x90,0x30,0x40,0x84,0x00,0x80,0x30,0x00,0x00,0x90,0x33,0x40,0x84,0x00,0x80,0x43,
0x00,0x00,0x80,0x48,0x00,0x00,0x80,0x4b,0x00,0x00,0x90,0x4d,0x40,0x00,0x90,0x44,
0x40,0x00,0x90,0x48,0x40,0x00,0x80,0x33,0x00,0x00,0x90,0x35,0x40,0x82,0x00,0x80,
0x35,0x00,0x00,0x90,0x35,0x40,0x82,0x00,0x80,0x35,0x00,0x82,0x00,0x80,0x4d,0x00,
0x00,0x90,0x4b,0x40,0x00,0x90,0x35,0x40,0x84,0x00,0x80,0x35,0x00,0x00,0x90,0x35,
0x40,0x82,0x00,0x80,0x4b,0x00,0x00,0x90,0x4d,0x40,0x00,0x80,0x35,0x00,0x00,0x90,
0x30,0x40,0x84,0x00,0x80,0x4d,0x00,0x00,0x80,0x44,0x00,0x00,0x80,0x48,0x00,0x00,
0x80,0x30,0x00,0x00,0x90,0x4d,0x40,0x00,0x90,0x2e,0x40,0x84,0x00,0x80,0x4d,0x00,
0x00,0x90,0x4d,0x40,0x00,0x80,0x2e,0x00,0x00,0x90,0x2e,0x40,0x84,0x00,0x80,0x4d,
0x00,0x00,0x90,0x52,0x40,0x00,0x80,0x2e,0x00,0x00,0x90,0x2e,0x40,0x84,0x00,0x80,
0x52,0x00,0x00,0x90,0x50,0x40,0x00,0x80,0x2e,0x00,0x00,0x90,0x32,0x40,0x84,0x00,
0x80,0x50,0x00,0x00,0x90,0x4f,0x40,0x00,0x80,0x32,0x00,0x00,0x90,0x33,0x40,0x82,
0x00,0x80,0x4f,0x00,0x00,0x90,0x4d,0x40,0x00,0x80,0x33,0x00,0x00,0x90,0x33,0x40,
0x82,0x00,0x80,0x33,0x00,0x82,0x00,0x80,0x4d,0x00,0x00,0x90,0x4f,0x40,0x00,0x90,
0x33,0x40,0x82,0x00,0x80,0x33,0x00,0x00,0x90,0x33,0x40,0x84,0x00,0x80,0x33,0x00,
0x00,0x90,0x32,0x40,0x84,0x00,0x80,0x4f,0x00,0x00,0x80,0x32,0x00,0x00,0x90,0x4b,
0x40,0x00,0x90,0x4f,0x40,0x00,0x90,0x30,0x40,0x84,0x00,0x80,0x30,0x00,0x00,0x90,
0x30,0x40,0x84,0x00,0x80,0x4b,0x00,0x00,0x80,0x4f,0x00,0x00,0x90,0x4b,0x40,0x00,
0x90,0x4f,0x40,0x00,0x90,0x52,0x40,0x00,0x80,0x30,0x00,0x00,0x90,0x30,0x40,0x84,
0x00,0x80,0x30,0x00,0x00,0x90,0x33,0x40,0x84,0x00,0x80,0x4b,0x00,0x00,0x80,0x4f,
0x00,0x00,0x80,0x52,0x00,0x00,0x90,0x4b,0x40,0x00,0x90,0x50,0x40,0x00,0x90,0x54,
0x40,0x00,0x80,0x33,0x00,0x00,0x90,0x35,0x40,0x82,0x00,0x80,0x35,0x00,0x00,0x90,
0x35,0x40,0x82,0x00,0x80,0x35,0x00,0x82,0x00,0x80,0x4b,0x00,0x00,0x80,0x50,0x00,
0x00,0x80,0x54,0x00,0x00,0x90,0x4d,0x40,0x00,0x90,0x35,0x40,0x84,0x00,0x80,0x35,
0x00,0x00,0x90,0x35,0x40,0x82,0x00,0x80,0x4d,0x00,0x00,0x90,0x4b,0x40,0x00,0x80,
0x35,0x00,0x00,0x90,0x30,0x40,0x84,0x00,0x80,0x4b,0x00,0x00,0x80,0x30,0x00,0x00,
0x90,0x4a,0x40,0x00,0x90,0x2e,0x40,0x84,0x00,0x80,0x4a,0x00,0x00,0x90,0x4a,0x40,
0x00,0x80,0x2e,0x00,0x00,0x90,0x2e,0x40,0x84,0x00,0x80,0x4a,0x00,0x00,0x90,0x48,
0x40,0x00,0x80,0x2e,0x00,0x00,0x90,0x2e,0x40,0x84,0x00,0x80,0x48,0x00,0x00,0x90,
0x4a,0x40,0x00,0x80,0x2e,0x00,0x00,0x90,0x32,0x40,0x84,0x00,0x80,0x4a,0x00,0x00,
0x90,0x4d,0x40,0x00,0x80,0x32,0x00,0x00,0x90,0x33,0x40,0x82,0x00,0x80,0x4d,0x00,
0x00,0x90,0x4b,0x40,0x84,0x00,0x80,0x4b,0x00,0x00,0x90,0x4b,0x40,0x82,0x00,0x80,
0x33,0x00,0x00,0x90,0x32,0x40,0x88,0x00,0x80,0x4b,0x00,0x00,0x80,0x32,0x00,0x00,
0x90,0x48,0x40,0x00,0x90,0x30,0x40,0x84,0x00,0x80,0x30,0x00,0x00,0x90,0x30,0x40,
0x84,0x00,0x80,0x48,0x00,0x00,0x90,0x43,0x40,0x00,0x90,0x48,0x40,0x00,0x90,0x4b,
0x40,0x00,0x80,0x30,0x00,0x00,0x90,0x30,0x40,0x84,0x00,0x80,0x30,0x00,0x00,0x90,
0x33,0x40,0x84,0x00,0x80,0x43,0x00,0x00,0x80,0x48,0x00,0x00,0x80,0x4b,0x00,0x00,
0x90,0x4d,0x40,0x00,0x90,0x44,0x40,0x00,0x90,0x48,0x40,0x00,0x80,0x33,0x00,0x00,
0x90,0x35,0x40,0x82,0x00,0x80,0x35,0x00,0x00,0x90,0x35,0x40,0x82,0x00,0x80,0x35,
0x00,0x82,0x00,0x80,0x4d,0x00,0x00,0x90,0x4b,0x40,0x00,0x90,0x35,0x40,0x84,0x00,
0x80,0x35,0x00,0x00,0x90,0x35,0x40,0x82,0x00,0x80,0x4b,0x00,0x00,0x90,0x4d,0x40,
0x00,0x80,0x35,0x00,0x00,0x90,0x30,0x40,0x84,0x00,0x80,0x4d,0x00,0x00,0x80,0x44,
0x00,0x00,0x80,0x48,0x00,0x00,0x80,0x30,0x00,0x00,0x90,0x4d,0x40,0x00,0x90,0x2e,
0x40,0x84,0x00,0x80,0x4d,0x00,0x00,0x90,0x4d,0x40,0x00,0x80,0x2e,0x00,0x00,0x90,
0x2e,0x40,0x84,0x00,0x80,0x4d,0x00,0x00,0x90,0x52,0x40,0x00,0x80,0x2e,0x00,0x00,
0x90,0x2e,0x40,0x84,0x00,0x80,0x52,0x00,0x00,0x90,0x50,0x40,0x00,0x80,0x2e,0x00,
0x00,0x90,0x32,0x40,0x84,0x00,0x80,0x50,0x00,0x00,0x90,0x4f,0x40,0x00,0x80,0x32,
0x00,0x00,0x90,0x33,0x40,0x82,0x00,0x80,0x4f,0x00,0x00,0x90,0x4d,0x40,0x00,0x80,
0x33,0x00,0x00,0x90,0x33,0x40,0x82,0x00,0x80,0x33,0x00,0x82,0x00,0x80,0x4d,0x00,
0x00,0x90,0x4f,0x40,0x00,0x90,0x33,0x40,0x82,0x00,0x80,0x33,0x00,0x00,0x90,0x33,
0x40,0x84,0x00,0x80,0x33,0x00,0x00,0x90,0x32,0x40,0x84,0x00,0x80,0x4f,0x00,0x00,
0x80,0x32,0x00,0x00,0x90,0x4b,0x40,0x00,0x90,0x4f,0x40,0x00,0x90,0x30,0x40,0x84,
0x00,0x80,0x30,0x00,0x00,0x90,0x30,0x40,0x84,0x00,0x80,0x4b,0x00,0x00,0x80,0x4f,
0x00,0x00,0x90,0x4b,0x40,0x00,0x90,0x4f,0x40,0x00,0x90,0x52,0x40,0x00,0x80,0x30,
0x00,0x00,0x90,0x30,0x40,0x84,0x00,0x80,0x30,0x00,0x00,0x90,0x33,0x40,0x84,0x00,
0x80,0x4b,0x00,0x00,0x80,0x4f,0x00,0x00,0x80,0x52,0x00,0x00,0x90,0x4b,0x40,0x00,
0x90,0x50,0x40,0x00,0x90,0x54,0x40,0x00,0x80,0x33,0x00,0x00,0x90,0x35,0x40,0x82,
0x00,0x80,0x35,0x00,0x00,0x90,0x35,0x40,0x82,0x00,0x80,0x35,0x00,0x82,0x00,0x80,
0x4b,0x00,0x00,0x80,0x50,0x00,0x00,0x80,0x54,0x00,0x00,0x90,0x4d,0x40,0x00,0x90,
0x35,0x40,0x84,0x00,0x80,0x35,0x00,0x00,0x90,0x35,0x40,0x82,0x00,0x80,0x4d,0x00,
0x00,0x90,0x4b,0x40,0x00,0x80,0x35,0x00,0x00,0x90,0x30,0x40,0x84,0x00,0x80,0x4b,
0x00,0x00,0x80,0x30,0x00,0x00,0x90,0x4a,0x40,0x00,0x90,0x4d,0x40,0x00,0x90,0x52,
0x40,0x00,0x90,0x2e,0x40,0x84,0x00,0x80,0x4a,0x00,0x00,0x80,0x4d,0x00,0x00,0x80,
0x52,0x00,0x00,0x90,0x4a,0x40,0x00,0x90,0x4d,0x40,0x00,0x90,0x52,0x40,0x00,0x80,
0x2e,0x00,0x00,0x90,0x2e,0x40,0x84,0x00,0x80,0x4a,0x00,0x00,0x80,0x4d,0x00,0x00,
0x80,0x52,0x00,0x00,0x90,0x4a,0x40,0x00,0x90,0x4d,0x40,0x00,0x90,0x4f,0x40,0x00,
0x80,0x2e,0x00,0x00,0x90,0x2e,0x40,0x84,0x00,0x80,0x4a,0x00,0x00,0x80,0x4d,0x00,
0x00,0x80,0x4f,0x00,0x00,0x90,0x4a,0x40,0x00,0x90,0x4d,0x40,0x00,0x90,0x52,0x40,
0x00,0x80,0x2e,0x00,0x00,0x90,0x2f,0x40,0x84,0x00,0x80,0x4a,0x00,0x00,0x80,0x4d,
0x00,0x00,0x80,0x52,0x00,0x00,0x90,0x4a,0x40,0x00,0x90,0x4d,0x40,0x00,0x90,0x52,
0x40,0x00,0x80,0x2f,0x00,0x00,0x90,0x30,0x40,0x82,0x00,0x80,0x30,0x00,0x00,0x90,
0x30,0x40,0x84,0x00,0x80,0x4a,0x00,0x00,0x80,0x4d,0x00,0x00,0x80,0x52,0x00,0x00,
0x90,0x4b,0x40,0x00,0x90,0x4f,0x40,0x00,0x90,0x54,0x40,0x00,0x80,0x30,0x00,0x00,
0x90,0x30,0x40,0x82,0x00,0x80,0x30,0x00,0x00,0x90,0x2e,0x40,0x88,0x00,0x80,0x4b,
0x00,0x00,0x80,0x4f,0x00,0x00,0x80,0x54,0x00,0x00,0x80,0x2e,0x00,0x00,0x90,0x48,
0x40,0x00,0x90,0x30,0x40,0x84,0x00,0x80,0x30,0x00,0x00,0x90,0x30,0x40,0x84,0x00,
0x80,0x48,0x00,0x00,0x90,0x43,0x40,0x00,0x90,0x48,0x40,0x00,0x90,0x4b,0x40,0x00,
0x80,0x30,0x00,0x00,0x90,0x30,0x40,0x84,0x00,0x80,0x30,0x00,0x00,0x90,0x33,0x40,
0x84,0x00,0x80,0x43,0x00,0x00,0x80,0x48,0x00,0x00,0x80,0x4b,0x00,0x00,0x90,0x4d,
0x40,0x00,0x90,0x44,0x40,0x00,0x90,0x48,0x40,0x00,0x80,0x33,0x00,0x00,0x90,0x35,
0x40,0x82,0x00,0x80,0x35,0x00,0x00,0x90,0x35,0x40,0x82,0x00,0x80,0x35,0x00,0x82,
0x00,0x80,0x4d,0x00,0x00,0x90,0x4b,0x40,0x00,0x90,0x35,0x40,0x84,0x00,0x80,0x35,
0x00,0x00,0x90,0x35,0x40,0x82,0x00,0x80,0x4b,0x00,0x00,0x90,0x4d,0x40,0x00,0x80,
0x35,0x00,0x00,0x90,0x30,0x40,0x84,0x00,0x80,0x4d,0x00,0x00,0x80,0x44,0x00,0x00,
0x80,0x48,0x00,0x00,0x80,0x30,0x00,0x00,0x90,0x4d,0x40,0x00,0x90,0x2e,0x40,0x84,
0x00,0x80,0x4d,0x00,0x00,0x90,0x4d,0x40,0x00,0x80,0x2e,0x00,0x00,0x90,0x2e,0x40,
0x84,0x00,0x80,0x4d,0x00,0x00,0x90,0x52,0x40,0x00,0x80,0x2e,0x00,0x00,0x90,0x2e,
0x40,0x84,0x00,0x80,0x52,0x00,0x00,0x90,0x50,0x40,0x00,0x80,0x2e,0x00,0x00,0x90,
0x32,0x40,0x84,0x00,0x80,0x50,0x00,0x00,0x90,0x4f,0x40,0x00,0x80,0x32,0x00,0x00,
0x90,0x33,0x40,0x82,0x00,0x80,0x4f,0x00,0x00,0x90,0x4d,0x40,0x00,0x80,0x33,0x00,
0x00,0x90,0x33,0x40,0x82,0x00,0x80,0x33,0x00,0x82,0x00,0x80,0x4d,0x00,0x00,0x90,
0x4f,0x40,0x00,0x90,0x33,0x40,0x82,0x00,0x80,0x33,0x00,0x00,0x90,0x33,0x40,0x84,
0x00,0x80,0x33,0x00,0x00,0x90,0x32,0x40,0x84,0x00,0x80,0x4f,0x00,0x00,0x80,0x32,
0x00,0x00,0x90,0x4b,0x40,0x00,0x90,0x4f,0x40,0x00,0x90,0x30,0x40,0x84,0x00,0x80,
0x30,0x00,0x00,0x90,0x30,0x40,0x84,0x00,0x80,0x4b,0x00,0x00,0x80,0x4f,0x00,0x00,
0x90,0x4b,0x40,0x00,0x90,0x4f,0x40,0x00,0x90,0x52,0x40,0x00,0x80,0x30,0x00,0x00,
0x90,0x30,0x40,0x84,0x00,0x80,0x30,0x00,0x00,0x90,0x33,0x40,0x84,0x00,0x80,0x4b,
0x00,0x00,0x80,0x4f,0x00,0x00,0x80,0x52,0x00,0x00,0x90,0x4b,0x40,0x00,0x90,0x50,
0x40,0x00,0x90,0x54,0x40,0x00,0x80,0x33,0x00,0x00,0x90,0x35,0x40,0x82,0x00,0x80,
0x35,0x00,0x00,0x90,0x35,0x40,0x82,0x00,0x80,0x35,0x00,0x82,0x00,0x80,0x4b,0x00,
0x00,0x80,0x50,0x00,0x00,0x80,0x54,0x00,0x00,0x90,0x4d,0x40,0x00,0x90,0x35,0x40,
0x84,0x00,0x80,0x35,0x00,0x00,0x90,0x35,0x40,0x82,0x00,0x80,0x4d,0x00,0x00,0x90,
0x4b,0x40,0x00,0x80,0x35,0x00,0x00,0x90,0x30,0x40,0x84,0x00,0x80,0x4b,0x00,0x00,
0x80,0x30,0x00,0x00,0x90,0x4a,0x40,0x00,0x90,0x4d,0x40,0x00,0x90,0x52,0x40,0x00,
0x90,0x2e,0x40,0x84,0x00,0x80,0x4a,0x00,0x00,0x80,0x4d,0x00,0x00,0x80,0x52,0x00,
0x00,0x90,0x4a,0x40,0x00,0x90,0x4d,0x40,0x00,0x90,0x52,0x40,0x00,0x80,0x2e,0x00,
0x00,0x90,0x2e,0x40,0x84,0x00,0x80,0x4a,0x00,0x00,0x80,0x4d,0x00,0x00,0x80,0x52,
0x00,0x00,0x90,0x4a,0x40,0x00,0x90,0x4d,0x40,0x00,0x90,0x4f,0x40,0x00,0x80,0x2e,
0x00,0x00,0x90,0x2b,0x40,0x84,0x00,0x80,0x4a,0x00,0x00,0x80,0x4d,0x00,0x00,0x80,
0x4f,0x00,0x00,0x90,0x4a,0x40,0x00,0x90,0x4d,0x40,0x00,0x90,0x52,0x40,0x00,0x80,
0x2b,0x00,0x00,0x90,0x2e,0x40,0x84,0x00,0x80,0x4a,0x00,0x00,0x80,0x4d,0x00,0x00,
0x80,0x52,0x00,0x00,0x90,0x4a,0x40,0x00,0x90,0x4d,0x40,0x00,0x90,0x52,0x40,0x00,
0x80,0x2e,0x00,0x00,0x90,0x2e,0x40,0x86,0x00,0x80,0x4a,0x00,0x00,0x80,0x4d,0x00,
0x00,0x80,0x52,0x00,0x00,0x90,0x4b,0x40,0x00,0x90,0x4f,0x40,0x00,0x90,0x54,0x40,
0x00,0x80,0x2e,0x00,0x00,0x90,0x30,0x40,0x8a,0x00,0x80,0x4b,0x00,0x00,0x80,0x4f,
0x00,0x00,0x80,0x54,0x00,0x00,0x80,0x30,0x00,0x00,0x90,0x2b,0x40,0x82,0x00,0x80,
0x2b,0x00,0x00,0x90,0x2e,0x40,0x82,0x00,0x80,0x2e,0x00,0x00,0x90,0x30,0x40,0x82,
0x00,0x80,0x30,0x00,0x00,0x90,0x2b,0x40,0x82,0x00,0x80,0x2b,0x00,0x00,0x90,0x29,
0x40,0x00,0x90,0x24,0x40,0x82,0x00,0x80,0x29,0x00,0x00,0x90,0x2b,0x40,0x82,0x00,
0x80,0x2b,0x00,0x00,0x90,0x2e,0x40,0x82,0x00,0x80,0x2e,0x00,0x00,0x90,0x30,0x40,
0x82,0x00,0x80,0x30,0x00,0x00,0x90,0x2b,0x40,0x00,0x80,0x24,0x00,0x82,0x00,0x80,
0x2b,0x00,0x00,0x90,0x2e,0x40,0x82,0x00,0x80,0x2e,0x00,0x00,0x90,0x30,0x40,0x82,
0x00,0x80,0x30,0x00,0x00,0x90,0x2b,0x40,0x82,0x00,0x80,0x2b,0x00,0x00,0x90,0x29,
0x40,0x00,0x90,0x24,0x40,0x82,0x00,0x80,0x29,0x00,0x00,0x90,0x2b,0x40,0x82,0x00,
0x80,0x2b,0x00,0x00,0x90,0x2e,0x40,0x82,0x00,0x80,0x2e,0x00,0x00,0x90,0x30,0x40,
0x82,0x00,0x80,0x30,0x00,0x00,0x80,0x24,0x00,0x00,0x90,0x2b,0x40,0x82,0x00,0x80,
0x2b,0x00,0x00,0x90,0x2e,0x40,0x82,0x00,0x80,0x2e,0x00,0x00,0x90,0x30,0x40,0x82,
0x00,0x80,0x30,0x00,0x00,0x90,0x2b,0x40,0x82,0x00,0x80,0x2b,0x00,0x00,0x90,0x29,
0x40,0x00,0x90,0x24,0x40,0x82,0x00,0x80,0x29,0x00,0x00,0x90,0x2b,0x40,0x82,0x00,
0x80,0x2b,0x00,0x00,0x90,0x2e,0x40,0x82,0x00,0x80,0x2e,0x00,0x00,0x90,0x30,0x40,
0x82,0x00,0x80,0x30,0x00,0x00,0x90,0x2b,0x40,0x00,0x80,0x24,0x00,0x82,0x00,0x80,
0x2b,0x00,0x00,0x90,0x2e,0x40,0x82,0x00,0x80,0x2e,0x00,0x00,0x90,0x30,0x40,0x82,
0x00,0x80,0x30,0x00,0x00,0x90,0x2b,0x40,0x82,0x00,0x80,0x2b,0x00,0x00,0x90,0x29,
0x40,0x00,0x90,0x24,0x40,0x82,0x00,0x80,0x29,0x00,0x00,0x90,0x2b,0x40,0x82,0x00,
0x80,0x2b,0x00,0x00,0x90,0x2e,0x40,0x82,0x00,0x80,0x2e,0x00,0x00,0x90,0x30,0x40,
0x82,0x00,0x80,0x30,0x00,0x00,0x80,0x24,0x00,0x00,0x90,0x27,0x40,0x82,0x00,0x80,
0x27,0x00,0x00,0x90,0x2a,0x40,0x82,0x00,0x80,0x2a,0x00,0x00,0x90,0x2c,0x40,0x82,
0x00,0x80,0x2c,0x00,0x00,0x90,0x27,0x40,0x82,0x00,0x80,0x27,0x00,0x00,0x90,0x25,
0x40,0x00,0x90,0x20,0x40,0x82,0x00,0x80,0x25,0x00,0x00,0x90,0x27,0x40,0x82,0x00,
0x80,0x27,0x00,0x00,0x90,0x2a,0x40,0x82,0x00,0x80,0x2a,0x00,0x00,0x90,0x2c,0x40,
0x82,0x00,0x80,0x2c,0x00,0x00,0x90,0x27,0x40,0x00,0x80,0x20,0x00,0x82,0x00,0x80,
0x27,0x00,0x00,0x90,0x2a,0x40,0x82,0x00,0x80,0x2a,0x00,0x00,0x90,0x2c,0x40,0x82,
0x00,0x80,0x2c,0x00,0x00,0x90,0x27,0x40,0x82,0x00,0x80,0x27,0x00,0x00,0x90,0x25,
0x40,0x00,0x90,0x20,0x40,0x82,0x00,0x80,0x25,0x00,0x00,0x90,0x27,0x40,0x82,0x00,
0x80,0x27,0x00,0x00,0x90,0x2a,0x40,0x82,0x00,0x80,0x2a,0x00,0x00,0x90,0x2c,0x40,
0x82,0x00,0x80,0x2c,0x00,0x00,0x80,0x20,0x00,0x00,0x90,0x29,0x40,0x82,0x00,0x80,
0x29,0x00,0x00,0x90,0x2c,0x40,0x82,0x00,0x80,0x2c,0x00,0x00,0x90,0x2e,0x40,0x82,
0x00,0x80,0x2e,0x00,0x00,0x90,0x29,0x40,0x82,0x00,0x80,0x29,0x00,0x00,0x90,0x27,
0x40,0x00,0x90,0x22,0x40,0x82,0x00,0x80,0x27,0x00,0x00,0x90,0x29,0x40,0x82,0x00,
0x80,0x29,0x00,0x00,0x90,0x2c,0x40,0x82,0x00,0x80,0x2c,0x00,0x00,0x90,0x2e,0x40,
0x82,0x00,0x80,0x2e,0x00,0x00,0x90,0x29,0x40,0x00,0x80,0x22,0x00,0x82,0x00,0x80,
0x29,0x00,0x00,0x90,0x2c,0x40,0x82,0x00,0x80,0x2c,0x00,0x00,0x90,0x2e,0x40,0x82,
0x00,0x80,0x2e,0x00,0x00,0x90,0x29,0x40,0x82,0x00,0x80,0x29,0x00,0x00,0x90,0x27,
0x40,0x00,0x90,0x22,0x40,0x82,0x00,0x80,0x27,0x00,0x00,0x90,0x29,0x40,0x82,0x00,
0x80,0x29,0x00,0x00,0x90,0x2c,0x40,0x82,0x00,0x80,0x2c,0x00,0x00,0x90,0x2e,0x40,
0x82,0x00,0x80,0x2e,0x00,0x00,0x80,0x22,0x00,0x00,0x90,0x2b,0x40,0x82,0x00,0x80,
0x2b,0x00,0x00,0x90,0x2e,0x40,0x82,0x00,0x80,0x2e,0x00,0x00,0x90,0x30,0x40,0x82,
0x00,0x80,0x30,0x00,0x00,0x90,0x2b,0x40,0x82,0x00,0x80,0x2b,0x00,0x00,0x90,0x29,
0x40,0x00,0x90,0x24,0x40,0x82,0x00,0x80,0x29,0x00,0x00,0x90,0x2b,0x40,0x82,0x00,
0x80,0x2b,0x00,0x00,0x90,0x2e,0x40,0x82,0x00,0x80,0x2e,0x00,0x00,0x90,0x30,0x40,
0x82,0x00,0x80,0x30,0x00,0x00,0x90,0x2b,0x40,0x00,0x80,0x24,0x00,0x82,0x00,0x80,
0x2b,0x00,0x00,0x90,0x2e,0x40,0x82,0x00,0x80,0x2e,0x00,0x00,0x90,0x30,0x40,0x82,
0x00,0x80,0x30,0x00,0x00,0x90,0x2b,0x40,0x82,0x00,0x80,0x2b,0x00,0x00,0x90,0x29,
0x40,0x00,0x90,0x24,0x40,0x82,0x00,0x80,0x29,0x00,0x00,0x90,0x2b,0x40,0x82,0x00,
0x80,0x2b,0x00,0x00,0x90,0x2e,0x40,0x82,0x00,0x80,0x2e,0x00,0x00,0x90,0x30,0x40,
0x82,0x00,0x80,0x30,0x00,0x00,0x80,0x24,0x00,0x00,0x90,0x2b,0x40,0x82,0x00,0x80,
0x2b,0x00,0x00,0x90,0x2e,0x40,0x82,0x00,0x80,0x2e,0x00,0x00,0x90,0x30,0x40,0x82,
0x00,0x80,0x30,0x00,0x00,0x90,0x2b,0x40,0x82,0x00,0x80,0x2b,0x00,0x00,0x90,0x29,
0x40,0x00,0x90,0x24,0x40,0x82,0x00,0x80,0x29,0x00,0x00,0x90,0x2b,0x40,0x82,0x00,
0x80,0x2b,0x00,0x00,0x90,0x2e,0x40,0x82,0x00,0x80,0x2e,0x00,0x00,0x90,0x30,0x40,
0x82,0x00,0x80,0x30,0x00,0x00,0x90,0x2b,0x40,0x00,0x80,0x24,0x00,0x82,0x00,0x80,
0x2b,0x00,0x00,0x90,0x2e,0x40,0x82,0x00,0x80,0x2e,0x00,0x00,0x90,0x30,0x40,0x82,
0x00,0x80,0x30,0x00,0x00,0x90,0x2b,0x40,0x82,0x00,0x80,0x2b,0x00,0x00,0x90,0x29,
0x40,0x00,0x90,0x24,0x40,0x82,0x00,0x80,0x29,0x00,0x00,0x90,0x2b,0x40,0x82,0x00,
0x80,0x2b,0x00,0x00,0x90,0x2e,0x40,0x82,0x00,0x80,0x2e,0x00,0x00,0x90,0x30,0x40,
0x82,0x00,0x80,0x30,0x00,0x00,0x80,0x24,0x00,0x00,0x90,0x27,0x40,0x82,0x00,0x80,
0x27,0x00,0x00,0x90,0x2a,0x40,0x82,0x00,0x80,0x2a,0x00,0x00,0x90,0x2c,0x40,0x82,
0x00,0x80,0x2c,0x00,0x00,0x90,0x27,0x40,0x82,0x00,0x80,0x27,0x00,0x00,0x90,0x25,
0x40,0x00,0x90,0x20,0x40,0x82,0x00,0x80,0x25,0x00,0x00,0x90,0x27,0x40,0x82,0x00,
0x80,0x27,0x00,0x00,0x90,0x2a,0x40,0x82,0x00,0x80,0x2a,0x00,0x00,0x90,0x2c,0x40,
0x82,0x00,0x80,0x2c,0x00,0x00,0x90,0x27,0x40,0x00,0x80,0x20,0x00,0x82,0x00,0x80,
0x27,0x00,0x00,0x90,0x2a,0x40,0x82,0x00,0x80,0x2a,0x00,0x00,0x90,0x2c,0x40,0x82,
0x00,0x80,0x2c,0x00,0x00,0x90,0x27,0x40,0x82,0x00,0x80,0x27,0x00,0x00,0x90,0x25,
0x40,0x00,0x90,0x20,0x40,0x82,0x00,0x80,0x25,0x00,0x00,0x90,0x27,0x40,0x82,0x00,
0x80,0x27,0x00,0x00,0x90,0x2a,0x40,0x82,0x00,0x80,0x2a,0x00,0x00,0x90,0x2c,0x40,
0x82,0x00,0x80,0x2c,0x00,0x00,0x80,0x20,0x00,0x00,0x90,0x29,0x40,0x82,0x00,0x80,
0x29,0x00,0x00,0x90,0x2c,0x40,0x82,0x00,0x80,0x2c,0x00,0x00,0x90,0x2e,0x40,0x82,
0x00,0x80,0x2e,0x00,0x00,0x90,0x29,0x40,0x82,0x00,0x80,0x29,0x00,0x00,0x90,0x27,
0x40,0x00,0x90,0x22,0x40,0x82,0x00,0x80,0x27,0x00,0x00,0x90,0x29,0x40,0x82,0x00,
0x80,0x29,0x00,0x00,0x90,0x2c,0x40,0x82,0x00,0x80,0x2c,0x00,0x00,0x90,0x2e,0x40,
0x82,0x00,0x80,0x2e,0x00,0x00,0x90,0x29,0x40,0x00,0x80,0x22,0x00,0x82,0x00,0x80,
0x29,0x00,0x00,0x90,0x2c,0x40,0x82,0x00,0x80,0x2c,0x00,0x00,0x90,0x2e,0x40,0x82,
0x00,0x80,0x2e,0x00,0x00,0x90,0x29,0x40,0x82,0x00,0x80,0x29,0x00,0x00,0x90,0x27,
0x40,0x00,0x90,0x22,0x40,0x82,0x00,0x80,0x27,0x00,0x00,0x90,0x29,0x40,0x82,0x00,
0x80,0x29,0x00,0x00,0x90,0x2c,0x40,0x82,0x00,0x80,0x2c,0x00,0x00,0x90,0x2e,0x40,
0x82,0x00,0x80,0x2e,0x00,0x00,0x80,0x22,0x00,0x00,0x90,0x3f,0x40,0x00,0x90,0x43,
0x40,0x00,0x90,0x44,0x40,0x00,0x90,0x48,0x40,0x00,0x90,0x29,0x40,0x84,0x00,0x80,
0x3f,0x00,0x00,0x80,0x43,0x00,0x00,0x80,0x44,0x00,0x00,0x80,0x48,0x00,0x00,0x90,
0x3f,0x40,0x00,0x90,0x43,0x40,0x00,0x90,0x44,0x40,0x00,0x90,0x48,0x40,0x00,0x80,
0x29,0x00,0x00,0x90,0x29,0x40,0x84,0x00,0x80,0x29,0x00,0x00,0x90,0x29,0x40,0x82,
0x00,0x80,0x3f,0x00,0x00,0x80,0x43,0x00,0x00,0x80,0x44,0x00,0x00,0x80,0x48,0x00,
0x00,0x90,0x3f,0x40,0x00,0x90,0x43,0x40,0x00,0x90,0x44,0x40,0x00,0x90,0x48,0x40,
0x82,0x00,0x80,0x29,0x00,0x00,0x90,0x29,0x40,0x84,0x00,0x80,0x3f,0x00,0x00,0x80,
0x43,0x00,0x00,0x80,0x44,0x00,0x00,0x80,0x48,0x00,0x00,0x90,0x3c,0x40,0x00,0x90,
0x43,0x40,0x82,0x00,0x80,0x29,0x00,0x00,0x90,0x29,0x40,0x84,0x00,0x80,0x29,0x00,
0x00,0x90,0x29,0x40,0x82,0x00,0x80,0x3c,0x00,0x00,0x80,0x43,0x00,0x00,0x90,0x3c,
0x40,0x00,0x90,0x41,0x40,0x00,0x80,0x29,0x00,0x00,0x90,0x29,0x40,0x84,0x00,0x80,
0x29,0x00,0x00,0x90,0x2a,0x40,0x84,0x00,0x80,0x3c,0x00,0x00,0x80,0x41,0x00,0x00,
0x80,0x2a,0x00,0x00,0x90,0x41,0x40,0x00,0x90,0x48,0x40,0x00,0x90,0x2b,0x40,0x84,
0x00,0x80,0x2b,0x00,0x00,0x90,0x2b,0x40,0x84,0x00,0x80,0x2b,0x00,0x00,0x90,0x2b,
0x40,0x84,0x00,0x80,0x2b,0x00,0x00,0x90,0x2b,0x40,0x82,0x00,0x80,0x2b,0x00,0x00,
0x90,0x2b,0x40,0x82,0x00,0x80,0x41,0x00,0x00,0x80,0x48,0x00,0x00,0x90,0x37,0x40,
0x00,0x90,0x3c,0x40,0x82,0x00,0x80,0x2b,0x00,0x00,0x90,0x2b,0x40,0x84,0x00,0x80,
0x2b,0x00,0x00,0x90,0x2b,0x40,0x82,0x00,0x80,0x37,0x00,0x00,0x80,0x3c,0x00,0x00,
0x90,0x37,0x40,0x00,0x90,0x3c,0x40,0x00,0x80,0x2b,0x00,0x00,0x90,0x2b,0x40,0x84,
0x00,0x80,0x2b,0x00,0x00,0x90,0x2b,0x40,0x84,0x00,0x80,0x37,0x00,0x00,0x80,0x3c,
0x00,0x00,0x80,0x2b,0x00,0x00,0x90,0x3c,0x40,0x00,0x90,0x43,0x40,0x00,0x90,0x2c,
0x40,0x84,0x00,0x80,0x2c,0x00,0x00,0x90,0x2c,0x40,0x84,0x00,0x80,0x2c,0x00,0x00,
0x90,0x2c,0x40,0x84,0x00,0x80,0x2c,0x00,0x00,0x90,0x2c,0x40,0x82,0x00,0x80,0x2c,
0x00,0x00,0x90,0x2c,0x40,0x82,0x00,0x80,0x3c,0x00,0x00,0x80,0x43,0x00,0x00,0x90,
0x3c,0x40,0x00,0x90,0x43,0x40,0x82,0x00,0x80,0x2c,0x00,0x00,0x90,0x2c,0x40,0x84,
0x00,0x80,0x2c,0x00,0x00,0x90,0x2c,0x40,0x82,0x00,0x80,0x3c,0x00,0x00,0x80,0x43,
0x00,0x00,0x90,0x3c,0x40,0x00,0x90,0x41,0x40,0x00,0x80,0x2c,0x00,0x00,0x90,0x2c,
0x40,0x84,0x00,0x80,0x2c,0x00,0x00,0x90,0x2c,0x40,0x84,0x00,0x80,0x3c,0x00,0x00,
0x80,0x41,0x00,0x00,0x80,0x2c,0x00,0x00,0x90,0x41,0x40,0x00,0x90,0x48,0x40,0x00,
0x90,0x2b,0x40,0x84,0x00,0x80,0x2b,0x00,0x00,0x90,0x2b,0x40,0x84,0x00,0x80,0x2b,
0x00,0x00,0x90,0x2b,0x40,0x84,0x00,0x80,0x41,0x00,0x00,0x80,0x48,0x00,0x00,0x90,
0x46,0x40,0x00,0x80,0x2b,0x00,0x00,0x90,0x2b,0x40,0x82,0x00,0x80,0x2b,0x00,0x00,
0x90,0x2b,0x40,0x82,0x00,0x90,0x3e,0x40,0x82,0x00,0x80,0x2b,0x00,0x00,0x90,0x2b,
0x40,0x84,0x00,0x80,0x2b,0x00,0x00,0x90,0x2b,0x40,0x82,0x00,0x80,0x3e,0x00,0x00,
0x90,0x3e,0x40,0x00,0x80,0x2b,0x00,0x00,0x90,0x2b,0x40,0x84,0x00,0x80,0x2b,0x00,
0x00,0x90,0x2b,0x40,0x84,0x00,0x80,0x46,0x00,0x00,0x80,0x3e,0x00,0x00,0x80,0x2b,
0x00,0x00,0x90,0x3c,0x40,0x00,0x90,0x43,0x40,0x00,0x90,0x29,0x40,0x84,0x00,0x80,
0x29,0x00,0x00,0x90,0x29,0x40,0x84,0x00,0x80,0x29,0x00,0x00,0x90,0x29,0x40,0x84,
0x00,0x80,0x3c,0x00,0x00,0x80,0x43,0x00,0x00,0x90,0x3c,0x40,0x00,0x80,0x29,0x00,
0x00,0x90,0x29,0x40,0x82,0x00,0x80,0x29,0x00,0x00,0x90,0x29,0x40,0x82,0x00,0x80,
0x3c,0x00,0x00,0x90,0x43,0x40,0x82,0x00,0x80,0x29,0x00,0x00,0x90,0x29,0x40,0x84,
0x00,0x80,0x29,0x00,0x00,0x90,0x29,0x40,0x82,0x00,0x80,0x43,0x00,0x00,0x90,0x41,
0x40,0x00,0x80,0x29,0x00,0x00,0x90,0x29,0x40,0x84,0x00,0x80,0x29,0x00,0x00,0x90,
0x29,0x40,0x84,0x00,0x80,0x41,0x00,0x00,0x80,0x29,0x00,0x00,0x90,0x41,0x40,0x00,
0x90,0x48,0x40,0x00,0x90,0x2b,0x40,0x84,0x00,0x80,0x2b,0x00,0x00,0x90,0x2b,0x40,
0x84,0x00,0x80,0x2b,0x00,0x00,0x90,0x2b,0x40,0x84,0x00,0x80,0x2b,0x00,0x00,0x90,
0x2b,0x40,0x82,0x00,0x80,0x2b,0x00,0x00,0x90,0x2b,0x40,0x82,0x00,0x80,0x41,0x00,
0x00,0x80,0x48,0x00,0x82,0x00,0x80,0x2b,0x00,0x00,0x90,0x2b,0x40,0x84,0x00,0x80,
0x2b,0x00,0x00,0x90,0x2b,0x40,0x82,0x00,0x90,0x3e,0x40,0x00,0x90,0x46,0x40,0x00,
0x80,0x2b,0x00,0x00,0x90,0x2b,0x40,0x84,0x00,0x80,0x2b,0x00,0x00,0x90,0x2b,0x40,
0x84,0x00,0x80,0x3e,0x00,0x00,0x80,0x46,0x00,0x00,0x80,0x2b,0x00,0x00,0x90,0x3f,
0x40,0x00,0x90,0x46,0x40,0x00,0x90,0x4a,0x40,0x00,0x90,0x2c,0x40,0x84,0x00,0x80,
0x2c,0x00,0x00,0x90,0x2c,0x40,0x84,0x00,0x80,0x2c,0x00,0x00,0x90,0x2c,0x40,0x84,
0x00,0x80,0x2c,0x00,0x00,0x90,0x2c,0x40,0x82,0x00,0x80,0x2c,0x00,0x00,0x90,0x2c,
0x40,0x84,0x00,0x80,0x2c,0x00,0x00,0x90,0x2c,0x40,0x84,0x00,0x80,0x2c,0x00,0x00,
0x90,0x2c,0x40,0x82,0x00,0x80,0x2c,0x00,0x00,0x90,0x2c,0x40,0x84,0x00,0x80,0x2c,
0x00,0x00,0x90,0x2c,0x40,0x84,0x00,0x80,0x2c,0x00,0x00,0x90,0x2e,0x40,0x84,0x00,
0x80,0x2e,0x00,0x00,0x90,0x2e,0x40,0x84,0x00,0x80,0x2e,0x00,0x00,0x90,0x2e,0x40,
0x84,0x00,0x80,0x2e,0x00,0x00,0x90,0x2e,0x40,0x84,0x00,0x80,0x2e,0x00,0x00,0x90,
0x2e,0x40,0x88,0x00,0x80,0x3f,0x00,0x00,0x80,0x46,0x00,0x00,0x80,0x4a,0x00,0x00,
0x80,0x2e,0x00,0x00,0x90,0x2f,0x40,0x88,0x00,0x80,0x2f,0x00,0x00,0x90,0x3c,0x40,
0x00,0x90,0x30,0x40,0x84,0x00,0x80,0x30,0x00,0x00,0x90,0x30,0x40,0x84,0x00,0x80,
0x3c,0x00,0x00,0x90,0x3f,0x40,0x00,0x80,0x30,0x00,0x00,0x90,0x30,0x40,0x84,0x00,
0x80,0x30,0x00,0x00,0x90,0x33,0x40,0x84,0x00,0x80,0x3f,0x00,0x00,0x90,0x38,0x40,
0x00,0x90,0x3c,0x40,0x00,0x90,0x41,0x40,0x00,0x80,0x33,0x00,0x00,0x90,0x35,0x40,
0x82,0x00,0x80,0x35,0x00,0x00,0x90,0x35,0x40,0x82,0x00,0x80,0x35,0x00,0x82,0x00,
0x80,0x38,0x00,0x00,0x80,0x3c,0x00,0x00,0x80,0x41,0x00,0x00,0x90,0x3f,0x40,0x00,
0x90,0x35,0x40,0x84,0x00,0x80,0x35,0x00,0x00,0x90,0x35,0x40,0x82,0x00,0x80,0x3f,
0x00,0x00,0x90,0x41,0x40,0x00,0x80,0x35,0x00,0x00,0x90,0x30,0x40,0x84,0x00,0x80,
0x41,0x00,0x00,0x80,0x30,0x00,0x00,0x90,0x3a,0x40,0x00,0x90,0x3e,0x40,0x00,0x90,
0x41,0x40,0x00,0x90,0x2e,0x40,0x84,0x00,0x80,0x3a,0x00,0x00,0x80,0x3e,0x00,0x00,
0x80,0x41,0x00,0x00,0x90,0x41,0x40,0x00,0x80,0x2e,0x00,0x00,0x90,0x2e,0x40,0x84,
0x00,0x80,0x41,0x00,0x00,0x90,0x46,0x40,0x00,0x80,0x2e,0x00,0x00,0x90,0x2e,0x40,
0x84,0x00,0x80,0x46,0x00,0x00,0x90,0x44,0x40,0x00,0x80,0x2e,0x00,0x00,0x90,0x32,
0x40,0x84,0x00,0x80,0x44,0x00,0x00,0x90,0x43,0x40,0x00,0x80,0x32,0x00,0x00,0x90,
0x33,0x40,0x82,0x00,0x80,0x43,0x00,0x00,0x90,0x41,0x40,0x00,0x80,0x33,0x00,0x00,
0x90,0x33,0x40,0x82,0x00,0x80,0x33,0x00,0x82,0x00,0x80,0x41,0x00,0x00,0x90,0x43,
0x40,0x00,0x90,0x33,0x40,0x82,0x00,0x80,0x33,0x00,0x00,0x90,0x33,0x40,0x84,0x00,
0x80,0x33,0x00,0x00,0x90,0x32,0x40,0x84,0x00,0x80,0x43,0x00,0x00,0x80,0x32,0x00,
0x00,0x90,0x3f,0x40,0x00,0x90,0x43,0x40,0x00,0x90,0x30,0x40,0x84,0x00,0x80,0x30,
0x00,0x00,0x90,0x30,0x40,0x84,0x00,0x80,0x3f,0x00,0x00,0x80,0x43,0x00,0x00,0x90,
0x46,0x40,0x00,0x80,0x30,0x00,0x00,0x90,0x30,0x40,0x84,0x00,0x80,0x30,0x00,0x00,
0x90,0x33,0x40,0x84,0x00,0x80,0x46,0x00,0x00,0x90,0x41,0x40,0x00,0x90,0x44,0x40,
0x00,0x90,0x48,0x40,0x00,0x80,0x33,0x00,0x00,0x90,0x35,0x40,0x82,0x00,0x80,0x35,
0x00,0x00,0x90,0x35,0x40,0x82,0x00,0x80,0x35,0x00,0x82,0x00,0x80,0x41,0x00,0x00,
0x80,0x44,0x00,0x00,0x80,0x48,0x00,0x00,0x90,0x41,0x40,0x00,0x90,0x35,0x40,0x84,
0x00,0x80,0x35,0x00,0x00,0x90,0x35,0x40,0x82,0x00,0x80,0x41,0x00,0x00,0x90,0x3f,
0x40,0x00,0x80,0x35,0x00,0x00,0x90,0x30,0x40,0x84,0x00,0x80,0x3f,0x00,0x00,0x80,
0x30,0x00,0x00,0x90,0x3e,0x40,0x00,0x90,0x41,0x40,0x00,0x90,0x46,0x40,0x00,0x90,
0x2e,0x40,0x84,0x00,0x80,0x3e,0x00,0x00,0x80,0x41,0x00,0x00,0x80,0x46,0x00,0x00,
0x90,0x3e,0x40,0x00,0x90,0x41,0x40,0x00,0x90,0x46,0x40,0x00,0x80,0x2e,0x00,0x00,
0x90,0x2e,0x40,0x84,0x00,0x80,0x3e,0x00,0x00,0x80,0x41,0x00,0x00,0x80,0x46,0x00,
0x00,0x90,0x3e,0x40,0x00,0x90,0x41,0x40,0x00,0x90,0x43,0x40,0x00,0x80,0x2e,0x00,
0x00,0x90,0x2e,0x40,0x84,0x00,0x80,0x3e,0x00,0x00,0x80,0x41,0x00,0x00,0x80,0x43,
0x00,0x00,0x90,0x3e,0x40,0x00,0x90,0x41,0x40,0x00,0x90,0x46,0x40,0x00,0x80,0x2e,
0x00,0x00,0x90,0x2f,0x40,0x84,0x00,0x80,0x3e,0x00,0x00,0x80,0x41,0x00,0x00,0x80,
0x46,0x00,0x00,0x90,0x43,0x40,0x00,0x90,0x46,0x40,0x00,0x80,0x2f,0x00,0x00,0x90,
0x30,0x40,0x82,0x00,0x80,0x30,0x00,0x00,0x90,0x30,0x40,0x84,0x00,0x80,0x43,0x00,
0x00,0x80,0x46,0x00,0x00,0x90,0x43,0x40,0x00,0x90,0x48,0x40,0x00,0x80,0x30,0x00,
0x00,0x90,0x30,0x40,0x82,0x00,0x80,0x30,0x00,0x00,0x90,0x2e,0x40,0x88,0x00,0x80,
0x43,0x00,0x00,0x80,0x48,0x00,0x00,0x80,0x2e,0x00,0x00,0x90,0x3c,0x40,0x00,0x90,
0x30,0x40,0x84,0x00,0x80,0x30,0x00,0x00,0x90,0x30,0x40,0x84,0x00,0x80,0x3c,0x00,
0x00,0x90,0x3f,0x40,0x00,0x80,0x30,0x00,0x00,0x90,0x30,0x40,0x84,0x00,0x80,0x30,
0x00,0x00,0x90,0x33,0x40,0x84,0x00,0x80,0x3f,0x00,0x00,0x90,0x38,0x40,0x00,0x90,
0x3c,0x40,0x00,0x90,0x41,0x40,0x00,0x80,0x33,0x00,0x00,0x90,0x35,0x40,0x82,0x00,
0x80,0x35,0x00,0x00,0x90,0x35,0x40,0x82,0x00,0x80,0x35,0x00,0x82,0x00,0x80,0x38,
0x00,0x00,0x80,0x3c,0x00,0x00,0x80,0x41,0x00,0x00,0x90,0x3f,0x40,0x00,0x90,0x35,
0x40,0x84,0x00,0x80,0x35,0x00,0x00,0x90,0x35,0x40,0x82,0x00,0x80,0x3f,0x00,0x00,
0x90,0x41,0x40,0x00,0x80,0x35,0x00,0x00,0x90,0x30,0x40,0x84,0x00,0x80,0x41,0x00,
0x00,0x80,0x30,0x00,0x00,0x90,0x3a,0x40,0x00,0x90,0x3e,0x40,0x00,0x90,0x41,0x40,
0x00,0x90,0x2e,0x40,0x84,0x00,0x80,0x3a,0x00,0x00,0x80,0x3e,0x00,0x00,0x80,0x41,
0x00,0x00,0x90,0x41,0x40,0x00,0x80,0x2e,0x00,0x00,0x90,0x2e,0x40,0x84,0x00,0x80,
0x41,0x00,0x00,0x90,0x46,0x40,0x00,0x80,0x2e,0x00,0x00,0x90,0x2e,0x40,0x84,0x00,
0x80,0x46,0x00,0x00,0x90,0x44,0x40,0x00,0x80,0x2e,0x00,0x00,0x90,0x32,0x40,0x84,
0x00,0x80,0x44,0x00,0x00,0x90,0x43,0x40,0x00,0x80,0x32,0x00,0x00,0x90,0x33,0x40,
0x82,0x00,0x80,0x43,0x00,0x00,0x90,0x41,0x40,0x00,0x80,0x33,0x00,0x00,0x90,0x33,
0x40,0x82,0x00,0x80,0x33,0x00,0x82,0x00,0x80,0x41,0x00,0x00,0x90,0x43,0x40,0x00,
0x90,0x33,0x40,0x82,0x00,0x80,0x33,0x00,0x00,0x90,0x33,0x40,0x84,0x00,0x80,0x33,
0x00,0x00,0x90,0x32,0x40,0x84,0x00,0x80,0x43,0x00,0x00,0x80,0x32,0x00,0x00,0x90,
0x3f,0x40,0x00,0x90,0x43,0x40,0x00,0x90,0x30,0x40,0x84,0x00,0x80,0x30,0x00,0x00,
0x90,0x30,0x40,0x84,0x00,0x80,0x3f,0x00,0x00,0x80,0x43,0x00,0x00,0x90,0x46,0x40,
0x00,0x80,0x30,0x00,0x00,0x90,0x30,0x40,0x84,0x00,0x80,0x30,0x00,0x00,0x90,0x33,
0x40,0x84,0x00,0x80,0x46,0x00,0x00,0x90,0x41,0x40,0x00,0x90,0x44,0x40,0x00,0x90,
0x48,0x40,0x00,0x80,0x33,0x00,0x00,0x90,0x35,0x40,0x82,0x00,0x80,0x35,0x00,0x00,
0x90,0x35,0x40,0x82,0x00,0x80,0x35,0x00,0x82,0x00,0x80,0x41,0x00,0x00,0x80,0x44,
0x00,0x00,0x80,0x48,0x00,0x00,0x90,0x41,0x40,0x00,0x90,0x35,0x40,0x84,0x00,0x80,
0x35,0x00,0x00,0x90,0x35,0x40,0x82,0x00,0x80,0x41,0x00,0x00,0x90,0x3f,0x40,0x00,
0x80,0x35,0x00,0x00,0x90,0x30,0x40,0x84,0x00,0x80,0x3f,0x00,0x00,0x80,0x30,0x00,
0x00,0x90,0x3e,0x40,0x00,0x90,0x41,0x40,0x00,0x90,0x46,0x40,0x00,0x90,0x2e,0x40,
0x84,0x00,0x80,0x3e,0x00,0x00,0x80,0x41,0x00,0x00,0x80,0x46,0x00,0x00,0x90,0x3e,
0x40,0x00,0x90,0x41,0x40,0x00,0x90,0x46,0x40,0x00,0x80,0x2e,0x00,0x00,0x90,0x2e,
0x40,0x84,0x00,0x80,0x3e,0x00,0x00,0x80,0x41,0x00,0x00,0x80,0x46,0x00,0x00,0x90,
0x3e,0x40,0x00,0x90,0x41,0x40,0x00,0x90,0x43,0x40,0x00,0x80,0x2e,0x00,0x00,0x90,
0x2e,0x40,0x84,0x00,0x80,0x3e,0x00,0x00,0x80,0x41,0x00,0x00,0x80,0x43,0x00,0x00,
0x90,0x3e,0x40,0x00,0x90,0x41,0x40,0x00,0x90,0x46,0x40,0x00,0x80,0x2e,0x00,0x00,
0x90,0x2f,0x40,0x84,0x00,0x80,0x3e,0x00,0x00,0x80,0x41,0x00,0x00,0x80,0x46,0x00,
0x00,0x90,0x43,0x40,0x00,0x90,0x46,0x40,0x00,0x80,0x2f,0x00,0x00,0x90,0x30,0x40,
0x82,0x00,0x80,0x30,0x00,0x00,0x90,0x30,0x40,0x84,0x00,0x80,0x43,0x00,0x00,0x80,
0x46,0x00,0x00,0x90,0x43,0x40,0x00,0x90,0x48,0x40,0x00,0x80,0x30,0x00,0x00,0x90,
0x30,0x40,0x82,0x00,0x80,0x30,0x00,0x00,0x90,0x2e,0x40,0x88,0x00,0x80,0x43,0x00,
0x00,0x80,0x48,0x00,0x00,0x80,0x2e,0x00,0x00,0x90,0x33,0x40,0x00,0x90,0x37,0x40,
0x00,0x90,0x3a,0x40,0x88,0x00,0x90,0x4b,0x40,0x84,0x00,0x80,0x4b,0x00,0x00,0x90,
0x46,0x40,0x82,0x00,0x80,0x46,0x00,0x00,0x90,0x46,0x40,0x8a,0x00,0x80,0x46,0x00,
0x84,0x00,0x90,0x4b,0x40,0x84,0x00,0x80,0x4b,0x00,0x00,0x80,0x33,0x00,0x00,0x80,
0x37,0x00,0x00,0x80,0x3a,0x00,0x00,0x90,0x4b,0x40,0x00,0x90,0x2e,0x40,0x00,0x90,
0x32,0x40,0x00,0x90,0x35,0x40,0x00,0x90,0x3a,0x40,0x86,0x00,0x80,0x4b,0x00,0x00,
0x90,0x4d,0x40,0x86,0x00,0x80,0x4d,0x00,0x00,0x90,0x46,0x40,0x84,0x00,0x80,0x46,
0x00,0x00,0x90,0x46,0x40,0x88,0x00,0x80,0x46,0x00,0x84,0x00,0x90,0x46,0x40,0x84,
0x00,0x80,0x46,0x00,0x00,0x80,0x2e,0x00,0x00,0x80,0x32,0x00,0x00,0x80,0x35,0x00,
0x00,0x80,0x3a,0x00,0x00,0x90,0x4f,0x40,0x00,0x90,0x30,0x40,0x00,0x90,0x33,0x40,
0x00,0x90,0x37,0x40,0x86,0x00,0x80,0x4f,0x00,0x00,0x90,0x50,0x40,0x86,0x00,0x80,
0x50,0x00,0x00,0x90,0x4f,0x40,0x84,0x00,0x80,0x4f,0x00,0x00,0x90,0x4d,0x40,0x00,
0x80,0x30,0x00,0x00,0x80,0x33,0x00,0x00,0x80,0x37,0x00,0x00,0x90,0x2e,0x40,0x00,
0x90,0x32,0x40,0x00,0x90,0x35,0x40,0x00,0x90,0x37,0x40,0x86,0x00,0x80,0x4d,0x00,
0x00,0x90,0x4b,0x40,0x86,0x00,0x80,0x4b,0x00,0x00,0x90,0x4d,0x40,0x84,0x00,0x80,
0x4d,0x00,0x00,0x80,0x2e,0x00,0x00,0x80,0x32,0x00,0x00,0x80,0x35,0x00,0x00,0x80,
0x37,0x00,0x00,0x90,0x4f,0x40,0x00,0x90,0x2c,0x40,0x00,0x90,0x30,0x40,0x00,0x90,
0x33,0x40,0x00,0x90,0x37,0x40,0x86,0x00,0x80,0x4f,0x00,0x00,0x90,0x50,0x40,0x86,
0x00,0x80,0x50,0x00,0x00,0x90,0x4f,0x40,0x84,0x00,0x80,0x4f,0x00,0x00,0x90,0x48,
0x40,0x88,0x00,0x80,0x48,0x00,0x84,0x00,0x90,0x48,0x40,0x82,0x00,0x80,0x48,0x00,
0x00,0x90,0x4a,0x40,0x82,0x00,0x80,0x4a,0x00,0x00,0x80,0x2c,0x00,0x00,0x80,0x30,
0x00,0x00,0x80,0x33,0x00,0x00,0x80,0x37,0x00,0x00,0x90,0x4b,0x40,0x00,0x90,0x2e,
0x40,0x00,0x90,0x33,0x40,0x00,0x90,0x35,0x40,0x86,0x00,0x80,0x4b,0x00,0x00,0x90,
0x4b,0x40,0x86,0x00,0x80,0x4b,0x00,0x00,0x90,0x4a,0x40,0x84,0x00,0x80,0x4a,0x00,
0x00,0x90,0x4a,0x40,0x00,0x80,0x2e,0x00,0x00,0x80,0x33,0x00,0x00,0x80,0x35,0x00,
0x00,0x90,0x2e,0x40,0x00,0x90,0x32,0x40,0x00,0x90,0x35,0x40,0x88,0x00,0x80,0x4a,
0x00,0x84,0x00,0x90,0x4b,0x40,0x82,0x00,0x80,0x4b,0x00,0x00,0x90,0x4d,0x40,0x82,
0x00,0x80,0x4d,0x00,0x00,0x80,0x2e,0x00,0x00,0x80,0x32,0x00,0x00,0x80,0x35,0x00,
0x00,0x90,0x50,0x40,0x00,0x90,0x33,0x40,0x00,0x90,0x3a,0x40,0x86,0x00,0x80,0x50,
0x00,0x00,0x90,0x4f,0x40,0x86,0x00,0x80,0x4f,0x00,0x00,0x90,0x4d,0x40,0x84,0x00,
0x80,0x4d,0x00,0x00,0x90,0x4b,0x40,0x00,0x80,0x33,0x00,0x00,0x80,0x3a,0x00,0x00,
0x90,0x30,0x40,0x00,0x90,0x3a,0x40,0x88,0x00,0x80,0x4b,0x00,0x84,0x00,0x90,0x4f,
0x40,0x84,0x00,0x80,0x4f,0x00,0x00,0x80,0x30,0x00,0x00,0x80,0x3a,0x00,0x00,0x90,
0x4f,0x40,0x00,0x90,0x32,0x40,0x00,0x90,0x3c,0x40,0x86,0x00,0x80,0x4f,0x00,0x00,
0x90,0x4d,0x40,0x86,0x00,0x80,0x4d,0x00,0x00,0x90,0x4c,0x40,0x84,0x00,0x80,0x4c,
0x00,0x00,0x90,0x4d,0x40,0x88,0x00,0x80,0x4d,0x00,0x00,0x90,0x48,0x40,0x88,0x00,
0x80,0x48,0x00,0x00,0x80,0x32,0x00,0x00,0x80,0x3c,0x00,0x00,0x90,0x48,0x40,0x00,
0x90,0x41,0x40,0x00,0x90,0x45,0x40,0x00,0x90,0x2b,0x40,0x8c,0x00,0x80,0x48,0x00,
0x00,0x90,0x4a,0x40,0x84,0x00,0x80,0x4a,0x00,0x00,0x90,0x4a,0x40,0x00,0x80,0x41,
0x00,0x00,0x80,0x45,0x00,0x00,0x90,0x43,0x40,0x00,0x90,0x47,0x40,0x00,0x80,0x2b,
0x00,0x00,0x90,0x2b,0x40,0x90,0x00,0x80,0x4a,0x00,0x00,0x80,0x43,0x00,0x00,0x80,
0x47,0x00,0x00,0x80,0x2b,0x00,0x00,0x90,0x33,0x40,0x00,0x90,0x37,0x40,0x00,0x90,
0x3a,0x40,0x88,0x00,0x90,0x4b,0x40,0x84,0x00,0x80,0x4b,0x00,0x00,0x90,0x46,0x40,
0x82,0x00,0x80,0x46,0x00,0x00,0x90,0x46,0x40,0x8a,0x00,0x80,0x46,0x00,0x84,0x00,
0x90,0x4b,0x40,0x84,0x00,0x80,0x4b,0x00,0x00,0x80,0x33,0x00,0x00,0x80,0x37,0x00,
0x00,0x80,0x3a,0x00,0x00,0x90,0x4b,0x40,0x00,0x90,0x2e,0x40,0x00,0x90,0x32,0x40,
0x00,0x90,0x35,0x40,0x00,0x90,0x3a,0x40,0x86,0x00,0x80,0x4b,0x00,0x00,0x90,0x4d,
0x40,0x86,0x00,0x80,0x4d,0x00,0x00,0x90,0x46,0x40,0x84,0x00,0x80,0x46,0x00,0x00,
0x90,0x46,0x40,0x88,0x00,0x80,0x46,0x00,0x84,0x00,0x90,0x46,0x40,0x84,0x00,0x80,
0x46,0x00,0x00,0x80,0x2e,0x00,0x00,0x80,0x32,0x00,0x00,0x80,0x35,0x00,0x00,0x80,
0x3a,0x00,0x00,0x90,0x4f,0x40,0x00,0x90,0x30,0x40,0x00,0x90,0x33,0x40,0x00,0x90,
0x37,0x40,0x86,0x00,0x80,0x4f,0x00,0x00,0x90,0x50,0x40,0x86,0x00,0x80,0x50,0x00,
0x00,0x90,0x4f,0x40,0x84,0x00,0x80,0x4f,0x00,0x00,0x90,0x4d,0x40,0x00,0x80,0x30,
0x00,0x00,0x80,0x33,0x00,0x00,0x80,0x37,0x00,0x00,0x90,0x2e,0x40,0x00,0x90,0x32,
0x40,0x00,0x90,0x35,0x40,0x00,0x90,0x37,0x40,0x86,0x00,0x80,0x4d,0x00,0x00,0x90,
0x4b,0x40,0x86,0x00,0x80,0x4b,0x00,0x00,0x90,0x4d,0x40,0x84,0x00,0x80,0x4d,0x00,
0x00,0x80,0x2e,0x00,0x00,0x80,0x32,0x00,0x00,0x80,0x35,0x00,0x00,0x80,0x37,0x00,
0x00,0x90,0x4f,0x40,0x00,0x90,0x2c,0x40,0x00,0x90,0x30,0x40,0x00,0x90,0x33,0x40,
0x00,0x90,0x37,0x40,0x86,0x00,0x80,0x4f,0x00,0x00,0x90,0x50,0x40,0x86,0x00,0x80,
0x50,0x00,0x00,0x90,0x4f,0x40,0x84,0x00,0x80,0x4f,0x00,0x00,0x90,0x48,0x40,0x88,
0x00,0x80,0x48,0x00,0x84,0x00,0x90,0x48,0x40,0x82,0x00,0x80,0x48,0x00,0x00,0x90,
0x4a,0x40,0x82,0x00,0x80,0x4a,0x00,0x00,0x80,0x2c,0x00,0x00,0x80,0x30,0x00,0x00,
0x80,0x33,0x00,0x00,0x80,0x37,0x00,0x00,0x90,0x4b,0x40,0x00,0x90,0x2e,0x40,0x00,
0x90,0x33,0x40,0x00,0x90,0x35,0x40,0x86,0x00,0x80,0x4b,0x00,0x00,0x90,0x4b,0x40,
0x86,0x00,0x80,0x4b,0x00,0x00,0x90,0x4a,0x40,0x84,0x00,0x80,0x4a,0x00,0x00,0x90,
0x4a,0x40,0x00,0x80,0x2e,0x00,0x00,0x80,0x33,0x00,0x00,0x80,0x35,0x00,0x00,0x90,
0x2e,0x40,0x00,0x90,0x32,0x40,0x00,0x90,0x35,0x40,0x88,0x00,0x80,0x4a,0x00,0x84,
0x00,0x90,0x4b,0x40,0x82,0x00,0x80,0x4b,0x00,0x00,0x90,0x4d,0x40,0x82,0x00,0x80,
0x4d,0x00,0x00,0x80,0x2e,0x00,0x00,0x80,0x32,0x00,0x00,0x80,0x35,0x00,0x00,0x90,
0x50,0x40,0x00,0x90,0x33,0x40,0x00,0x90,0x3a,0x40,0x86,0x00,0x80,0x50,0x00,0x00,
0x90,0x4f,0x40,0x86,0x00,0x80,0x4f,0x00,0x00,0x90,0x4d,0x40,0x84,0x00,0x80,0x4d,
0x00,0x00,0x90,0x4b,0x40,0x00,0x80,0x33,0x00,0x00,0x80,0x3a,0x00,0x00,0x90,0x30,
0x40,0x00,0x90,0x3a,0x40,0x88,0x00,0x80,0x4b,0x00,0x84,0x00,0x90,0x4f,0x40,0x84,
0x00,0x80,0x4f,0x00,0x00,0x80,0x30,0x00,0x00,0x80,0x3a,0x00,0x00,0x90,0x4f,0x40,
0x00,0x90,0x32,0x40,0x00,0x90,0x3c,0x40,0x86,0x00,0x80,0x4f,0x00,0x00,0x90,0x4d,
0x40,0x86,0x00,0x80,0x4d,0x00,0x00,0x90,0x4c,0x40,0x84,0x00,0x80,0x4c,0x00,0x00,
0x90,0x4d,0x40,0x86,0x00,0x80,0x4d,0x00,0x00,0x90,0x4f,0x40,0x86,0x00,0x80,0x4f,
0x00,0x00,0x90,0x50,0x40,0x84,0x00,0x80,0x50,0x00,0x00,0x80,0x32,0x00,0x00,0x80,
0x3c,0x00,0x00,0x90,0x4f,0x40,0x00,0x90,0x45,0x40,0x00,0x90,0x48,0x40,0x00,0x90,
0x2b,0x40,0x88,0x00,0x80,0x45,0x00,0x00,0x80,0x48,0x00,0x00,0x90,0x43,0x40,0x00,
0x90,0x47,0x40,0x00,0x80,0x2b,0x00,0x00,0x90,0x2b,0x40,0x88,0x00,0x80,0x43,0x00,
0x00,0x80,0x47,0x00,0x00,0x90,0x45,0x40,0x00,0x90,0x48,0x40,0x00,0x80,0x2b,0x00,
0x00,0x90,0x2b,0x40,0x88,0x00,0x80,0x4f,0x00,0x00,0x80,0x45,0x00,0x00,0x80,0x48,
0x00,0x00,0x90,0x47,0x40,0x00,0x90,0x4a,0x40,0x00,0x80,0x2b,0x00,0x00,0x90,0x2b,
0x40,0x88,0x00,0x80,0x47,0x00,0x00,0x80,0x4a,0x00,0x00,0x80,0x2b,0x00,0x00,0x90,
0x4b,0x40,0x00,0x90,0x43,0x40,0x00,0x90,0x48,0x40,0x00,0x90,0x2c,0x40,0x84,0x00,
0x80,0x2c,0x00,0x00,0x90,0x2c,0x40,0x82,0x00,0x80,0x4b,0x00,0x00,0x90,0x4b,0x40,
0x82,0x00,0x80,0x2c,0x00,0x00,0x90,0x2c,0x40,0x84,0x00,0x80,0x4b,0x00,0x00,0x90,
0x4a,0x40,0x00,0x80,0x2c,0x00,0x00,0x90,0x2c,0x40,0x84,0x00,0x80,0x4a,0x00,0x00,
0x90,0x4b,0x40,0x00,0x80,0x2c,0x00,0x00,0x90,0x2c,0x40,0x84,0x00,0x80,0x2c,0x00,
0x00,0x90,0x2c,0x40,0x82,0x00,0x80,0x4b,0x00,0x00,0x90,0x4b,0x40,0x82,0x00,0x80,
0x2c,0x00,0x00,0x90,0x2c,0x40,0x84,0x00,0x80,0x4b,0x00,0x00,0x90,0x4a,0x40,0x00,
0x80,0x2c,0x00,0x00,0x90,0x2c,0x40,0x84,0x00,0x80,0x4a,0x00,0x00,0x80,0x43,0x00,
0x00,0x80,0x48,0x00,0x00,0x80,0x2c,0x00,0x00,0x90,0x4d,0x40,0x00,0x90,0x46,0x40,
0x00,0x90,0x4a,0x40,0x00,0x90,0x2b,0x40,0x84,0x00,0x80,0x2b,0x00,0x00,0x90,0x2b,
0x40,0x82,0x00,0x80,0x4d,0x00,0x00,0x90,0x4d,0x40,0x82,0x00,0x80,0x2b,0x00,0x00,
0x90,0x2b,0x40,0x84,0x00,0x80,0x4d,0x00,0x00,0x90,0x4b,0x40,0x00,0x80,0x2b,0x00,
0x00,0x90,0x2b,0x40,0x84,0x00,0x80,0x4b,0x00,0x00,0x90,0x4a,0x40,0x00,0x80,0x46,
0x00,0x00,0x80,0x4a,0x00,0x00,0x90,0x43,0x40,0x00,0x90,0x46,0x40,0x00,0x80,0x2b,
0x00,0x00,0x90,0x30,0x40,0x84,0x00,0x80,0x30,0x00,0x00,0x90,0x30,0x40,0x82,0x00,
0x80,0x4a,0x00,0x00,0x90,0x48,0x40,0x82,0x00,0x80,0x30,0x00,0x00,0x90,0x30,0x40,
0x84,0x00,0x80,0x48,0x00,0x00,0x90,0x4a,0x40,0x00,0x80,0x30,0x00,0x00,0x90,0x30,
0x40,0x84,0x00,0x80,0x4a,0x00,0x00,0x80,0x43,0x00,0x00,0x80,0x46,0x00,0x00,0x80,
0x30,0x00,0x00,0x90,0x4b,0x40,0x00,0x90,0x44,0x40,0x00,0x90,0x48,0x40,0x00,0x90,
0x29,0x40,0x84,0x00,0x80,0x29,0x00,0x00,0x90,0x29,0x40,0x82,0x00,0x80,0x4b,0x00,
0x00,0x90,0x4b,0x40,0x82,0x00,0x80,0x29,0x00,0x00,0x90,0x29,0x40,0x84,0x00,0x80,
0x4b,0x00,0x00,0x90,0x4a,0x40,0x00,0x80,0x29,0x00,0x00,0x90,0x29,0x40,0x84,0x00,
0x80,0x4a,0x00,0x00,0x90,0x4d,0x40,0x00,0x80,0x44,0x00,0x00,0x80,0x48,0x00,0x00,
0x90,0x44,0x40,0x00,0x90,0x48,0x40,0x00,0x80,0x29,0x00,0x00,0x90,0x2e,0x40,0x84,
0x00,0x80,0x2e,0x00,0x00,0x90,0x2e,0x40,0x82,0x00,0x80,0x4d,0x00,0x00,0x90,0x4a,
0x40,0x82,0x00,0x80,0x2e,0x00,0x00,0x90,0x2e,0x40,0x84,0x00,0x80,0x4a,0x00,0x00,
0x90,0x48,0x40,0x00,0x80,0x2e,0x00,0x00,0x90,0x2e,0x40,0x84,0x00,0x80,0x48,0x00,
0x00,0x80,0x44,0x00,0x00,0x80,0x48,0x00,0x00,0x80,0x2e,0x00,0x00,0x90,0x49,0x40,
0x00,0x90,0x4d,0x40,0x00,0x90,0x46,0x40,0x00,0x90,0x2e,0x40,0x84,0x00,0x80,0x2e,
0x00,0x00,0x90,0x2e,0x40,0x84,0x00,0x80,0x49,0x00,0x00,0x80,0x4d,0x00,0x00,0x90,
0x4b,0x40,0x00,0x90,0x4f,0x40,0x00,0x80,0x2e,0x00,0x00,0x90,0x35,0x40,0x84,0x00,
0x80,0x35,0x00,0x00,0x90,0x34,0x40,0x84,0x00,0x80,0x4b,0x00,0x00,0x80,0x4f,0x00,
0x00,0x90,0x4d,0x40,0x00,0x90,0x50,0x40,0x00,0x80,0x46,0x00,0x00,0x80,0x34,0x00,
0x00,0x90,0x33,0x40,0x84,0x00,0x80,0x33,0x00,0x00,0x90,0x33,0x40,0x84,0x00,0x80,
0x4d,0x00,0x00,0x80,0x50,0x00,0x00,0x90,0x4f,0x40,0x00,0x90,0x52,0x40,0x00,0x80,
0x33,0x00,0x00,0x90,0x2e,0x40,0x84,0x00,0x80,0x2e,0x00,0x00,0x90,0x2d,0x40,0x84,
0x00,0x80,0x4f,0x00,0x00,0x80,0x52,0x00,0x00,0x80,0x2d,0x00,0x00,0x90,0x48,0x40,
0x00,0x90,0x4b,0x40,0x00,0x90,0x2c,0x40,0x84,0x00,0x80,0x2c,0x00,0x00,0x90,0x2c,
0x40,0x82,0x00,0x80,0x48,0x00,0x00,0x80,0x4b,0x00,0x00,0x90,0x48,0x40,0x00,0x90,
0x4b,0x40,0x82,0x00,0x80,0x2c,0x00,0x00,0x90,0x2c,0x40,0x84,0x00,0x80,0x48,0x00,
0x00,0x80,0x4b,0x00,0x00,0x90,0x46,0x40,0x00,0x90,0x4a,0x40,0x00,0x80,0x2c,0x00,
0x00,0x90,0x2c,0x40,0x84,0x00,0x80,0x46,0x00,0x00,0x80,0x4a,0x00,0x00,0x90,0x48,
0x40,0x00,0x90,0x4b,0x40,0x00,0x80,0x2c,0x00,0x00,0x90,0x2c,0x40,0x84,0x00,0x80,
0x2c,0x00,0x00,0x90,0x2c,0x40,0x82,0x00,0x80,0x48,0x00,0x00,0x80,0x4b,0x00,0x00,
0x90,0x48,0x40,0x00,0x90,0x4b,0x40,0x82,0x00,0x80,0x2c,0x00,0x00,0x90,0x2c,0x40,
0x84,0x00,0x80,0x48,0x00,0x00,0x80,0x4b,0x00,0x00,0x90,0x46,0x40,0x00,0x90,0x4a,
0x40,0x00,0x80,0x2c,0x00,0x00,0x90,0x2c,0x40,0x84,0x00,0x80,0x46,0x00,0x00,0x80,
0x4a,0x00,0x00,0x80,0x2c,0x00,0x00,0x90,0x4a,0x40,0x00,0x90,0x4d,0x40,0x00,0x90,
0x2b,0x40,0x84,0x00,0x80,0x2b,0x00,0x00,0x90,0x2b,0x40,0x82,0x00,0x80,0x4a,0x00,
0x00,0x80,0x4d,0x00,0x00,0x90,0x4a,0x40,0x00,0x90,0x4d,0x40,0x82,0x00,0x80,0x2b,
0x00,0x00,0x90,0x2b,0x40,0x84,0x00,0x80,0x4a,0x00,0x00,0x80,0x4d,0x00,0x00,0x90,
0x48,0x40,0x00,0x90,0x4b,0x40,0x00,0x80,0x2b,0x00,0x00,0x90,0x2b,0x40,0x84,0x00,
0x80,0x48,0x00,0x00,0x80,0x4b,0x00,0x00,0x90,0x46,0x40,0x00,0x90,0x4a,0x40,0x00,
0x80,0x2b,0x00,0x00,0x90,0x30,0x40,0x84,0x00,0x80,0x30,0x00,0x00,0x90,0x30,0x40,
0x82,0x00,0x80,0x46,0x00,0x00,0x80,0x4a,0x00,0x00,0x90,0x48,0x40,0x00,0x90,0x4b,
0x40,0x82,0x00,0x80,0x30,0x00,0x00,0x90,0x30,0x40,0x84,0x00,0x80,0x48,0x00,0x00,
0x80,0x4b,0x00,0x00,0x90,0x4a,0x40,0x00,0x90,0x4d,0x40,0x00,0x80,0x30,0x00,0x00,
0x90,0x30,0x40,0x84,0x00,0x80,0x4a,0x00,0x00,0x80,0x4d,0x00,0x00,0x80,0x30,0x00,
0x00,0x90,0x48,0x40,0x00,0x90,0x4a,0x40,0x00,0x90,0x4f,0x40,0x00,0x90,0x32,0x40,
0x84,0x00,0x80,0x32,0x00,0x00,0x90,0x32,0x40,0x82,0x00,0x80,0x48,0x00,0x00,0x80,
0x4a,0x00,0x00,0x80,0x4f,0x00,0x00,0x90,0x48,0x40,0x00,0x90,0x4a,0x40,0x00,0x90,
0x50,0x40,0x82,0x00,0x80,0x32,0x00,0x00,0x90,0x32,0x40,0x84,0x00,0x80,0x48,0x00,
0x00,0x80,0x4a,0x00,0x00,0x80,0x50,0x00,0x00,0x90,0x48,0x40,0x00,0x90,0x4a,0x40,
0x00,0x90,0x4f,0x40,0x00,0x80,0x32,0x00,0x00,0x90,0x32,0x40,0x84,0x00,0x80,0x48,
0x00,0x00,0x80,0x4a,0x00,0x00,0x80,0x4f,0x00,0x00,0x90,0x48,0x40,0x00,0x90,0x4a,
0x40,0x00,0x90,0x4d,0x40,0x00,0x80,0x32,0x00,0x00,0x90,0x32,0x40,0x84,0x00,0x80,
0x32,0x00,0x00,0x90,0x32,0x40,0x82,0x00,0x80,0x48,0x00,0x00,0x80,0x4a,0x00,0x00,
0x80,0x4d,0x00,0x00,0x90,0x48,0x40,0x00,0x90,0x4b,0x40,0x82,0x00,0x80,0x32,0x00,
0x00,0x90,0x32,0x40,0x84,0x00,0x80,0x48,0x00,0x00,0x80,0x4b,0x00,0x00,0x90,0x48,
0x40,0x00,0x90,0x4a,0x40,0x00,0x90,0x4d,0x40,0x00,0x80,0x32,0x00,0x00,0x90,0x32,
0x40,0x84,0x00,0x80,0x48,0x00,0x00,0x80,0x4a,0x00,0x00,0x80,0x4d,0x00,0x00,0x80,
0x32,0x00,0x00,0x90,0x45,0x40,0x00,0x90,0x48,0x40,0x00,0x90,0x4d,0x40,0x00,0x90,
0x4f,0x40,0x00,0x90,0x2b,0x40,0x90,0x00,0x80,0x45,0x00,0x00,0x80,0x48,0x00,0x00,
0x80,0x4d,0x00,0x00,0x80,0x4f,0x00,0x00,0x90,0x47,0x40,0x00,0x90,0x4a,0x40,0x00,
0x90,0x4f,0x40,0x00,0x80,0x2b,0x00,0x00,0x90,0x2b,0x40,0x86,0x00,0x80,0x47,0x00,
0x00,0x80,0x4a,0x00,0x00,0x80,0x4f,0x00,0x00,0x90,0x48,0x40,0x00,0x90,0x4d,0x40,
0x00,0x90,0x51,0x40,0x00,0x80,0x2b,0x00,0x00,0x90,0x2b,0x40,0x86,0x00,0x80,0x48,
0x00,0x00,0x80,0x4d,0x00,0x00,0x80,0x51,0x00,0x00,0x90,0x4a,0x40,0x00,0x90,0x4f,
0x40,0x00,0x90,0x53,0x40,0x00,0x80,0x2b,0x00,0x00,0x90,0x2b,0x40,0x84,0x00,0x80,
0x4a,0x00,0x00,0x80,0x4f,0x00,0x00,0x80,0x53,0x00,0x00,0x80,0x2b,0x00,0x00,0x90,
0x48,0x40,0x00,0x90,0x30,0x40,0x84,0x00,0x80,0x30,0x00,0x00,0x90,0x30,0x40,0x84,
0x00,0x80,0x48,0x00,0x00,0x90,0x43,0x40,0x00,0x90,0x48,0x40,0x00,0x90,0x4b,0x40,
0x00,0x80,0x30,0x00,0x00,0x90,0x30,0x40,0x84,0x00,0x80,0x30,0x00,0x00,0x90,0x33,
0x40,0x84,0x00,0x80,0x43,0x00,0x00,0x80,0x48,0x00,0x00,0x80,0x4b,0x00,0x00,0x90,
0x4d,0x40,0x00,0x90,0x44,0x40,0x00,0x90,0x48,0x40,0x00,0x80,0x33,0x00,0x00,0x90,
0x35,0x40,0x82,0x00,0x80,0x35,0x00,0x00,0x90,0x35,0x40,0x82,0x00,0x80,0x35,0x00,
0x82,0x00,0x80,0x4d,0x00,0x00,0x90,0x4b,0x40,0x00,0x90,0x35,0x40,0x84,0x00,0x80,
0x35,0x00,0x00,0x90,0x35,0x40,0x82,0x00,0x80,0x4b,0x00,0x00,0x90,0x4d,0x40,0x00,
0x80,0x35,0x00,0x00,0x90,0x30,0x40,0x84,0x00,0x80,0x4d,0x00,0x00,0x80,0x44,0x00,
0x00,0x80,0x48,0x00,0x00,0x80,0x30,0x00,0x00,0x90,0x4d,0x40,0x00,0x90,0x2e,0x40,
0x84,0x00,0x80,0x4d,0x00,0x00,0x90,0x4d,0x40,0x00,0x80,0x2e,0x00,0x00,0x90,0x2e,
0x40,0x84,0x00,0x80,0x4d,0x00,0x00,0x90,0x52,0x40,0x00,0x80,0x2e,0x00,0x00,0x90,
0x2e,0x40,0x84,0x00,0x80,0x52,0x00,0x00,0x90,0x50,0x40,0x00,0x80,0x2e,0x00,0x00,
0x90,0x32,0x40,0x84,0x00,0x80,0x50,0x00,0x00,0x90,0x4f,0x40,0x00,0x80,0x32,0x00,
0x00,0x90,0x33,0x40,0x82,0x00,0x80,0x4f,0x00,0x00,0x90,0x4d,0x40,0x00,0x80,0x33,
0x00,0x00,0x90,0x33,0x40,0x82,0x00,0x80,0x33,0x00,0x82,0x00,0x80,0x4d,0x00,0x00,
0x90,0x4f,0x40,0x00,0x90,0x33,0x40,0x82,0x00,0x80,0x33,0x00,0x00,0x90,0x33,0x40,
0x84,0x00,0x80,0x33,0x00,0x00,0x90,0x32,0x40,0x84,0x00,0x80,0x4f,0x00,0x00,0x80,
0x32,0x00,0x00,0x90,0x4b,0x40,0x00,0x90,0x4f,0x40,0x00,0x90,0x30,0x40,0x84,0x00,
0x80,0x30,0x00,0x00,0x90,0x30,0x40,0x84,0x00,0x80,0x4b,0x00,0x00,0x80,0x4f,0x00,
0x00,0x90,0x4b,0x40,0x00,0x90,0x4f,0x40,0x00,0x90,0x52,0x40,0x00,0x80,0x30,0x00,
0x00,0x90,0x30,0x40,0x84,0x00,0x80,0x30,0x00,0x00,0x90,0x33,0x40,0x84,0x00,0x80,
0x4b,0x00,0x00,0x80,0x4f,0x00,0x00,0x80,0x52,0x00,0x00,0x90,0x4b,0x40,0x00,0x90,
0x50,0x40,0x00,0x90,0x54,0x40,0x00,0x80,0x33,0x00,0x00,0x90,0x35,0x40,0x82,0x00,
0x80,0x35,0x00,0x00,0x90,0x35,0x40,0x82,0x00,0x80,0x35,0x00,0x82,0x00,0x80,0x4b,
0x00,0x00,0x80,0x50,0x00,0x00,0x80,0x54,0x00,0x00,0x90,0x4d,0x40,0x00,0x90,0x35,
0x40,0x84,0x00,0x80,0x35,0x00,0x00,0x90,0x35,0x40,0x82,0x00,0x80,0x4d,0x00,0x00,
0x90,0x4b,0x40,0x00,0x80,0x35,0x00,0x00,0x90,0x30,0x40,0x84,0x00,0x80,0x4b,0x00,
0x00,0x80,0x30,0x00,0x00,0x90,0x4a,0x40,0x00,0x90,0x2e,0x40,0x84,0x00,0x80,0x4a,
0x00,0x00,0x90,0x4a,0x40,0x00,0x80,0x2e,0x00,0x00,0x90,0x2e,0x40,0x84,0x00,0x80,
0x4a,0x00,0x00,0x90,0x48,0x40,0x00,0x80,0x2e,0x00,0x00,0x90,0x2e,0x40,0x84,0x00,
0x80,0x48,0x00,0x00,0x90,0x4a,0x40,0x00,0x80,0x2e,0x00,0x00,0x90,0x32,0x40,0x84,
0x00,0x80,0x4a,0x00,0x00,0x90,0x4d,0x40,0x00,0x80,0x32,0x00,0x00,0x90,0x33,0x40,
0x82,0x00,0x80,0x4d,0x00,0x00,0x90,0x4b,0x40,0x84,0x00,0x80,0x4b,0x00,0x00,0x90,
0x4b,0x40,0x82,0x00,0x80,0x33,0x00,0x00,0x90,0x32,0x40,0x88,0x00,0x80,0x4b,0x00,
0x00,0x80,0x32,0x00,0x00,0x90,0x48,0x40,0x00,0x90,0x30,0x40,0x84,0x00,0x80,0x30,
0x00,0x00,0x90,0x30,0x40,0x84,0x00,0x80,0x48,0x00,0x00,0x90,0x43,0x40,0x00,0x90,
0x48,0x40,0x00,0x90,0x4b,0x40,0x00,0x80,0x30,0x00,0x00,0x90,0x30,0x40,0x84,0x00,
0x80,0x30,0x00,0x00,0x90,0x33,0x40,0x84,0x00,0x80,0x43,0x00,0x00,0x80,0x48,0x00,
0x00,0x80,0x4b,0x00,0x00,0x90,0x4d,0x40,0x00,0x90,0x44,0x40,0x00,0x90,0x48,0x40,
0x00,0x80,0x33,0x00,0x00,0x90,0x35,0x40,0x82,0x00,0x80,0x35,0x00,0x00,0x90,0x35,
0x40,0x82,0x00,0x80,0x35,0x00,0x82,0x00,0x80,0x4d,0x00,0x00,0x90,0x4b,0x40,0x00,
0x90,0x35,0x40,0x84,0x00,0x80,0x35,0x00,0x00,0x90,0x35,0x40,0x82,0x00,0x80,0x4b,
0x00,0x00,0x90,0x4d,0x40,0x00,0x80,0x35,0x00,0x00,0x90,0x30,0x40,0x84,0x00,0x80,
0x4d,0x00,0x00,0x80,0x44,0x00,0x00,0x80,0x48,0x00,0x00,0x80,0x30,0x00,0x00,0x90,
0x4d,0x40,0x00,0x90,0x2e,0x40,0x84,0x00,0x80,0x4d,0x00,0x00,0x90,0x4d,0x40,0x00,
0x80,0x2e,0x00,0x00,0x90,0x2e,0x40,0x84,0x00,0x80,0x4d,0x00,0x00,0x90,0x52,0x40,
0x00,0x80,0x2e,0x00,0x00,0x90,0x2e,0x40,0x84,0x00,0x80,0x52,0x00,0x00,0x90,0x50,
0x40,0x00,0x80,0x2e,0x00,0x00,0x90,0x32,0x40,0x84,0x00,0x80,0x50,0x00,0x00,0x90,
0x4f,0x40,0x00,0x80,0x32,0x00,0x00,0x90,0x33,0x40,0x82,0x00,0x80,0x4f,0x00,0x00,
0x90,0x4d,0x40,0x00,0x80,0x33,0x00,0x00,0x90,0x33,0x40,0x82,0x00,0x80,0x33,0x00,
0x82,0x00,0x80,0x4d,0x00,0x00,0x90,0x4f,0x40,0x00,0x90,0x33,0x40,0x82,0x00,0x80,
0x33,0x00,0x00,0x90,0x33,0x40,0x84,0x00,0x80,0x33,0x00,0x00,0x90,0x32,0x40,0x84,
0x00,0x80,0x4f,0x00,0x00,0x80,0x32,0x00,0x00,0x90,0x4b,0x40,0x00,0x90,0x4f,0x40,
0x00,0x90,0x30,0x40,0x84,0x00,0x80,0x30,0x00,0x00,0x90,0x30,0x40,0x84,0x00,0x80,
0x4b,0x00,0x00,0x80,0x4f,0x00,0x00,0x90,0x4b,0x40,0x00,0x90,0x4f,0x40,0x00,0x90,
0x52,0x40,0x00,0x80,0x30,0x00,0x00,0x90,0x30,0x40,0x84,0x00,0x80,0x30,0x00,0x00,
0x90,0x33,0x40,0x84,0x00,0x80,0x4b,0x00,0x00,0x80,0x4f,0x00,0x00,0x80,0x52,0x00,
0x00,0x90,0x4b,0x40,0x00,0x90,0x50,0x40,0x00,0x90,0x54,0x40,0x00,0x80,0x33,0x00,
0x00,0x90,0x35,0x40,0x82,0x00,0x80,0x35,0x00,0x00,0x90,0x35,0x40,0x82,0x00,0x80,
0x35,0x00,0x82,0x00,0x80,0x4b,0x00,0x00,0x80,0x50,0x00,0x00,0x80,0x54,0x00,0x00,
0x90,0x4d,0x40,0x00,0x90,0x35,0x40,0x84,0x00,0x80,0x35,0x00,0x00,0x90,0x35,0x40,
0x82,0x00,0x80,0x4d,0x00,0x00,0x90,0x4b,0x40,0x00,0x80,0x35,0x00,0x00,0x90,0x30,
0x40,0x84,0x00,0x80,0x4b,0x00,0x00,0x80,0x30,0x00,0x00,0x90,0x4a,0x40,0x00,0x90,
0x4d,0x40,0x00,0x90,0x52,0x40,0x00,0x90,0x2e,0x40,0x84,0x00,0x80,0x4a,0x00,0x00,
0x80,0x4d,0x00,0x00,0x80,0x52,0x00,0x00,0x90,0x4a,0x40,0x00,0x90,0x4d,0x40,0x00,
0x90,0x52,0x40,0x00,0x80,0x2e,0x00,0x00,0x90,0x2e,0x40,0x84,0x00,0x80,0x4a,0x00,
0x00,0x80,0x4d,0x00,0x00,0x80,0x52,0x00,0x00,0x90,0x4a,0x40,0x00,0x90,0x4d,0x40,
0x00,0x90,0x4f,0x40,0x00,0x80,0x2e,0x00,0x00,0x90,0x2e,0x40,0x84,0x00,0x80,0x4a,
0x00,0x00,0x80,0x4d,0x00,0x00,0x80,0x4f,0x00,0x00,0x90,0x4a,0x40,0x00,0x90,0x4d,
0x40,0x00,0x90,0x52,0x40,0x00,0x80,0x2e,0x00,0x00,0x90,0x2f,0x40,0x84,0x00,0x80,
0x4a,0x00,0x00,0x80,0x4d,0x00,0x00,0x80,0x52,0x00,0x00,0x90,0x4a,0x40,0x00,0x90,
0x4d,0x40,0x00,0x90,0x52,0x40,0x00,0x80,0x2f,0x00,0x00,0x90,0x30,0x40,0x82,0x00,
0x80,0x30,0x00,0x00,0x90,0x30,0x40,0x84,0x00,0x80,0x4a,0x00,0x00,0x80,0x4d,0x00,
0x00,0x80,0x52,0x00,0x00,0x90,0x4b,0x40,0x00,0x90,0x4f,0x40,0x00,0x90,0x54,0x40,
0x00,0x80,0x30,0x00,0x00,0x90,0x30,0x40,0x82,0x00,0x80,0x30,0x00,0x00,0x90,0x2e,
0x40,0x88,0x00,0x80,0x4b,0x00,0x00,0x80,0x4f,0x00,0x00,0x80,0x54,0x00,0x00,0x80,
0x2e,0x00,0x00,0x90,0x48,0x40,0x00,0x90,0x30,0x40,0x84,0x00,0x80,0x30,0x00,0x00,
0x90,0x30,0x40,0x84,0x00,0x80,0x48,0x00,0x00,0x90,0x43,0x40,0x00,0x90,0x48,0x40,
0x00,0x90,0x4b,0x40,0x00,0x80,0x30,0x00,0x00,0x90,0x30,0x40,0x84,0x00,0x80,0x30,
0x00,0x00,0x90,0x33,0x40,0x84,0x00,0x80,0x43,0x00,0x00,0x80,0x48,0x00,0x00,0x80,
0x4b,0x00,0x00,0x90,0x4d,0x40,0x00,0x90,0x44,0x40,0x00,0x90,0x48,0x40,0x00,0x80,
0x33,0x00,0x00,0x90,0x35,0x40,0x82,0x00,0x80,0x35,0x00,0x00,0x90,0x35,0x40,0x82,
0x00,0x80,0x35,0x00,0x82,0x00,0x80,0x4d,0x00,0x00,0x90,0x4b,0x40,0x00,0x90,0x35,
0x40,0x84,0x00,0x80,0x35,0x00,0x00,0x90,0x35,0x40,0x82,0x00,0x80,0x4b,0x00,0x00,
0x90,0x4d,0x40,0x00,0x80,0x35,0x00,0x00,0x90,0x30,0x40,0x84,0x00,0x80,0x4d,0x00,
0x00,0x80,0x44,0x00,0x00,0x80,0x48,0x00,0x00,0x80,0x30,0x00,0x00,0x90,0x4d,0x40,
0x00,0x90,0x2e,0x40,0x84,0x00,0x80,0x4d,0x00,0x00,0x90,0x4d,0x40,0x00,0x80,0x2e,
0x00,0x00,0x90,0x2e,0x40,0x84,0x00,0x80,0x4d,0x00,0x00,0x90,0x52,0x40,0x00,0x80,
0x2e,0x00,0x00,0x90,0x2e,0x40,0x84,0x00,0x80,0x52,0x00,0x00,0x90,0x50,0x40,0x00,
0x80,0x2e,0x00,0x00,0x90,0x32,0x40,0x84,0x00,0x80,0x50,0x00,0x00,0x90,0x4f,0x40,
0x00,0x80,0x32,0x00,0x00,0x90,0x33,0x40,0x82,0x00,0x80,0x4f,0x00,0x00,0x90,0x4d,
0x40,0x00,0x80,0x33,0x00,0x00,0x90,0x33,0x40,0x82,0x00,0x80,0x33,0x00,0x82,0x00,
0x80,0x4d,0x00,0x00,0x90,0x4f,0x40,0x00,0x90,0x33,0x40,0x82,0x00,0x80,0x33,0x00,
0x00,0x90,0x33,0x40,0x84,0x00,0x80,0x33,0x00,0x00,0x90,0x32,0x40,0x84,0x00,0x80,
0x4f,0x00,0x00,0x80,0x32,0x00,0x00,0x90,0x4b,0x40,0x00,0x90,0x4f,0x40,0x00,0x90,
0x30,0x40,0x84,0x00,0x80,0x30,0x00,0x00,0x90,0x30,0x40,0x84,0x00,0x80,0x4b,0x00,
0x00,0x80,0x4f,0x00,0x00,0x90,0x4b,0x40,0x00,0x90,0x4f,0x40,0x00,0x90,0x52,0x40,
0x00,0x80,0x30,0x00,0x00,0x90,0x30,0x40,0x84,0x00,0x80,0x30,0x00,0x00,0x90,0x33,
0x40,0x84,0x00,0x80,0x4b,0x00,0x00,0x80,0x4f,0x00,0x00,0x80,0x52,0x00,0x00,0x90,
0x4b,0x40,0x00,0x90,0x50,0x40,0x00,0x90,0x54,0x40,0x00,0x80,0x33,0x00,0x00,0x90,
0x35,0x40,0x82,0x00,0x80,0x35,0x00,0x00,0x90,0x35,0x40,0x82,0x00,0x80,0x35,0x00,
0x82,0x00,0x80,0x4b,0x00,0x00,0x80,0x50,0x00,0x00,0x80,0x54,0x00,0x00,0x90,0x4d,
0x40,0x00,0x90,0x35,0x40,0x84,0x00,0x80,0x35,0x00,0x00,0x90,0x35,0x40,0x82,0x00,
0x80,0x4d,0x00,0x00,0x90,0x4b,0x40,0x00,0x80,0x35,0x00,0x00,0x90,0x30,0x40,0x84,
0x00,0x80,0x4b,0x00,0x00,0x80,0x30,0x00,0x00,0x90,0x4a,0x40,0x00,0x90,0x4d,0x40,
0x00,0x90,0x52,0x40,0x00,0x90,0x29,0x40,0x84,0x00,0x80,0x4a,0x00,0x00,0x80,0x4d,
0x00,0x00,0x80,0x52,0x00,0x00,0x90,0x4a,0x40,0x00,0x90,0x4d,0x40,0x00,0x90,0x52,
0x40,0x00,0x80,0x29,0x00,0x00,0x90,0x29,0x40,0x84,0x00,0x80,0x4a,0x00,0x00,0x80,
0x4d,0x00,0x00,0x80,0x52,0x00,0x00,0x90,0x4a,0x40,0x00,0x90,0x4d,0x40,0x00,0x90,
0x4f,0x40,0x00,0x80,0x29,0x00,0x00,0x90,0x2b,0x40,0x84,0x00,0x80,0x4a,0x00,0x00,
0x80,0x4d,0x00,0x00,0x80,0x4f,0x00,0x00,0x90,0x4a,0x40,0x00,0x90,0x4d,0x40,0x00,
0x90,0x52,0x40,0x00,0x80,0x2b,0x00,0x00,0x90,0x2b,0x40,0x84,0x00,0x80,0x4a,0x00,
0x00,0x80,0x4d,0x00,0x00,0x80,0x52,0x00,0x00,0x90,0x4a,0x40,0x00,0x90,0x4d,0x40,
0x00,0x90,0x52,0x40,0x00,0x80,0x2b,0x00,0x00,0x90,0x2c,0x40,0x84,0x00,0x80,0x2c,
0x00,0x00,0x90,0x2c,0x40,0x82,0x00,0x80,0x4a,0x00,0x00,0x80,0x4d,0x00,0x00,0x80,
0x52,0x00,0x00,0x90,0x4b,0x40,0x00,0x90,0x4f,0x40,0x00,0x90,0x54,0x40,0x82,0x00,
0x80,0x2c,0x00,0x00,0x90,0x2e,0x40,0x84,0x00,0x80,0x2e,0x00,0x00,0x90,0x2e,0x40,
0x84,0x00,0x80,0x4b,0x00,0x00,0x80,0x4f,0x00,0x00,0x80,0x54,0x00,0x00,0x80,0x2e,
0x00,0x00,0x90,0x4b,0x40,0x00,0x90,0x43,0x40,0x00,0x90,0x48,0x40,0x00,0x90,0x2c,
0x40,0x84,0x00,0x80,0x2c,0x00,0x00,0x90,0x2c,0x40,0x82,0x00,0x80,0x4b,0x00,0x00,
0x90,0x4b,0x40,0x82,0x00,0x80,0x2c,0x00,0x00,0x90,0x2c,0x40,0x84,0x00,0x80,0x4b,
0x00,0x00,0x90,0x4a,0x40,0x00,0x80,0x2c,0x00,0x00,0x90,0x2c,0x40,0x84,0x00,0x80,
0x4a,0x00,0x00,0x90,0x4b,0x40,0x00,0x80,0x2c,0x00,0x00,0x90,0x2c,0x40,0x84,0x00,
0x80,0x2c,0x00,0x00,0x90,0x2c,0x40,0x82,0x00,0x80,0x4b,0x00,0x00,0x90,0x4b,0x40,
0x82,0x00,0x80,0x2c,0x00,0x00,0x90,0x2c,0x40,0x84,0x00,0x80,0x4b,0x00,0x00,0x90,
0x4a,0x40,0x00,0x80,0x2c,0x00,0x00,0x90,0x2c,0x40,0x84,0x00,0x80,0x4a,0x00,0x00,
0x80,0x43,0x00,0x00,0x80,0x48,0x00,0x00,0x80,0x2c,0x00,0x00,0x90,0x4d,0x40,0x00,
0x90,0x46,0x40,0x00,0x90,0x4a,0x40,0x00,0x90,0x2b,0x40,0x84,0x00,0x80,0x2b,0x00,
0x00,0x90,0x2b,0x40,0x82,0x00,0x80,0x4d,0x00,0x00,0x90,0x4d,0x40,0x82,0x00,0x80,
0x2b,0x00,0x00,0x90,0x2b,0x40,0x84,0x00,0x80,0x4d,0x00,0x00,0x90,0x4b,0x40,0x00,
0x80,0x2b,0x00,0x00,0x90,0x2b,0x40,0x84,0x00,0x80,0x4b,0x00,0x00,0x90,0x4a,0x40,
0x00,0x80,0x46,0x00,0x00,0x80,0x4a,0x00,0x00,0x90,0x43,0x40,0x00,0x90,0x46,0x40,
0x00,0x80,0x2b,0x00,0x00,0x90,0x30,0x40,0x84,0x00,0x80,0x30,0x00,0x00,0x90,0x30,
0x40,0x82,0x00,0x80,0x4a,0x00,0x00,0x90,0x48,0x40,0x82,0x00,0x80,0x30,0x00,0x00,
0x90,0x30,0x40,0x84,0x00,0x80,0x48,0x00,0x00,0x90,0x4a,0x40,0x00,0x80,0x30,0x00,
0x00,0x90,0x30,0x40,0x84,0x00,0x80,0x4a,0x00,0x00,0x80,0x43,0x00,0x00,0x80,0x46,
0x00,0x00,0x80,0x30,0x00,0x00,0x90,0x4b,0x40,0x00,0x90,0x44,0x40,0x00,0x90,0x48,
0x40,0x00,0x90,0x29,0x40,0x84,0x00,0x80,0x29,0x00,0x00,0x90,0x29,0x40,0x82,0x00,
0x80,0x4b,0x00,0x00,0x90,0x4b,0x40,0x82,0x00,0x80,0x29,0x00,0x00,0x90,0x29,0x40,
0x84,0x00,0x80,0x4b,0x00,0x00,0x90,0x4a,0x40,0x00,0x80,0x29,0x00,0x00,0x90,0x29,
0x40,0x84,0x00,0x80,0x4a,0x00,0x00,0x90,0x4d,0x40,0x00,0x80,0x44,0x00,0x00,0x80,
0x48,0x00,0x00,0x90,0x44,0x40,0x00,0x90,0x48,0x40,0x00,0x80,0x29,0x00,0x00,0x90,
0x2e,0x40,0x84,0x00,0x80,0x2e,0x00,0x00,0x90,0x2e,0x40,0x82,0x00,0x80,0x4d,0x00,
0x00,0x90,0x4a,0x40,0x82,0x00,0x80,0x2e,0x00,0x00,0x90,0x2e,0x40,0x84,0x00,0x80,
0x4a,0x00,0x00,0x90,0x48,0x40,0x00,0x80,0x2e,0x00,0x00,0x90,0x2e,0x40,0x84,0x00,
0x80,0x48,0x00,0x00,0x80,0x44,0x00,0x00,0x80,0x48,0x00,0x00,0x80,0x2e,0x00,0x00,
0x90,0x49,0x40,0x00,0x90,0x4d,0x40,0x00,0x90,0x46,0x40,0x00,0x90,0x2e,0x40,0x84,
0x00,0x80,0x2e,0x00,0x00,0x90,0x2e,0x40,0x84,0x00,0x80,0x49,0x00,0x00,0x80,0x4d,
0x00,0x00,0x90,0x4b,0x40,0x00,0x90,0x4f,0x40,0x00,0x80,0x2e,0x00,0x00,0x90,0x35,
0x40,0x84,0x00,0x80,0x35,0x00,0x00,0x90,0x34,0x40,0x84,0x00,0x80,0x4b,0x00,0x00,
0x80,0x4f,0x00,0x00,0x90,0x4d,0x40,0x00,0x90,0x50,0x40,0x00,0x80,0x46,0x00,0x00,
0x80,0x34,0x00,0x00,0x90,0x33,0x40,0x84,0x00,0x80,0x33,0x00,0x00,0x90,0x33,0x40,
0x84,0x00,0x80,0x4d,0x00,0x00,0x80,0x50,0x00,0x00,0x90,0x4f,0x40,0x00,0x90,0x52,
0x40,0x00,0x80,0x33,0x00,0x00,0x90,0x2e,0x40,0x84,0x00,0x80,0x2e,0x00,0x00,0x90,
0x2d,0x40,0x84,0x00,0x80,0x4f,0x00,0x00,0x80,0x52,0x00,0x00,0x80,0x2d,0x00,0x00,
0x90,0x48,0x40,0x00,0x90,0x4b,0x40,0x00,0x90,0x2c,0x40,0x84,0x00,0x80,0x2c,0x00,
0x00,0x90,0x2c,0x40,0x82,0x00,0x80,0x48,0x00,0x00,0x80,0x4b,0x00,0x00,0x90,0x48,
0x40,0x00,0x90,0x4b,0x40,0x82,0x00,0x80,0x2c,0x00,0x00,0x90,0x2c,0x40,0x84,0x00,
0x80,0x48,0x00,0x00,0x80,0x4b,0x00,0x00,0x90,0x46,0x40,0x00,0x90,0x4a,0x40,0x00,
0x80,0x2c,0x00,0x00,0x90,0x2c,0x40,0x84,0x00,0x80,0x46,0x00,0x00,0x80,0x4a,0x00,
0x00,0x90,0x48,0x40,0x00,0x90,0x4b,0x40,0x00,0x80,0x2c,0x00,0x00,0x90,0x2c,0x40,
0x84,0x00,0x80,0x2c,0x00,0x00,0x90,0x2c,0x40,0x82,0x00,0x80,0x48,0x00,0x00,0x80,
0x4b,0x00,0x00,0x90,0x48,0x40,0x00,0x90,0x4b,0x40,0x82,0x00,0x80,0x2c,0x00,0x00,
0x90,0x2c,0x40,0x84,0x00,0x80,0x48,0x00,0x00,0x80,0x4b,0x00,0x00,0x90,0x46,0x40,
0x00,0x90,0x4a,0x40,0x00,0x80,0x2c,0x00,0x00,0x90,0x2c,0x40,0x84,0x00,0x80,0x46,
0x00,0x00,0x80,0x4a,0x00,0x00,0x80,0x2c,0x00,0x00,0x90,0x4a,0x40,0x00,0x90,0x4d,
0x40,0x00,0x90,0x2b,0x40,0x84,0x00,0x80,0x2b,0x00,0x00,0x90,0x2b,0x40,0x82,0x00,
0x80,0x4a,0x00,0x00,0x80,0x4d,0x00,0x00,0x90,0x4a,0x40,0x00,0x90,0x4d,0x40,0x82,
0x00,0x80,0x2b,0x00,0x00,0x90,0x2b,0x40,0x84,0x00,0x80,0x4a,0x00,0x00,0x80,0x4d,
0x00,0x00,0x90,0x48,0x40,0x00,0x90,0x4b,0x40,0x00,0x80,0x2b,0x00,0x00,0x90,0x2b,
0x40,0x84,0x00,0x80,0x48,0x00,0x00,0x80,0x4b,0x00,0x00,0x90,0x46,0x40,0x00,0x90,
0x4a,0x40,0x00,0x80,0x2b,0x00,0x00,0x90,0x30,0x40,0x84,0x00,0x80,0x30,0x00,0x00,
0x90,0x30,0x40,0x82,0x00,0x80,0x46,0x00,0x00,0x80,0x4a,0x00,0x00,0x90,0x48,0x40,
0x00,0x90,0x4b,0x40,0x82,0x00,0x80,0x30,0x00,0x00,0x90,0x30,0x40,0x84,0x00,0x80,
0x48,0x00,0x00,0x80,0x4b,0x00,0x00,0x90,0x4a,0x40,0x00,0x90,0x4d,0x40,0x00,0x80,
0x30,0x00,0x00,0x90,0x30,0x40,0x84,0x00,0x80,0x4a,0x00,0x00,0x80,0x4d,0x00,0x00,
0x80,0x30,0x00,0x00,0x90,0x48,0x40,0x00,0x90,0x4a,0x40,0x00,0x90,0x4f,0x40,0x00,
0x90,0x32,0x40,0x84,0x00,0x80,0x32,0x00,0x00,0x90,0x32,0x40,0x82,0x00,0x80,0x48,
0x00,0x00,0x80,0x4a,0x00,0x00,0x80,0x4f,0x00,0x00,0x90,0x48,0x40,0x00,0x90,0x4a,
0x40,0x00,0x90,0x50,0x40,0x82,0x00,0x80,0x32,0x00,0x00,0x90,0x32,0x40,0x84,0x00,
0x80,0x48,0x00,0x00,0x80,0x4a,0x00,0x00,0x80,0x50,0x00,0x00,0x90,0x48,0x40,0x00,
0x90,0x4a,0x40,0x00,0x90,0x4f,0x40,0x00,0x80,0x32,0x00,0x00,0x90,0x32,0x40,0x84,
0x00,0x80,0x48,0x00,0x00,0x80,0x4a,0x00,0x00,0x80,0x4f,0x00,0x00,0x90,0x48,0x40,
0x00,0x90,0x4a,0x40,0x00,0x90,0x4d,0x40,0x00,0x80,0x32,0x00,0x00,0x90,0x32,0x40,
0x84,0x00,0x80,0x32,0x00,0x00,0x90,0x32,0x40,0x82,0x00,0x80,0x48,0x00,0x00,0x80,
0x4a,0x00,0x00,0x80,0x4d,0x00,0x00,0x90,0x48,0x40,0x00,0x90,0x4b,0x40,0x82,0x00,
0x80,0x32,0x00,0x00,0x90,0x32,0x40,0x84,0x00,0x80,0x48,0x00,0x00,0x80,0x4b,0x00,
0x00,0x90,0x48,0x40,0x00,0x90,0x4a,0x40,0x00,0x90,0x4d,0x40,0x00,0x80,0x32,0x00,
0x00,0x90,0x32,0x40,0x84,0x00,0x80,0x48,0x00,0x00,0x80,0x4a,0x00,0x00,0x80,0x4d,
0x00,0x00,0x80,0x32,0x00,0x00,0x90,0x45,0x40,0x00,0x90,0x48,0x40,0x00,0x90,0x4d,
0x40,0x00,0x90,0x4f,0x40,0x00,0x90,0x2b,0x40,0x90,0x00,0x80,0x45,0x00,0x00,0x80,
0x48,0x00,0x00,0x80,0x4d,0x00,0x00,0x80,0x4f,0x00,0x00,0x90,0x47,0x40,0x00,0x90,
0x4a,0x40,0x00,0x90,0x4f,0x40,0x00,0x80,0x2b,0x00,0x00,0x90,0x2b,0x40,0x86,0x00,
0x80,0x47,0x00,0x00,0x80,0x4a,0x00,0x00,0x80,0x4f,0x00,0x00,0x90,0x48,0x40,0x00,
0x90,0x4d,0x40,0x00,0x90,0x51,0x40,0x00,0x80,0x2b,0x00,0x00,0x90,0x2b,0x40,0x86,
0x00,0x80,0x48,0x00,0x00,0x80,0x4d,0x00,0x00,0x80,0x51,0x00,0x00,0x90,0x4a,0x40,
0x00,0x90,0x4f,0x40,0x00,0x90,0x53,0x40,0x00,0x80,0x2b,0x00,0x00,0x90,0x2b,0x40,
0x84,0x00,0x80,0x4a,0x00,0x00,0x80,0x4f,0x00,0x00,0x80,0x53,0x00,0x00,0x80,0x2b,
0x00,0x00,0x90,0x48,0x40,0x00,0x90,0x30,0x40,0x84,0x00,0x80,0x30,0x00,0x00,0x90,
0x30,0x40,0x84,0x00,0x80,0x48,0x00,0x00,0x90,0x43,0x40,0x00,0x90,0x48,0x40,0x00,
0x90,0x4b,0x40,0x00,0x80,0x30,0x00,0x00,0x90,0x30,0x40,0x84,0x00,0x80,0x30,0x00,
0x00,0x90,0x33,0x40,0x84,0x00,0x80,0x43,0x00,0x00,0x80,0x48,0x00,0x00,0x80,0x4b,
0x00,0x00,0x90,0x4d,0x40,0x00,0x90,0x44,0x40,0x00,0x90,0x48,0x40,0x00,0x80,0x33,
0x00,0x00,0x90,0x35,0x40,0x82,0x00,0x80,0x35,0x00,0x00,0x90,0x35,0x40,0x82,0x00,
0x80,0x35,0x00,0x82,0x00,0x80,0x4d,0x00,0x00,0x90,0x4b,0x40,0x00,0x90,0x35,0x40,
0x84,0x00,0x80,0x35,0x00,0x00,0x90,0x35,0x40,0x82,0x00,0x80,0x4b,0x00,0x00,0x90,
0x4d,0x40,0x00,0x80,0x35,0x00,0x00,0x90,0x30,0x40,0x84,0x00,0x80,0x4d,0x00,0x00,
0x80,0x44,0x00,0x00,0x80,0x48,0x00,0x00,0x80,0x30,0x00,0x00,0x90,0x4d,0x40,0x00,
0x90,0x2e,0x40,0x84,0x00,0x80,0x4d,0x00,0x00,0x90,0x4d,0x40,0x00,0x80,0x2e,0x00,
0x00,0x90,0x2e,0x40,0x84,0x00,0x80,0x4d,0x00,0x00,0x90,0x52,0x40,0x00,0x80,0x2e,
0x00,0x00,0x90,0x2e,0x40,0x84,0x00,0x80,0x52,0x00,0x00,0x90,0x50,0x40,0x00,0x80,
0x2e,0x00,0x00,0x90,0x32,0x40,0x84,0x00,0x80,0x50,0x00,0x00,0x90,0x4f,0x40,0x00,
0x80,0x32,0x00,0x00,0x90,0x33,0x40,0x82,0x00,0x80,0x4f,0x00,0x00,0x90,0x4d,0x40,
0x00,0x80,0x33,0x00,0x00,0x90,0x33,0x40,0x82,0x00,0x80,0x33,0x00,0x82,0x00,0x80,
0x4d,0x00,0x00,0x90,0x4f,0x40,0x00,0x90,0x33,0x40,0x82,0x00,0x80,0x33,0x00,0x00,
0x90,0x33,0x40,0x84,0x00,0x80,0x33,0x00,0x00,0x90,0x32,0x40,0x84,0x00,0x80,0x4f,
0x00,0x00,0x80,0x32,0x00,0x00,0x90,0x4b,0x40,0x00,0x90,0x4f,0x40,0x00,0x90,0x30,
0x40,0x84,0x00,0x80,0x30,0x00,0x00,0x90,0x30,0x40,0x84,0x00,0x80,0x4b,0x00,0x00,
0x80,0x4f,0x00,0x00,0x90,0x4b,0x40,0x00,0x90,0x4f,0x40,0x00,0x90,0x52,0x40,0x00,
0x80,0x30,0x00,0x00,0x90,0x30,0x40,0x84,0x00,0x80,0x30,0x00,0x00,0x90,0x33,0x40,
0x84,0x00,0x80,0x4b,0x00,0x00,0x80,0x4f,0x00,0x00,0x80,0x52,0x00,0x00,0x90,0x4b,
0x40,0x00,0x90,0x50,0x40,0x00,0x90,0x54,0x40,0x00,0x80,0x33,0x00,0x00,0x90,0x35,
0x40,0x82,0x00,0x80,0x35,0x00,0x00,0x90,0x35,0x40,0x82,0x00,0x80,0x35,0x00,0x82,
0x00,0x80,0x4b,0x00,0x00,0x80,0x50,0x00,0x00,0x80,0x54,0x00,0x00,0x90,0x4d,0x40,
0x00,0x90,0x35,0x40,0x84,0x00,0x80,0x35,0x00,0x00,0x90,0x35,0x40,0x82,0x00,0x80,
0x4d,0x00,0x00,0x90,0x4b,0x40,0x00,0x80,0x35,0x00,0x00,0x90,0x30,0x40,0x84,0x00,
0x80,0x4b,0x00,0x00,0x80,0x30,0x00,0x00,0x90,0x4a,0x40,0x00,0x90,0x2e,0x40,0x84,
0x00,0x80,0x4a,0x00,0x00,0x90,0x4a,0x40,0x00,0x80,0x2e,0x00,0x00,0x90,0x2e,0x40,
0x84,0x00,0x80,0x4a,0x00,0x00,0x90,0x48,0x40,0x00,0x80,0x2e,0x00,0x00,0x90,0x2e,
0x40,0x84,0x00,0x80,0x48,0x00,0x00,0x90,0x4a,0x40,0x00,0x80,0x2e,0x00,0x00,0x90,
0x32,0x40,0x84,0x00,0x80,0x4a,0x00,0x00,0x90,0x4d,0x40,0x00,0x80,0x32,0x00,0x00,
0x90,0x33,0x40,0x82,0x00,0x80,0x4d,0x00,0x00,0x90,0x4b,0x40,0x84,0x00,0x80,0x4b,
0x00,0x00,0x90,0x4b,0x40,0x82,0x00,0x80,0x33,0x00,0x00,0x90,0x32,0x40,0x88,0x00,
0x80,0x4b,0x00,0x00,0x80,0x32,0x00,0x00,0x90,0x48,0x40,0x00,0x90,0x30,0x40,0x84,
0x00,0x80,0x30,0x00,0x00,0x90,0x30,0x40,0x84,0x00,0x80,0x48,0x00,0x00,0x90,0x43,
0x40,0x00,0x90,0x48,0x40,0x00,0x90,0x4b,0x40,0x00,0x80,0x30,0x00,0x00,0x90,0x30,
0x40,0x84,0x00,0x80,0x30,0x00,0x00,0x90,0x33,0x40,0x84,0x00,0x80,0x43,0x00,0x00,
0x80,0x48,0x00,0x00,0x80,0x4b,0x00,0x00,0x90,0x4d,0x40,0x00,0x90,0x44,0x40,0x00,
0x90,0x48,0x40,0x00,0x80,0x33,0x00,0x00,0x90,0x35,0x40,0x82,0x00,0x80,0x35,0x00,
0x00,0x90,0x35,0x40,0x82,0x00,0x80,0x35,0x00,0x82,0x00,0x80,0x4d,0x00,0x00,0x90,
0x4b,0x40,0x00,0x90,0x35,0x40,0x84,0x00,0x80,0x35,0x00,0x00,0x90,0x35,0x40,0x82,
0x00,0x80,0x4b,0x00,0x00,0x90,0x4d,0x40,0x00,0x80,0x35,0x00,0x00,0x90,0x30,0x40,
0x84,0x00,0x80,0x4d,0x00,0x00,0x80,0x44,0x00,0x00,0x80,0x48,0x00,0x00,0x80,0x30,
0x00,0x00,0x90,0x4d,0x40,0x00,0x90,0x2e,0x40,0x84,0x00,0x80,0x4d,0x00,0x00,0x90,
0x4d,0x40,0x00,0x80,0x2e,0x00,0x00,0x90,0x2e,0x40,0x84,0x00,0x80,0x4d,0x00,0x00,
0x90,0x52,0x40,0x00,0x80,0x2e,0x00,0x00,0x90,0x2e,0x40,0x84,0x00,0x80,0x52,0x00,
0x00,0x90,0x50,0x40,0x00,0x80,0x2e,0x00,0x00,0x90,0x32,0x40,0x84,0x00,0x80,0x50,
0x00,0x00,0x90,0x4f,0x40,0x00,0x80,0x32,0x00,0x00,0x90,0x33,0x40,0x82,0x00,0x80,
0x4f,0x00,0x00,0x90,0x4d,0x40,0x00,0x80,0x33,0x00,0x00,0x90,0x33,0x40,0x82,0x00,
0x80,0x33,0x00,0x82,0x00,0x80,0x4d,0x00,0x00,0x90,0x4f,0x40,0x00,0x90,0x33,0x40,
0x82,0x00,0x80,0x33,0x00,0x00,0x90,0x33,0x40,0x84,0x00,0x80,0x33,0x00,0x00,0x90,
0x32,0x40,0x84,0x00,0x80,0x4f,0x00,0x00,0x80,0x32,0x00,0x00,0x90,0x4b,0x40,0x00,
0x90,0x4f,0x40,0x00,0x90,0x30,0x40,0x84,0x00,0x80,0x30,0x00,0x00,0x90,0x30,0x40,
0x84,0x00,0x80,0x4b,0x00,0x00,0x80,0x4f,0x00,0x00,0x90,0x4b,0x40,0x00,0x90,0x4f,
0x40,0x00,0x90,0x52,0x40,0x00,0x80,0x30,0x00,0x00,0x90,0x30,0x40,0x84,0x00,0x80,
0x30,0x00,0x00,0x90,0x33,0x40,0x84,0x00,0x80,0x4b,0x00,0x00,0x80,0x4f,0x00,0x00,
0x80,0x52,0x00,0x00,0x90,0x4b,0x40,0x00,0x90,0x50,0x40,0x00,0x90,0x54,0x40,0x00,
0x80,0x33,0x00,0x00,0x90,0x35,0x40,0x82,0x00,0x80,0x35,0x00,0x00,0x90,0x35,0x40,
0x82,0x00,0x80,0x35,0x00,0x82,0x00,0x80,0x4b,0x00,0x00,0x80,0x50,0x00,0x00,0x80,
0x54,0x00,0x00,0x90,0x4d,0x40,0x00,0x90,0x35,0x40,0x84,0x00,0x80,0x35,0x00,0x00,
0x90,0x35,0x40,0x82,0x00,0x80,0x4d,0x00,0x00,0x90,0x4b,0x40,0x00,0x80,0x35,0x00,
0x00,0x90,0x30,0x40,0x84,0x00,0x80,0x4b,0x00,0x00,0x80,0x30,0x00,0x00,0x90,0x4a,
0x40,0x00,0x90,0x4d,0x40,0x00,0x90,0x52,0x40,0x00,0x90,0x2e,0x40,0x84,0x00,0x80,
0x4a,0x00,0x00,0x80,0x4d,0x00,0x00,0x80,0x52,0x00,0x00,0x90,0x4a,0x40,0x00,0x90,
0x4d,0x40,0x00,0x90,0x52,0x40,0x00,0x80,0x2e,0x00,0x00,0x90,0x2e,0x40,0x84,0x00,
0x80,0x4a,0x00,0x00,0x80,0x4d,0x00,0x00,0x80,0x52,0x00,0x00,0x90,0x4a,0x40,0x00,
0x90,0x4d,0x40,0x00,0x90,0x4f,0x40,0x00,0x80,0x2e,0x00,0x00,0x90,0x2e,0x40,0x84,
0x00,0x80,0x4a,0x00,0x00,0x80,0x4d,0x00,0x00,0x80,0x4f,0x00,0x00,0x90,0x4a,0x40,
0x00,0x90,0x4d,0x40,0x00,0x90,0x52,0x40,0x00,0x80,0x2e,0x00,0x00,0x90,0x2f,0x40,
0x84,0x00,0x80,0x4a,0x00,0x00,0x80,0x4d,0x00,0x00,0x80,0x52,0x00,0x00,0x90,0x4a,
0x40,0x00,0x90,0x4d,0x40,0x00,0x90,0x52,0x40,0x00,0x80,0x2f,0x00,0x00,0x90,0x30,
0x40,0x82,0x00,0x80,0x30,0x00,0x00,0x90,0x30,0x40,0x84,0x00,0x80,0x4a,0x00,0x00,
0x80,0x4d,0x00,0x00,0x80,0x52,0x00,0x00,0x90,0x4b,0x40,0x00,0x90,0x4f,0x40,0x00,
0x90,0x54,0x40,0x00,0x80,0x30,0x00,0x00,0x90,0x30,0x40,0x82,0x00,0x80,0x30,0x00,
0x00,0x90,0x2e,0x40,0x88,0x00,0x80,0x4b,0x00,0x00,0x80,0x4f,0x00,0x00,0x80,0x54,
0x00,0x00,0x80,0x2e,0x00,0x00,0x90,0x48,0x40,0x00,0x90,0x30,0x40,0x84,0x00,0x80,
0x30,0x00,0x00,0x90,0x30,0x40,0x84,0x00,0x80,0x48,0x00,0x00,0x90,0x43,0x40,0x00,
0x90,0x48,0x40,0x00,0x90,0x4b,0x40,0x00,0x80,0x30,0x00,0x00,0x90,0x30,0x40,0x84,
0x00,0x80,0x30,0x00,0x00,0x90,0x33,0x40,0x84,0x00,0x80,0x43,0x00,0x00,0x80,0x48,
0x00,0x00,0x80,0x4b,0x00,0x00,0x90,0x4d,0x40,0x00,0x90,0x44,0x40,0x00,0x90,0x48,
0x40,0x00,0x80,0x33,0x00,0x00,0x90,0x35,0x40,0x82,0x00,0x80,0x35,0x00,0x00,0x90,
0x35,0x40,0x82,0x00,0x80,0x35,0x00,0x82,0x00,0x80,0x4d,0x00,0x00,0x90,0x4b,0x40,
0x00,0x90,0x35,0x40,0x84,0x00,0x80,0x35,0x00,0x00,0x90,0x35,0x40,0x82,0x00,0x80,
0x4b,0x00,0x00,0x90,0x4d,0x40,0x00,0x80,0x35,0x00,0x00,0x90,0x30,0x40,0x84,0x00,
0x80,0x4d,0x00,0x00,0x80,0x44,0x00,0x00,0x80,0x48,0x00,0x00,0x80,0x30,0x00,0x00,
0x90,0x4d,0x40,0x00,0x90,0x2e,0x40,0x84,0x00,0x80,0x4d,0x00,0x00,0x90,0x4d,0x40,
0x00,0x80,0x2e,0x00,0x00,0x90,0x2e,0x40,0x84,0x00,0x80,0x4d,0x00,0x00,0x90,0x52,
0x40,0x00,0x80,0x2e,0x00,0x00,0x90,0x2e,0x40,0x84,0x00,0x80,0x52,0x00,0x00,0x90,
0x50,0x40,0x00,0x80,0x2e,0x00,0x00,0x90,0x32,0x40,0x84,0x00,0x80,0x50,0x00,0x00,
0x90,0x4f,0x40,0x00,0x80,0x32,0x00,0x00,0x90,0x33,0x40,0x82,0x00,0x80,0x4f,0x00,
0x00,0x90,0x4d,0x40,0x00,0x80,0x33,0x00,0x00,0x90,0x33,0x40,0x82,0x00,0x80,0x33,
0x00,0x82,0x00,0x80,0x4d,0x00,0x00,0x90,0x4f,0x40,0x00,0x90,0x33,0x40,0x82,0x00,
0x80,0x33,0x00,0x00,0x90,0x33,0x40,0x84,0x00,0x80,0x33,0x00,0x00,0x90,0x32,0x40,
0x84,0x00,0x80,0x4f,0x00,0x00,0x80,0x32,0x00,0x00,0x90,0x4b,0x40,0x00,0x90,0x4f,
0x40,0x00,0x90,0x30,0x40,0x84,0x00,0x80,0x30,0x00,0x00,0x90,0x30,0x40,0x84,0x00,
0x80,0x4b,0x00,0x00,0x80,0x4f,0x00,0x00,0x90,0x4b,0x40,0x00,0x90,0x4f,0x40,0x00,
0x90,0x52,0x40,0x00,0x80,0x30,0x00,0x00,0x90,0x30,0x40,0x84,0x00,0x80,0x30,0x00,
0x00,0x90,0x33,0x40,0x84,0x00,0x80,0x4b,0x00,0x00,0x80,0x4f,0x00,0x00,0x80,0x52,
0x00,0x00,0x90,0x4b,0x40,0x00,0x90,0x50,0x40,0x00,0x90,0x54,0x40,0x00,0x80,0x33,
0x00,0x00,0x90,0x35,0x40,0x82,0x00,0x80,0x35,0x00,0x00,0x90,0x35,0x40,0x82,0x00,
0x80,0x35,0x00,0x82,0x00,0x80,0x4b,0x00,0x00,0x80,0x50,0x00,0x00,0x80,0x54,0x00,
0x00,0x90,0x4d,0x40,0x00,0x90,0x35,0x40,0x84,0x00,0x80,0x35,0x00,0x00,0x90,0x35,
0x40,0x82,0x00,0x80,0x4d,0x00,0x00,0x90,0x4b,0x40,0x00,0x80,0x35,0x00,0x00,0x90,
0x30,0x40,0x84,0x00,0x80,0x4b,0x00,0x00,0x80,0x30,0x00,0x00,0x90,0x4a,0x40,0x00,
0x90,0x4d,0x40,0x00,0x90,0x52,0x40,0x00,0x90,0x2e,0x40,0x84,0x00,0x80,0x4a,0x00,
0x00,0x80,0x4d,0x00,0x00,0x80,0x52,0x00,0x00,0x90,0x4a,0x40,0x00,0x90,0x4d,0x40,
0x00,0x90,0x52,0x40,0x00,0x80,0x2e,0x00,0x00,0x90,0x2e,0x40,0x84,0x00,0x80,0x4a,
0x00,0x00,0x80,0x4d,0x00,0x00,0x80,0x52,0x00,0x00,0x90,0x4a,0x40,0x00,0x90,0x4d,
0x40,0x00,0x90,0x4f,0x40,0x00,0x80,0x2e,0x00,0x00,0x90,0x2b,0x40,0x84,0x00,0x80,
0x4a,0x00,0x00,0x80,0x4d,0x00,0x00,0x80,0x4f,0x00,0x00,0x90,0x4a,0x40,0x00,0x90,
0x4d,0x40,0x00,0x90,0x52,0x40,0x00,0x80,0x2b,0x00,0x00,0x90,0x2e,0x40,0x84,0x00,
0x80,0x4a,0x00,0x00,0x80,0x4d,0x00,0x00,0x80,0x52,0x00,0x00,0x90,0x4a,0x40,0x00,
0x90,0x4d,0x40,0x00,0x90,0x52,0x40,0x00,0x80,0x2e,0x00,0x00,0x90,0x2e,0x40,0x86,
0x00,0x80,0x4a,0x00,0x00,0x80,0x4d,0x00,0x00,0x80,0x52,0x00,0x00,0x90,0x4b,0x40,
0x00,0x90,0x4f,0x40,0x00,0x90,0x54,0x40,0x00,0x80,0x2e,0x00,0x00,0x90,0x30,0x40,
0x8a,0x00,0x80,0x4b,0x00,0x00,0x80,0x4f,0x00,0x00,0x80,0x54,0x00,0x00,0x80,0x30,
0x00,0x00,0xff,0x2f,0x00,
};
