#include <stdint.h>
const uint8_t midifile[] = {
        0x4D, 0x54, 0x68, 0x64, 0x00, 0x00, 0x00, 0x06, 0x00, 0x01, 0x00, 0x05, 0x00, 0x60, 0x4D, 0x54,
        0x72, 0x6B, 0x00, 0x00, 0x00, 0x2D, 0x00, 0xFF, 0x03, 0x0B, 0x4D, 0x65, 0x67, 0x61, 0x6C, 0x6F,
        0x76, 0x61, 0x6E, 0x69, 0x61, 0x00, 0xFF, 0x02, 0x08, 0x54, 0x6F, 0x62, 0x79, 0x20, 0x46, 0x6F,
        0x78, 0x00, 0xFF, 0x58, 0x04, 0x04, 0x02, 0x18, 0x08, 0x00, 0xFF, 0x59, 0x02, 0xFF, 0x01, 0x00,
        0xFF, 0x2F, 0x00, 0x4D, 0x54, 0x72, 0x6B, 0x00, 0x00, 0x00, 0x0B, 0x00, 0xFF, 0x51, 0x03, 0x03,
        0xFB, 0x06, 0x00, 0xFF, 0x2F, 0x00, 0x4D, 0x54, 0x72, 0x6B, 0x00, 0x00, 0x26, 0xB9, 0x00, 0xB9,
        0x0A, 0x40, 0x00, 0xB9, 0x07, 0x69, 0x00, 0xE9, 0x00, 0x40, 0x00, 0xB9, 0x65, 0x00, 0x00, 0xB9,
        0x64, 0x00, 0x00, 0xB9, 0x06, 0x0C, 0x00, 0xC9, 0x00, 0x00, 0xB9, 0x5B, 0x13, 0x00, 0xB9, 0x40,
        0x00, 0xAD, 0x00, 0x99, 0x37, 0x1F, 0x30, 0x89, 0x37, 0x40, 0x30, 0x99, 0x37, 0x30, 0x30, 0x89,
        0x37, 0x40, 0x30, 0x99, 0x37, 0x41, 0x30, 0x89, 0x37, 0x40, 0x30, 0x99, 0x37, 0x52, 0x30, 0x89,
        0x37, 0x40, 0x30, 0x99, 0x39, 0x54, 0x00, 0x99, 0x2E, 0x31, 0x00, 0x99, 0x24, 0x52, 0x30, 0x89,
        0x24, 0x40, 0x00, 0x89, 0x2E, 0x40, 0x00, 0x89, 0x39, 0x40, 0x30, 0x99, 0x28, 0x52, 0x00, 0x99,
        0x2E, 0x31, 0x30, 0x89, 0x2E, 0x40, 0x00, 0x89, 0x28, 0x40, 0x30, 0x99, 0x2E, 0x31, 0x00, 0x99,
        0x24, 0x52, 0x30, 0x89, 0x24, 0x40, 0x00, 0x89, 0x2E, 0x40, 0x30, 0x99, 0x28, 0x51, 0x00, 0x99,
        0x2E, 0x31, 0x30, 0x89, 0x28, 0x40, 0x00, 0x89, 0x2E, 0x40, 0x00, 0x99, 0x24, 0x51, 0x30, 0x89,
        0x24, 0x40, 0x00, 0x99, 0x2E, 0x31, 0x30, 0x89, 0x2E, 0x40, 0x00, 0x99, 0x24, 0x51, 0x30, 0x89,
        0x24, 0x40, 0x00, 0x99, 0x28, 0x51, 0x00, 0x99, 0x2E, 0x31, 0x30, 0x89, 0x2E, 0x40, 0x00, 0x89,
        0x28, 0x40, 0x00, 0x99, 0x24, 0x50, 0x30, 0x89, 0x24, 0x40, 0x00, 0x99, 0x2E, 0x31, 0x00, 0x99,
        0x24, 0x50, 0x30, 0x89, 0x24, 0x40, 0x00, 0x89, 0x2E, 0x40, 0x30, 0x99, 0x28, 0x50, 0x00, 0x99,
        0x24, 0x50, 0x00, 0x99, 0x2E, 0x31, 0x30, 0x89, 0x2E, 0x40, 0x00, 0x89, 0x24, 0x40, 0x00, 0x89,
        0x28, 0x40, 0x30, 0x99, 0x2E, 0x31, 0x00, 0x99, 0x24, 0x52, 0x30, 0x89, 0x24, 0x40, 0x00, 0x89,
        0x2E, 0x40, 0x30, 0x99, 0x28, 0x52, 0x00, 0x99, 0x2E, 0x31, 0x30, 0x89, 0x2E, 0x40, 0x00, 0x89,
        0x28, 0x40, 0x30, 0x99, 0x2E, 0x31, 0x00, 0x99, 0x24, 0x52, 0x30, 0x89, 0x24, 0x40, 0x00, 0x89,
        0x2E, 0x40, 0x30, 0x99, 0x2E, 0x31, 0x00, 0x99, 0x28, 0x51, 0x30, 0x89, 0x2E, 0x40, 0x00, 0x89,
        0x28, 0x40, 0x00, 0x99, 0x24, 0x51, 0x30, 0x89, 0x24, 0x40, 0x00, 0x99, 0x2E, 0x31, 0x30, 0x89,
        0x2E, 0x40, 0x00, 0x99, 0x24, 0x51, 0x30, 0x89, 0x24, 0x40, 0x00, 0x99, 0x2E, 0x31, 0x00, 0x99,
        0x28, 0x51, 0x30, 0x89, 0x28, 0x40, 0x00, 0x89, 0x2E, 0x40, 0x00, 0x99, 0x24, 0x50, 0x30, 0x89,
        0x24, 0x40, 0x00, 0x99, 0x2E, 0x31, 0x00, 0x99, 0x24, 0x50, 0x30, 0x89, 0x24, 0x40, 0x00, 0x89,
        0x2E, 0x40, 0x30, 0x99, 0x2E, 0x31, 0x00, 0x99, 0x24, 0x50, 0x00, 0x99, 0x28, 0x50, 0x30, 0x89,
        0x28, 0x40, 0x00, 0x89, 0x24, 0x40, 0x00, 0x89, 0x2E, 0x40, 0x30, 0x99, 0x2E, 0x31, 0x00, 0x99,
        0x24, 0x52, 0x30, 0x89, 0x24, 0x40, 0x00, 0x89, 0x2E, 0x40, 0x30, 0x99, 0x2E, 0x31, 0x00, 0x99,
        0x28, 0x52, 0x30, 0x89, 0x28, 0x40, 0x00, 0x89, 0x2E, 0x40, 0x30, 0x99, 0x2E, 0x31, 0x00, 0x99,
        0x24, 0x52, 0x30, 0x89, 0x24, 0x40, 0x00, 0x89, 0x2E, 0x40, 0x30, 0x99, 0x2E, 0x31, 0x00, 0x99,
        0x28, 0x51, 0x30, 0x89, 0x2E, 0x40, 0x00, 0x89, 0x28, 0x40, 0x00, 0x99, 0x24, 0x51, 0x30, 0x89,
        0x24, 0x40, 0x00, 0x99, 0x2E, 0x31, 0x30, 0x89, 0x2E, 0x40, 0x00, 0x99, 0x24, 0x51, 0x30, 0x89,
        0x24, 0x40, 0x00, 0x99, 0x2E, 0x31, 0x00, 0x99, 0x28, 0x51, 0x30, 0x89, 0x28, 0x40, 0x00, 0x89,
        0x2E, 0x40, 0x00, 0x99, 0x24, 0x50, 0x30, 0x89, 0x24, 0x40, 0x00, 0x99, 0x2E, 0x31, 0x00, 0x99,
        0x24, 0x50, 0x30, 0x89, 0x24, 0x40, 0x00, 0x89, 0x2E, 0x40, 0x30, 0x99, 0x2E, 0x31, 0x00, 0x99,
        0x24, 0x50, 0x00, 0x99, 0x28, 0x50, 0x30, 0x89, 0x28, 0x40, 0x00, 0x89, 0x24, 0x40, 0x00, 0x89,
        0x2E, 0x40, 0x30, 0x99, 0x2E, 0x31, 0x00, 0x99, 0x24, 0x52, 0x30, 0x89, 0x24, 0x40, 0x00, 0x89,
        0x2E, 0x40, 0x30, 0x99, 0x2E, 0x31, 0x00, 0x99, 0x28, 0x52, 0x30, 0x89, 0x28, 0x40, 0x00, 0x89,
        0x2E, 0x40, 0x30, 0x99, 0x2E, 0x31, 0x00, 0x99, 0x24, 0x52, 0x30, 0x89, 0x24, 0x40, 0x00, 0x89,
        0x2E, 0x40, 0x00, 0x99, 0x28, 0x51, 0x30, 0x89, 0x28, 0x40, 0x00, 0x99, 0x2E, 0x31, 0x30, 0x89,
        0x2E, 0x40, 0x00, 0x99, 0x24, 0x51, 0x00, 0x99, 0x28, 0x51, 0x30, 0x89, 0x28, 0x40, 0x00, 0x89,
        0x24, 0x40, 0x00, 0x99, 0x2E, 0x31, 0x30, 0x89, 0x2E, 0x40, 0x00, 0x99, 0x24, 0x51, 0x30, 0x89,
        0x24, 0x40, 0x00, 0x99, 0x28, 0x51, 0x00, 0x99, 0x2E, 0x31, 0x30, 0x89, 0x2E, 0x40, 0x00, 0x89,
        0x28, 0x40, 0x00, 0x99, 0x24, 0x50, 0x30, 0x89, 0x24, 0x40, 0x00, 0x99, 0x2E, 0x31, 0x00, 0x99,
        0x24, 0x50, 0x00, 0x99, 0x28, 0x51, 0x30, 0x89, 0x28, 0x40, 0x00, 0x89, 0x2E, 0x40, 0x00, 0x89,
        0x24, 0x40, 0x30, 0x99, 0x28, 0x50, 0x00, 0x99, 0x24, 0x50, 0x00, 0x99, 0x2E, 0x31, 0x30, 0x89,
        0x2E, 0x40, 0x00, 0x89, 0x24, 0x40, 0x00, 0x89, 0x28, 0x40, 0x30, 0x99, 0x39, 0x52, 0x00, 0x99,
        0x2E, 0x31, 0x00, 0x99, 0x24, 0x52, 0x30, 0x89, 0x24, 0x40, 0x00, 0x89, 0x2E, 0x40, 0x00, 0x89,
        0x39, 0x40, 0x30, 0x99, 0x28, 0x52, 0x00, 0x99, 0x2E, 0x31, 0x30, 0x89, 0x2E, 0x40, 0x00, 0x89,
        0x28, 0x40, 0x30, 0x99, 0x2E, 0x31, 0x00, 0x99, 0x24, 0x52, 0x30, 0x89, 0x24, 0x40, 0x00, 0x89,
        0x2E, 0x40, 0x30, 0x99, 0x28, 0x51, 0x00, 0x99, 0x2E, 0x31, 0x30, 0x89, 0x28, 0x40, 0x00, 0x89,
        0x2E, 0x40, 0x00, 0x99, 0x24, 0x51, 0x30, 0x89, 0x24, 0x40, 0x00, 0x99, 0x2E, 0x31, 0x30, 0x89,
        0x2E, 0x40, 0x00, 0x99, 0x24, 0x51, 0x30, 0x89, 0x24, 0x40, 0x00, 0x99, 0x28, 0x51, 0x00, 0x99,
        0x2E, 0x31, 0x30, 0x89, 0x2E, 0x40, 0x00, 0x89, 0x28, 0x40, 0x00, 0x99, 0x24, 0x50, 0x30, 0x89,
        0x24, 0x40, 0x00, 0x99, 0x2E, 0x31, 0x00, 0x99, 0x24, 0x50, 0x30, 0x89, 0x24, 0x40, 0x00, 0x89,
        0x2E, 0x40, 0x30, 0x99, 0x28, 0x50, 0x00, 0x99, 0x24, 0x50, 0x00, 0x99, 0x2E, 0x31, 0x30, 0x89,
        0x2E, 0x40, 0x00, 0x89, 0x24, 0x40, 0x00, 0x89, 0x28, 0x40, 0x30, 0x99, 0x2E, 0x31, 0x00, 0x99,
        0x24, 0x52, 0x30, 0x89, 0x24, 0x40, 0x00, 0x89, 0x2E, 0x40, 0x30, 0x99, 0x28, 0x52, 0x00, 0x99,
        0x2E, 0x31, 0x30, 0x89, 0x2E, 0x40, 0x00, 0x89, 0x28, 0x40, 0x30, 0x99, 0x2E, 0x31, 0x00, 0x99,
        0x24, 0x52, 0x30, 0x89, 0x24, 0x40, 0x00, 0x89, 0x2E, 0x40, 0x30, 0x99, 0x2E, 0x31, 0x00, 0x99,
        0x28, 0x51, 0x30, 0x89, 0x2E, 0x40, 0x00, 0x89, 0x28, 0x40, 0x00, 0x99, 0x24, 0x51, 0x30, 0x89,
        0x24, 0x40, 0x00, 0x99, 0x2E, 0x31, 0x30, 0x89, 0x2E, 0x40, 0x00, 0x99, 0x24, 0x51, 0x30, 0x89,
        0x24, 0x40, 0x00, 0x99, 0x2E, 0x31, 0x00, 0x99, 0x28, 0x51, 0x30, 0x89, 0x28, 0x40, 0x00, 0x89,
        0x2E, 0x40, 0x00, 0x99, 0x24, 0x50, 0x30, 0x89, 0x24, 0x40, 0x00, 0x99, 0x2E, 0x31, 0x00, 0x99,
        0x24, 0x50, 0x30, 0x89, 0x24, 0x40, 0x00, 0x89, 0x2E, 0x40, 0x30, 0x99, 0x2E, 0x31, 0x00, 0x99,
        0x24, 0x50, 0x00, 0x99, 0x28, 0x50, 0x30, 0x89, 0x28, 0x40, 0x00, 0x89, 0x24, 0x40, 0x00, 0x89,
        0x2E, 0x40, 0x30, 0x99, 0x2E, 0x31, 0x00, 0x99, 0x24, 0x52, 0x30, 0x89, 0x24, 0x40, 0x00, 0x89,
        0x2E, 0x40, 0x30, 0x99, 0x28, 0x52, 0x00, 0x99, 0x2E, 0x31, 0x30, 0x89, 0x2E, 0x40, 0x00, 0x89,
        0x28, 0x40, 0x30, 0x99, 0x2E, 0x31, 0x00, 0x99, 0x24, 0x52, 0x30, 0x89, 0x24, 0x40, 0x00, 0x89,
        0x2E, 0x40, 0x30, 0x99, 0x28, 0x51, 0x00, 0x99, 0x2E, 0x31, 0x30, 0x89, 0x28, 0x40, 0x00, 0x89,
        0x2E, 0x40, 0x00, 0x99, 0x24, 0x51, 0x30, 0x89, 0x24, 0x40, 0x00, 0x99, 0x2E, 0x31, 0x30, 0x89,
        0x2E, 0x40, 0x00, 0x99, 0x24, 0x51, 0x30, 0x89, 0x24, 0x40, 0x00, 0x99, 0x28, 0x51, 0x00, 0x99,
        0x2E, 0x31, 0x30, 0x89, 0x2E, 0x40, 0x00, 0x89, 0x28, 0x40, 0x00, 0x99, 0x24, 0x50, 0x30, 0x89,
        0x24, 0x40, 0x00, 0x99, 0x2E, 0x31, 0x00, 0x99, 0x24, 0x50, 0x30, 0x89, 0x24, 0x40, 0x00, 0x89,
        0x2E, 0x40, 0x30, 0x99, 0x28, 0x50, 0x00, 0x99, 0x24, 0x50, 0x00, 0x99, 0x2E, 0x31, 0x30, 0x89,
        0x2E, 0x40, 0x00, 0x89, 0x24, 0x40, 0x00, 0x89, 0x28, 0x40, 0x30, 0x99, 0x2E, 0x31, 0x00, 0x99,
        0x24, 0x52, 0x30, 0x89, 0x24, 0x40, 0x00, 0x89, 0x2E, 0x40, 0x30, 0x99, 0x28, 0x52, 0x00, 0x99,
        0x2E, 0x31, 0x30, 0x89, 0x2E, 0x40, 0x00, 0x89, 0x28, 0x40, 0x30, 0x99, 0x2E, 0x31, 0x00, 0x99,
        0x24, 0x52, 0x30, 0x89, 0x24, 0x40, 0x00, 0x89, 0x2E, 0x40, 0x00, 0x99, 0x28, 0x51, 0x30, 0x89,
        0x28, 0x40, 0x00, 0x99, 0x2E, 0x31, 0x30, 0x89, 0x2E, 0x40, 0x00, 0x99, 0x24, 0x51, 0x00, 0x99,
        0x28, 0x51, 0x30, 0x89, 0x28, 0x40, 0x00, 0x89, 0x24, 0x40, 0x00, 0x99, 0x2E, 0x31, 0x30, 0x89,
        0x2E, 0x40, 0x00, 0x99, 0x24, 0x51, 0x30, 0x89, 0x24, 0x40, 0x00, 0x99, 0x2E, 0x31, 0x00, 0x99,
        0x28, 0x51, 0x30, 0x89, 0x28, 0x40, 0x00, 0x89, 0x2E, 0x40, 0x00, 0x99, 0x24, 0x50, 0x30, 0x89,
        0x24, 0x40, 0x00, 0x99, 0x2E, 0x31, 0x00, 0x99, 0x24, 0x50, 0x00, 0x99, 0x28, 0x51, 0x30, 0x89,
        0x28, 0x40, 0x00, 0x89, 0x2E, 0x40, 0x00, 0x89, 0x24, 0x40, 0x30, 0x99, 0x2E, 0x31, 0x00, 0x99,
        0x24, 0x50, 0x00, 0x99, 0x28, 0x50, 0x30, 0x89, 0x28, 0x40, 0x00, 0x89, 0x24, 0x40, 0x00, 0x89,
        0x2E, 0x40, 0x30, 0x99, 0x2C, 0x3F, 0x00, 0x99, 0x39, 0x52, 0x00, 0x99, 0x24, 0x52, 0x30, 0x89,
        0x24, 0x40, 0x00, 0x89, 0x39, 0x40, 0x00, 0x89, 0x2C, 0x40, 0x00, 0x99, 0x2C, 0x3F, 0x30, 0x89,
        0x2C, 0x40, 0x00, 0x99, 0x28, 0x52, 0x30, 0x89, 0x28, 0x40, 0x00, 0x99, 0x2C, 0x3F, 0x30, 0x89,
        0x2C, 0x40, 0x00, 0x99, 0x2C, 0x3F, 0x00, 0x99, 0x24, 0x52, 0x30, 0x89, 0x24, 0x40, 0x00, 0x89,
        0x2C, 0x40, 0x00, 0x99, 0x2C, 0x3F, 0x30, 0x89, 0x2C, 0x40, 0x00, 0x99, 0x28, 0x51, 0x30, 0x89,
        0x28, 0x40, 0x00, 0x99, 0x24, 0x51, 0x30, 0x89, 0x24, 0x40, 0x00, 0x99, 0x2C, 0x3F, 0x30, 0x89,
        0x2C, 0x40, 0x00, 0x99, 0x24, 0x51, 0x00, 0x99, 0x2C, 0x3F, 0x30, 0x89, 0x2C, 0x40, 0x00, 0x89,
        0x24, 0x40, 0x00, 0x99, 0x28, 0x51, 0x30, 0x89, 0x28, 0x40, 0x00, 0x99, 0x2C, 0x3F, 0x00, 0x99,
        0x24, 0x50, 0x30, 0x89, 0x24, 0x40, 0x00, 0x89, 0x2C, 0x40, 0x00, 0x99, 0x2C, 0x3F, 0x00, 0x99,
        0x24, 0x50, 0x30, 0x89, 0x24, 0x40, 0x00, 0x89, 0x2C, 0x40, 0x00, 0x99, 0x2C, 0x3F, 0x30, 0x89,
        0x2C, 0x40, 0x00, 0x99, 0x28, 0x50, 0x00, 0x99, 0x24, 0x50, 0x30, 0x89, 0x24, 0x40, 0x00, 0x89,
        0x28, 0x40, 0x30, 0x99, 0x24, 0x52, 0x00, 0x99, 0x2C, 0x3F, 0x30, 0x89, 0x2C, 0x40, 0x00, 0x89,
        0x24, 0x40, 0x00, 0x99, 0x2C, 0x3F, 0x30, 0x89, 0x2C, 0x40, 0x00, 0x99, 0x28, 0x52, 0x30, 0x89,
        0x28, 0x40, 0x00, 0x99, 0x2C, 0x3F, 0x30, 0x89, 0x2C, 0x40, 0x00, 0x99, 0x24, 0x52, 0x00, 0x99,
        0x2C, 0x3F, 0x30, 0x89, 0x2C, 0x40, 0x00, 0x89, 0x24, 0x40, 0x00, 0x99, 0x2C, 0x3F, 0x30, 0x89,
        0x2C, 0x40, 0x00, 0x99, 0x28, 0x51, 0x30, 0x89, 0x28, 0x40, 0x00, 0x99, 0x24, 0x51, 0x30, 0x89,
        0x24, 0x40, 0x00, 0x99, 0x2C, 0x3F, 0x30, 0x89, 0x2C, 0x40, 0x00, 0x99, 0x24, 0x51, 0x00, 0x99,
        0x2C, 0x3F, 0x30, 0x89, 0x2C, 0x40, 0x00, 0x89, 0x24, 0x40, 0x00, 0x99, 0x28, 0x51, 0x30, 0x89,
        0x28, 0x40, 0x00, 0x99, 0x2C, 0x3F, 0x00, 0x99, 0x24, 0x50, 0x30, 0x89, 0x24, 0x40, 0x00, 0x89,
        0x2C, 0x40, 0x00, 0x99, 0x2C, 0x3F, 0x00, 0x99, 0x24, 0x50, 0x30, 0x89, 0x24, 0x40, 0x00, 0x89,
        0x2C, 0x40, 0x00, 0x99, 0x2C, 0x3F, 0x30, 0x89, 0x2C, 0x40, 0x00, 0x99, 0x24, 0x50, 0x00, 0x99,
        0x28, 0x50, 0x30, 0x89, 0x28, 0x40, 0x00, 0x89, 0x24, 0x40, 0x30, 0x99, 0x2C, 0x3F, 0x00, 0x99,
        0x24, 0x52, 0x30, 0x89, 0x24, 0x40, 0x00, 0x89, 0x2C, 0x40, 0x00, 0x99, 0x2C, 0x3F, 0x30, 0x89,
        0x2C, 0x40, 0x00, 0x99, 0x28, 0x52, 0x30, 0x89, 0x28, 0x40, 0x00, 0x99, 0x2C, 0x3F, 0x30, 0x89,
        0x2C, 0x40, 0x00, 0x99, 0x2C, 0x3F, 0x00, 0x99, 0x24, 0x52, 0x30, 0x89, 0x24, 0x40, 0x00, 0x89,
        0x2C, 0x40, 0x00, 0x99, 0x2C, 0x3F, 0x30, 0x89, 0x2C, 0x40, 0x00, 0x99, 0x28, 0x51, 0x30, 0x89,
        0x28, 0x40, 0x00, 0x99, 0x24, 0x51, 0x30, 0x89, 0x24, 0x40, 0x00, 0x99, 0x2C, 0x3F, 0x30, 0x89,
        0x2C, 0x40, 0x00, 0x99, 0x2C, 0x3F, 0x00, 0x99, 0x24, 0x51, 0x30, 0x89, 0x24, 0x40, 0x00, 0x89,
        0x2C, 0x40, 0x00, 0x99, 0x28, 0x51, 0x30, 0x89, 0x28, 0x40, 0x00, 0x99, 0x24, 0x50, 0x00, 0x99,
        0x2C, 0x3F, 0x30, 0x89, 0x2C, 0x40, 0x00, 0x89, 0x24, 0x40, 0x00, 0x99, 0x2C, 0x3F, 0x00, 0x99,
        0x24, 0x50, 0x30, 0x89, 0x24, 0x40, 0x00, 0x89, 0x2C, 0x40, 0x00, 0x99, 0x2C, 0x3F, 0x30, 0x89,
        0x2C, 0x40, 0x00, 0x99, 0x28, 0x50, 0x00, 0x99, 0x24, 0x50, 0x30, 0x89, 0x24, 0x40, 0x00, 0x89,
        0x28, 0x40, 0x30, 0x99, 0x2C, 0x3F, 0x00, 0x99, 0x24, 0x52, 0x30, 0x89, 0x24, 0x40, 0x00, 0x89,
        0x2C, 0x40, 0x00, 0x99, 0x2C, 0x3F, 0x30, 0x89, 0x2C, 0x40, 0x00, 0x99, 0x28, 0x52, 0x30, 0x89,
        0x28, 0x40, 0x00, 0x99, 0x2C, 0x3F, 0x30, 0x89, 0x2C, 0x40, 0x00, 0x99, 0x2C, 0x3F, 0x00, 0x99,
        0x24, 0x52, 0x30, 0x89, 0x24, 0x40, 0x00, 0x89, 0x2C, 0x40, 0x00, 0x99, 0x2C, 0x3F, 0x00, 0x99,
        0x28, 0x51, 0x30, 0x89, 0x28, 0x40, 0x00, 0x89, 0x2C, 0x40, 0x30, 0x99, 0x24, 0x51, 0x00, 0x99,
        0x28, 0x51, 0x30, 0x89, 0x28, 0x40, 0x00, 0x89, 0x24, 0x40, 0x00, 0x99, 0x2C, 0x3F, 0x30, 0x89,
        0x2C, 0x40, 0x00, 0x99, 0x39, 0x52, 0x00, 0x99, 0x2C, 0x3F, 0x00, 0x99, 0x24, 0x51, 0x30, 0x89,
        0x24, 0x40, 0x00, 0x89, 0x2C, 0x40, 0x00, 0x89, 0x39, 0x40, 0x00, 0x99, 0x28, 0x51, 0x30, 0x89,
        0x28, 0x40, 0x00, 0x99, 0x24, 0x50, 0x00, 0x99, 0x31, 0x53, 0x30, 0x89, 0x31, 0x40, 0x00, 0x89,
        0x24, 0x40, 0x00, 0x99, 0x2C, 0x3F, 0x00, 0x99, 0x28, 0x51, 0x00, 0x99, 0x24, 0x50, 0x30, 0x89,
        0x24, 0x40, 0x00, 0x89, 0x28, 0x40, 0x00, 0x89, 0x2C, 0x40, 0x00, 0x99, 0x39, 0x52, 0x00, 0x99,
        0x2C, 0x3F, 0x30, 0x89, 0x2C, 0x40, 0x00, 0x99, 0x28, 0x50, 0x00, 0x99, 0x24, 0x50, 0x00, 0x99,
        0x2C, 0x3F, 0x30, 0x89, 0x2C, 0x40, 0x00, 0x89, 0x39, 0x40, 0x00, 0x89, 0x24, 0x40, 0x00, 0x89,
        0x28, 0x40, 0x30, 0x99, 0x39, 0x52, 0x00, 0x99, 0x2E, 0x31, 0x00, 0x99, 0x24, 0x52, 0x30, 0x89,
        0x24, 0x40, 0x00, 0x89, 0x2E, 0x40, 0x00, 0x89, 0x39, 0x40, 0x30, 0x99, 0x2E, 0x31, 0x00, 0x99,
        0x28, 0x52, 0x30, 0x89, 0x28, 0x40, 0x00, 0x89, 0x2E, 0x40, 0x30, 0x99, 0x2E, 0x31, 0x00, 0x99,
        0x24, 0x52, 0x30, 0x89, 0x24, 0x40, 0x00, 0x89, 0x2E, 0x40, 0x30, 0x99, 0x2E, 0x31, 0x00, 0x99,
        0x28, 0x51, 0x30, 0x89, 0x2E, 0x40, 0x00, 0x89, 0x28, 0x40, 0x00, 0x99, 0x24, 0x51, 0x30, 0x89,
        0x24, 0x40, 0x00, 0x99, 0x2E, 0x31, 0x30, 0x89, 0x2E, 0x40, 0x00, 0x99, 0x24, 0x51, 0x30, 0x89,
        0x24, 0x40, 0x00, 0x99, 0x2E, 0x31, 0x00, 0x99, 0x28, 0x51, 0x30, 0x89, 0x28, 0x40, 0x00, 0x89,
        0x2E, 0x40, 0x00, 0x99, 0x24, 0x50, 0x30, 0x89, 0x24, 0x40, 0x00, 0x99, 0x2E, 0x31, 0x00, 0x99,
        0x24, 0x50, 0x30, 0x89, 0x24, 0x40, 0x00, 0x89, 0x2E, 0x40, 0x30, 0x99, 0x2E, 0x31, 0x00, 0x99,
        0x24, 0x50, 0x00, 0x99, 0x28, 0x50, 0x30, 0x89, 0x28, 0x40, 0x00, 0x89, 0x24, 0x40, 0x00, 0x89,
        0x2E, 0x40, 0x30, 0x99, 0x2E, 0x31, 0x00, 0x99, 0x24, 0x52, 0x30, 0x89, 0x24, 0x40, 0x00, 0x89,
        0x2E, 0x40, 0x30, 0x99, 0x2E, 0x31, 0x00, 0x99, 0x28, 0x52, 0x30, 0x89, 0x28, 0x40, 0x00, 0x89,
        0x2E, 0x40, 0x30, 0x99, 0x2E, 0x31, 0x00, 0x99, 0x24, 0x52, 0x30, 0x89, 0x24, 0x40, 0x00, 0x89,
        0x2E, 0x40, 0x30, 0x99, 0x28, 0x51, 0x00, 0x99, 0x2E, 0x31, 0x30, 0x89, 0x28, 0x40, 0x00, 0x89,
        0x2E, 0x40, 0x00, 0x99, 0x24, 0x51, 0x30, 0x89, 0x24, 0x40, 0x00, 0x99, 0x2E, 0x31, 0x30, 0x89,
        0x2E, 0x40, 0x00, 0x99, 0x24, 0x51, 0x30, 0x89, 0x24, 0x40, 0x00, 0x99, 0x28, 0x51, 0x00, 0x99,
        0x2E, 0x31, 0x30, 0x89, 0x2E, 0x40, 0x00, 0x89, 0x28, 0x40, 0x00, 0x99, 0x24, 0x50, 0x30, 0x89,
        0x24, 0x40, 0x00, 0x99, 0x2E, 0x31, 0x00, 0x99, 0x24, 0x50, 0x30, 0x89, 0x24, 0x40, 0x00, 0x89,
        0x2E, 0x40, 0x30, 0x99, 0x28, 0x50, 0x00, 0x99, 0x24, 0x50, 0x00, 0x99, 0x2E, 0x31, 0x30, 0x89,
        0x2E, 0x40, 0x00, 0x89, 0x24, 0x40, 0x00, 0x89, 0x28, 0x40, 0x30, 0x99, 0x2E, 0x31, 0x00, 0x99,
        0x24, 0x52, 0x30, 0x89, 0x24, 0x40, 0x00, 0x89, 0x2E, 0x40, 0x30, 0x99, 0x2E, 0x31, 0x00, 0x99,
        0x28, 0x52, 0x30, 0x89, 0x28, 0x40, 0x00, 0x89, 0x2E, 0x40, 0x30, 0x99, 0x2E, 0x31, 0x00, 0x99,
        0x24, 0x52, 0x30, 0x89, 0x24, 0x40, 0x00, 0x89, 0x2E, 0x40, 0x30, 0x99, 0x2E, 0x31, 0x00, 0x99,
        0x28, 0x51, 0x30, 0x89, 0x28, 0x40, 0x00, 0x89, 0x2E, 0x40, 0x00, 0x99, 0x24, 0x51, 0x30, 0x89,
        0x24, 0x40, 0x00, 0x99, 0x2E, 0x31, 0x30, 0x89, 0x2E, 0x40, 0x00, 0x99, 0x24, 0x51, 0x30, 0x89,
        0x24, 0x40, 0x00, 0x99, 0x2E, 0x31, 0x00, 0x99, 0x28, 0x51, 0x30, 0x89, 0x28, 0x40, 0x00, 0x89,
        0x2E, 0x40, 0x00, 0x99, 0x24, 0x50, 0x30, 0x89, 0x24, 0x40, 0x00, 0x99, 0x2E, 0x31, 0x00, 0x99,
        0x24, 0x50, 0x30, 0x89, 0x24, 0x40, 0x00, 0x89, 0x2E, 0x40, 0x30, 0x99, 0x2E, 0x31, 0x00, 0x99,
        0x24, 0x50, 0x00, 0x99, 0x28, 0x50, 0x30, 0x89, 0x28, 0x40, 0x00, 0x89, 0x24, 0x40, 0x00, 0x89,
        0x2E, 0x40, 0x30, 0x99, 0x2E, 0x31, 0x00, 0x99, 0x24, 0x52, 0x30, 0x89, 0x24, 0x40, 0x00, 0x89,
        0x2E, 0x40, 0x30, 0x99, 0x2E, 0x31, 0x00, 0x99, 0x28, 0x52, 0x30, 0x89, 0x28, 0x40, 0x00, 0x89,
        0x2E, 0x40, 0x30, 0x99, 0x2E, 0x31, 0x00, 0x99, 0x24, 0x52, 0x30, 0x89, 0x24, 0x40, 0x00, 0x89,
        0x2E, 0x40, 0x00, 0x99, 0x28, 0x51, 0x30, 0x89, 0x28, 0x40, 0x00, 0x99, 0x2E, 0x31, 0x30, 0x89,
        0x2E, 0x40, 0x00, 0x99, 0x24, 0x51, 0x00, 0x99, 0x28, 0x51, 0x30, 0x89, 0x28, 0x40, 0x00, 0x89,
        0x24, 0x40, 0x00, 0x99, 0x2E, 0x31, 0x30, 0x89, 0x2E, 0x40, 0x00, 0x99, 0x24, 0x51, 0x00, 0x99,
        0x39, 0x52, 0x30, 0x89, 0x39, 0x40, 0x00, 0x89, 0x24, 0x40, 0x00, 0x99, 0x28, 0x51, 0x00, 0x99,
        0x2E, 0x31, 0x30, 0x89, 0x2E, 0x40, 0x00, 0x89, 0x28, 0x40, 0x00, 0x99, 0x31, 0x53, 0x00, 0x99,
        0x24, 0x50, 0x30, 0x89, 0x24, 0x40, 0x00, 0x89, 0x31, 0x40, 0x00, 0x99, 0x2E, 0x31, 0x00, 0x99,
        0x24, 0x50, 0x00, 0x99, 0x28, 0x51, 0x30, 0x89, 0x28, 0x40, 0x00, 0x89, 0x24, 0x40, 0x00, 0x89,
        0x2E, 0x40, 0x00, 0x99, 0x39, 0x52, 0x30, 0x99, 0x28, 0x50, 0x00, 0x99, 0x24, 0x50, 0x00, 0x99,
        0x2E, 0x31, 0x30, 0x89, 0x39, 0x40, 0x00, 0x89, 0x2E, 0x40, 0x00, 0x89, 0x24, 0x40, 0x00, 0x89,
        0x28, 0x40, 0x30, 0x99, 0x39, 0x52, 0x00, 0x99, 0x2E, 0x31, 0x00, 0x99, 0x24, 0x52, 0x00, 0x99,
        0x39, 0x52, 0x30, 0x89, 0x39, 0x40, 0x00, 0x89, 0x24, 0x40, 0x00, 0x89, 0x2E, 0x40, 0x00, 0x89,
        0x39, 0x40, 0x30, 0x99, 0x2E, 0x31, 0x00, 0x99, 0x28, 0x52, 0x30, 0x89, 0x28, 0x40, 0x00, 0x89,
        0x2E, 0x40, 0x30, 0x99, 0x2E, 0x31, 0x00, 0x99, 0x24, 0x52, 0x30, 0x89, 0x24, 0x40, 0x00, 0x89,
        0x2E, 0x40, 0x30, 0x99, 0x2E, 0x31, 0x00, 0x99, 0x28, 0x51, 0x30, 0x89, 0x2E, 0x40, 0x00, 0x89,
        0x28, 0x40, 0x00, 0x99, 0x24, 0x51, 0x30, 0x89, 0x24, 0x40, 0x00, 0x99, 0x2E, 0x31, 0x30, 0x89,
        0x2E, 0x40, 0x00, 0x99, 0x24, 0x51, 0x30, 0x89, 0x24, 0x40, 0x00, 0x99, 0x2E, 0x31, 0x00, 0x99,
        0x28, 0x51, 0x30, 0x89, 0x28, 0x40, 0x00, 0x89, 0x2E, 0x40, 0x00, 0x99, 0x24, 0x50, 0x30, 0x89,
        0x24, 0x40, 0x00, 0x99, 0x2E, 0x31, 0x00, 0x99, 0x24, 0x50, 0x30, 0x89, 0x24, 0x40, 0x00, 0x89,
        0x2E, 0x40, 0x30, 0x99, 0x2E, 0x31, 0x00, 0x99, 0x24, 0x50, 0x00, 0x99, 0x28, 0x50, 0x30, 0x89,
        0x28, 0x40, 0x00, 0x89, 0x24, 0x40, 0x00, 0x89, 0x2E, 0x40, 0x30, 0x99, 0x2E, 0x31, 0x00, 0x99,
        0x24, 0x52, 0x30, 0x89, 0x24, 0x40, 0x00, 0x89, 0x2E, 0x40, 0x30, 0x99, 0x2E, 0x31, 0x00, 0x99,
        0x28, 0x52, 0x30, 0x89, 0x28, 0x40, 0x00, 0x89, 0x2E, 0x40, 0x30, 0x99, 0x2E, 0x31, 0x00, 0x99,
        0x24, 0x52, 0x30, 0x89, 0x24, 0x40, 0x00, 0x89, 0x2E, 0x40, 0x30, 0x99, 0x28, 0x51, 0x00, 0x99,
        0x2E, 0x31, 0x30, 0x89, 0x28, 0x40, 0x00, 0x89, 0x2E, 0x40, 0x00, 0x99, 0x24, 0x51, 0x30, 0x89,
        0x24, 0x40, 0x00, 0x99, 0x2E, 0x31, 0x30, 0x89, 0x2E, 0x40, 0x00, 0x99, 0x24, 0x51, 0x30, 0x89,
        0x24, 0x40, 0x00, 0x99, 0x28, 0x51, 0x00, 0x99, 0x2E, 0x31, 0x30, 0x89, 0x2E, 0x40, 0x00, 0x89,
        0x28, 0x40, 0x00, 0x99, 0x24, 0x50, 0x30, 0x89, 0x24, 0x40, 0x00, 0x99, 0x2E, 0x31, 0x00, 0x99,
        0x24, 0x50, 0x30, 0x89, 0x24, 0x40, 0x00, 0x89, 0x2E, 0x40, 0x30, 0x99, 0x28, 0x50, 0x00, 0x99,
        0x24, 0x50, 0x00, 0x99, 0x2E, 0x31, 0x30, 0x89, 0x2E, 0x40, 0x00, 0x89, 0x24, 0x40, 0x00, 0x89,
        0x28, 0x40, 0x30, 0x99, 0x2E, 0x31, 0x00, 0x99, 0x24, 0x52, 0x30, 0x89, 0x24, 0x40, 0x00, 0x89,
        0x2E, 0x40, 0x30, 0x99, 0x2E, 0x31, 0x00, 0x99, 0x28, 0x52, 0x30, 0x89, 0x28, 0x40, 0x00, 0x89,
        0x2E, 0x40, 0x30, 0x99, 0x2E, 0x31, 0x00, 0x99, 0x24, 0x52, 0x30, 0x89, 0x24, 0x40, 0x00, 0x89,
        0x2E, 0x40, 0x30, 0x99, 0x2E, 0x31, 0x00, 0x99, 0x28, 0x51, 0x30, 0x89, 0x28, 0x40, 0x00, 0x89,
        0x2E, 0x40, 0x00, 0x99, 0x24, 0x51, 0x30, 0x89, 0x24, 0x40, 0x00, 0x99, 0x2E, 0x31, 0x30, 0x89,
        0x2E, 0x40, 0x00, 0x99, 0x24, 0x51, 0x30, 0x89, 0x24, 0x40, 0x00, 0x99, 0x2E, 0x31, 0x00, 0x99,
        0x28, 0x51, 0x30, 0x89, 0x28, 0x40, 0x00, 0x89, 0x2E, 0x40, 0x00, 0x99, 0x24, 0x50, 0x30, 0x89,
        0x24, 0x40, 0x00, 0x99, 0x2E, 0x31, 0x00, 0x99, 0x24, 0x50, 0x30, 0x89, 0x24, 0x40, 0x00, 0x89,
        0x2E, 0x40, 0x30, 0x99, 0x2E, 0x31, 0x00, 0x99, 0x24, 0x50, 0x00, 0x99, 0x28, 0x50, 0x30, 0x89,
        0x28, 0x40, 0x00, 0x89, 0x24, 0x40, 0x00, 0x89, 0x2E, 0x40, 0x30, 0x99, 0x2E, 0x31, 0x00, 0x99,
        0x24, 0x52, 0x30, 0x89, 0x24, 0x40, 0x00, 0x89, 0x2E, 0x40, 0x30, 0x99, 0x2E, 0x31, 0x00, 0x99,
        0x28, 0x52, 0x30, 0x89, 0x28, 0x40, 0x00, 0x89, 0x2E, 0x40, 0x30, 0x99, 0x2E, 0x31, 0x00, 0x99,
        0x24, 0x52, 0x30, 0x89, 0x24, 0x40, 0x00, 0x89, 0x2E, 0x40, 0x00, 0x99, 0x28, 0x51, 0x30, 0x89,
        0x28, 0x40, 0x00, 0x99, 0x2E, 0x31, 0x30, 0x89, 0x2E, 0x40, 0x00, 0x99, 0x24, 0x51, 0x00, 0x99,
        0x28, 0x51, 0x30, 0x89, 0x28, 0x40, 0x00, 0x89, 0x24, 0x40, 0x00, 0x99, 0x2E, 0x31, 0x30, 0x89,
        0x2E, 0x40, 0x00, 0x99, 0x24, 0x51, 0x00, 0x99, 0x39, 0x52, 0x30, 0x89, 0x39, 0x40, 0x00, 0x89,
        0x24, 0x40, 0x00, 0x99, 0x28, 0x51, 0x00, 0x99, 0x2E, 0x31, 0x30, 0x89, 0x2E, 0x40, 0x00, 0x89,
        0x28, 0x40, 0x00, 0x99, 0x31, 0x53, 0x00, 0x99, 0x24, 0x50, 0x00, 0x99, 0x28, 0x51, 0x30, 0x89,
        0x28, 0x40, 0x00, 0x89, 0x24, 0x40, 0x00, 0x89, 0x31, 0x40, 0x00, 0x99, 0x2E, 0x31, 0x00, 0x99,
        0x24, 0x50, 0x30, 0x89, 0x24, 0x40, 0x00, 0x89, 0x2E, 0x40, 0x00, 0x99, 0x28, 0x50, 0x00, 0x99,
        0x39, 0x52, 0x30, 0x89, 0x28, 0x40, 0x00, 0x99, 0x28, 0x50, 0x00, 0x99, 0x24, 0x50, 0x00, 0x99,
        0x2E, 0x31, 0x30, 0x89, 0x39, 0x40, 0x00, 0x89, 0x2E, 0x40, 0x00, 0x89, 0x24, 0x40, 0x00, 0x89,
        0x28, 0x40, 0x30, 0x99, 0x39, 0x52, 0x00, 0x99, 0x39, 0x52, 0x00, 0x99, 0x2E, 0x31, 0x00, 0x99,
        0x24, 0x52, 0x00, 0x99, 0x39, 0x52, 0x30, 0x89, 0x39, 0x40, 0x00, 0x89, 0x24, 0x40, 0x00, 0x89,
        0x2E, 0x40, 0x00, 0x89, 0x39, 0x40, 0x00, 0x89, 0x39, 0x40, 0x30, 0x99, 0x2E, 0x31, 0x00, 0x99,
        0x28, 0x52, 0x30, 0x89, 0x28, 0x40, 0x00, 0x89, 0x2E, 0x40, 0x30, 0x99, 0x24, 0x52, 0x00, 0x99,
        0x2E, 0x31, 0x30, 0x89, 0x2E, 0x40, 0x00, 0x89, 0x24, 0x40, 0x30, 0x99, 0x28, 0x51, 0x00, 0x99,
        0x2E, 0x31, 0x30, 0x89, 0x2E, 0x40, 0x00, 0x89, 0x28, 0x40, 0x00, 0x99, 0x24, 0x51, 0x30, 0x89,
        0x24, 0x40, 0x00, 0x99, 0x2E, 0x31, 0x30, 0x89, 0x2E, 0x40, 0x00, 0x99, 0x24, 0x51, 0x30, 0x89,
        0x24, 0x40, 0x00, 0x99, 0x28, 0x51, 0x00, 0x99, 0x2E, 0x31, 0x30, 0x89, 0x2E, 0x40, 0x00, 0x89,
        0x28, 0x40, 0x00, 0x99, 0x24, 0x50, 0x30, 0x89, 0x24, 0x40, 0x00, 0x99, 0x24, 0x50, 0x00, 0x99,
        0x2E, 0x31, 0x30, 0x89, 0x2E, 0x40, 0x00, 0x89, 0x24, 0x40, 0x30, 0x99, 0x2E, 0x31, 0x00, 0x99,
        0x24, 0x50, 0x00, 0x99, 0x28, 0x50, 0x30, 0x89, 0x28, 0x40, 0x00, 0x89, 0x24, 0x40, 0x00, 0x89,
        0x2E, 0x40, 0x30, 0x99, 0x2E, 0x31, 0x00, 0x99, 0x24, 0x52, 0x30, 0x89, 0x24, 0x40, 0x00, 0x89,
        0x2E, 0x40, 0x30, 0x99, 0x2E, 0x31, 0x00, 0x99, 0x28, 0x52, 0x30, 0x89, 0x28, 0x40, 0x00, 0x89,
        0x2E, 0x40, 0x30, 0x99, 0x24, 0x52, 0x00, 0x99, 0x2E, 0x31, 0x30, 0x89, 0x2E, 0x40, 0x00, 0x89,
        0x24, 0x40, 0x30, 0x99, 0x2E, 0x31, 0x00, 0x99, 0x28, 0x51, 0x30, 0x89, 0x2E, 0x40, 0x00, 0x89,
        0x28, 0x40, 0x00, 0x99, 0x24, 0x51, 0x30, 0x89, 0x24, 0x40, 0x00, 0x99, 0x2E, 0x31, 0x30, 0x89,
        0x2E, 0x40, 0x00, 0x99, 0x24, 0x51, 0x30, 0x89, 0x24, 0x40, 0x00, 0x99, 0x2E, 0x31, 0x00, 0x99,
        0x28, 0x51, 0x30, 0x89, 0x28, 0x40, 0x00, 0x89, 0x2E, 0x40, 0x00, 0x99, 0x24, 0x50, 0x30, 0x89,
        0x24, 0x40, 0x00, 0x99, 0x24, 0x50, 0x00, 0x99, 0x2E, 0x31, 0x30, 0x89, 0x2E, 0x40, 0x00, 0x89,
        0x24, 0x40, 0x30, 0x99, 0x28, 0x50, 0x00, 0x99, 0x24, 0x50, 0x00, 0x99, 0x2E, 0x31, 0x30, 0x89,
        0x2E, 0x40, 0x00, 0x89, 0x24, 0x40, 0x00, 0x89, 0x28, 0x40, 0x30, 0x99, 0x2E, 0x31, 0x00, 0x99,
        0x24, 0x52, 0x30, 0x89, 0x24, 0x40, 0x00, 0x89, 0x2E, 0x40, 0x30, 0x99, 0x2E, 0x31, 0x00, 0x99,
        0x28, 0x52, 0x30, 0x89, 0x28, 0x40, 0x00, 0x89, 0x2E, 0x40, 0x30, 0x99, 0x24, 0x52, 0x00, 0x99,
        0x2E, 0x31, 0x30, 0x89, 0x2E, 0x40, 0x00, 0x89, 0x24, 0x40, 0x30, 0x99, 0x28, 0x51, 0x00, 0x99,
        0x2E, 0x31, 0x30, 0x89, 0x28, 0x40, 0x00, 0x89, 0x2E, 0x40, 0x00, 0x99, 0x24, 0x51, 0x30, 0x89,
        0x24, 0x40, 0x00, 0x99, 0x2E, 0x31, 0x30, 0x89, 0x2E, 0x40, 0x00, 0x99, 0x24, 0x51, 0x30, 0x89,
        0x24, 0x40, 0x00, 0x99, 0x28, 0x51, 0x00, 0x99, 0x2E, 0x31, 0x30, 0x89, 0x2E, 0x40, 0x00, 0x89,
        0x28, 0x40, 0x00, 0x99, 0x24, 0x50, 0x30, 0x89, 0x24, 0x40, 0x00, 0x99, 0x24, 0x50, 0x00, 0x99,
        0x2E, 0x31, 0x30, 0x89, 0x2E, 0x40, 0x00, 0x89, 0x24, 0x40, 0x30, 0x99, 0x28, 0x50, 0x00, 0x99,
        0x24, 0x50, 0x00, 0x99, 0x2E, 0x31, 0x30, 0x89, 0x2E, 0x40, 0x00, 0x89, 0x24, 0x40, 0x00, 0x89,
        0x28, 0x40, 0x30, 0x99, 0x2E, 0x31, 0x00, 0x99, 0x24, 0x52, 0x30, 0x89, 0x24, 0x40, 0x00, 0x89,
        0x2E, 0x40, 0x30, 0x99, 0x2E, 0x31, 0x00, 0x99, 0x28, 0x52, 0x30, 0x89, 0x28, 0x40, 0x00, 0x89,
        0x2E, 0x40, 0x30, 0x99, 0x24, 0x52, 0x00, 0x99, 0x2E, 0x31, 0x30, 0x89, 0x2E, 0x40, 0x00, 0x89,
        0x24, 0x40, 0x00, 0x99, 0x28, 0x51, 0x30, 0x89, 0x28, 0x40, 0x00, 0x99, 0x2E, 0x31, 0x30, 0x89,
        0x2E, 0x40, 0x00, 0x99, 0x28, 0x51, 0x00, 0x99, 0x24, 0x51, 0x30, 0x89, 0x24, 0x40, 0x00, 0x89,
        0x28, 0x40, 0x00, 0x99, 0x2E, 0x31, 0x30, 0x89, 0x2E, 0x40, 0x00, 0x99, 0x39, 0x52, 0x00, 0x99,
        0x24, 0x51, 0x30, 0x89, 0x24, 0x40, 0x00, 0x89, 0x39, 0x40, 0x00, 0x99, 0x2E, 0x31, 0x00, 0x99,
        0x28, 0x51, 0x30, 0x89, 0x28, 0x40, 0x00, 0x89, 0x2E, 0x40, 0x00, 0x99, 0x28, 0x51, 0x00, 0x99,
        0x24, 0x50, 0x00, 0x99, 0x31, 0x53, 0x30, 0x89, 0x31, 0x40, 0x00, 0x89, 0x24, 0x40, 0x00, 0x89,
        0x28, 0x40, 0x00, 0x99, 0x24, 0x50, 0x00, 0x99, 0x2E, 0x31, 0x30, 0x89, 0x2E, 0x40, 0x00, 0x89,
        0x24, 0x40, 0x00, 0x99, 0x39, 0x52, 0x00, 0x99, 0x28, 0x50, 0x30, 0x89, 0x28, 0x40, 0x00, 0x99,
        0x28, 0x50, 0x00, 0x99, 0x24, 0x50, 0x00, 0x99, 0x2E, 0x31, 0x30, 0x89, 0x2E, 0x40, 0x00, 0x89,
        0x39, 0x40, 0x00, 0x89, 0x24, 0x40, 0x00, 0x89, 0x28, 0x40, 0x30, 0x99, 0x39, 0x52, 0x00, 0x99,
        0x2E, 0x31, 0x00, 0x99, 0x24, 0x52, 0x00, 0x99, 0x39, 0x52, 0x00, 0x99, 0x39, 0x52, 0x30, 0x89,
        0x39, 0x40, 0x00, 0x89, 0x39, 0x40, 0x00, 0x89, 0x24, 0x40, 0x00, 0x89, 0x2E, 0x40, 0x00, 0x89,
        0x39, 0x40, 0x30, 0x99, 0x2E, 0x31, 0x00, 0x99, 0x28, 0x52, 0x30, 0x89, 0x28, 0x40, 0x00, 0x89,
        0x2E, 0x40, 0x30, 0x99, 0x24, 0x52, 0x00, 0x99, 0x2E, 0x31, 0x30, 0x89, 0x2E, 0x40, 0x00, 0x89,
        0x24, 0x40, 0x30, 0x99, 0x28, 0x51, 0x00, 0x99, 0x2E, 0x31, 0x30, 0x89, 0x28, 0x40, 0x00, 0x89,
        0x2E, 0x40, 0x00, 0x99, 0x24, 0x51, 0x30, 0x89, 0x24, 0x40, 0x00, 0x99, 0x2E, 0x31, 0x30, 0x89,
        0x2E, 0x40, 0x00, 0x99, 0x24, 0x51, 0x30, 0x89, 0x24, 0x40, 0x00, 0x99, 0x28, 0x51, 0x00, 0x99,
        0x2E, 0x31, 0x30, 0x89, 0x2E, 0x40, 0x00, 0x89, 0x28, 0x40, 0x00, 0x99, 0x24, 0x50, 0x30, 0x89,
        0x24, 0x40, 0x00, 0x99, 0x24, 0x50, 0x00, 0x99, 0x2E, 0x31, 0x30, 0x89, 0x2E, 0x40, 0x00, 0x89,
        0x24, 0x40, 0x30, 0x99, 0x2E, 0x31, 0x00, 0x99, 0x24, 0x50, 0x00, 0x99, 0x28, 0x50, 0x30, 0x89,
        0x28, 0x40, 0x00, 0x89, 0x24, 0x40, 0x00, 0x89, 0x2E, 0x40, 0x30, 0x99, 0x2E, 0x31, 0x00, 0x99,
        0x24, 0x52, 0x30, 0x89, 0x24, 0x40, 0x00, 0x89, 0x2E, 0x40, 0x30, 0x99, 0x2E, 0x31, 0x00, 0x99,
        0x28, 0x52, 0x30, 0x89, 0x28, 0x40, 0x00, 0x89, 0x2E, 0x40, 0x30, 0x99, 0x24, 0x52, 0x00, 0x99,
        0x2E, 0x31, 0x30, 0x89, 0x2E, 0x40, 0x00, 0x89, 0x24, 0x40, 0x30, 0x99, 0x2E, 0x31, 0x00, 0x99,
        0x28, 0x51, 0x30, 0x89, 0x2E, 0x40, 0x00, 0x89, 0x28, 0x40, 0x00, 0x99, 0x24, 0x51, 0x30, 0x89,
        0x24, 0x40, 0x00, 0x99, 0x2E, 0x31, 0x30, 0x89, 0x2E, 0x40, 0x00, 0x99, 0x24, 0x51, 0x30, 0x89,
        0x24, 0x40, 0x00, 0x99, 0x2E, 0x31, 0x00, 0x99, 0x28, 0x51, 0x30, 0x89, 0x28, 0x40, 0x00, 0x89,
        0x2E, 0x40, 0x00, 0x99, 0x24, 0x50, 0x30, 0x89, 0x24, 0x40, 0x00, 0x99, 0x24, 0x50, 0x00, 0x99,
        0x2E, 0x31, 0x30, 0x89, 0x2E, 0x40, 0x00, 0x89, 0x24, 0x40, 0x30, 0x99, 0x28, 0x50, 0x00, 0x99,
        0x24, 0x50, 0x00, 0x99, 0x2E, 0x31, 0x30, 0x89, 0x2E, 0x40, 0x00, 0x89, 0x24, 0x40, 0x00, 0x89,
        0x28, 0x40, 0x30, 0x99, 0x2E, 0x31, 0x00, 0x99, 0x24, 0x52, 0x30, 0x89, 0x24, 0x40, 0x00, 0x89,
        0x2E, 0x40, 0x30, 0x99, 0x2E, 0x31, 0x00, 0x99, 0x28, 0x52, 0x30, 0x89, 0x28, 0x40, 0x00, 0x89,
        0x2E, 0x40, 0x30, 0x99, 0x24, 0x52, 0x00, 0x99, 0x2E, 0x31, 0x30, 0x89, 0x2E, 0x40, 0x00, 0x89,
        0x24, 0x40, 0x30, 0x99, 0x28, 0x51, 0x00, 0x99, 0x2E, 0x31, 0x30, 0x89, 0x2E, 0x40, 0x00, 0x89,
        0x28, 0x40, 0x00, 0x99, 0x24, 0x51, 0x30, 0x89, 0x24, 0x40, 0x00, 0x99, 0x2E, 0x31, 0x30, 0x89,
        0x2E, 0x40, 0x00, 0x99, 0x24, 0x51, 0x30, 0x89, 0x24, 0x40, 0x00, 0x99, 0x28, 0x51, 0x00, 0x99,
        0x2E, 0x31, 0x30, 0x89, 0x2E, 0x40, 0x00, 0x89, 0x28, 0x40, 0x00, 0x99, 0x24, 0x50, 0x30, 0x89,
        0x24, 0x40, 0x00, 0x99, 0x24, 0x50, 0x00, 0x99, 0x2E, 0x31, 0x30, 0x89, 0x2E, 0x40, 0x00, 0x89,
        0x24, 0x40, 0x30, 0x99, 0x28, 0x50, 0x00, 0x99, 0x24, 0x50, 0x00, 0x99, 0x2E, 0x31, 0x30, 0x89,
        0x2E, 0x40, 0x00, 0x89, 0x24, 0x40, 0x00, 0x89, 0x28, 0x40, 0x30, 0x99, 0x2E, 0x31, 0x00, 0x99,
        0x24, 0x52, 0x30, 0x89, 0x24, 0x40, 0x00, 0x89, 0x2E, 0x40, 0x30, 0x99, 0x2E, 0x31, 0x00, 0x99,
        0x28, 0x52, 0x30, 0x89, 0x28, 0x40, 0x00, 0x89, 0x2E, 0x40, 0x30, 0x99, 0x24, 0x52, 0x00, 0x99,
        0x2E, 0x31, 0x30, 0x89, 0x2E, 0x40, 0x00, 0x89, 0x24, 0x40, 0x00, 0x99, 0x28, 0x51, 0x30, 0x89,
        0x28, 0x40, 0x00, 0x99, 0x2E, 0x31, 0x30, 0x89, 0x2E, 0x40, 0x00, 0x99, 0x28, 0x51, 0x00, 0x99,
        0x24, 0x51, 0x30, 0x89, 0x24, 0x40, 0x00, 0x89, 0x28, 0x40, 0x00, 0x99, 0x2E, 0x31, 0x30, 0x89,
        0x2E, 0x40, 0x00, 0x99, 0x39, 0x52, 0x00, 0x99, 0x24, 0x51, 0x30, 0x89, 0x24, 0x40, 0x00, 0x89,
        0x39, 0x40, 0x00, 0x99, 0x2E, 0x31, 0x00, 0x99, 0x28, 0x51, 0x30, 0x89, 0x28, 0x40, 0x00, 0x89,
        0x2E, 0x40, 0x00, 0x99, 0x28, 0x51, 0x00, 0x99, 0x24, 0x50, 0x00, 0x99, 0x31, 0x53, 0x30, 0x89,
        0x31, 0x40, 0x00, 0x89, 0x24, 0x40, 0x00, 0x89, 0x28, 0x40, 0x00, 0x99, 0x24, 0x50, 0x00, 0x99,
        0x2E, 0x31, 0x30, 0x89, 0x2E, 0x40, 0x00, 0x89, 0x24, 0x40, 0x00, 0x99, 0x39, 0x52, 0x00, 0x99,
        0x28, 0x50, 0x30, 0x89, 0x28, 0x40, 0x00, 0x99, 0x28, 0x50, 0x00, 0x99, 0x24, 0x50, 0x00, 0x99,
        0x2E, 0x31, 0x30, 0x89, 0x2E, 0x40, 0x00, 0x89, 0x39, 0x40, 0x00, 0x89, 0x24, 0x40, 0x00, 0x89,
        0x28, 0x40, 0x30, 0x99, 0x39, 0x52, 0x00, 0x99, 0x39, 0x52, 0x00, 0x99, 0x2E, 0x31, 0x00, 0x99,
        0x24, 0x52, 0x00, 0x99, 0x39, 0x52, 0x30, 0x89, 0x39, 0x40, 0x00, 0x89, 0x24, 0x40, 0x00, 0x89,
        0x2E, 0x40, 0x00, 0x89, 0x39, 0x40, 0x00, 0x89, 0x39, 0x40, 0x30, 0x99, 0x28, 0x52, 0x00, 0x99,
        0x2E, 0x31, 0x30, 0x89, 0x2E, 0x40, 0x00, 0x89, 0x28, 0x40, 0x30, 0x99, 0x24, 0x52, 0x00, 0x99,
        0x2E, 0x31, 0x30, 0x89, 0x2E, 0x40, 0x00, 0x89, 0x24, 0x40, 0x30, 0x99, 0x2E, 0x31, 0x00, 0x99,
        0x28, 0x51, 0x30, 0x89, 0x28, 0x40, 0x00, 0x89, 0x2E, 0x40, 0x00, 0x99, 0x24, 0x51, 0x30, 0x89,
        0x24, 0x40, 0x00, 0x99, 0x2E, 0x31, 0x30, 0x89, 0x2E, 0x40, 0x00, 0x99, 0x24, 0x51, 0x30, 0x89,
        0x24, 0x40, 0x00, 0x99, 0x2E, 0x31, 0x00, 0x99, 0x28, 0x51, 0x30, 0x89, 0x28, 0x40, 0x00, 0x89,
        0x2E, 0x40, 0x00, 0x99, 0x24, 0x50, 0x30, 0x89, 0x24, 0x40, 0x00, 0x99, 0x24, 0x50, 0x00, 0x99,
        0x2E, 0x31, 0x30, 0x89, 0x2E, 0x40, 0x00, 0x89, 0x24, 0x40, 0x30, 0x99, 0x28, 0x50, 0x00, 0x99,
        0x24, 0x50, 0x00, 0x99, 0x2E, 0x31, 0x30, 0x89, 0x2E, 0x40, 0x00, 0x89, 0x24, 0x40, 0x00, 0x89,
        0x28, 0x40, 0x30, 0x99, 0x2E, 0x31, 0x00, 0x99, 0x24, 0x52, 0x30, 0x89, 0x24, 0x40, 0x00, 0x89,
        0x2E, 0x40, 0x30, 0x99, 0x28, 0x52, 0x00, 0x99, 0x2E, 0x31, 0x30, 0x89, 0x2E, 0x40, 0x00, 0x89,
        0x28, 0x40, 0x30, 0x99, 0x24, 0x52, 0x00, 0x99, 0x2E, 0x31, 0x30, 0x89, 0x2E, 0x40, 0x00, 0x89,
        0x24, 0x40, 0x30, 0x99, 0x28, 0x51, 0x00, 0x99, 0x2E, 0x31, 0x30, 0x89, 0x28, 0x40, 0x00, 0x89,
        0x2E, 0x40, 0x00, 0x99, 0x24, 0x51, 0x30, 0x89, 0x24, 0x40, 0x00, 0x99, 0x2E, 0x31, 0x30, 0x89,
        0x2E, 0x40, 0x00, 0x99, 0x24, 0x51, 0x30, 0x89, 0x24, 0x40, 0x00, 0x99, 0x28, 0x51, 0x00, 0x99,
        0x2E, 0x31, 0x30, 0x89, 0x2E, 0x40, 0x00, 0x89, 0x28, 0x40, 0x00, 0x99, 0x24, 0x50, 0x30, 0x89,
        0x24, 0x40, 0x00, 0x99, 0x24, 0x50, 0x00, 0x99, 0x2E, 0x31, 0x30, 0x89, 0x2E, 0x40, 0x00, 0x89,
        0x24, 0x40, 0x30, 0x99, 0x2E, 0x31, 0x00, 0x99, 0x24, 0x50, 0x00, 0x99, 0x28, 0x50, 0x30, 0x89,
        0x28, 0x40, 0x00, 0x89, 0x24, 0x40, 0x00, 0x89, 0x2E, 0x40, 0x30, 0x99, 0x2E, 0x31, 0x00, 0x99,
        0x24, 0x52, 0x30, 0x89, 0x24, 0x40, 0x00, 0x89, 0x2E, 0x40, 0x30, 0x99, 0x28, 0x52, 0x00, 0x99,
        0x2E, 0x31, 0x30, 0x89, 0x2E, 0x40, 0x00, 0x89, 0x28, 0x40, 0x30, 0x99, 0x24, 0x52, 0x00, 0x99,
        0x2E, 0x31, 0x30, 0x89, 0x2E, 0x40, 0x00, 0x89, 0x24, 0x40, 0x30, 0x99, 0x2E, 0x31, 0x00, 0x99,
        0x28, 0x51, 0x30, 0x89, 0x2E, 0x40, 0x00, 0x89, 0x28, 0x40, 0x00, 0x99, 0x24, 0x51, 0x30, 0x89,
        0x24, 0x40, 0x00, 0x99, 0x2E, 0x31, 0x30, 0x89, 0x2E, 0x40, 0x00, 0x99, 0x24, 0x51, 0x30, 0x89,
        0x24, 0x40, 0x00, 0x99, 0x2E, 0x31, 0x00, 0x99, 0x28, 0x51, 0x30, 0x89, 0x28, 0x40, 0x00, 0x89,
        0x2E, 0x40, 0x00, 0x99, 0x24, 0x50, 0x30, 0x89, 0x24, 0x40, 0x00, 0x99, 0x24, 0x50, 0x00, 0x99,
        0x2E, 0x31, 0x30, 0x89, 0x2E, 0x40, 0x00, 0x89, 0x24, 0x40, 0x30, 0x99, 0x2E, 0x31, 0x00, 0x99,
        0x24, 0x50, 0x00, 0x99, 0x28, 0x50, 0x30, 0x89, 0x28, 0x40, 0x00, 0x89, 0x24, 0x40, 0x00, 0x89,
        0x2E, 0x40, 0x30, 0x99, 0x2E, 0x31, 0x00, 0x99, 0x24, 0x52, 0x30, 0x89, 0x24, 0x40, 0x00, 0x89,
        0x2E, 0x40, 0x30, 0x99, 0x28, 0x52, 0x00, 0x99, 0x2E, 0x31, 0x30, 0x89, 0x2E, 0x40, 0x00, 0x89,
        0x28, 0x40, 0x30, 0x99, 0x24, 0x52, 0x00, 0x99, 0x2E, 0x31, 0x30, 0x89, 0x2E, 0x40, 0x00, 0x89,
        0x24, 0x40, 0x00, 0x99, 0x28, 0x51, 0x30, 0x89, 0x28, 0x40, 0x00, 0x99, 0x2E, 0x31, 0x30, 0x89,
        0x2E, 0x40, 0x00, 0x99, 0x28, 0x51, 0x00, 0x99, 0x24, 0x51, 0x30, 0x89, 0x24, 0x40, 0x00, 0x89,
        0x28, 0x40, 0x00, 0x99, 0x2E, 0x31, 0x30, 0x89, 0x2E, 0x40, 0x00, 0x99, 0x39, 0x52, 0x00, 0x99,
        0x24, 0x51, 0x30, 0x89, 0x24, 0x40, 0x00, 0x89, 0x39, 0x40, 0x00, 0x99, 0x28, 0x51, 0x00, 0x99,
        0x2E, 0x31, 0x30, 0x89, 0x2E, 0x40, 0x00, 0x89, 0x28, 0x40, 0x00, 0x99, 0x28, 0x51, 0x00, 0x99,
        0x24, 0x50, 0x00, 0x99, 0x31, 0x52, 0x30, 0x89, 0x31, 0x40, 0x00, 0x89, 0x24, 0x40, 0x00, 0x89,
        0x28, 0x40, 0x00, 0x99, 0x2E, 0x31, 0x00, 0x99, 0x24, 0x50, 0x30, 0x89, 0x24, 0x40, 0x00, 0x89,
        0x2E, 0x40, 0x00, 0x99, 0x39, 0x52, 0x00, 0x99, 0x28, 0x50, 0x30, 0x89, 0x28, 0x40, 0x00, 0x99,
        0x2E, 0x31, 0x00, 0x99, 0x28, 0x50, 0x00, 0x99, 0x24, 0x50, 0x30, 0x89, 0x24, 0x40, 0x00, 0x89,
        0x39, 0x40, 0x00, 0x89, 0x28, 0x40, 0x00, 0x89, 0x2E, 0x40, 0x30, 0x99, 0x2C, 0x31, 0x00, 0x99,
        0x24, 0x50, 0x00, 0x99, 0x39, 0x52, 0x30, 0x89, 0x39, 0x40, 0x00, 0x89, 0x24, 0x40, 0x00, 0x89,
        0x2C, 0x40, 0x30, 0x99, 0x2C, 0x31, 0x30, 0x89, 0x2C, 0x40, 0x30, 0x99, 0x2C, 0x31, 0x00, 0x99,
        0x28, 0x50, 0x30, 0x89, 0x28, 0x40, 0x00, 0x89, 0x2C, 0x40, 0x30, 0x99, 0x2C, 0x31, 0x30, 0x89,
        0x2C, 0x40, 0x00, 0x99, 0x24, 0x50, 0x30, 0x89, 0x24, 0x40, 0x00, 0x99, 0x2C, 0x31, 0x30, 0x89,
        0x2C, 0x40, 0x00, 0x99, 0x24, 0x50, 0x30, 0x89, 0x24, 0x40, 0x00, 0x99, 0x2C, 0x31, 0x30, 0x89,
        0x2C, 0x40, 0x00, 0x99, 0x24, 0x50, 0x30, 0x89, 0x24, 0x40, 0x00, 0x99, 0x2C, 0x31, 0x00, 0x99,
        0x24, 0x50, 0x00, 0x99, 0x28, 0x50, 0x30, 0x89, 0x28, 0x40, 0x00, 0x89, 0x24, 0x40, 0x00, 0x89,
        0x2C, 0x40, 0x30, 0x99, 0x2C, 0x31, 0x30, 0x89, 0x2C, 0x40, 0x00, 0x99, 0x28, 0x50, 0x30, 0x89,
        0x28, 0x40, 0x00, 0x99, 0x2C, 0x31, 0x00, 0x99, 0x24, 0x50, 0x30, 0x89, 0x24, 0x40, 0x00, 0x89,
        0x2C, 0x40, 0x30, 0x99, 0x2C, 0x31, 0x30, 0x89, 0x2C, 0x40, 0x30, 0x99, 0x2C, 0x31, 0x00, 0x99,
        0x28, 0x50, 0x30, 0x89, 0x28, 0x40, 0x00, 0x89, 0x2C, 0x40, 0x30, 0x99, 0x2C, 0x31, 0x30, 0x89,
        0x2C, 0x40, 0x00, 0x99, 0x24, 0x50, 0x30, 0x89, 0x24, 0x40, 0x00, 0x99, 0x2C, 0x31, 0x30, 0x89,
        0x2C, 0x40, 0x00, 0x99, 0x24, 0x50, 0x30, 0x89, 0x24, 0x40, 0x00, 0x99, 0x2C, 0x31, 0x30, 0x89,
        0x2C, 0x40, 0x00, 0x99, 0x24, 0x50, 0x30, 0x89, 0x24, 0x40, 0x00, 0x99, 0x2C, 0x31, 0x00, 0x99,
        0x24, 0x50, 0x00, 0x99, 0x28, 0x50, 0x30, 0x89, 0x28, 0x40, 0x00, 0x89, 0x2C, 0x40, 0x00, 0x89,
        0x24, 0x40, 0x30, 0x99, 0x2C, 0x31, 0x30, 0x89, 0x2C, 0x40, 0x00, 0x99, 0x28, 0x50, 0x30, 0x89,
        0x28, 0x40, 0x00, 0x99, 0x2C, 0x31, 0x00, 0x99, 0x24, 0x50, 0x30, 0x89, 0x24, 0x40, 0x00, 0x89,
        0x2C, 0x40, 0x30, 0x99, 0x2C, 0x31, 0x30, 0x89, 0x2C, 0x40, 0x30, 0x99, 0x2C, 0x31, 0x00, 0x99,
        0x28, 0x50, 0x30, 0x89, 0x28, 0x40, 0x00, 0x89, 0x2C, 0x40, 0x30, 0x99, 0x2C, 0x31, 0x30, 0x89,
        0x2C, 0x40, 0x00, 0x99, 0x24, 0x50, 0x30, 0x89, 0x24, 0x40, 0x00, 0x99, 0x2C, 0x31, 0x30, 0x89,
        0x2C, 0x40, 0x00, 0x99, 0x24, 0x50, 0x30, 0x89, 0x24, 0x40, 0x00, 0x99, 0x2C, 0x31, 0x30, 0x89,
        0x2C, 0x40, 0x00, 0x99, 0x24, 0x50, 0x30, 0x89, 0x24, 0x40, 0x00, 0x99, 0x2C, 0x31, 0x00, 0x99,
        0x24, 0x50, 0x00, 0x99, 0x28, 0x50, 0x30, 0x89, 0x28, 0x40, 0x00, 0x89, 0x2C, 0x40, 0x00, 0x89,
        0x24, 0x40, 0x30, 0x99, 0x2C, 0x31, 0x30, 0x89, 0x2C, 0x40, 0x00, 0x99, 0x28, 0x50, 0x30, 0x89,
        0x28, 0x40, 0x00, 0x99, 0x2C, 0x31, 0x00, 0x99, 0x24, 0x50, 0x30, 0x89, 0x24, 0x40, 0x00, 0x89,
        0x2C, 0x40, 0x30, 0x99, 0x2C, 0x31, 0x30, 0x89, 0x2C, 0x40, 0x30, 0x99, 0x2C, 0x31, 0x00, 0x99,
        0x28, 0x50, 0x30, 0x89, 0x28, 0x40, 0x00, 0x89, 0x2C, 0x40, 0x30, 0x99, 0x2C, 0x31, 0x30, 0x89,
        0x2C, 0x40, 0x00, 0x99, 0x24, 0x50, 0x30, 0x89, 0x24, 0x40, 0x00, 0x99, 0x2C, 0x31, 0x30, 0x89,
        0x2C, 0x40, 0x00, 0x99, 0x24, 0x50, 0x30, 0x89, 0x24, 0x40, 0x00, 0x99, 0x2C, 0x31, 0x30, 0x89,
        0x2C, 0x40, 0x00, 0x99, 0x24, 0x50, 0x30, 0x89, 0x24, 0x40, 0x00, 0x99, 0x2C, 0x31, 0x00, 0x99,
        0x24, 0x50, 0x00, 0x99, 0x28, 0x50, 0x30, 0x89, 0x28, 0x40, 0x00, 0x89, 0x2C, 0x40, 0x00, 0x89,
        0x24, 0x40, 0x30, 0x99, 0x2C, 0x31, 0x30, 0x89, 0x2C, 0x40, 0x00, 0x99, 0x28, 0x50, 0x30, 0x89,
        0x28, 0x40, 0x00, 0x99, 0x2C, 0x31, 0x00, 0x99, 0x24, 0x50, 0x30, 0x89, 0x24, 0x40, 0x00, 0x89,
        0x2C, 0x40, 0x30, 0x99, 0x2C, 0x31, 0x30, 0x89, 0x2C, 0x40, 0x30, 0x99, 0x2C, 0x31, 0x00, 0x99,
        0x28, 0x50, 0x30, 0x89, 0x28, 0x40, 0x00, 0x89, 0x2C, 0x40, 0x30, 0x99, 0x2C, 0x31, 0x30, 0x89,
        0x2C, 0x40, 0x00, 0x99, 0x24, 0x50, 0x30, 0x89, 0x24, 0x40, 0x00, 0x99, 0x2C, 0x31, 0x30, 0x89,
        0x2C, 0x40, 0x00, 0x99, 0x24, 0x50, 0x30, 0x89, 0x24, 0x40, 0x00, 0x99, 0x2C, 0x31, 0x30, 0x89,
        0x2C, 0x40, 0x00, 0x99, 0x24, 0x50, 0x30, 0x89, 0x24, 0x40, 0x00, 0x99, 0x2C, 0x31, 0x00, 0x99,
        0x24, 0x50, 0x00, 0x99, 0x28, 0x50, 0x30, 0x89, 0x28, 0x40, 0x00, 0x89, 0x24, 0x40, 0x00, 0x89,
        0x2C, 0x40, 0x30, 0x99, 0x2C, 0x31, 0x30, 0x89, 0x2C, 0x40, 0x00, 0x99, 0x28, 0x50, 0x30, 0x89,
        0x28, 0x40, 0x00, 0x99, 0x2C, 0x31, 0x00, 0x99, 0x24, 0x50, 0x30, 0x89, 0x24, 0x40, 0x00, 0x89,
        0x2C, 0x40, 0x30, 0x99, 0x2C, 0x31, 0x30, 0x89, 0x2C, 0x40, 0x30, 0x99, 0x2C, 0x31, 0x00, 0x99,
        0x28, 0x50, 0x30, 0x89, 0x28, 0x40, 0x00, 0x89, 0x2C, 0x40, 0x30, 0x99, 0x2C, 0x31, 0x30, 0x89,
        0x2C, 0x40, 0x00, 0x99, 0x24, 0x50, 0x30, 0x89, 0x24, 0x40, 0x00, 0x99, 0x2C, 0x31, 0x30, 0x89,
        0x2C, 0x40, 0x00, 0x99, 0x24, 0x50, 0x30, 0x89, 0x24, 0x40, 0x00, 0x99, 0x2C, 0x31, 0x30, 0x89,
        0x2C, 0x40, 0x00, 0x99, 0x24, 0x50, 0x30, 0x89, 0x24, 0x40, 0x00, 0x99, 0x2C, 0x31, 0x00, 0x99,
        0x24, 0x50, 0x00, 0x99, 0x28, 0x50, 0x30, 0x89, 0x28, 0x40, 0x00, 0x89, 0x2C, 0x40, 0x00, 0x89,
        0x24, 0x40, 0x30, 0x99, 0x2C, 0x31, 0x30, 0x89, 0x2C, 0x40, 0x00, 0x99, 0x28, 0x50, 0x30, 0x89,
        0x28, 0x40, 0x00, 0x99, 0x2C, 0x31, 0x00, 0x99, 0x24, 0x50, 0x30, 0x89, 0x24, 0x40, 0x00, 0x89,
        0x2C, 0x40, 0x30, 0x99, 0x2C, 0x31, 0x30, 0x89, 0x2C, 0x40, 0x30, 0x99, 0x28, 0x50, 0x00, 0x99,
        0x2C, 0x31, 0x30, 0x89, 0x2C, 0x40, 0x00, 0x89, 0x28, 0x40, 0x30, 0x99, 0x2C, 0x31, 0x30, 0x89,
        0x2C, 0x40, 0x00, 0x99, 0x24, 0x50, 0x30, 0x89, 0x24, 0x40, 0x00, 0x99, 0x2C, 0x31, 0x30, 0x89,
        0x2C, 0x40, 0x00, 0x99, 0x24, 0x50, 0x30, 0x89, 0x24, 0x40, 0x00, 0x99, 0x2C, 0x31, 0x30, 0x89,
        0x2C, 0x40, 0x00, 0x99, 0x24, 0x50, 0x30, 0x89, 0x24, 0x40, 0x00, 0x99, 0x28, 0x50, 0x00, 0x99,
        0x24, 0x50, 0x00, 0x99, 0x2C, 0x31, 0x30, 0x89, 0x2C, 0x40, 0x00, 0x89, 0x28, 0x40, 0x00, 0x89,
        0x24, 0x40, 0x30, 0x99, 0x2C, 0x31, 0x30, 0x89, 0x2C, 0x40, 0x00, 0x99, 0x28, 0x50, 0x30, 0x89,
        0x28, 0x40, 0x00, 0x99, 0x2C, 0x31, 0x00, 0x99, 0x24, 0x50, 0x30, 0x89, 0x24, 0x40, 0x00, 0x89,
        0x2C, 0x40, 0x30, 0x99, 0x2C, 0x31, 0x30, 0x89, 0x2C, 0x40, 0x30, 0x99, 0x28, 0x50, 0x00, 0x99,
        0x2C, 0x31, 0x30, 0x89, 0x2C, 0x40, 0x00, 0x89, 0x28, 0x40, 0x30, 0x99, 0x2C, 0x31, 0x30, 0x89,
        0x2C, 0x40, 0x00, 0x99, 0x24, 0x50, 0x30, 0x89, 0x24, 0x40, 0x00, 0x99, 0x2C, 0x31, 0x30, 0x89,
        0x2C, 0x40, 0x00, 0x99, 0x24, 0x50, 0x30, 0x89, 0x24, 0x40, 0x00, 0x99, 0x2C, 0x31, 0x30, 0x89,
        0x2C, 0x40, 0x00, 0x99, 0x24, 0x50, 0x30, 0x89, 0x24, 0x40, 0x00, 0x99, 0x28, 0x50, 0x00, 0x99,
        0x24, 0x50, 0x00, 0x99, 0x2C, 0x31, 0x30, 0x89, 0x2C, 0x40, 0x00, 0x89, 0x28, 0x40, 0x00, 0x89,
        0x24, 0x40, 0x30, 0x99, 0x2C, 0x31, 0x30, 0x89, 0x2C, 0x40, 0x00, 0x99, 0x28, 0x50, 0x30, 0x89,
        0x28, 0x40, 0x00, 0x99, 0x24, 0x50, 0x00, 0x99, 0x2C, 0x31, 0x00, 0x99, 0x37, 0x52, 0x30, 0x89,
        0x37, 0x40, 0x00, 0x89, 0x2C, 0x40, 0x00, 0x89, 0x24, 0x40, 0x30, 0x99, 0x2C, 0x31, 0x30, 0x89,
        0x2C, 0x40, 0x30, 0x99, 0x28, 0x50, 0x00, 0x99, 0x2C, 0x31, 0x30, 0x89, 0x2C, 0x40, 0x00, 0x89,
        0x28, 0x40, 0x30, 0x99, 0x2C, 0x31, 0x30, 0x89, 0x2C, 0x40, 0x00, 0x99, 0x24, 0x50, 0x30, 0x89,
        0x24, 0x40, 0x00, 0x99, 0x2C, 0x31, 0x30, 0x89, 0x2C, 0x40, 0x00, 0x99, 0x24, 0x50, 0x30, 0x89,
        0x24, 0x40, 0x00, 0x99, 0x2C, 0x31, 0x30, 0x89, 0x2C, 0x40, 0x00, 0x99, 0x24, 0x50, 0x30, 0x89,
        0x24, 0x40, 0x00, 0x99, 0x28, 0x50, 0x00, 0x99, 0x24, 0x50, 0x00, 0x99, 0x2C, 0x31, 0x30, 0x89,
        0x2C, 0x40, 0x00, 0x89, 0x28, 0x40, 0x00, 0x89, 0x24, 0x40, 0x30, 0x99, 0x2C, 0x31, 0x30, 0x89,
        0x2C, 0x40, 0x00, 0x99, 0x28, 0x50, 0x30, 0x89, 0x28, 0x40, 0x00, 0x99, 0x24, 0x50, 0x00, 0x99,
        0x2C, 0x31, 0x30, 0x89, 0x2C, 0x40, 0x00, 0x89, 0x24, 0x40, 0x30, 0x99, 0x2C, 0x31, 0x30, 0x89,
        0x2C, 0x40, 0x30, 0x99, 0x28, 0x50, 0x00, 0x99, 0x2C, 0x31, 0x30, 0x89, 0x2C, 0x40, 0x00, 0x89,
        0x28, 0x40, 0x30, 0x99, 0x2C, 0x31, 0x30, 0x89, 0x2C, 0x40, 0x00, 0x99, 0x24, 0x50, 0x30, 0x89,
        0x24, 0x40, 0x00, 0x99, 0x2C, 0x31, 0x30, 0x89, 0x2C, 0x40, 0x00, 0x99, 0x24, 0x50, 0x30, 0x89,
        0x24, 0x40, 0x00, 0x99, 0x2C, 0x31, 0x30, 0x89, 0x2C, 0x40, 0x00, 0x99, 0x24, 0x50, 0x30, 0x89,
        0x24, 0x40, 0x00, 0x99, 0x28, 0x50, 0x00, 0x99, 0x24, 0x50, 0x00, 0x99, 0x2C, 0x31, 0x30, 0x89,
        0x2C, 0x40, 0x00, 0x89, 0x28, 0x40, 0x00, 0x89, 0x24, 0x40, 0x30, 0x99, 0x2C, 0x31, 0x30, 0x89,
        0x2C, 0x40, 0x00, 0x99, 0x28, 0x50, 0x30, 0x89, 0x28, 0x40, 0x00, 0x99, 0x2C, 0x31, 0x00, 0x99,
        0x24, 0x50, 0x30, 0x89, 0x24, 0x40, 0x00, 0x89, 0x2C, 0x40, 0x30, 0x99, 0x2C, 0x31, 0x30, 0x89,
        0x2C, 0x40, 0x30, 0x99, 0x2C, 0x31, 0x00, 0x99, 0x28, 0x50, 0x30, 0x89, 0x28, 0x40, 0x00, 0x89,
        0x2C, 0x40, 0x30, 0x99, 0x2C, 0x31, 0x30, 0x89, 0x2C, 0x40, 0x00, 0x99, 0x24, 0x50, 0x30, 0x89,
        0x24, 0x40, 0x00, 0x99, 0x2C, 0x31, 0x30, 0x89, 0x2C, 0x40, 0x00, 0x99, 0x24, 0x50, 0x30, 0x89,
        0x24, 0x40, 0x00, 0x99, 0x2C, 0x31, 0x30, 0x89, 0x2C, 0x40, 0x00, 0x99, 0x24, 0x50, 0x30, 0x89,
        0x24, 0x40, 0x00, 0x99, 0x28, 0x50, 0x00, 0x99, 0x24, 0x50, 0x00, 0x99, 0x2C, 0x31, 0x30, 0x89,
        0x2C, 0x40, 0x00, 0x89, 0x28, 0x40, 0x00, 0x89, 0x24, 0x40, 0x30, 0x99, 0x2C, 0x31, 0x30, 0x89,
        0x2C, 0x40, 0x00, 0x99, 0x28, 0x50, 0x30, 0x89, 0x28, 0x40, 0x00, 0x99, 0x24, 0x50, 0x00, 0x99,
        0x2C, 0x31, 0x30, 0x89, 0x2C, 0x40, 0x00, 0x89, 0x24, 0x40, 0x30, 0x99, 0x2C, 0x31, 0x30, 0x89,
        0x2C, 0x40, 0x30, 0x99, 0x28, 0x50, 0x00, 0x99, 0x2C, 0x31, 0x30, 0x89, 0x2C, 0x40, 0x00, 0x89,
        0x28, 0x40, 0x30, 0x99, 0x2C, 0x31, 0x30, 0x89, 0x2C, 0x40, 0x00, 0x99, 0x24, 0x50, 0x30, 0x89,
        0x24, 0x40, 0x00, 0x99, 0x2C, 0x31, 0x30, 0x89, 0x2C, 0x40, 0x00, 0x99, 0x24, 0x50, 0x30, 0x89,
        0x24, 0x40, 0x00, 0x99, 0x2C, 0x31, 0x30, 0x89, 0x2C, 0x40, 0x00, 0x99, 0x24, 0x50, 0x30, 0x89,
        0x24, 0x40, 0x00, 0x99, 0x28, 0x50, 0x00, 0x99, 0x24, 0x50, 0x00, 0x99, 0x2C, 0x31, 0x30, 0x89,
        0x2C, 0x40, 0x00, 0x89, 0x28, 0x40, 0x00, 0x89, 0x24, 0x40, 0x30, 0x99, 0x2C, 0x31, 0x30, 0x89,
        0x2C, 0x40, 0x00, 0x99, 0x28, 0x50, 0x30, 0x89, 0x28, 0x40, 0x00, 0x99, 0x24, 0x50, 0x00, 0x99,
        0x2C, 0x31, 0x30, 0x89, 0x2C, 0x40, 0x00, 0x89, 0x24, 0x40, 0x30, 0x99, 0x2C, 0x31, 0x30, 0x89,
        0x2C, 0x40, 0x30, 0x99, 0x28, 0x50, 0x00, 0x99, 0x2C, 0x31, 0x30, 0x89, 0x2C, 0x40, 0x00, 0x89,
        0x28, 0x40, 0x30, 0x99, 0x2C, 0x31, 0x30, 0x89, 0x2C, 0x40, 0x00, 0x99, 0x24, 0x50, 0x30, 0x89,
        0x24, 0x40, 0x00, 0x99, 0x2C, 0x31, 0x30, 0x89, 0x2C, 0x40, 0x00, 0x99, 0x24, 0x50, 0x30, 0x89,
        0x24, 0x40, 0x00, 0x99, 0x2C, 0x31, 0x30, 0x89, 0x2C, 0x40, 0x00, 0x99, 0x24, 0x50, 0x30, 0x89,
        0x24, 0x40, 0x00, 0x99, 0x28, 0x50, 0x00, 0x99, 0x24, 0x50, 0x00, 0x99, 0x2C, 0x31, 0x30, 0x89,
        0x2C, 0x40, 0x00, 0x89, 0x28, 0x40, 0x00, 0x89, 0x24, 0x40, 0x30, 0x99, 0x2C, 0x31, 0x30, 0x89,
        0x2C, 0x40, 0x00, 0x99, 0x28, 0x50, 0x30, 0x89, 0x28, 0x40, 0x00, 0x99, 0x24, 0x50, 0x00, 0x99,
        0x2C, 0x31, 0x30, 0x89, 0x2C, 0x40, 0x00, 0x89, 0x24, 0x40, 0x30, 0x99, 0x2C, 0x31, 0x30, 0x89,
        0x2C, 0x40, 0x30, 0x99, 0x28, 0x50, 0x00, 0x99, 0x2C, 0x31, 0x30, 0x89, 0x2C, 0x40, 0x00, 0x89,
        0x28, 0x40, 0x30, 0x99, 0x2C, 0x31, 0x30, 0x89, 0x2C, 0x40, 0x00, 0x99, 0x24, 0x50, 0x30, 0x89,
        0x24, 0x40, 0x00, 0x99, 0x2C, 0x31, 0x30, 0x89, 0x2C, 0x40, 0x00, 0x99, 0x24, 0x50, 0x30, 0x89,
        0x24, 0x40, 0x00, 0x99, 0x2C, 0x31, 0x30, 0x89, 0x2C, 0x40, 0x00, 0x99, 0x24, 0x50, 0x30, 0x89,
        0x24, 0x40, 0x00, 0x99, 0x28, 0x50, 0x00, 0x99, 0x24, 0x50, 0x00, 0x99, 0x2C, 0x31, 0x30, 0x89,
        0x2C, 0x40, 0x00, 0x89, 0x28, 0x40, 0x00, 0x89, 0x24, 0x40, 0x30, 0x99, 0x2C, 0x31, 0x30, 0x89,
        0x2C, 0x40, 0x00, 0x99, 0x28, 0x50, 0x30, 0x89, 0x28, 0x40, 0x89, 0x30, 0x99, 0x39, 0x52, 0x30,
        0x89, 0x39, 0x40, 0x30, 0x99, 0x31, 0x51, 0x30, 0x89, 0x31, 0x40, 0x30, 0x99, 0x39, 0x52, 0x60,
        0x89, 0x39, 0x40, 0x30, 0x99, 0x39, 0x52, 0x00, 0x99, 0x2E, 0x31, 0x00, 0x99, 0x24, 0x52, 0x30,
        0x89, 0x24, 0x40, 0x00, 0x89, 0x2E, 0x40, 0x00, 0x89, 0x39, 0x40, 0x30, 0x99, 0x28, 0x52, 0x00,
        0x99, 0x2E, 0x31, 0x30, 0x89, 0x2E, 0x40, 0x00, 0x89, 0x28, 0x40, 0x30, 0x99, 0x2E, 0x31, 0x00,
        0x99, 0x24, 0x52, 0x30, 0x89, 0x24, 0x40, 0x00, 0x89, 0x2E, 0x40, 0x30, 0x99, 0x28, 0x51, 0x00,
        0x99, 0x2E, 0x31, 0x30, 0x89, 0x28, 0x40, 0x00, 0x89, 0x2E, 0x40, 0x00, 0x99, 0x24, 0x51, 0x30,
        0x89, 0x24, 0x40, 0x00, 0x99, 0x2E, 0x31, 0x30, 0x89, 0x2E, 0x40, 0x00, 0x99, 0x24, 0x51, 0x30,
        0x89, 0x24, 0x40, 0x00, 0x99, 0x28, 0x51, 0x00, 0x99, 0x2E, 0x31, 0x30, 0x89, 0x2E, 0x40, 0x00,
        0x89, 0x28, 0x40, 0x00, 0x99, 0x24, 0x50, 0x30, 0x89, 0x24, 0x40, 0x00, 0x99, 0x2E, 0x31, 0x00,
        0x99, 0x24, 0x50, 0x30, 0x89, 0x24, 0x40, 0x00, 0x89, 0x2E, 0x40, 0x30, 0x99, 0x28, 0x50, 0x00,
        0x99, 0x24, 0x50, 0x00, 0x99, 0x2E, 0x31, 0x30, 0x89, 0x2E, 0x40, 0x00, 0x89, 0x24, 0x40, 0x00,
        0x89, 0x28, 0x40, 0x30, 0x99, 0x2E, 0x31, 0x00, 0x99, 0x24, 0x52, 0x30, 0x89, 0x24, 0x40, 0x00,
        0x89, 0x2E, 0x40, 0x30, 0x99, 0x28, 0x52, 0x00, 0x99, 0x2E, 0x31, 0x30, 0x89, 0x2E, 0x40, 0x00,
        0x89, 0x28, 0x40, 0x30, 0x99, 0x2E, 0x31, 0x00, 0x99, 0x24, 0x52, 0x30, 0x89, 0x24, 0x40, 0x00,
        0x89, 0x2E, 0x40, 0x30, 0x99, 0x2E, 0x31, 0x00, 0x99, 0x28, 0x51, 0x30, 0x89, 0x2E, 0x40, 0x00,
        0x89, 0x28, 0x40, 0x00, 0x99, 0x24, 0x51, 0x30, 0x89, 0x24, 0x40, 0x00, 0x99, 0x2E, 0x31, 0x30,
        0x89, 0x2E, 0x40, 0x00, 0x99, 0x24, 0x51, 0x30, 0x89, 0x24, 0x40, 0x00, 0x99, 0x2E, 0x31, 0x00,
        0x99, 0x28, 0x51, 0x30, 0x89, 0x28, 0x40, 0x00, 0x89, 0x2E, 0x40, 0x00, 0x99, 0x24, 0x50, 0x30,
        0x89, 0x24, 0x40, 0x00, 0x99, 0x2E, 0x31, 0x00, 0x99, 0x24, 0x50, 0x30, 0x89, 0x24, 0x40, 0x00,
        0x89, 0x2E, 0x40, 0x30, 0x99, 0x2E, 0x31, 0x00, 0x99, 0x24, 0x50, 0x00, 0x99, 0x28, 0x50, 0x30,
        0x89, 0x28, 0x40, 0x00, 0x89, 0x24, 0x40, 0x00, 0x89, 0x2E, 0x40, 0x30, 0x99, 0x2E, 0x31, 0x00,
        0x99, 0x24, 0x52, 0x30, 0x89, 0x24, 0x40, 0x00, 0x89, 0x2E, 0x40, 0x30, 0x99, 0x28, 0x52, 0x00,
        0x99, 0x2E, 0x31, 0x30, 0x89, 0x2E, 0x40, 0x00, 0x89, 0x28, 0x40, 0x30, 0x99, 0x2E, 0x31, 0x00,
        0x99, 0x24, 0x52, 0x30, 0x89, 0x24, 0x40, 0x00, 0x89, 0x2E, 0x40, 0x30, 0x99, 0x28, 0x51, 0x00,
        0x99, 0x2E, 0x31, 0x30, 0x89, 0x28, 0x40, 0x00, 0x89, 0x2E, 0x40, 0x00, 0x99, 0x24, 0x51, 0x30,
        0x89, 0x24, 0x40, 0x00, 0x99, 0x2E, 0x31, 0x30, 0x89, 0x2E, 0x40, 0x00, 0x99, 0x24, 0x51, 0x30,
        0x89, 0x24, 0x40, 0x00, 0x99, 0x28, 0x51, 0x00, 0x99, 0x2E, 0x31, 0x30, 0x89, 0x2E, 0x40, 0x00,
        0x89, 0x28, 0x40, 0x00, 0x99, 0x24, 0x50, 0x30, 0x89, 0x24, 0x40, 0x00, 0x99, 0x2E, 0x31, 0x00,
        0x99, 0x24, 0x50, 0x30, 0x89, 0x24, 0x40, 0x00, 0x89, 0x2E, 0x40, 0x30, 0x99, 0x28, 0x50, 0x00,
        0x99, 0x24, 0x50, 0x00, 0x99, 0x2E, 0x31, 0x30, 0x89, 0x2E, 0x40, 0x00, 0x89, 0x24, 0x40, 0x00,
        0x89, 0x28, 0x40, 0x30, 0x99, 0x2E, 0x31, 0x00, 0x99, 0x24, 0x52, 0x30, 0x89, 0x24, 0x40, 0x00,
        0x89, 0x2E, 0x40, 0x30, 0x99, 0x28, 0x52, 0x00, 0x99, 0x2E, 0x31, 0x30, 0x89, 0x2E, 0x40, 0x00,
        0x89, 0x28, 0x40, 0x30, 0x99, 0x2E, 0x31, 0x00, 0x99, 0x24, 0x52, 0x30, 0x89, 0x24, 0x40, 0x00,
        0x89, 0x2E, 0x40, 0x00, 0x99, 0x28, 0x51, 0x30, 0x89, 0x28, 0x40, 0x00, 0x99, 0x2E, 0x31, 0x30,
        0x89, 0x2E, 0x40, 0x00, 0x99, 0x24, 0x51, 0x00, 0x99, 0x28, 0x51, 0x30, 0x89, 0x28, 0x40, 0x00,
        0x89, 0x24, 0x40, 0x00, 0x99, 0x2E, 0x31, 0x30, 0x89, 0x2E, 0x40, 0x00, 0x99, 0x39, 0x52, 0x00,
        0x99, 0x24, 0x51, 0x30, 0x89, 0x24, 0x40, 0x00, 0x89, 0x39, 0x40, 0x00, 0x99, 0x2E, 0x31, 0x00,
        0x99, 0x28, 0x51, 0x30, 0x89, 0x28, 0x40, 0x00, 0x89, 0x2E, 0x40, 0x00, 0x99, 0x31, 0x51, 0x00,
        0x99, 0x24, 0x50, 0x30, 0x89, 0x24, 0x40, 0x00, 0x89, 0x31, 0x40, 0x00, 0x99, 0x2E, 0x31, 0x00,
        0x99, 0x24, 0x50, 0x00, 0x99, 0x28, 0x51, 0x30, 0x89, 0x28, 0x40, 0x00, 0x89, 0x24, 0x40, 0x00,
        0x89, 0x2E, 0x40, 0x00, 0x99, 0x39, 0x52, 0x30, 0x99, 0x2E, 0x31, 0x00, 0x99, 0x24, 0x50, 0x00,
        0x99, 0x28, 0x50, 0x30, 0x89, 0x39, 0x40, 0x00, 0x89, 0x28, 0x40, 0x00, 0x89, 0x24, 0x40, 0x00,
        0x89, 0x2E, 0x40, 0x30, 0x99, 0x39, 0x52, 0x00, 0x99, 0x2E, 0x31, 0x00, 0x99, 0x24, 0x52, 0x00,
        0x99, 0x39, 0x52, 0x30, 0x89, 0x39, 0x40, 0x00, 0x89, 0x24, 0x40, 0x00, 0x89, 0x2E, 0x40, 0x00,
        0x89, 0x39, 0x40, 0x30, 0x99, 0x28, 0x52, 0x00, 0x99, 0x2E, 0x31, 0x30, 0x89, 0x2E, 0x40, 0x00,
        0x89, 0x28, 0x40, 0x30, 0x99, 0x2E, 0x31, 0x00, 0x99, 0x24, 0x52, 0x30, 0x89, 0x24, 0x40, 0x00,
        0x89, 0x2E, 0x40, 0x30, 0x99, 0x28, 0x51, 0x00, 0x99, 0x2E, 0x31, 0x30, 0x89, 0x28, 0x40, 0x00,
        0x89, 0x2E, 0x40, 0x00, 0x99, 0x24, 0x51, 0x30, 0x89, 0x24, 0x40, 0x00, 0x99, 0x2E, 0x31, 0x30,
        0x89, 0x2E, 0x40, 0x00, 0x99, 0x24, 0x51, 0x30, 0x89, 0x24, 0x40, 0x00, 0x99, 0x28, 0x51, 0x00,
        0x99, 0x2E, 0x31, 0x30, 0x89, 0x2E, 0x40, 0x00, 0x89, 0x28, 0x40, 0x00, 0x99, 0x24, 0x50, 0x30,
        0x89, 0x24, 0x40, 0x00, 0x99, 0x2E, 0x31, 0x00, 0x99, 0x24, 0x50, 0x30, 0x89, 0x24, 0x40, 0x00,
        0x89, 0x2E, 0x40, 0x30, 0x99, 0x28, 0x50, 0x00, 0x99, 0x24, 0x50, 0x00, 0x99, 0x2E, 0x31, 0x30,
        0x89, 0x2E, 0x40, 0x00, 0x89, 0x24, 0x40, 0x00, 0x89, 0x28, 0x40, 0x30, 0x99, 0x2E, 0x31, 0x00,
        0x99, 0x24, 0x52, 0x30, 0x89, 0x24, 0x40, 0x00, 0x89, 0x2E, 0x40, 0x30, 0x99, 0x28, 0x52, 0x00,
        0x99, 0x2E, 0x31, 0x30, 0x89, 0x2E, 0x40, 0x00, 0x89, 0x28, 0x40, 0x30, 0x99, 0x2E, 0x31, 0x00,
        0x99, 0x24, 0x52, 0x30, 0x89, 0x24, 0x40, 0x00, 0x89, 0x2E, 0x40, 0x30, 0x99, 0x2E, 0x31, 0x00,
        0x99, 0x28, 0x51, 0x30, 0x89, 0x2E, 0x40, 0x00, 0x89, 0x28, 0x40, 0x00, 0x99, 0x24, 0x51, 0x30,
        0x89, 0x24, 0x40, 0x00, 0x99, 0x2E, 0x31, 0x30, 0x89, 0x2E, 0x40, 0x00, 0x99, 0x24, 0x51, 0x30,
        0x89, 0x24, 0x40, 0x00, 0x99, 0x2E, 0x31, 0x00, 0x99, 0x28, 0x51, 0x30, 0x89, 0x28, 0x40, 0x00,
        0x89, 0x2E, 0x40, 0x00, 0x99, 0x24, 0x50, 0x30, 0x89, 0x24, 0x40, 0x00, 0x99, 0x2E, 0x31, 0x00,
        0x99, 0x24, 0x50, 0x30, 0x89, 0x24, 0x40, 0x00, 0x89, 0x2E, 0x40, 0x30, 0x99, 0x2E, 0x31, 0x00,
        0x99, 0x24, 0x50, 0x00, 0x99, 0x28, 0x50, 0x30, 0x89, 0x28, 0x40, 0x00, 0x89, 0x24, 0x40, 0x00,
        0x89, 0x2E, 0x40, 0x30, 0x99, 0x2E, 0x31, 0x00, 0x99, 0x24, 0x52, 0x30, 0x89, 0x24, 0x40, 0x00,
        0x89, 0x2E, 0x40, 0x30, 0x99, 0x28, 0x52, 0x00, 0x99, 0x2E, 0x31, 0x30, 0x89, 0x2E, 0x40, 0x00,
        0x89, 0x28, 0x40, 0x30, 0x99, 0x2E, 0x31, 0x00, 0x99, 0x24, 0x52, 0x30, 0x89, 0x24, 0x40, 0x00,
        0x89, 0x2E, 0x40, 0x30, 0x99, 0x28, 0x51, 0x00, 0x99, 0x2E, 0x31, 0x30, 0x89, 0x28, 0x40, 0x00,
        0x89, 0x2E, 0x40, 0x00, 0x99, 0x24, 0x51, 0x30, 0x89, 0x24, 0x40, 0x00, 0x99, 0x2E, 0x31, 0x30,
        0x89, 0x2E, 0x40, 0x00, 0x99, 0x24, 0x51, 0x30, 0x89, 0x24, 0x40, 0x00, 0x99, 0x28, 0x51, 0x00,
        0x99, 0x2E, 0x31, 0x30, 0x89, 0x2E, 0x40, 0x00, 0x89, 0x28, 0x40, 0x00, 0x99, 0x24, 0x50, 0x30,
        0x89, 0x24, 0x40, 0x00, 0x99, 0x2E, 0x31, 0x00, 0x99, 0x24, 0x50, 0x30, 0x89, 0x24, 0x40, 0x00,
        0x89, 0x2E, 0x40, 0x30, 0x99, 0x28, 0x50, 0x00, 0x99, 0x24, 0x50, 0x00, 0x99, 0x2E, 0x31, 0x30,
        0x89, 0x2E, 0x40, 0x00, 0x89, 0x24, 0x40, 0x00, 0x89, 0x28, 0x40, 0x30, 0x99, 0x2E, 0x31, 0x00,
        0x99, 0x24, 0x52, 0x30, 0x89, 0x24, 0x40, 0x00, 0x89, 0x2E, 0x40, 0x30, 0x99, 0x28, 0x52, 0x00,
        0x99, 0x2E, 0x31, 0x30, 0x89, 0x2E, 0x40, 0x00, 0x89, 0x28, 0x40, 0x30, 0x99, 0x2E, 0x31, 0x00,
        0x99, 0x24, 0x52, 0x30, 0x89, 0x24, 0x40, 0x00, 0x89, 0x2E, 0x40, 0x00, 0x99, 0x28, 0x51, 0x30,
        0x89, 0x28, 0x40, 0x00, 0x99, 0x2E, 0x31, 0x30, 0x89, 0x2E, 0x40, 0x00, 0x99, 0x24, 0x51, 0x00,
        0x99, 0x28, 0x51, 0x30, 0x89, 0x28, 0x40, 0x00, 0x89, 0x24, 0x40, 0x00, 0x99, 0x2E, 0x31, 0x30,
        0x89, 0x2E, 0x40, 0x00, 0x99, 0x39, 0x52, 0x00, 0x99, 0x24, 0x51, 0x30, 0x89, 0x24, 0x40, 0x00,
        0x89, 0x39, 0x40, 0x00, 0x99, 0x2E, 0x31, 0x00, 0x99, 0x28, 0x51, 0x30, 0x89, 0x28, 0x40, 0x00,
        0x89, 0x2E, 0x40, 0x00, 0x99, 0x31, 0x51, 0x00, 0x99, 0x24, 0x50, 0x00, 0x99, 0x28, 0x51, 0x30,
        0x89, 0x28, 0x40, 0x00, 0x89, 0x24, 0x40, 0x00, 0x89, 0x31, 0x40, 0x00, 0x99, 0x2E, 0x31, 0x00,
        0x99, 0x24, 0x50, 0x30, 0x89, 0x24, 0x40, 0x00, 0x89, 0x2E, 0x40, 0x00, 0x99, 0x39, 0x52, 0x00,
        0x99, 0x28, 0x50, 0x30, 0x89, 0x28, 0x40, 0x00, 0x99, 0x2E, 0x31, 0x00, 0x99, 0x24, 0x50, 0x00,
        0x99, 0x28, 0x50, 0x30, 0x89, 0x28, 0x40, 0x00, 0x89, 0x39, 0x40, 0x00, 0x89, 0x24, 0x40, 0x00,
        0x89, 0x2E, 0x40, 0x30, 0x99, 0x39, 0x52, 0x00, 0x99, 0x2E, 0x31, 0x00, 0x99, 0x24, 0x52, 0x30,
        0x89, 0x24, 0x40, 0x00, 0x89, 0x2E, 0x40, 0x00, 0x89, 0x39, 0x40, 0x30, 0x99, 0x2E, 0x31, 0x00,
        0x99, 0x28, 0x52, 0x30, 0x89, 0x28, 0x40, 0x00, 0x89, 0x2E, 0x40, 0x30, 0x99, 0x2E, 0x31, 0x00,
        0x99, 0x24, 0x52, 0x30, 0x89, 0x24, 0x40, 0x00, 0x89, 0x2E, 0x40, 0x30, 0x99, 0x2E, 0x31, 0x00,
        0x99, 0x28, 0x51, 0x30, 0x89, 0x2E, 0x40, 0x00, 0x89, 0x28, 0x40, 0x00, 0x99, 0x24, 0x51, 0x30,
        0x89, 0x24, 0x40, 0x00, 0x99, 0x2E, 0x31, 0x30, 0x89, 0x2E, 0x40, 0x00, 0x99, 0x24, 0x51, 0x30,
        0x89, 0x24, 0x40, 0x00, 0x99, 0x2E, 0x31, 0x00, 0x99, 0x28, 0x51, 0x30, 0x89, 0x28, 0x40, 0x00,
        0x89, 0x2E, 0x40, 0x00, 0x99, 0x24, 0x50, 0x30, 0x89, 0x24, 0x40, 0x00, 0x99, 0x2E, 0x31, 0x00,
        0x99, 0x24, 0x50, 0x30, 0x89, 0x24, 0x40, 0x00, 0x89, 0x2E, 0x40, 0x30, 0x99, 0x2E, 0x31, 0x00,
        0x99, 0x24, 0x50, 0x00, 0x99, 0x28, 0x50, 0x30, 0x89, 0x28, 0x40, 0x00, 0x89, 0x24, 0x40, 0x00,
        0x89, 0x2E, 0x40, 0x30, 0x99, 0x2E, 0x31, 0x00, 0x99, 0x24, 0x52, 0x30, 0x89, 0x24, 0x40, 0x00,
        0x89, 0x2E, 0x40, 0x30, 0x99, 0x2E, 0x31, 0x00, 0x99, 0x28, 0x52, 0x30, 0x89, 0x28, 0x40, 0x00,
        0x89, 0x2E, 0x40, 0x30, 0x99, 0x2E, 0x31, 0x00, 0x99, 0x24, 0x52, 0x30, 0x89, 0x24, 0x40, 0x00,
        0x89, 0x2E, 0x40, 0x30, 0x99, 0x28, 0x51, 0x00, 0x99, 0x2E, 0x31, 0x30, 0x89, 0x28, 0x40, 0x00,
        0x89, 0x2E, 0x40, 0x00, 0x99, 0x24, 0x51, 0x30, 0x89, 0x24, 0x40, 0x00, 0x99, 0x2E, 0x31, 0x30,
        0x89, 0x2E, 0x40, 0x00, 0x99, 0x24, 0x51, 0x30, 0x89, 0x24, 0x40, 0x00, 0x99, 0x28, 0x51, 0x00,
        0x99, 0x2E, 0x31, 0x30, 0x89, 0x2E, 0x40, 0x00, 0x89, 0x28, 0x40, 0x00, 0x99, 0x24, 0x50, 0x30,
        0x89, 0x24, 0x40, 0x00, 0x99, 0x2E, 0x31, 0x00, 0x99, 0x24, 0x50, 0x30, 0x89, 0x24, 0x40, 0x00,
        0x89, 0x2E, 0x40, 0x30, 0x99, 0x28, 0x50, 0x00, 0x99, 0x24, 0x50, 0x00, 0x99, 0x2E, 0x31, 0x30,
        0x89, 0x2E, 0x40, 0x00, 0x89, 0x24, 0x40, 0x00, 0x89, 0x28, 0x40, 0x30, 0x99, 0x2E, 0x31, 0x00,
        0x99, 0x24, 0x52, 0x30, 0x89, 0x24, 0x40, 0x00, 0x89, 0x2E, 0x40, 0x30, 0x99, 0x2E, 0x31, 0x00,
        0x99, 0x28, 0x52, 0x30, 0x89, 0x28, 0x40, 0x00, 0x89, 0x2E, 0x40, 0x30, 0x99, 0x2E, 0x31, 0x00,
        0x99, 0x24, 0x52, 0x30, 0x89, 0x24, 0x40, 0x00, 0x89, 0x2E, 0x40, 0x30, 0x99, 0x2E, 0x31, 0x00,
        0x99, 0x28, 0x51, 0x30, 0x89, 0x2E, 0x40, 0x00, 0x89, 0x28, 0x40, 0x00, 0x99, 0x24, 0x51, 0x30,
        0x89, 0x24, 0x40, 0x00, 0x99, 0x2E, 0x31, 0x30, 0x89, 0x2E, 0x40, 0x00, 0x99, 0x24, 0x51, 0x30,
        0x89, 0x24, 0x40, 0x00, 0x99, 0x2E, 0x31, 0x00, 0x99, 0x28, 0x51, 0x30, 0x89, 0x28, 0x40, 0x00,
        0x89, 0x2E, 0x40, 0x00, 0x99, 0x24, 0x50, 0x30, 0x89, 0x24, 0x40, 0x00, 0x99, 0x2E, 0x31, 0x00,
        0x99, 0x24, 0x50, 0x30, 0x89, 0x24, 0x40, 0x00, 0x89, 0x2E, 0x40, 0x30, 0x99, 0x2E, 0x31, 0x00,
        0x99, 0x24, 0x50, 0x00, 0x99, 0x28, 0x50, 0x30, 0x89, 0x28, 0x40, 0x00, 0x89, 0x24, 0x40, 0x00,
        0x89, 0x2E, 0x40, 0x30, 0x99, 0x2E, 0x31, 0x00, 0x99, 0x24, 0x52, 0x30, 0x89, 0x24, 0x40, 0x00,
        0x89, 0x2E, 0x40, 0x30, 0x99, 0x2E, 0x31, 0x00, 0x99, 0x28, 0x52, 0x30, 0x89, 0x28, 0x40, 0x00,
        0x89, 0x2E, 0x40, 0x30, 0x99, 0x2E, 0x31, 0x00, 0x99, 0x24, 0x52, 0x30, 0x89, 0x24, 0x40, 0x00,
        0x89, 0x2E, 0x40, 0x00, 0x99, 0x28, 0x51, 0x30, 0x89, 0x28, 0x40, 0x00, 0x99, 0x2E, 0x31, 0x30,
        0x89, 0x2E, 0x40, 0x00, 0x99, 0x24, 0x51, 0x00, 0x99, 0x28, 0x51, 0x30, 0x89, 0x28, 0x40, 0x00,
        0x89, 0x24, 0x40, 0x00, 0x99, 0x2E, 0x31, 0x30, 0x89, 0x2E, 0x40, 0x00, 0x99, 0x24, 0x51, 0x00,
        0x99, 0x39, 0x52, 0x30, 0x89, 0x39, 0x40, 0x00, 0x89, 0x24, 0x40, 0x00, 0x99, 0x28, 0x51, 0x00,
        0x99, 0x2E, 0x31, 0x30, 0x89, 0x2E, 0x40, 0x00, 0x89, 0x28, 0x40, 0x00, 0x99, 0x31, 0x51, 0x00,
        0x99, 0x24, 0x50, 0x30, 0x89, 0x24, 0x40, 0x00, 0x89, 0x31, 0x40, 0x00, 0x99, 0x2E, 0x31, 0x00,
        0x99, 0x24, 0x50, 0x00, 0x99, 0x28, 0x51, 0x30, 0x89, 0x28, 0x40, 0x00, 0x89, 0x24, 0x40, 0x00,
        0x89, 0x2E, 0x40, 0x00, 0x99, 0x39, 0x52, 0x30, 0x99, 0x28, 0x50, 0x00, 0x99, 0x24, 0x50, 0x00,
        0x99, 0x2E, 0x31, 0x30, 0x89, 0x39, 0x40, 0x00, 0x89, 0x2E, 0x40, 0x00, 0x89, 0x24, 0x40, 0x00,
        0x89, 0x28, 0x40, 0x30, 0x99, 0x39, 0x52, 0x00, 0x99, 0x2E, 0x31, 0x00, 0x99, 0x24, 0x52, 0x00,
        0x99, 0x39, 0x52, 0x30, 0x89, 0x39, 0x40, 0x00, 0x89, 0x24, 0x40, 0x00, 0x89, 0x2E, 0x40, 0x00,
        0x89, 0x39, 0x40, 0x30, 0x99, 0x2E, 0x31, 0x00, 0x99, 0x28, 0x52, 0x30, 0x89, 0x28, 0x40, 0x00,
        0x89, 0x2E, 0x40, 0x30, 0x99, 0x2E, 0x31, 0x00, 0x99, 0x24, 0x52, 0x30, 0x89, 0x24, 0x40, 0x00,
        0x89, 0x2E, 0x40, 0x30, 0x99, 0x2E, 0x31, 0x00, 0x99, 0x28, 0x51, 0x30, 0x89, 0x2E, 0x40, 0x00,
        0x89, 0x28, 0x40, 0x00, 0x99, 0x24, 0x51, 0x30, 0x89, 0x24, 0x40, 0x00, 0x99, 0x2E, 0x31, 0x30,
        0x89, 0x2E, 0x40, 0x00, 0x99, 0x24, 0x51, 0x30, 0x89, 0x24, 0x40, 0x00, 0x99, 0x2E, 0x31, 0x00,
        0x99, 0x28, 0x51, 0x30, 0x89, 0x28, 0x40, 0x00, 0x89, 0x2E, 0x40, 0x00, 0x99, 0x24, 0x50, 0x30,
        0x89, 0x24, 0x40, 0x00, 0x99, 0x2E, 0x31, 0x00, 0x99, 0x24, 0x50, 0x30, 0x89, 0x24, 0x40, 0x00,
        0x89, 0x2E, 0x40, 0x30, 0x99, 0x2E, 0x31, 0x00, 0x99, 0x24, 0x50, 0x00, 0x99, 0x28, 0x50, 0x30,
        0x89, 0x28, 0x40, 0x00, 0x89, 0x24, 0x40, 0x00, 0x89, 0x2E, 0x40, 0x30, 0x99, 0x2E, 0x31, 0x00,
        0x99, 0x24, 0x52, 0x30, 0x89, 0x24, 0x40, 0x00, 0x89, 0x2E, 0x40, 0x30, 0x99, 0x2E, 0x31, 0x00,
        0x99, 0x28, 0x52, 0x30, 0x89, 0x28, 0x40, 0x00, 0x89, 0x2E, 0x40, 0x30, 0x99, 0x2E, 0x31, 0x00,
        0x99, 0x24, 0x52, 0x30, 0x89, 0x24, 0x40, 0x00, 0x89, 0x2E, 0x40, 0x30, 0x99, 0x28, 0x51, 0x00,
        0x99, 0x2E, 0x31, 0x30, 0x89, 0x28, 0x40, 0x00, 0x89, 0x2E, 0x40, 0x00, 0x99, 0x24, 0x51, 0x30,
        0x89, 0x24, 0x40, 0x00, 0x99, 0x2E, 0x31, 0x30, 0x89, 0x2E, 0x40, 0x00, 0x99, 0x24, 0x51, 0x30,
        0x89, 0x24, 0x40, 0x00, 0x99, 0x28, 0x51, 0x00, 0x99, 0x2E, 0x31, 0x30, 0x89, 0x2E, 0x40, 0x00,
        0x89, 0x28, 0x40, 0x00, 0x99, 0x24, 0x50, 0x30, 0x89, 0x24, 0x40, 0x00, 0x99, 0x2E, 0x31, 0x00,
        0x99, 0x24, 0x50, 0x30, 0x89, 0x24, 0x40, 0x00, 0x89, 0x2E, 0x40, 0x30, 0x99, 0x28, 0x50, 0x00,
        0x99, 0x24, 0x50, 0x00, 0x99, 0x2E, 0x31, 0x30, 0x89, 0x2E, 0x40, 0x00, 0x89, 0x24, 0x40, 0x00,
        0x89, 0x28, 0x40, 0x30, 0x99, 0x2E, 0x31, 0x00, 0x99, 0x24, 0x52, 0x30, 0x89, 0x24, 0x40, 0x00,
        0x89, 0x2E, 0x40, 0x30, 0x99, 0x2E, 0x31, 0x00, 0x99, 0x28, 0x52, 0x30, 0x89, 0x28, 0x40, 0x00,
        0x89, 0x2E, 0x40, 0x30, 0x99, 0x2E, 0x31, 0x00, 0x99, 0x24, 0x52, 0x30, 0x89, 0x24, 0x40, 0x00,
        0x89, 0x2E, 0x40, 0x30, 0x99, 0x2E, 0x31, 0x00, 0x99, 0x28, 0x51, 0x30, 0x89, 0x2E, 0x40, 0x00,
        0x89, 0x28, 0x40, 0x00, 0x99, 0x24, 0x51, 0x30, 0x89, 0x24, 0x40, 0x00, 0x99, 0x2E, 0x31, 0x30,
        0x89, 0x2E, 0x40, 0x00, 0x99, 0x24, 0x51, 0x30, 0x89, 0x24, 0x40, 0x00, 0x99, 0x2E, 0x31, 0x00,
        0x99, 0x28, 0x51, 0x30, 0x89, 0x28, 0x40, 0x00, 0x89, 0x2E, 0x40, 0x00, 0x99, 0x24, 0x50, 0x30,
        0x89, 0x24, 0x40, 0x00, 0x99, 0x2E, 0x31, 0x00, 0x99, 0x24, 0x50, 0x30, 0x89, 0x24, 0x40, 0x00,
        0x89, 0x2E, 0x40, 0x30, 0x99, 0x2E, 0x31, 0x00, 0x99, 0x24, 0x50, 0x00, 0x99, 0x28, 0x50, 0x30,
        0x89, 0x28, 0x40, 0x00, 0x89, 0x24, 0x40, 0x00, 0x89, 0x2E, 0x40, 0x30, 0x99, 0x2E, 0x31, 0x00,
        0x99, 0x24, 0x52, 0x30, 0x89, 0x24, 0x40, 0x00, 0x89, 0x2E, 0x40, 0x30, 0x99, 0x2E, 0x31, 0x00,
        0x99, 0x28, 0x52, 0x30, 0x89, 0x28, 0x40, 0x00, 0x89, 0x2E, 0x40, 0x30, 0x99, 0x2E, 0x31, 0x00,
        0x99, 0x24, 0x52, 0x30, 0x89, 0x24, 0x40, 0x00, 0x89, 0x2E, 0x40, 0x00, 0x99, 0x28, 0x51, 0x30,
        0x89, 0x28, 0x40, 0x00, 0x99, 0x2E, 0x31, 0x30, 0x89, 0x2E, 0x40, 0x00, 0x99, 0x24, 0x51, 0x00,
        0x99, 0x28, 0x51, 0x30, 0x89, 0x28, 0x40, 0x00, 0x89, 0x24, 0x40, 0x00, 0x99, 0x2E, 0x31, 0x30,
        0x89, 0x2E, 0x40, 0x00, 0x99, 0x24, 0x51, 0x00, 0x99, 0x39, 0x52, 0x30, 0x89, 0x39, 0x40, 0x00,
        0x89, 0x24, 0x40, 0x00, 0x99, 0x28, 0x51, 0x00, 0x99, 0x2E, 0x31, 0x30, 0x89, 0x2E, 0x40, 0x00,
        0x89, 0x28, 0x40, 0x00, 0x99, 0x31, 0x51, 0x00, 0x99, 0x24, 0x50, 0x00, 0x99, 0x28, 0x51, 0x30,
        0x89, 0x28, 0x40, 0x00, 0x89, 0x24, 0x40, 0x00, 0x89, 0x31, 0x40, 0x00, 0x99, 0x2E, 0x31, 0x00,
        0x99, 0x24, 0x50, 0x30, 0x89, 0x24, 0x40, 0x00, 0x89, 0x2E, 0x40, 0x00, 0x99, 0x28, 0x50, 0x00,
        0x99, 0x39, 0x52, 0x30, 0x89, 0x28, 0x40, 0x00, 0x99, 0x28, 0x50, 0x00, 0x99, 0x24, 0x50, 0x00,
        0x99, 0x2E, 0x31, 0x30, 0x89, 0x39, 0x40, 0x00, 0x89, 0x2E, 0x40, 0x00, 0x89, 0x24, 0x40, 0x00,
        0x89, 0x28, 0x40, 0x00, 0xFF, 0x2F, 0x00, 0x4D, 0x54, 0x72, 0x6B, 0x00, 0x00, 0x19, 0x45, 0x00,
        0xB0, 0x0A, 0x33, 0x00, 0xB0, 0x07, 0x64, 0x00, 0xE0, 0x00, 0x40, 0x00, 0xB0, 0x65, 0x00, 0x00,
        0xB0, 0x64, 0x00, 0x00, 0xB0, 0x06, 0x0C, 0x00, 0xC0, 0x00, 0x00, 0xB0, 0x5B, 0x30, 0x00, 0xB0,
        0x40, 0x00, 0x00, 0x90, 0x3E, 0x51, 0x30, 0x80, 0x3E, 0x00, 0x00, 0x90, 0x3E, 0x52, 0x30, 0x80,
        0x3E, 0x00, 0x00, 0x90, 0x4A, 0x52, 0x60, 0x80, 0x4A, 0x00, 0x00, 0x90, 0x45, 0x52, 0x81, 0x10,
        0x80, 0x45, 0x00, 0x00, 0x90, 0x44, 0x52, 0x60, 0x80, 0x44, 0x00, 0x00, 0x90, 0x43, 0x52, 0x60,
        0x80, 0x43, 0x00, 0x00, 0x90, 0x41, 0x52, 0x60, 0x80, 0x41, 0x00, 0x00, 0x90, 0x3E, 0x52, 0x30,
        0x80, 0x3E, 0x00, 0x00, 0x90, 0x41, 0x52, 0x30, 0x80, 0x41, 0x00, 0x00, 0x90, 0x43, 0x52, 0x30,
        0x80, 0x43, 0x00, 0x00, 0x90, 0x3C, 0x52, 0x30, 0x80, 0x3C, 0x00, 0x00, 0x90, 0x3C, 0x52, 0x30,
        0x80, 0x3C, 0x00, 0x00, 0x90, 0x4A, 0x52, 0x60, 0x80, 0x4A, 0x00, 0x00, 0x90, 0x45, 0x52, 0x81,
        0x10, 0x80, 0x45, 0x00, 0x00, 0x90, 0x44, 0x52, 0x60, 0x80, 0x44, 0x00, 0x00, 0x90, 0x43, 0x52,
        0x60, 0x80, 0x43, 0x00, 0x00, 0x90, 0x41, 0x52, 0x60, 0x80, 0x41, 0x00, 0x00, 0x90, 0x3E, 0x52,
        0x30, 0x80, 0x3E, 0x00, 0x00, 0x90, 0x41, 0x52, 0x30, 0x80, 0x41, 0x00, 0x00, 0x90, 0x43, 0x52,
        0x30, 0x80, 0x43, 0x00, 0x00, 0x90, 0x3B, 0x52, 0x30, 0x80, 0x3B, 0x00, 0x00, 0x90, 0x3B, 0x52,
        0x30, 0x80, 0x3B, 0x00, 0x00, 0x90, 0x4A, 0x52, 0x60, 0x80, 0x4A, 0x00, 0x00, 0x90, 0x45, 0x52,
        0x81, 0x10, 0x80, 0x45, 0x00, 0x00, 0x90, 0x44, 0x52, 0x60, 0x80, 0x44, 0x00, 0x00, 0x90, 0x43,
        0x52, 0x60, 0x80, 0x43, 0x00, 0x00, 0x90, 0x41, 0x52, 0x60, 0x80, 0x41, 0x00, 0x00, 0x90, 0x3E,
        0x52, 0x30, 0x80, 0x3E, 0x00, 0x00, 0x90, 0x41, 0x52, 0x30, 0x80, 0x41, 0x00, 0x00, 0x90, 0x43,
        0x52, 0x30, 0x80, 0x43, 0x00, 0x00, 0x90, 0x3A, 0x52, 0x30, 0x80, 0x3A, 0x00, 0x00, 0x90, 0x3A,
        0x52, 0x30, 0x80, 0x3A, 0x00, 0x00, 0x90, 0x4A, 0x52, 0x60, 0x80, 0x4A, 0x00, 0x00, 0x90, 0x45,
        0x52, 0x81, 0x10, 0x80, 0x45, 0x00, 0x00, 0x90, 0x44, 0x52, 0x60, 0x80, 0x44, 0x00, 0x00, 0x90,
        0x43, 0x52, 0x60, 0x80, 0x43, 0x00, 0x00, 0x90, 0x41, 0x52, 0x60, 0x80, 0x41, 0x00, 0x00, 0x90,
        0x3E, 0x52, 0x30, 0x80, 0x3E, 0x00, 0x00, 0x90, 0x41, 0x52, 0x30, 0x80, 0x41, 0x00, 0x00, 0x90,
        0x43, 0x52, 0x30, 0x80, 0x43, 0x00, 0x00, 0x90, 0x3E, 0x52, 0x30, 0x80, 0x3E, 0x00, 0x00, 0x90,
        0x3E, 0x52, 0x30, 0x80, 0x3E, 0x00, 0x00, 0x90, 0x4A, 0x52, 0x60, 0x80, 0x4A, 0x00, 0x00, 0x90,
        0x45, 0x52, 0x81, 0x10, 0x80, 0x45, 0x00, 0x00, 0x90, 0x44, 0x52, 0x60, 0x80, 0x44, 0x00, 0x00,
        0x90, 0x43, 0x52, 0x60, 0x80, 0x43, 0x00, 0x00, 0x90, 0x41, 0x52, 0x60, 0x80, 0x41, 0x00, 0x00,
        0x90, 0x3E, 0x52, 0x30, 0x80, 0x3E, 0x00, 0x00, 0x90, 0x41, 0x52, 0x30, 0x80, 0x41, 0x00, 0x00,
        0x90, 0x43, 0x52, 0x30, 0x80, 0x43, 0x00, 0x00, 0x90, 0x3C, 0x52, 0x30, 0x80, 0x3C, 0x00, 0x00,
        0x90, 0x3C, 0x52, 0x30, 0x80, 0x3C, 0x00, 0x00, 0x90, 0x4A, 0x52, 0x60, 0x80, 0x4A, 0x00, 0x00,
        0x90, 0x45, 0x52, 0x81, 0x10, 0x80, 0x45, 0x00, 0x00, 0x90, 0x44, 0x52, 0x60, 0x80, 0x44, 0x00,
        0x00, 0x90, 0x43, 0x52, 0x60, 0x80, 0x43, 0x00, 0x00, 0x90, 0x41, 0x52, 0x60, 0x80, 0x41, 0x00,
        0x00, 0x90, 0x3E, 0x52, 0x30, 0x80, 0x3E, 0x00, 0x00, 0x90, 0x41, 0x52, 0x30, 0x80, 0x41, 0x00,
        0x00, 0x90, 0x43, 0x52, 0x30, 0x80, 0x43, 0x00, 0x00, 0x90, 0x3B, 0x52, 0x30, 0x80, 0x3B, 0x00,
        0x00, 0x90, 0x3B, 0x52, 0x30, 0x80, 0x3B, 0x00, 0x00, 0x90, 0x4A, 0x52, 0x60, 0x80, 0x4A, 0x00,
        0x00, 0x90, 0x45, 0x52, 0x81, 0x10, 0x80, 0x45, 0x00, 0x00, 0x90, 0x44, 0x52, 0x60, 0x80, 0x44,
        0x00, 0x00, 0x90, 0x43, 0x52, 0x60, 0x80, 0x43, 0x00, 0x00, 0x90, 0x41, 0x52, 0x60, 0x80, 0x41,
        0x00, 0x00, 0x90, 0x3E, 0x52, 0x30, 0x80, 0x3E, 0x00, 0x00, 0x90, 0x41, 0x52, 0x30, 0x80, 0x41,
        0x00, 0x00, 0x90, 0x43, 0x52, 0x30, 0x80, 0x43, 0x00, 0x00, 0x90, 0x3A, 0x52, 0x30, 0x80, 0x3A,
        0x00, 0x00, 0x90, 0x3A, 0x52, 0x30, 0x80, 0x3A, 0x00, 0x00, 0x90, 0x4A, 0x52, 0x60, 0x80, 0x4A,
        0x00, 0x00, 0x90, 0x45, 0x52, 0x81, 0x10, 0x80, 0x45, 0x00, 0x00, 0x90, 0x44, 0x52, 0x60, 0x80,
        0x44, 0x00, 0x00, 0x90, 0x43, 0x52, 0x60, 0x80, 0x43, 0x00, 0x00, 0x90, 0x41, 0x52, 0x60, 0x80,
        0x41, 0x00, 0x00, 0x90, 0x3E, 0x52, 0x30, 0x80, 0x3E, 0x00, 0x00, 0x90, 0x41, 0x52, 0x30, 0x80,
        0x41, 0x00, 0x00, 0x90, 0x43, 0x52, 0x30, 0x80, 0x43, 0x00, 0x00, 0x90, 0x4A, 0x5C, 0x30, 0x80,
        0x4A, 0x00, 0x00, 0x90, 0x4A, 0x5C, 0x30, 0x80, 0x4A, 0x00, 0x00, 0x90, 0x56, 0x5C, 0x60, 0x80,
        0x56, 0x00, 0x00, 0x90, 0x51, 0x5C, 0x81, 0x10, 0x80, 0x51, 0x00, 0x00, 0x90, 0x50, 0x5C, 0x60,
        0x80, 0x50, 0x00, 0x00, 0x90, 0x4F, 0x5C, 0x60, 0x80, 0x4F, 0x00, 0x00, 0x90, 0x4D, 0x5C, 0x60,
        0x80, 0x4D, 0x00, 0x00, 0x90, 0x4A, 0x5C, 0x30, 0x80, 0x4A, 0x00, 0x00, 0x90, 0x4D, 0x5C, 0x30,
        0x80, 0x4D, 0x00, 0x00, 0x90, 0x4F, 0x5C, 0x30, 0x80, 0x4F, 0x00, 0x00, 0x90, 0x48, 0x5C, 0x30,
        0x80, 0x48, 0x00, 0x00, 0x90, 0x48, 0x5C, 0x30, 0x80, 0x48, 0x00, 0x00, 0x90, 0x56, 0x5C, 0x60,
        0x80, 0x56, 0x00, 0x00, 0x90, 0x51, 0x5C, 0x81, 0x10, 0x80, 0x51, 0x00, 0x00, 0x90, 0x50, 0x5C,
        0x60, 0x80, 0x50, 0x00, 0x00, 0x90, 0x4F, 0x5C, 0x60, 0x80, 0x4F, 0x00, 0x00, 0x90, 0x4D, 0x5C,
        0x60, 0x80, 0x4D, 0x00, 0x00, 0x90, 0x4A, 0x5C, 0x30, 0x80, 0x4A, 0x00, 0x00, 0x90, 0x4D, 0x5C,
        0x30, 0x80, 0x4D, 0x00, 0x00, 0x90, 0x4F, 0x5C, 0x30, 0x80, 0x4F, 0x00, 0x00, 0x90, 0x47, 0x5C,
        0x30, 0x80, 0x47, 0x00, 0x00, 0x90, 0x47, 0x5C, 0x30, 0x80, 0x47, 0x00, 0x00, 0x90, 0x56, 0x5C,
        0x60, 0x80, 0x56, 0x00, 0x00, 0x90, 0x51, 0x5C, 0x81, 0x10, 0x80, 0x51, 0x00, 0x00, 0x90, 0x50,
        0x5C, 0x60, 0x80, 0x50, 0x00, 0x00, 0x90, 0x4F, 0x5C, 0x60, 0x80, 0x4F, 0x00, 0x00, 0x90, 0x4D,
        0x5C, 0x60, 0x80, 0x4D, 0x00, 0x00, 0x90, 0x4A, 0x5C, 0x30, 0x80, 0x4A, 0x00, 0x00, 0x90, 0x4D,
        0x5C, 0x30, 0x80, 0x4D, 0x00, 0x00, 0x90, 0x4F, 0x5C, 0x30, 0x80, 0x4F, 0x00, 0x00, 0x90, 0x46,
        0x5C, 0x30, 0x80, 0x46, 0x00, 0x00, 0x90, 0x46, 0x5C, 0x30, 0x80, 0x46, 0x00, 0x00, 0x90, 0x56,
        0x5C, 0x60, 0x80, 0x56, 0x00, 0x00, 0x90, 0x51, 0x5C, 0x81, 0x10, 0x80, 0x51, 0x00, 0x00, 0x90,
        0x50, 0x5C, 0x60, 0x80, 0x50, 0x00, 0x00, 0x90, 0x4F, 0x5C, 0x60, 0x80, 0x4F, 0x00, 0x00, 0x90,
        0x4D, 0x5C, 0x60, 0x80, 0x4D, 0x00, 0x00, 0x90, 0x4A, 0x5C, 0x30, 0x80, 0x4A, 0x00, 0x00, 0x90,
        0x4D, 0x5C, 0x30, 0x80, 0x4D, 0x00, 0x00, 0x90, 0x4F, 0x5C, 0x30, 0x80, 0x4F, 0x00, 0x00, 0x90,
        0x4A, 0x5C, 0x30, 0x80, 0x4A, 0x00, 0x00, 0x90, 0x4A, 0x5C, 0x30, 0x80, 0x4A, 0x00, 0x00, 0x90,
        0x56, 0x5C, 0x60, 0x80, 0x56, 0x00, 0x00, 0x90, 0x51, 0x5C, 0x81, 0x10, 0x80, 0x51, 0x00, 0x00,
        0x90, 0x50, 0x5C, 0x60, 0x80, 0x50, 0x00, 0x00, 0x90, 0x4F, 0x5C, 0x60, 0x80, 0x4F, 0x00, 0x00,
        0x90, 0x4D, 0x5C, 0x60, 0x80, 0x4D, 0x00, 0x00, 0x90, 0x4A, 0x5C, 0x30, 0x80, 0x4A, 0x00, 0x00,
        0x90, 0x4D, 0x5C, 0x30, 0x80, 0x4D, 0x00, 0x00, 0x90, 0x4F, 0x5C, 0x30, 0x80, 0x4F, 0x00, 0x00,
        0x90, 0x48, 0x5C, 0x30, 0x80, 0x48, 0x00, 0x00, 0x90, 0x48, 0x5C, 0x30, 0x80, 0x48, 0x00, 0x00,
        0x90, 0x56, 0x5C, 0x60, 0x80, 0x56, 0x00, 0x00, 0x90, 0x51, 0x5C, 0x81, 0x10, 0x80, 0x51, 0x00,
        0x00, 0x90, 0x50, 0x5C, 0x60, 0x80, 0x50, 0x00, 0x00, 0x90, 0x4F, 0x5C, 0x60, 0x80, 0x4F, 0x00,
        0x00, 0x90, 0x4D, 0x5C, 0x60, 0x80, 0x4D, 0x00, 0x00, 0x90, 0x4A, 0x5C, 0x30, 0x80, 0x4A, 0x00,
        0x00, 0x90, 0x4D, 0x5C, 0x30, 0x80, 0x4D, 0x00, 0x00, 0x90, 0x4F, 0x5C, 0x30, 0x80, 0x4F, 0x00,
        0x00, 0x90, 0x47, 0x5C, 0x30, 0x80, 0x47, 0x00, 0x00, 0x90, 0x47, 0x5C, 0x30, 0x80, 0x47, 0x00,
        0x00, 0x90, 0x56, 0x5C, 0x60, 0x80, 0x56, 0x00, 0x00, 0x90, 0x51, 0x5C, 0x81, 0x10, 0x80, 0x51,
        0x00, 0x00, 0x90, 0x50, 0x5C, 0x60, 0x80, 0x50, 0x00, 0x00, 0x90, 0x4F, 0x5C, 0x60, 0x80, 0x4F,
        0x00, 0x00, 0x90, 0x4D, 0x5C, 0x60, 0x80, 0x4D, 0x00, 0x00, 0x90, 0x4A, 0x5C, 0x30, 0x80, 0x4A,
        0x00, 0x00, 0x90, 0x4D, 0x5C, 0x30, 0x80, 0x4D, 0x00, 0x00, 0x90, 0x4F, 0x5C, 0x30, 0x80, 0x4F,
        0x00, 0x00, 0x90, 0x46, 0x5C, 0x30, 0x80, 0x46, 0x00, 0x00, 0x90, 0x46, 0x5C, 0x30, 0x80, 0x46,
        0x00, 0x00, 0x90, 0x56, 0x5C, 0x60, 0x80, 0x56, 0x00, 0x00, 0x90, 0x51, 0x5C, 0x81, 0x10, 0x80,
        0x51, 0x00, 0x00, 0x90, 0x50, 0x5C, 0x60, 0x80, 0x50, 0x00, 0x00, 0x90, 0x4F, 0x5C, 0x60, 0x80,
        0x4F, 0x00, 0x00, 0x90, 0x4D, 0x5C, 0x60, 0x80, 0x4D, 0x00, 0x00, 0x90, 0x4A, 0x5C, 0x30, 0x80,
        0x4A, 0x00, 0x00, 0x90, 0x4D, 0x5C, 0x30, 0x80, 0x4D, 0x00, 0x00, 0x90, 0x4F, 0x5C, 0x30, 0x80,
        0x4F, 0x00, 0x00, 0x90, 0x4D, 0x5C, 0x30, 0x80, 0x4D, 0x00, 0x30, 0x90, 0x4D, 0x5C, 0x30, 0x80,
        0x4D, 0x00, 0x00, 0x90, 0x4D, 0x5C, 0x60, 0x80, 0x4D, 0x00, 0x00, 0x90, 0x4D, 0x5C, 0x60, 0x80,
        0x4D, 0x00, 0x00, 0x90, 0x4D, 0x5C, 0x60, 0x80, 0x4D, 0x00, 0x00, 0x90, 0x4A, 0x5C, 0x60, 0x80,
        0x4A, 0x00, 0x00, 0x90, 0x4A, 0x5C, 0x81, 0x70, 0x80, 0x4A, 0x00, 0x00, 0x90, 0x4D, 0x5C, 0x60,
        0x80, 0x4D, 0x00, 0x00, 0x90, 0x4D, 0x5C, 0x30, 0x80, 0x4D, 0x00, 0x00, 0x90, 0x4D, 0x5C, 0x60,
        0x80, 0x4D, 0x00, 0x00, 0x90, 0x4F, 0x5C, 0x60, 0x80, 0x4F, 0x00, 0x00, 0x90, 0x50, 0x5C, 0x60,
        0x80, 0x50, 0x00, 0x00, 0x90, 0x4F, 0x5C, 0x30, 0x80, 0x4F, 0x00, 0x00, 0x90, 0x4D, 0x5C, 0x30,
        0x80, 0x4D, 0x00, 0x00, 0x90, 0x4A, 0x5C, 0x30, 0x80, 0x4A, 0x00, 0x00, 0x90, 0x4D, 0x5C, 0x30,
        0x80, 0x4D, 0x00, 0x00, 0x90, 0x4F, 0x5C, 0x81, 0x10, 0x80, 0x4F, 0x00, 0x00, 0x90, 0x4D, 0x5C,
        0x30, 0x80, 0x4D, 0x00, 0x30, 0x90, 0x4D, 0x5C, 0x30, 0x80, 0x4D, 0x00, 0x00, 0x90, 0x4D, 0x5C,
        0x60, 0x80, 0x4D, 0x00, 0x00, 0x90, 0x4F, 0x5C, 0x60, 0x80, 0x4F, 0x00, 0x00, 0x90, 0x50, 0x5C,
        0x60, 0x80, 0x50, 0x00, 0x00, 0x90, 0x51, 0x5C, 0x60, 0x80, 0x51, 0x00, 0x00, 0x90, 0x54, 0x5C,
        0x30, 0x80, 0x54, 0x00, 0x30, 0x90, 0x51, 0x5C, 0x81, 0x10, 0x80, 0x51, 0x00, 0x00, 0x90, 0x56,
        0x5C, 0x60, 0x80, 0x56, 0x00, 0x00, 0x90, 0x56, 0x5C, 0x60, 0x80, 0x56, 0x00, 0x00, 0x90, 0x56,
        0x5C, 0x30, 0x80, 0x56, 0x00, 0x00, 0x90, 0x51, 0x5C, 0x30, 0x80, 0x51, 0x00, 0x00, 0x90, 0x56,
        0x5C, 0x30, 0x80, 0x56, 0x00, 0x00, 0x90, 0x54, 0x5C, 0x83, 0x30, 0x80, 0x54, 0x00, 0x00, 0x90,
        0x4D, 0x5C, 0x00, 0x90, 0x51, 0x5C, 0x30, 0x80, 0x4D, 0x00, 0x00, 0x80, 0x51, 0x00, 0x30, 0x90,
        0x51, 0x5C, 0x00, 0x90, 0x4D, 0x5C, 0x30, 0x80, 0x51, 0x00, 0x00, 0x80, 0x4D, 0x00, 0x00, 0x90,
        0x4D, 0x5C, 0x00, 0x90, 0x51, 0x5C, 0x60, 0x80, 0x51, 0x00, 0x00, 0x80, 0x4D, 0x00, 0x00, 0x90,
        0x4D, 0x5C, 0x00, 0x90, 0x51, 0x5C, 0x60, 0x80, 0x51, 0x00, 0x00, 0x80, 0x4D, 0x00, 0x00, 0x90,
        0x4D, 0x5C, 0x00, 0x90, 0x51, 0x5C, 0x60, 0x80, 0x51, 0x00, 0x00, 0x80, 0x4D, 0x00, 0x00, 0x90,
        0x4A, 0x5C, 0x00, 0x90, 0x4F, 0x5C, 0x60, 0x80, 0x4F, 0x00, 0x00, 0x80, 0x4A, 0x00, 0x00, 0x90,
        0x4A, 0x5C, 0x00, 0x90, 0x4F, 0x5C, 0x81, 0x70, 0x80, 0x4F, 0x00, 0x00, 0x80, 0x4A, 0x00, 0x00,
        0x90, 0x51, 0x5C, 0x00, 0x90, 0x4D, 0x5C, 0x30, 0x80, 0x4D, 0x00, 0x00, 0x80, 0x51, 0x00, 0x30,
        0x90, 0x51, 0x5C, 0x00, 0x90, 0x4D, 0x5C, 0x30, 0x80, 0x51, 0x00, 0x00, 0x80, 0x4D, 0x00, 0x00,
        0x90, 0x4D, 0x5C, 0x00, 0x90, 0x51, 0x5C, 0x60, 0x80, 0x51, 0x00, 0x00, 0x80, 0x4D, 0x00, 0x00,
        0x90, 0x4D, 0x5C, 0x00, 0x90, 0x51, 0x5C, 0x60, 0x80, 0x51, 0x00, 0x00, 0x80, 0x4D, 0x00, 0x00,
        0x90, 0x4A, 0x5C, 0x00, 0x90, 0x4F, 0x5C, 0x60, 0x80, 0x4F, 0x00, 0x00, 0x80, 0x4A, 0x00, 0x00,
        0x90, 0x4D, 0x5C, 0x00, 0x90, 0x51, 0x5C, 0x60, 0x80, 0x51, 0x00, 0x00, 0x80, 0x4D, 0x00, 0x00,
        0x90, 0x51, 0x5C, 0x00, 0x90, 0x56, 0x5C, 0x60, 0x80, 0x56, 0x00, 0x00, 0x80, 0x51, 0x00, 0x00,
        0x90, 0x4D, 0x5C, 0x00, 0x90, 0x51, 0x5C, 0x30, 0x80, 0x51, 0x00, 0x00, 0x80, 0x4D, 0x00, 0x00,
        0x90, 0x4F, 0x5C, 0x00, 0x90, 0x4A, 0x5C, 0x60, 0x80, 0x4F, 0x00, 0x00, 0x80, 0x4A, 0x00, 0x00,
        0x90, 0x56, 0x5C, 0x00, 0x90, 0x4D, 0x5C, 0x60, 0x80, 0x4D, 0x00, 0x00, 0x80, 0x56, 0x00, 0x00,
        0x90, 0x51, 0x5C, 0x00, 0x90, 0x4D, 0x5C, 0x60, 0x80, 0x4D, 0x00, 0x00, 0x80, 0x51, 0x00, 0x00,
        0x90, 0x4F, 0x5C, 0x00, 0x90, 0x4A, 0x5C, 0x60, 0x80, 0x4A, 0x00, 0x00, 0x80, 0x4F, 0x00, 0x00,
        0x90, 0x4D, 0x5C, 0x00, 0x90, 0x4A, 0x5C, 0x60, 0x80, 0x4A, 0x00, 0x00, 0x80, 0x4D, 0x00, 0x00,
        0x90, 0x4D, 0x5C, 0x00, 0x90, 0x54, 0x5C, 0x60, 0x80, 0x54, 0x00, 0x00, 0x80, 0x4D, 0x00, 0x00,
        0x90, 0x4D, 0x5C, 0x00, 0x90, 0x4F, 0x5C, 0x60, 0x80, 0x4D, 0x00, 0x00, 0x80, 0x4F, 0x00, 0x00,
        0x90, 0x4A, 0x5C, 0x00, 0x90, 0x4D, 0x5C, 0x60, 0x80, 0x4A, 0x00, 0x00, 0x80, 0x4D, 0x00, 0x00,
        0x90, 0x4A, 0x5C, 0x00, 0x90, 0x4C, 0x5C, 0x60, 0x80, 0x4C, 0x00, 0x00, 0x80, 0x4A, 0x00, 0x00,
        0x90, 0x46, 0x5C, 0x60, 0x80, 0x46, 0x00, 0x00, 0x90, 0x48, 0x5C, 0x30, 0x80, 0x48, 0x00, 0x00,
        0x90, 0x4A, 0x5C, 0x30, 0x80, 0x4A, 0x00, 0x30, 0x90, 0x4D, 0x5C, 0x00, 0x90, 0x46, 0x5C, 0x60,
        0x80, 0x46, 0x00, 0x00, 0x80, 0x4D, 0x00, 0x00, 0x90, 0x48, 0x5C, 0x00, 0x90, 0x4C, 0x5C, 0x00,
        0x90, 0x54, 0x5C, 0x83, 0x30, 0x80, 0x54, 0x00, 0x00, 0x80, 0x4C, 0x00, 0x00, 0x80, 0x48, 0x00,
        0x83, 0x00, 0x90, 0x4D, 0x5C, 0x30, 0x80, 0x4D, 0x00, 0x00, 0x90, 0x4A, 0x5C, 0x30, 0x80, 0x4A,
        0x00, 0x00, 0x90, 0x4D, 0x5C, 0x30, 0x80, 0x4D, 0x00, 0x00, 0x90, 0x4F, 0x5C, 0x30, 0x80, 0x4F,
        0x00, 0x00, 0x90, 0x50, 0x5C, 0x30, 0x80, 0x50, 0x00, 0x00, 0x90, 0x4F, 0x5C, 0x30, 0x80, 0x4F,
        0x00, 0x00, 0x90, 0x4D, 0x5C, 0x30, 0x80, 0x4D, 0x00, 0x00, 0x90, 0x4A, 0x5C, 0x30, 0x80, 0x4A,
        0x00, 0x00, 0x90, 0x50, 0x5C, 0x18, 0x80, 0x50, 0x00, 0x00, 0x90, 0x4F, 0x5C, 0x18, 0x80, 0x4F,
        0x00, 0x00, 0x90, 0x4D, 0x5C, 0x18, 0x80, 0x4D, 0x00, 0x00, 0x90, 0x4A, 0x5C, 0x18, 0x80, 0x4A,
        0x00, 0x00, 0x90, 0x4D, 0x5C, 0x30, 0x80, 0x4D, 0x00, 0x30, 0x90, 0x4F, 0x5C, 0x00, 0x90, 0x48,
        0x5C, 0x83, 0x00, 0x80, 0x48, 0x00, 0x00, 0x80, 0x4F, 0x00, 0x30, 0x90, 0x50, 0x5C, 0x60, 0x80,
        0x50, 0x00, 0x00, 0x90, 0x51, 0x5C, 0x30, 0x80, 0x51, 0x00, 0x00, 0x90, 0x54, 0x5C, 0x30, 0x80,
        0x54, 0x00, 0x30, 0x90, 0x51, 0x5C, 0x30, 0x80, 0x51, 0x00, 0x00, 0x90, 0x50, 0x5C, 0x30, 0x80,
        0x50, 0x00, 0x00, 0x90, 0x4F, 0x5C, 0x30, 0x80, 0x4F, 0x00, 0x00, 0x90, 0x4D, 0x5C, 0x30, 0x80,
        0x4D, 0x00, 0x00, 0x90, 0x4A, 0x5C, 0x30, 0x80, 0x4A, 0x00, 0x00, 0x90, 0x4C, 0x5C, 0x30, 0x80,
        0x4C, 0x00, 0x00, 0x90, 0x4D, 0x5C, 0x60, 0x80, 0x4D, 0x00, 0x00, 0x90, 0x4F, 0x5C, 0x60, 0x80,
        0x4F, 0x00, 0x00, 0x90, 0x51, 0x5C, 0x60, 0x80, 0x51, 0x00, 0x00, 0x90, 0x54, 0x5C, 0x60, 0x80,
        0x54, 0x00, 0x00, 0x90, 0x55, 0x5C, 0x00, 0x90, 0x49, 0x5C, 0x60, 0x80, 0x55, 0x00, 0x00, 0x80,
        0x49, 0x00, 0x00, 0x90, 0x50, 0x5C, 0x60, 0x80, 0x50, 0x00, 0x00, 0x90, 0x50, 0x5C, 0x30, 0x80,
        0x50, 0x00, 0x00, 0x90, 0x4F, 0x5C, 0x30, 0x80, 0x4F, 0x00, 0x00, 0x90, 0x4D, 0x5C, 0x30, 0x80,
        0x4D, 0x00, 0x00, 0x90, 0x4F, 0x5C, 0x00, 0x90, 0x4B, 0x5C, 0x83, 0x30, 0x80, 0x4B, 0x00, 0x00,
        0x80, 0x4F, 0x00, 0x00, 0x90, 0x41, 0x5C, 0x60, 0x80, 0x41, 0x00, 0x00, 0x90, 0x43, 0x5C, 0x60,
        0x80, 0x43, 0x00, 0x00, 0x90, 0x41, 0x5C, 0x00, 0x90, 0x45, 0x5C, 0x60, 0x80, 0x45, 0x00, 0x00,
        0x80, 0x41, 0x00, 0x00, 0x90, 0x4D, 0x5C, 0x60, 0x80, 0x4D, 0x00, 0x00, 0x90, 0x48, 0x5C, 0x00,
        0x90, 0x4C, 0x5C, 0x81, 0x40, 0x80, 0x4C, 0x00, 0x00, 0x80, 0x48, 0x00, 0x00, 0x90, 0x45, 0x5C,
        0x00, 0x90, 0x4A, 0x5C, 0x81, 0x40, 0x80, 0x45, 0x00, 0x00, 0x80, 0x4A, 0x00, 0x00, 0x90, 0x4C,
        0x5C, 0x00, 0x90, 0x43, 0x5C, 0x81, 0x40, 0x80, 0x43, 0x00, 0x00, 0x80, 0x4C, 0x00, 0x00, 0x90,
        0x45, 0x5C, 0x00, 0x90, 0x4D, 0x5C, 0x81, 0x40, 0x80, 0x4D, 0x00, 0x00, 0x80, 0x45, 0x00, 0x00,
        0x90, 0x48, 0x5C, 0x00, 0x90, 0x4F, 0x5C, 0x81, 0x40, 0x80, 0x4F, 0x00, 0x00, 0x80, 0x48, 0x00,
        0x00, 0x90, 0x45, 0x5C, 0x00, 0x90, 0x4C, 0x5C, 0x81, 0x40, 0x80, 0x45, 0x00, 0x00, 0x80, 0x4C,
        0x00, 0x00, 0x90, 0x51, 0x5C, 0x00, 0x90, 0x4A, 0x5C, 0x83, 0x00, 0x80, 0x4A, 0x00, 0x00, 0x80,
        0x51, 0x00, 0x00, 0x90, 0x51, 0x5C, 0x30, 0x80, 0x51, 0x00, 0x00, 0x90, 0x50, 0x5C, 0x30, 0x80,
        0x50, 0x00, 0x00, 0x90, 0x4F, 0x5C, 0x30, 0x80, 0x4F, 0x00, 0x00, 0x90, 0x4E, 0x5C, 0x30, 0x80,
        0x4E, 0x00, 0x00, 0x90, 0x4D, 0x5C, 0x30, 0x80, 0x4D, 0x00, 0x00, 0x90, 0x4C, 0x5C, 0x30, 0x80,
        0x4C, 0x00, 0x00, 0x90, 0x4B, 0x5C, 0x30, 0x80, 0x4B, 0x00, 0x00, 0x90, 0x4A, 0x5C, 0x30, 0x80,
        0x4A, 0x00, 0x00, 0x90, 0x49, 0x5C, 0x00, 0x90, 0x44, 0x5C, 0x82, 0x50, 0x80, 0x49, 0x00, 0x00,
        0x80, 0x44, 0x00, 0x00, 0x90, 0x46, 0x5C, 0x00, 0x90, 0x4B, 0x5C, 0x83, 0x30, 0x80, 0x4B, 0x00,
        0x00, 0x80, 0x46, 0x00, 0x83, 0x00, 0x90, 0x4D, 0x5C, 0x30, 0x80, 0x4D, 0x00, 0x00, 0x90, 0x4A,
        0x5C, 0x30, 0x80, 0x4A, 0x00, 0x00, 0x90, 0x4D, 0x5C, 0x30, 0x80, 0x4D, 0x00, 0x00, 0x90, 0x4F,
        0x5C, 0x30, 0x80, 0x4F, 0x00, 0x00, 0x90, 0x50, 0x5C, 0x30, 0x80, 0x50, 0x00, 0x00, 0x90, 0x4F,
        0x5C, 0x30, 0x80, 0x4F, 0x00, 0x00, 0x90, 0x4D, 0x5C, 0x30, 0x80, 0x4D, 0x00, 0x00, 0x90, 0x4A,
        0x5C, 0x30, 0x80, 0x4A, 0x00, 0x00, 0x90, 0x50, 0x5C, 0x18, 0x80, 0x50, 0x00, 0x00, 0x90, 0x4F,
        0x5C, 0x18, 0x80, 0x4F, 0x00, 0x00, 0x90, 0x4D, 0x5C, 0x18, 0x80, 0x4D, 0x00, 0x00, 0x90, 0x4A,
        0x5C, 0x18, 0x80, 0x4A, 0x00, 0x00, 0x90, 0x4D, 0x5C, 0x30, 0x80, 0x4D, 0x00, 0x30, 0x90, 0x4F,
        0x5C, 0x00, 0x90, 0x48, 0x5C, 0x83, 0x00, 0x80, 0x4F, 0x00, 0x00, 0x80, 0x48, 0x00, 0x30, 0x90,
        0x50, 0x5C, 0x60, 0x80, 0x50, 0x00, 0x00, 0x90, 0x51, 0x5C, 0x30, 0x80, 0x51, 0x00, 0x00, 0x90,
        0x54, 0x5C, 0x30, 0x80, 0x54, 0x00, 0x30, 0x90, 0x51, 0x5C, 0x30, 0x80, 0x51, 0x00, 0x00, 0x90,
        0x50, 0x5C, 0x30, 0x80, 0x50, 0x00, 0x00, 0x90, 0x4F, 0x5C, 0x30, 0x80, 0x4F, 0x00, 0x00, 0x90,
        0x4D, 0x5C, 0x30, 0x80, 0x4D, 0x00, 0x00, 0x90, 0x4A, 0x5C, 0x30, 0x80, 0x4A, 0x00, 0x00, 0x90,
        0x4C, 0x5C, 0x30, 0x80, 0x4C, 0x00, 0x00, 0x90, 0x4D, 0x5C, 0x60, 0x80, 0x4D, 0x00, 0x00, 0x90,
        0x4F, 0x5C, 0x60, 0x80, 0x4F, 0x00, 0x00, 0x90, 0x51, 0x5C, 0x60, 0x80, 0x51, 0x00, 0x00, 0x90,
        0x54, 0x5C, 0x60, 0x80, 0x54, 0x00, 0x00, 0x90, 0x55, 0x5C, 0x00, 0x90, 0x49, 0x5C, 0x60, 0x80,
        0x49, 0x00, 0x00, 0x80, 0x55, 0x00, 0x00, 0x90, 0x50, 0x5C, 0x60, 0x80, 0x50, 0x00, 0x00, 0x90,
        0x50, 0x5C, 0x30, 0x80, 0x50, 0x00, 0x00, 0x90, 0x4F, 0x5C, 0x30, 0x80, 0x4F, 0x00, 0x00, 0x90,
        0x4D, 0x5C, 0x30, 0x80, 0x4D, 0x00, 0x00, 0x90, 0x4F, 0x5C, 0x00, 0x90, 0x4B, 0x5C, 0x83, 0x30,
        0x80, 0x4B, 0x00, 0x00, 0x80, 0x4F, 0x00, 0x00, 0x90, 0x41, 0x5C, 0x60, 0x80, 0x41, 0x00, 0x00,
        0x90, 0x43, 0x5C, 0x60, 0x80, 0x43, 0x00, 0x00, 0x90, 0x41, 0x5C, 0x00, 0x90, 0x45, 0x5C, 0x60,
        0x80, 0x45, 0x00, 0x00, 0x80, 0x41, 0x00, 0x00, 0x90, 0x4D, 0x5C, 0x60, 0x80, 0x4D, 0x00, 0x00,
        0x90, 0x48, 0x5C, 0x00, 0x90, 0x4C, 0x5C, 0x81, 0x40, 0x80, 0x4C, 0x00, 0x00, 0x80, 0x48, 0x00,
        0x00, 0x90, 0x45, 0x5C, 0x00, 0x90, 0x4A, 0x5C, 0x81, 0x40, 0x80, 0x45, 0x00, 0x00, 0x80, 0x4A,
        0x00, 0x00, 0x90, 0x4C, 0x5C, 0x00, 0x90, 0x43, 0x5C, 0x81, 0x40, 0x80, 0x43, 0x00, 0x00, 0x80,
        0x4C, 0x00, 0x00, 0x90, 0x45, 0x5C, 0x00, 0x90, 0x4D, 0x5C, 0x81, 0x40, 0x80, 0x4D, 0x00, 0x00,
        0x80, 0x45, 0x00, 0x00, 0x90, 0x48, 0x5C, 0x00, 0x90, 0x4F, 0x5C, 0x81, 0x40, 0x80, 0x4F, 0x00,
        0x00, 0x80, 0x48, 0x00, 0x00, 0x90, 0x45, 0x5C, 0x00, 0x90, 0x4C, 0x5C, 0x81, 0x40, 0x80, 0x45,
        0x00, 0x00, 0x80, 0x4C, 0x00, 0x00, 0x90, 0x51, 0x5C, 0x00, 0x90, 0x4A, 0x5C, 0x83, 0x00, 0x80,
        0x4A, 0x00, 0x00, 0x80, 0x51, 0x00, 0x00, 0x90, 0x51, 0x5C, 0x30, 0x80, 0x51, 0x00, 0x00, 0x90,
        0x50, 0x5C, 0x30, 0x80, 0x50, 0x00, 0x00, 0x90, 0x4F, 0x5C, 0x30, 0x80, 0x4F, 0x00, 0x00, 0x90,
        0x4E, 0x5C, 0x30, 0x80, 0x4E, 0x00, 0x00, 0x90, 0x4D, 0x5C, 0x30, 0x80, 0x4D, 0x00, 0x00, 0x90,
        0x4C, 0x5C, 0x30, 0x80, 0x4C, 0x00, 0x00, 0x90, 0x4B, 0x5C, 0x30, 0x80, 0x4B, 0x00, 0x00, 0x90,
        0x4A, 0x5C, 0x30, 0x80, 0x4A, 0x00, 0x00, 0x90, 0x49, 0x5C, 0x00, 0x90, 0x44, 0x5C, 0x82, 0x50,
        0x80, 0x44, 0x00, 0x00, 0x80, 0x49, 0x00, 0x00, 0x90, 0x46, 0x5C, 0x00, 0x90, 0x4B, 0x5C, 0x83,
        0x30, 0x80, 0x46, 0x00, 0x00, 0x80, 0x4B, 0x00, 0x00, 0x90, 0x3A, 0x68, 0x84, 0x40, 0x80, 0x3A,
        0x00, 0x00, 0x90, 0x41, 0x68, 0x81, 0x40, 0x80, 0x41, 0x00, 0x00, 0x90, 0x40, 0x68, 0x83, 0x00,
        0x80, 0x40, 0x00, 0x00, 0x90, 0x3E, 0x68, 0x83, 0x00, 0x80, 0x3E, 0x00, 0x00, 0x90, 0x41, 0x68,
        0x86, 0x00, 0x80, 0x41, 0x00, 0x86, 0x00, 0x90, 0x3A, 0x68, 0x84, 0x40, 0x80, 0x3A, 0x00, 0x00,
        0x90, 0x41, 0x68, 0x81, 0x40, 0x80, 0x41, 0x00, 0x00, 0x90, 0x40, 0x68, 0x83, 0x00, 0x80, 0x40,
        0x00, 0x00, 0x90, 0x3E, 0x68, 0x83, 0x00, 0x80, 0x3E, 0x00, 0x00, 0x90, 0x3E, 0x68, 0x86, 0x00,
        0x80, 0x3E, 0x00, 0x86, 0x00, 0x90, 0x3E, 0x68, 0x30, 0x80, 0x3E, 0x00, 0x00, 0x90, 0x3E, 0x68,
        0x30, 0x80, 0x3E, 0x00, 0x00, 0x90, 0x4A, 0x68, 0x60, 0x80, 0x4A, 0x00, 0x00, 0x90, 0x45, 0x68,
        0x81, 0x10, 0x80, 0x45, 0x00, 0x00, 0x90, 0x44, 0x68, 0x60, 0x80, 0x44, 0x00, 0x00, 0x90, 0x43,
        0x68, 0x60, 0x80, 0x43, 0x00, 0x00, 0x90, 0x41, 0x68, 0x60, 0x80, 0x41, 0x00, 0x00, 0x90, 0x3E,
        0x68, 0x30, 0x80, 0x3E, 0x00, 0x00, 0x90, 0x41, 0x68, 0x30, 0x80, 0x41, 0x00, 0x00, 0x90, 0x43,
        0x68, 0x30, 0x80, 0x43, 0x00, 0x00, 0x90, 0x3C, 0x68, 0x30, 0x80, 0x3C, 0x00, 0x00, 0x90, 0x3C,
        0x68, 0x30, 0x80, 0x3C, 0x00, 0x00, 0x90, 0x4A, 0x68, 0x60, 0x80, 0x4A, 0x00, 0x00, 0x90, 0x45,
        0x68, 0x81, 0x10, 0x80, 0x45, 0x00, 0x00, 0x90, 0x44, 0x68, 0x60, 0x80, 0x44, 0x00, 0x00, 0x90,
        0x43, 0x68, 0x60, 0x80, 0x43, 0x00, 0x00, 0x90, 0x41, 0x68, 0x60, 0x80, 0x41, 0x00, 0x00, 0x90,
        0x3E, 0x68, 0x30, 0x80, 0x3E, 0x00, 0x00, 0x90, 0x41, 0x68, 0x30, 0x80, 0x41, 0x00, 0x00, 0x90,
        0x43, 0x68, 0x30, 0x80, 0x43, 0x00, 0x00, 0x90, 0x3B, 0x68, 0x30, 0x80, 0x3B, 0x00, 0x00, 0x90,
        0x3B, 0x68, 0x30, 0x80, 0x3B, 0x00, 0x00, 0x90, 0x4A, 0x68, 0x60, 0x80, 0x4A, 0x00, 0x00, 0x90,
        0x45, 0x68, 0x81, 0x10, 0x80, 0x45, 0x00, 0x00, 0x90, 0x44, 0x68, 0x60, 0x80, 0x44, 0x00, 0x00,
        0x90, 0x43, 0x68, 0x60, 0x80, 0x43, 0x00, 0x00, 0x90, 0x41, 0x68, 0x60, 0x80, 0x41, 0x00, 0x00,
        0x90, 0x3E, 0x68, 0x30, 0x80, 0x3E, 0x00, 0x00, 0x90, 0x41, 0x68, 0x30, 0x80, 0x41, 0x00, 0x00,
        0x90, 0x43, 0x68, 0x30, 0x80, 0x43, 0x00, 0x00, 0x90, 0x3B, 0x68, 0x30, 0x80, 0x3B, 0x00, 0x00,
        0x90, 0x3B, 0x68, 0x30, 0x80, 0x3B, 0x00, 0x00, 0x90, 0x4A, 0x68, 0x60, 0x80, 0x4A, 0x00, 0x00,
        0x90, 0x45, 0x68, 0x81, 0x10, 0x80, 0x45, 0x00, 0x00, 0x90, 0x44, 0x68, 0x60, 0x80, 0x44, 0x00,
        0x00, 0x90, 0x43, 0x68, 0x60, 0x80, 0x43, 0x00, 0x00, 0x90, 0x41, 0x68, 0x60, 0x80, 0x41, 0x00,
        0x00, 0x90, 0x3E, 0x68, 0x30, 0x80, 0x3E, 0x00, 0x00, 0x90, 0x41, 0x68, 0x30, 0x80, 0x41, 0x00,
        0x00, 0x90, 0x43, 0x68, 0x30, 0x80, 0x43, 0x00, 0x00, 0x90, 0x3E, 0x68, 0x30, 0x80, 0x3E, 0x00,
        0x00, 0x90, 0x3E, 0x68, 0x30, 0x80, 0x3E, 0x00, 0x00, 0x90, 0x4A, 0x68, 0x60, 0x80, 0x4A, 0x00,
        0x00, 0x90, 0x45, 0x68, 0x81, 0x10, 0x80, 0x45, 0x00, 0x00, 0x90, 0x44, 0x68, 0x60, 0x80, 0x44,
        0x00, 0x00, 0x90, 0x43, 0x68, 0x60, 0x80, 0x43, 0x00, 0x00, 0x90, 0x41, 0x68, 0x60, 0x80, 0x41,
        0x00, 0x00, 0x90, 0x3E, 0x68, 0x30, 0x80, 0x3E, 0x00, 0x00, 0x90, 0x41, 0x68, 0x30, 0x80, 0x41,
        0x00, 0x00, 0x90, 0x43, 0x68, 0x30, 0x80, 0x43, 0x00, 0x00, 0x90, 0x3C, 0x68, 0x30, 0x80, 0x3C,
        0x00, 0x00, 0x90, 0x3C, 0x68, 0x30, 0x80, 0x3C, 0x00, 0x00, 0x90, 0x4A, 0x68, 0x60, 0x80, 0x4A,
        0x00, 0x00, 0x90, 0x45, 0x68, 0x81, 0x10, 0x80, 0x45, 0x00, 0x00, 0x90, 0x44, 0x68, 0x60, 0x80,
        0x44, 0x00, 0x00, 0x90, 0x43, 0x68, 0x60, 0x80, 0x43, 0x00, 0x00, 0x90, 0x41, 0x68, 0x60, 0x80,
        0x41, 0x00, 0x00, 0x90, 0x3E, 0x68, 0x30, 0x80, 0x3E, 0x00, 0x00, 0x90, 0x41, 0x68, 0x30, 0x80,
        0x41, 0x00, 0x00, 0x90, 0x43, 0x68, 0x30, 0x80, 0x43, 0x00, 0x60, 0x90, 0x4A, 0x68, 0x00, 0x90,
        0x4D, 0x68, 0x48, 0x80, 0x4A, 0x00, 0x18, 0x80, 0x4D, 0x00, 0x00, 0x90, 0x45, 0x68, 0x00, 0x90,
        0x4C, 0x68, 0x30, 0x80, 0x4C, 0x00, 0x00, 0x80, 0x45, 0x00, 0x60, 0x90, 0x44, 0x68, 0x00, 0x90,
        0x48, 0x68, 0x60, 0x80, 0x44, 0x00, 0x00, 0x80, 0x48, 0x00, 0x00, 0x90, 0x43, 0x68, 0x00, 0x90,
        0x4C, 0x68, 0x30, 0x80, 0x4C, 0x00, 0x00, 0x80, 0x43, 0x00, 0x30, 0x90, 0x41, 0x68, 0x00, 0x90,
        0x4A, 0x68, 0x60, 0x80, 0x41, 0x00, 0x00, 0x80, 0x4A, 0x00, 0x00, 0x90, 0x3C, 0x68, 0x00, 0x90,
        0x45, 0x68, 0x30, 0x80, 0x45, 0x00, 0x00, 0x80, 0x3C, 0x00, 0x00, 0x90, 0x40, 0x68, 0x00, 0x90,
        0x48, 0x68, 0x30, 0x80, 0x48, 0x00, 0x00, 0x80, 0x40, 0x00, 0x00, 0x90, 0x4A, 0x68, 0x00, 0x90,
        0x41, 0x68, 0x30, 0x80, 0x41, 0x00, 0x00, 0x80, 0x4A, 0x00, 0x60, 0x90, 0x4A, 0x68, 0x00, 0x90,
        0x4D, 0x68, 0x48, 0x80, 0x4A, 0x00, 0x18, 0x80, 0x4D, 0x00, 0x00, 0x90, 0x4C, 0x68, 0x00, 0x90,
        0x45, 0x68, 0x30, 0x80, 0x45, 0x00, 0x00, 0x80, 0x4C, 0x00, 0x60, 0x90, 0x44, 0x68, 0x00, 0x90,
        0x48, 0x68, 0x60, 0x80, 0x44, 0x00, 0x00, 0x80, 0x48, 0x00, 0x00, 0x90, 0x4C, 0x68, 0x00, 0x90,
        0x43, 0x68, 0x30, 0x80, 0x43, 0x00, 0x00, 0x80, 0x4C, 0x00, 0x30, 0x90, 0x41, 0x68, 0x00, 0x90,
        0x4A, 0x68, 0x60, 0x80, 0x41, 0x00, 0x00, 0x80, 0x4A, 0x00, 0x00, 0x90, 0x45, 0x68, 0x00, 0x90,
        0x3C, 0x68, 0x30, 0x80, 0x3C, 0x00, 0x00, 0x80, 0x45, 0x00, 0x00, 0x90, 0x40, 0x68, 0x00, 0x90,
        0x48, 0x68, 0x30, 0x80, 0x48, 0x00, 0x00, 0x80, 0x40, 0x00, 0x00, 0x90, 0x41, 0x68, 0x00, 0x90,
        0x4A, 0x68, 0x30, 0x80, 0x4A, 0x00, 0x00, 0x80, 0x41, 0x00, 0x00, 0x90, 0x46, 0x55, 0x00, 0x90,
        0x41, 0x55, 0x60, 0x80, 0x46, 0x00, 0x00, 0x80, 0x41, 0x00, 0x00, 0x90, 0x41, 0x57, 0x00, 0x90,
        0x46, 0x57, 0x60, 0x80, 0x46, 0x00, 0x00, 0x80, 0x41, 0x00, 0x00, 0x90, 0x46, 0x57, 0x00, 0x90,
        0x41, 0x57, 0x30, 0x80, 0x41, 0x00, 0x00, 0x80, 0x46, 0x00, 0x00, 0x90, 0x46, 0x57, 0x00, 0x90,
        0x41, 0x57, 0x60, 0x80, 0x41, 0x00, 0x00, 0x80, 0x46, 0x00, 0x00, 0x90, 0x41, 0x57, 0x00, 0x90,
        0x46, 0x57, 0x60, 0x80, 0x46, 0x00, 0x00, 0x80, 0x41, 0x00, 0x00, 0x90, 0x46, 0x57, 0x00, 0x90,
        0x41, 0x57, 0x60, 0x80, 0x41, 0x00, 0x00, 0x80, 0x46, 0x00, 0x00, 0x90, 0x41, 0x57, 0x00, 0x90,
        0x46, 0x57, 0x60, 0x80, 0x46, 0x00, 0x00, 0x80, 0x41, 0x00, 0x00, 0x90, 0x46, 0x57, 0x00, 0x90,
        0x41, 0x57, 0x30, 0x80, 0x41, 0x00, 0x00, 0x80, 0x46, 0x00, 0x00, 0x90, 0x41, 0x57, 0x00, 0x90,
        0x46, 0x57, 0x60, 0x80, 0x41, 0x00, 0x00, 0x80, 0x46, 0x00, 0x00, 0x90, 0x48, 0x57, 0x00, 0x90,
        0x43, 0x57, 0x60, 0x80, 0x43, 0x00, 0x00, 0x80, 0x48, 0x00, 0x00, 0x90, 0x43, 0x57, 0x00, 0x90,
        0x48, 0x57, 0x60, 0x80, 0x48, 0x00, 0x00, 0x80, 0x43, 0x00, 0x00, 0x90, 0x48, 0x57, 0x00, 0x90,
        0x43, 0x57, 0x30, 0x80, 0x43, 0x00, 0x00, 0x80, 0x48, 0x00, 0x00, 0x90, 0x48, 0x57, 0x00, 0x90,
        0x43, 0x57, 0x60, 0x80, 0x43, 0x00, 0x00, 0x80, 0x48, 0x00, 0x00, 0x90, 0x43, 0x57, 0x00, 0x90,
        0x48, 0x57, 0x60, 0x80, 0x48, 0x00, 0x00, 0x80, 0x43, 0x00, 0x00, 0x90, 0x48, 0x57, 0x00, 0x90,
        0x43, 0x57, 0x60, 0x80, 0x43, 0x00, 0x00, 0x80, 0x48, 0x00, 0x00, 0x90, 0x43, 0x57, 0x00, 0x90,
        0x48, 0x57, 0x60, 0x80, 0x48, 0x00, 0x00, 0x80, 0x43, 0x00, 0x00, 0x90, 0x48, 0x57, 0x00, 0x90,
        0x43, 0x57, 0x30, 0x80, 0x43, 0x00, 0x00, 0x80, 0x48, 0x00, 0x00, 0x90, 0x43, 0x57, 0x00, 0x90,
        0x48, 0x57, 0x60, 0x80, 0x43, 0x00, 0x00, 0x80, 0x48, 0x00, 0x00, 0x90, 0x4A, 0x57, 0x00, 0x90,
        0x45, 0x57, 0x60, 0x80, 0x45, 0x00, 0x00, 0x80, 0x4A, 0x00, 0x00, 0x90, 0x45, 0x57, 0x00, 0x90,
        0x4A, 0x57, 0x60, 0x80, 0x4A, 0x00, 0x00, 0x80, 0x45, 0x00, 0x00, 0x90, 0x4A, 0x57, 0x00, 0x90,
        0x45, 0x57, 0x30, 0x80, 0x45, 0x00, 0x00, 0x80, 0x4A, 0x00, 0x00, 0x90, 0x4A, 0x57, 0x00, 0x90,
        0x45, 0x57, 0x60, 0x80, 0x45, 0x00, 0x00, 0x80, 0x4A, 0x00, 0x00, 0x90, 0x44, 0x57, 0x00, 0x90,
        0x49, 0x57, 0x60, 0x80, 0x49, 0x00, 0x00, 0x80, 0x44, 0x00, 0x00, 0x90, 0x49, 0x57, 0x00, 0x90,
        0x44, 0x57, 0x60, 0x80, 0x44, 0x00, 0x00, 0x80, 0x49, 0x00, 0x00, 0x90, 0x44, 0x57, 0x00, 0x90,
        0x49, 0x57, 0x60, 0x80, 0x49, 0x00, 0x00, 0x80, 0x44, 0x00, 0x00, 0x90, 0x49, 0x57, 0x00, 0x90,
        0x44, 0x57, 0x30, 0x80, 0x44, 0x00, 0x00, 0x80, 0x49, 0x00, 0x00, 0x90, 0x44, 0x57, 0x00, 0x90,
        0x49, 0x57, 0x60, 0x80, 0x44, 0x00, 0x00, 0x80, 0x49, 0x00, 0x00, 0x90, 0x48, 0x57, 0x00, 0x90,
        0x43, 0x57, 0x60, 0x80, 0x43, 0x00, 0x00, 0x80, 0x48, 0x00, 0x00, 0x90, 0x43, 0x57, 0x00, 0x90,
        0x48, 0x57, 0x60, 0x80, 0x48, 0x00, 0x00, 0x80, 0x43, 0x00, 0x00, 0x90, 0x48, 0x57, 0x00, 0x90,
        0x43, 0x57, 0x30, 0x80, 0x43, 0x00, 0x00, 0x80, 0x48, 0x00, 0x00, 0x90, 0x48, 0x57, 0x00, 0x90,
        0x43, 0x57, 0x60, 0x80, 0x43, 0x00, 0x00, 0x80, 0x48, 0x00, 0x00, 0x90, 0x43, 0x57, 0x00, 0x90,
        0x47, 0x57, 0x60, 0x80, 0x47, 0x00, 0x00, 0x80, 0x43, 0x00, 0x00, 0x90, 0x47, 0x57, 0x00, 0x90,
        0x43, 0x57, 0x60, 0x80, 0x43, 0x00, 0x00, 0x80, 0x47, 0x00, 0x00, 0x90, 0x43, 0x57, 0x00, 0x90,
        0x47, 0x57, 0x60, 0x80, 0x47, 0x00, 0x00, 0x80, 0x43, 0x00, 0x00, 0x90, 0x47, 0x57, 0x00, 0x90,
        0x43, 0x57, 0x30, 0x80, 0x43, 0x00, 0x00, 0x80, 0x47, 0x00, 0x00, 0x90, 0x43, 0x57, 0x00, 0x90,
        0x47, 0x57, 0x60, 0x80, 0x43, 0x00, 0x00, 0x80, 0x47, 0x00, 0x00, 0x90, 0x46, 0x57, 0x00, 0x90,
        0x41, 0x57, 0x60, 0x80, 0x41, 0x00, 0x00, 0x80, 0x46, 0x00, 0x00, 0x90, 0x41, 0x57, 0x00, 0x90,
        0x46, 0x57, 0x60, 0x80, 0x46, 0x00, 0x00, 0x80, 0x41, 0x00, 0x00, 0x90, 0x46, 0x57, 0x00, 0x90,
        0x41, 0x57, 0x30, 0x80, 0x41, 0x00, 0x00, 0x80, 0x46, 0x00, 0x00, 0x90, 0x46, 0x57, 0x00, 0x90,
        0x41, 0x57, 0x60, 0x80, 0x41, 0x00, 0x00, 0x80, 0x46, 0x00, 0x00, 0x90, 0x41, 0x57, 0x00, 0x90,
        0x46, 0x57, 0x60, 0x80, 0x46, 0x00, 0x00, 0x80, 0x41, 0x00, 0x00, 0x90, 0x46, 0x57, 0x00, 0x90,
        0x41, 0x57, 0x60, 0x80, 0x41, 0x00, 0x00, 0x80, 0x46, 0x00, 0x00, 0x90, 0x41, 0x57, 0x00, 0x90,
        0x46, 0x57, 0x60, 0x80, 0x46, 0x00, 0x00, 0x80, 0x41, 0x00, 0x00, 0x90, 0x46, 0x57, 0x00, 0x90,
        0x41, 0x57, 0x30, 0x80, 0x41, 0x00, 0x00, 0x80, 0x46, 0x00, 0x00, 0x90, 0x41, 0x57, 0x00, 0x90,
        0x46, 0x57, 0x60, 0x80, 0x41, 0x00, 0x00, 0x80, 0x46, 0x00, 0x00, 0x90, 0x48, 0x57, 0x00, 0x90,
        0x43, 0x57, 0x60, 0x80, 0x43, 0x00, 0x00, 0x80, 0x48, 0x00, 0x00, 0x90, 0x43, 0x57, 0x00, 0x90,
        0x48, 0x57, 0x60, 0x80, 0x48, 0x00, 0x00, 0x80, 0x43, 0x00, 0x00, 0x90, 0x48, 0x57, 0x00, 0x90,
        0x43, 0x57, 0x30, 0x80, 0x43, 0x00, 0x00, 0x80, 0x48, 0x00, 0x00, 0x90, 0x48, 0x57, 0x00, 0x90,
        0x43, 0x57, 0x60, 0x80, 0x43, 0x00, 0x00, 0x80, 0x48, 0x00, 0x00, 0x90, 0x43, 0x57, 0x00, 0x90,
        0x48, 0x57, 0x60, 0x80, 0x48, 0x00, 0x00, 0x80, 0x43, 0x00, 0x00, 0x90, 0x48, 0x57, 0x00, 0x90,
        0x43, 0x57, 0x60, 0x80, 0x43, 0x00, 0x00, 0x80, 0x48, 0x00, 0x00, 0x90, 0x43, 0x57, 0x00, 0x90,
        0x48, 0x57, 0x60, 0x80, 0x48, 0x00, 0x00, 0x80, 0x43, 0x00, 0x00, 0x90, 0x48, 0x57, 0x00, 0x90,
        0x43, 0x57, 0x30, 0x80, 0x43, 0x00, 0x00, 0x80, 0x48, 0x00, 0x00, 0x90, 0x43, 0x57, 0x00, 0x90,
        0x48, 0x57, 0x60, 0x80, 0x43, 0x00, 0x00, 0x80, 0x48, 0x00, 0x00, 0x90, 0x4A, 0x57, 0x00, 0x90,
        0x45, 0x57, 0x60, 0x80, 0x45, 0x00, 0x00, 0x80, 0x4A, 0x00, 0x00, 0x90, 0x45, 0x57, 0x00, 0x90,
        0x4A, 0x57, 0x60, 0x80, 0x4A, 0x00, 0x00, 0x80, 0x45, 0x00, 0x00, 0x90, 0x4A, 0x57, 0x00, 0x90,
        0x45, 0x57, 0x30, 0x80, 0x45, 0x00, 0x00, 0x80, 0x4A, 0x00, 0x00, 0x90, 0x4A, 0x57, 0x00, 0x90,
        0x45, 0x57, 0x60, 0x80, 0x45, 0x00, 0x00, 0x80, 0x4A, 0x00, 0x00, 0x90, 0x45, 0x57, 0x00, 0x90,
        0x4A, 0x57, 0x60, 0x80, 0x4A, 0x00, 0x00, 0x80, 0x45, 0x00, 0x00, 0x90, 0x4A, 0x57, 0x00, 0x90,
        0x45, 0x57, 0x60, 0x80, 0x45, 0x00, 0x00, 0x80, 0x4A, 0x00, 0x00, 0x90, 0x45, 0x57, 0x00, 0x90,
        0x4A, 0x57, 0x60, 0x80, 0x4A, 0x00, 0x00, 0x80, 0x45, 0x00, 0x00, 0x90, 0x4A, 0x57, 0x00, 0x90,
        0x45, 0x57, 0x30, 0x80, 0x45, 0x00, 0x00, 0x80, 0x4A, 0x00, 0x00, 0x90, 0x45, 0x57, 0x00, 0x90,
        0x4A, 0x57, 0x60, 0x80, 0x45, 0x00, 0x00, 0x80, 0x4A, 0x00, 0x00, 0x90, 0x4A, 0x56, 0x00, 0x90,
        0x45, 0x56, 0x60, 0x80, 0x45, 0x00, 0x00, 0x80, 0x4A, 0x00, 0x00, 0x90, 0x45, 0x56, 0x00, 0x90,
        0x4A, 0x56, 0x60, 0x80, 0x4A, 0x00, 0x00, 0x80, 0x45, 0x00, 0x00, 0x90, 0x4A, 0x56, 0x00, 0x90,
        0x45, 0x56, 0x30, 0x80, 0x45, 0x00, 0x00, 0x80, 0x4A, 0x00, 0x00, 0x90, 0x4A, 0x56, 0x00, 0x90,
        0x45, 0x56, 0x60, 0x80, 0x45, 0x00, 0x00, 0x80, 0x4A, 0x00, 0x00, 0x90, 0x45, 0x56, 0x00, 0x90,
        0x4A, 0x56, 0x60, 0x80, 0x4A, 0x00, 0x00, 0x80, 0x45, 0x00, 0x00, 0x90, 0x4A, 0x56, 0x00, 0x90,
        0x45, 0x56, 0x60, 0x80, 0x45, 0x00, 0x00, 0x80, 0x4A, 0x00, 0x00, 0x90, 0x45, 0x56, 0x00, 0x90,
        0x4A, 0x56, 0x60, 0x80, 0x4A, 0x00, 0x00, 0x80, 0x45, 0x00, 0x00, 0x90, 0x4A, 0x56, 0x00, 0x90,
        0x45, 0x56, 0x30, 0x80, 0x45, 0x00, 0x00, 0x80, 0x4A, 0x00, 0x00, 0x90, 0x45, 0x56, 0x00, 0x90,
        0x4A, 0x56, 0x60, 0x80, 0x45, 0x00, 0x00, 0x80, 0x4A, 0x00, 0x00, 0x90, 0x46, 0x56, 0x00, 0x90,
        0x41, 0x56, 0x60, 0x80, 0x46, 0x00, 0x00, 0x80, 0x41, 0x00, 0x00, 0x90, 0x41, 0x56, 0x00, 0x90,
        0x46, 0x56, 0x60, 0x80, 0x46, 0x00, 0x00, 0x80, 0x41, 0x00, 0x00, 0x90, 0x46, 0x56, 0x00, 0x90,
        0x41, 0x56, 0x30, 0x80, 0x41, 0x00, 0x00, 0x80, 0x46, 0x00, 0x00, 0x90, 0x46, 0x56, 0x00, 0x90,
        0x41, 0x56, 0x60, 0x80, 0x41, 0x00, 0x00, 0x80, 0x46, 0x00, 0x00, 0x90, 0x41, 0x56, 0x00, 0x90,
        0x46, 0x56, 0x60, 0x80, 0x46, 0x00, 0x00, 0x80, 0x41, 0x00, 0x00, 0x90, 0x46, 0x56, 0x00, 0x90,
        0x41, 0x56, 0x60, 0x80, 0x41, 0x00, 0x00, 0x80, 0x46, 0x00, 0x00, 0x90, 0x41, 0x56, 0x00, 0x90,
        0x46, 0x56, 0x60, 0x80, 0x46, 0x00, 0x00, 0x80, 0x41, 0x00, 0x00, 0x90, 0x46, 0x56, 0x00, 0x90,
        0x41, 0x56, 0x30, 0x80, 0x41, 0x00, 0x00, 0x80, 0x46, 0x00, 0x00, 0x90, 0x41, 0x56, 0x00, 0x90,
        0x46, 0x56, 0x60, 0x80, 0x41, 0x00, 0x00, 0x80, 0x46, 0x00, 0x00, 0x90, 0x48, 0x56, 0x00, 0x90,
        0x43, 0x56, 0x60, 0x80, 0x43, 0x00, 0x00, 0x80, 0x48, 0x00, 0x00, 0x90, 0x43, 0x56, 0x00, 0x90,
        0x48, 0x56, 0x60, 0x80, 0x48, 0x00, 0x00, 0x80, 0x43, 0x00, 0x00, 0x90, 0x48, 0x56, 0x00, 0x90,
        0x43, 0x56, 0x30, 0x80, 0x43, 0x00, 0x00, 0x80, 0x48, 0x00, 0x00, 0x90, 0x48, 0x56, 0x00, 0x90,
        0x43, 0x56, 0x60, 0x80, 0x43, 0x00, 0x00, 0x80, 0x48, 0x00, 0x00, 0x90, 0x43, 0x56, 0x00, 0x90,
        0x48, 0x56, 0x60, 0x80, 0x48, 0x00, 0x00, 0x80, 0x43, 0x00, 0x00, 0x90, 0x48, 0x56, 0x00, 0x90,
        0x43, 0x56, 0x60, 0x80, 0x43, 0x00, 0x00, 0x80, 0x48, 0x00, 0x00, 0x90, 0x43, 0x56, 0x00, 0x90,
        0x48, 0x56, 0x60, 0x80, 0x48, 0x00, 0x00, 0x80, 0x43, 0x00, 0x00, 0x90, 0x48, 0x56, 0x00, 0x90,
        0x43, 0x56, 0x30, 0x80, 0x43, 0x00, 0x00, 0x80, 0x48, 0x00, 0x00, 0x90, 0x43, 0x56, 0x00, 0x90,
        0x48, 0x56, 0x60, 0x80, 0x43, 0x00, 0x00, 0x80, 0x48, 0x00, 0x00, 0x90, 0x4A, 0x56, 0x00, 0x90,
        0x45, 0x56, 0x60, 0x80, 0x45, 0x00, 0x00, 0x80, 0x4A, 0x00, 0x00, 0x90, 0x45, 0x56, 0x00, 0x90,
        0x4A, 0x56, 0x60, 0x80, 0x4A, 0x00, 0x00, 0x80, 0x45, 0x00, 0x00, 0x90, 0x4A, 0x56, 0x00, 0x90,
        0x45, 0x56, 0x30, 0x80, 0x45, 0x00, 0x00, 0x80, 0x4A, 0x00, 0x00, 0x90, 0x4A, 0x56, 0x00, 0x90,
        0x45, 0x56, 0x60, 0x80, 0x45, 0x00, 0x00, 0x80, 0x4A, 0x00, 0x00, 0x90, 0x44, 0x56, 0x00, 0x90,
        0x49, 0x56, 0x60, 0x80, 0x49, 0x00, 0x00, 0x80, 0x44, 0x00, 0x00, 0x90, 0x49, 0x56, 0x00, 0x90,
        0x44, 0x56, 0x60, 0x80, 0x44, 0x00, 0x00, 0x80, 0x49, 0x00, 0x00, 0x90, 0x44, 0x56, 0x00, 0x90,
        0x49, 0x56, 0x60, 0x80, 0x49, 0x00, 0x00, 0x80, 0x44, 0x00, 0x00, 0x90, 0x49, 0x56, 0x00, 0x90,
        0x44, 0x56, 0x30, 0x80, 0x44, 0x00, 0x00, 0x80, 0x49, 0x00, 0x00, 0x90, 0x44, 0x56, 0x00, 0x90,
        0x49, 0x56, 0x60, 0x80, 0x44, 0x00, 0x00, 0x80, 0x49, 0x00, 0x00, 0x90, 0x48, 0x56, 0x00, 0x90,
        0x43, 0x56, 0x60, 0x80, 0x43, 0x00, 0x00, 0x80, 0x48, 0x00, 0x00, 0x90, 0x43, 0x56, 0x00, 0x90,
        0x48, 0x56, 0x60, 0x80, 0x48, 0x00, 0x00, 0x80, 0x43, 0x00, 0x00, 0x90, 0x48, 0x56, 0x00, 0x90,
        0x43, 0x56, 0x30, 0x80, 0x43, 0x00, 0x00, 0x80, 0x48, 0x00, 0x00, 0x90, 0x48, 0x56, 0x00, 0x90,
        0x43, 0x56, 0x60, 0x80, 0x43, 0x00, 0x00, 0x80, 0x48, 0x00, 0x00, 0x90, 0x43, 0x56, 0x00, 0x90,
        0x47, 0x56, 0x60, 0x80, 0x47, 0x00, 0x00, 0x80, 0x43, 0x00, 0x00, 0x90, 0x47, 0x56, 0x00, 0x90,
        0x43, 0x56, 0x60, 0x80, 0x43, 0x00, 0x00, 0x80, 0x47, 0x00, 0x00, 0x90, 0x43, 0x56, 0x00, 0x90,
        0x47, 0x56, 0x60, 0x80, 0x47, 0x00, 0x00, 0x80, 0x43, 0x00, 0x00, 0x90, 0x47, 0x56, 0x00, 0x90,
        0x43, 0x56, 0x30, 0x80, 0x43, 0x00, 0x00, 0x80, 0x47, 0x00, 0x00, 0x90, 0x43, 0x56, 0x00, 0x90,
        0x47, 0x56, 0x60, 0x80, 0x43, 0x00, 0x00, 0x80, 0x47, 0x00, 0x00, 0x90, 0x46, 0x56, 0x00, 0x90,
        0x41, 0x56, 0x60, 0x80, 0x41, 0x00, 0x00, 0x80, 0x46, 0x00, 0x00, 0x90, 0x41, 0x56, 0x00, 0x90,
        0x46, 0x56, 0x60, 0x80, 0x46, 0x00, 0x00, 0x80, 0x41, 0x00, 0x00, 0x90, 0x46, 0x56, 0x00, 0x90,
        0x41, 0x56, 0x30, 0x80, 0x41, 0x00, 0x00, 0x80, 0x46, 0x00, 0x00, 0x90, 0x46, 0x56, 0x00, 0x90,
        0x41, 0x56, 0x60, 0x80, 0x41, 0x00, 0x00, 0x80, 0x46, 0x00, 0x00, 0x90, 0x41, 0x56, 0x00, 0x90,
        0x46, 0x56, 0x60, 0x80, 0x46, 0x00, 0x00, 0x80, 0x41, 0x00, 0x00, 0x90, 0x46, 0x56, 0x00, 0x90,
        0x41, 0x56, 0x60, 0x80, 0x41, 0x00, 0x00, 0x80, 0x46, 0x00, 0x00, 0x90, 0x41, 0x56, 0x00, 0x90,
        0x46, 0x56, 0x60, 0x80, 0x46, 0x00, 0x00, 0x80, 0x41, 0x00, 0x00, 0x90, 0x46, 0x56, 0x00, 0x90,
        0x41, 0x56, 0x30, 0x80, 0x41, 0x00, 0x00, 0x80, 0x46, 0x00, 0x00, 0x90, 0x41, 0x56, 0x00, 0x90,
        0x46, 0x56, 0x60, 0x80, 0x41, 0x00, 0x00, 0x80, 0x46, 0x00, 0x00, 0x90, 0x48, 0x56, 0x00, 0x90,
        0x43, 0x56, 0x60, 0x80, 0x43, 0x00, 0x00, 0x80, 0x48, 0x00, 0x00, 0x90, 0x43, 0x56, 0x00, 0x90,
        0x48, 0x56, 0x60, 0x80, 0x48, 0x00, 0x00, 0x80, 0x43, 0x00, 0x00, 0x90, 0x48, 0x56, 0x00, 0x90,
        0x43, 0x56, 0x30, 0x80, 0x43, 0x00, 0x00, 0x80, 0x48, 0x00, 0x00, 0x90, 0x48, 0x56, 0x00, 0x90,
        0x43, 0x56, 0x60, 0x80, 0x43, 0x00, 0x00, 0x80, 0x48, 0x00, 0x00, 0x90, 0x43, 0x56, 0x00, 0x90,
        0x48, 0x56, 0x60, 0x80, 0x48, 0x00, 0x00, 0x80, 0x43, 0x00, 0x00, 0x90, 0x48, 0x56, 0x00, 0x90,
        0x43, 0x56, 0x60, 0x80, 0x43, 0x00, 0x00, 0x80, 0x48, 0x00, 0x00, 0x90, 0x43, 0x56, 0x00, 0x90,
        0x48, 0x56, 0x60, 0x80, 0x48, 0x00, 0x00, 0x80, 0x43, 0x00, 0x00, 0x90, 0x48, 0x57, 0x00, 0x90,
        0x43, 0x57, 0x30, 0x80, 0x43, 0x00, 0x00, 0x80, 0x48, 0x00, 0x00, 0x90, 0x43, 0x57, 0x00, 0x90,
        0x48, 0x57, 0x60, 0x80, 0x43, 0x00, 0x00, 0x80, 0x48, 0x00, 0x00, 0x90, 0x3E, 0x57, 0x30, 0x80,
        0x3E, 0x00, 0x00, 0x90, 0x3E, 0x57, 0x30, 0x80, 0x3E, 0x00, 0x00, 0x90, 0x4A, 0x57, 0x60, 0x80,
        0x4A, 0x00, 0x00, 0x90, 0x45, 0x57, 0x81, 0x10, 0x80, 0x45, 0x00, 0x00, 0x90, 0x44, 0x57, 0x60,
        0x80, 0x44, 0x00, 0x00, 0x90, 0x43, 0x57, 0x60, 0x80, 0x43, 0x00, 0x00, 0x90, 0x41, 0x57, 0x60,
        0x80, 0x41, 0x00, 0x00, 0x90, 0x3E, 0x57, 0x30, 0x80, 0x3E, 0x00, 0x00, 0x90, 0x41, 0x57, 0x30,
        0x80, 0x41, 0x00, 0x00, 0x90, 0x43, 0x57, 0x30, 0x80, 0x43, 0x00, 0x00, 0x90, 0x3E, 0x57, 0x30,
        0x80, 0x3E, 0x00, 0x00, 0x90, 0x3E, 0x57, 0x30, 0x80, 0x3E, 0x00, 0x00, 0x90, 0x4A, 0x57, 0x60,
        0x80, 0x4A, 0x00, 0x00, 0x90, 0x45, 0x57, 0x81, 0x10, 0x80, 0x45, 0x00, 0x00, 0x90, 0x44, 0x57,
        0x60, 0x80, 0x44, 0x00, 0x00, 0x90, 0x43, 0x57, 0x60, 0x80, 0x43, 0x00, 0x00, 0x90, 0x41, 0x57,
        0x60, 0x80, 0x41, 0x00, 0x00, 0x90, 0x3E, 0x57, 0x30, 0x80, 0x3E, 0x00, 0x00, 0x90, 0x41, 0x57,
        0x30, 0x80, 0x41, 0x00, 0x00, 0x90, 0x43, 0x57, 0x30, 0x80, 0x43, 0x00, 0x00, 0x90, 0x3A, 0x57,
        0x30, 0x80, 0x3A, 0x00, 0x00, 0x90, 0x3A, 0x57, 0x30, 0x80, 0x3A, 0x00, 0x00, 0x90, 0x4A, 0x57,
        0x60, 0x80, 0x4A, 0x00, 0x00, 0x90, 0x45, 0x57, 0x81, 0x10, 0x80, 0x45, 0x00, 0x00, 0x90, 0x44,
        0x57, 0x60, 0x80, 0x44, 0x00, 0x00, 0x90, 0x43, 0x57, 0x60, 0x80, 0x43, 0x00, 0x00, 0x90, 0x41,
        0x57, 0x60, 0x80, 0x41, 0x00, 0x00, 0x90, 0x3E, 0x57, 0x30, 0x80, 0x3E, 0x00, 0x00, 0x90, 0x41,
        0x57, 0x30, 0x80, 0x41, 0x00, 0x00, 0x90, 0x43, 0x57, 0x30, 0x80, 0x43, 0x00, 0x00, 0x90, 0x3C,
        0x57, 0x30, 0x80, 0x3C, 0x00, 0x00, 0x90, 0x3C, 0x57, 0x30, 0x80, 0x3C, 0x00, 0x00, 0x90, 0x4A,
        0x57, 0x60, 0x80, 0x4A, 0x00, 0x00, 0x90, 0x45, 0x57, 0x81, 0x10, 0x80, 0x45, 0x00, 0x00, 0x90,
        0x44, 0x57, 0x60, 0x80, 0x44, 0x00, 0x00, 0x90, 0x43, 0x57, 0x60, 0x80, 0x43, 0x00, 0x00, 0x90,
        0x41, 0x57, 0x60, 0x80, 0x41, 0x00, 0x00, 0x90, 0x3E, 0x57, 0x30, 0x80, 0x3E, 0x00, 0x00, 0x90,
        0x41, 0x57, 0x30, 0x80, 0x41, 0x00, 0x00, 0x90, 0x43, 0x57, 0x30, 0x80, 0x43, 0x00, 0x00, 0x90,
        0x3E, 0x57, 0x30, 0x80, 0x3E, 0x00, 0x00, 0x90, 0x3E, 0x57, 0x30, 0x80, 0x3E, 0x00, 0x00, 0x90,
        0x4A, 0x57, 0x60, 0x80, 0x4A, 0x00, 0x00, 0x90, 0x45, 0x57, 0x81, 0x10, 0x80, 0x45, 0x00, 0x00,
        0x90, 0x44, 0x57, 0x60, 0x80, 0x44, 0x00, 0x00, 0x90, 0x43, 0x57, 0x60, 0x80, 0x43, 0x00, 0x00,
        0x90, 0x41, 0x57, 0x60, 0x80, 0x41, 0x00, 0x00, 0x90, 0x3E, 0x57, 0x30, 0x80, 0x3E, 0x00, 0x00,
        0x90, 0x41, 0x57, 0x30, 0x80, 0x41, 0x00, 0x00, 0x90, 0x43, 0x57, 0x30, 0x80, 0x43, 0x00, 0x00,
        0x90, 0x3E, 0x57, 0x30, 0x80, 0x3E, 0x00, 0x00, 0x90, 0x3E, 0x57, 0x30, 0x80, 0x3E, 0x00, 0x00,
        0x90, 0x4A, 0x57, 0x60, 0x80, 0x4A, 0x00, 0x00, 0x90, 0x45, 0x58, 0x81, 0x10, 0x80, 0x45, 0x00,
        0x00, 0x90, 0x44, 0x58, 0x60, 0x80, 0x44, 0x00, 0x00, 0x90, 0x43, 0x58, 0x60, 0x80, 0x43, 0x00,
        0x00, 0x90, 0x41, 0x58, 0x60, 0x80, 0x41, 0x00, 0x00, 0x90, 0x3E, 0x58, 0x30, 0x80, 0x3E, 0x00,
        0x00, 0x90, 0x41, 0x58, 0x30, 0x80, 0x41, 0x00, 0x00, 0x90, 0x43, 0x58, 0x30, 0x80, 0x43, 0x00,
        0x00, 0xFF, 0x2F, 0x00, 0x4D, 0x54, 0x72, 0x6B, 0x00, 0x00, 0x24, 0xDA, 0x00, 0xB1, 0x0A, 0x33,
        0x00, 0xB1, 0x07, 0x64, 0x00, 0xE1, 0x00, 0x40, 0x00, 0xB1, 0x65, 0x00, 0x00, 0xB1, 0x64, 0x00,
        0x00, 0xB1, 0x06, 0x0C, 0x00, 0xC1, 0x00, 0x00, 0xB1, 0x5B, 0x30, 0x00, 0xB1, 0x40, 0x00, 0x98,
        0x00, 0x91, 0x32, 0x45, 0x60, 0x81, 0x32, 0x00, 0x00, 0x91, 0x32, 0x50, 0x60, 0x81, 0x32, 0x00,
        0x00, 0x91, 0x32, 0x4C, 0x30, 0x81, 0x32, 0x00, 0x00, 0x91, 0x32, 0x4C, 0x60, 0x81, 0x32, 0x00,
        0x00, 0x91, 0x32, 0x4B, 0x60, 0x81, 0x32, 0x00, 0x00, 0x91, 0x32, 0x4A, 0x60, 0x81, 0x32, 0x00,
        0x00, 0x91, 0x32, 0x4D, 0x60, 0x81, 0x32, 0x00, 0x00, 0x91, 0x32, 0x4C, 0x30, 0x81, 0x32, 0x00,
        0x00, 0x91, 0x32, 0x4F, 0x60, 0x81, 0x32, 0x00, 0x00, 0x91, 0x30, 0x4A, 0x60, 0x81, 0x30, 0x00,
        0x00, 0x91, 0x30, 0x4C, 0x60, 0x81, 0x30, 0x00, 0x00, 0x91, 0x30, 0x4A, 0x30, 0x81, 0x30, 0x00,
        0x00, 0x91, 0x30, 0x4B, 0x60, 0x81, 0x30, 0x00, 0x00, 0x91, 0x30, 0x4A, 0x60, 0x81, 0x30, 0x00,
        0x00, 0x91, 0x30, 0x49, 0x60, 0x81, 0x30, 0x00, 0x00, 0x91, 0x30, 0x4A, 0x60, 0x81, 0x30, 0x00,
        0x00, 0x91, 0x30, 0x46, 0x30, 0x81, 0x30, 0x00, 0x00, 0x91, 0x30, 0x4B, 0x60, 0x81, 0x30, 0x00,
        0x00, 0x91, 0x2F, 0x4B, 0x60, 0x81, 0x2F, 0x00, 0x00, 0x91, 0x2F, 0x49, 0x60, 0x81, 0x2F, 0x00,
        0x00, 0x91, 0x2F, 0x4D, 0x30, 0x81, 0x2F, 0x00, 0x00, 0x91, 0x2F, 0x4D, 0x60, 0x81, 0x2F, 0x00,
        0x00, 0x91, 0x2F, 0x4F, 0x60, 0x81, 0x2F, 0x00, 0x00, 0x91, 0x2F, 0x4C, 0x60, 0x81, 0x2F, 0x00,
        0x00, 0x91, 0x2F, 0x4C, 0x60, 0x81, 0x2F, 0x00, 0x00, 0x91, 0x2F, 0x4C, 0x30, 0x81, 0x2F, 0x00,
        0x00, 0x91, 0x2F, 0x4C, 0x60, 0x81, 0x2F, 0x00, 0x00, 0x91, 0x2E, 0x49, 0x60, 0x81, 0x2E, 0x00,
        0x00, 0x91, 0x2E, 0x4C, 0x60, 0x81, 0x2E, 0x00, 0x00, 0x91, 0x2E, 0x4A, 0x30, 0x81, 0x2E, 0x00,
        0x00, 0x91, 0x2E, 0x48, 0x60, 0x81, 0x2E, 0x00, 0x00, 0x91, 0x30, 0x4B, 0x60, 0x81, 0x30, 0x00,
        0x00, 0x91, 0x30, 0x4E, 0x60, 0x81, 0x30, 0x00, 0x00, 0x91, 0x30, 0x4A, 0x60, 0x81, 0x30, 0x00,
        0x00, 0x91, 0x30, 0x4B, 0x30, 0x81, 0x30, 0x00, 0x00, 0x91, 0x30, 0x4B, 0x60, 0x81, 0x30, 0x00,
        0x00, 0x91, 0x26, 0x52, 0x00, 0x91, 0x32, 0x52, 0x60, 0x81, 0x32, 0x00, 0x00, 0x81, 0x26, 0x00,
        0x00, 0x91, 0x32, 0x4C, 0x00, 0x91, 0x26, 0x4C, 0x60, 0x81, 0x26, 0x00, 0x00, 0x81, 0x32, 0x00,
        0x00, 0x91, 0x32, 0x4F, 0x00, 0x91, 0x26, 0x4F, 0x30, 0x81, 0x32, 0x00, 0x00, 0x81, 0x26, 0x00,
        0x00, 0x91, 0x26, 0x4F, 0x00, 0x91, 0x32, 0x4F, 0x60, 0x81, 0x32, 0x00, 0x00, 0x81, 0x26, 0x00,
        0x00, 0x91, 0x26, 0x49, 0x00, 0x91, 0x32, 0x49, 0x60, 0x81, 0x32, 0x00, 0x00, 0x81, 0x26, 0x00,
        0x00, 0x91, 0x32, 0x4B, 0x00, 0x91, 0x26, 0x4B, 0x60, 0x81, 0x26, 0x00, 0x00, 0x81, 0x32, 0x00,
        0x00, 0x91, 0x26, 0x49, 0x00, 0x91, 0x32, 0x49, 0x60, 0x81, 0x32, 0x00, 0x00, 0x81, 0x26, 0x00,
        0x00, 0x91, 0x26, 0x4E, 0x00, 0x91, 0x32, 0x4E, 0x30, 0x81, 0x32, 0x00, 0x00, 0x81, 0x26, 0x00,
        0x00, 0x91, 0x26, 0x4A, 0x00, 0x91, 0x32, 0x4A, 0x60, 0x81, 0x32, 0x00, 0x00, 0x81, 0x26, 0x00,
        0x00, 0x91, 0x30, 0x49, 0x00, 0x91, 0x24, 0x49, 0x60, 0x81, 0x24, 0x00, 0x00, 0x81, 0x30, 0x00,
        0x00, 0x91, 0x30, 0x4A, 0x00, 0x91, 0x24, 0x4A, 0x60, 0x81, 0x24, 0x00, 0x00, 0x81, 0x30, 0x00,
        0x00, 0x91, 0x30, 0x50, 0x00, 0x91, 0x24, 0x50, 0x30, 0x81, 0x30, 0x00, 0x00, 0x81, 0x24, 0x00,
        0x00, 0x91, 0x24, 0x50, 0x00, 0x91, 0x30, 0x50, 0x60, 0x81, 0x30, 0x00, 0x00, 0x81, 0x24, 0x00,
        0x00, 0x91, 0x30, 0x4D, 0x00, 0x91, 0x24, 0x4D, 0x60, 0x81, 0x24, 0x00, 0x00, 0x81, 0x30, 0x00,
        0x00, 0x91, 0x24, 0x4E, 0x00, 0x91, 0x30, 0x4E, 0x60, 0x81, 0x30, 0x00, 0x00, 0x81, 0x24, 0x00,
        0x00, 0x91, 0x30, 0x4E, 0x00, 0x91, 0x24, 0x4E, 0x60, 0x81, 0x24, 0x00, 0x00, 0x81, 0x30, 0x00,
        0x00, 0x91, 0x24, 0x4D, 0x00, 0x91, 0x30, 0x4D, 0x30, 0x81, 0x30, 0x00, 0x00, 0x81, 0x24, 0x00,
        0x00, 0x91, 0x30, 0x4B, 0x00, 0x91, 0x24, 0x4B, 0x60, 0x81, 0x24, 0x00, 0x00, 0x81, 0x30, 0x00,
        0x00, 0x91, 0x23, 0x4D, 0x00, 0x91, 0x2F, 0x4D, 0x60, 0x81, 0x2F, 0x00, 0x00, 0x81, 0x23, 0x00,
        0x00, 0x91, 0x23, 0x4D, 0x00, 0x91, 0x2F, 0x4D, 0x60, 0x81, 0x2F, 0x00, 0x00, 0x81, 0x23, 0x00,
        0x00, 0x91, 0x23, 0x4A, 0x00, 0x91, 0x2F, 0x4A, 0x30, 0x81, 0x23, 0x00, 0x00, 0x81, 0x2F, 0x00,
        0x00, 0x91, 0x23, 0x4C, 0x00, 0x91, 0x2F, 0x4C, 0x60, 0x81, 0x2F, 0x00, 0x00, 0x81, 0x23, 0x00,
        0x00, 0x91, 0x23, 0x49, 0x00, 0x91, 0x2F, 0x49, 0x60, 0x81, 0x2F, 0x00, 0x00, 0x81, 0x23, 0x00,
        0x00, 0x91, 0x23, 0x4D, 0x00, 0x91, 0x2F, 0x4D, 0x60, 0x81, 0x2F, 0x00, 0x00, 0x81, 0x23, 0x00,
        0x00, 0x91, 0x23, 0x4B, 0x00, 0x91, 0x2F, 0x4B, 0x60, 0x81, 0x2F, 0x00, 0x00, 0x81, 0x23, 0x00,
        0x00, 0x91, 0x23, 0x4E, 0x00, 0x91, 0x2F, 0x4E, 0x30, 0x81, 0x2F, 0x00, 0x00, 0x81, 0x23, 0x00,
        0x00, 0x91, 0x23, 0x50, 0x00, 0x91, 0x2F, 0x50, 0x60, 0x81, 0x2F, 0x00, 0x00, 0x81, 0x23, 0x00,
        0x00, 0x91, 0x22, 0x4D, 0x00, 0x91, 0x2E, 0x4D, 0x60, 0x81, 0x2E, 0x00, 0x00, 0x81, 0x22, 0x00,
        0x00, 0x91, 0x22, 0x4C, 0x00, 0x91, 0x2E, 0x4C, 0x60, 0x81, 0x2E, 0x00, 0x00, 0x81, 0x22, 0x00,
        0x00, 0x91, 0x22, 0x48, 0x00, 0x91, 0x2E, 0x48, 0x30, 0x81, 0x22, 0x00, 0x00, 0x81, 0x2E, 0x00,
        0x00, 0x91, 0x22, 0x4C, 0x00, 0x91, 0x2E, 0x4C, 0x60, 0x81, 0x2E, 0x00, 0x00, 0x81, 0x22, 0x00,
        0x00, 0x91, 0x24, 0x48, 0x00, 0x91, 0x30, 0x48, 0x60, 0x81, 0x24, 0x00, 0x00, 0x81, 0x30, 0x00,
        0x00, 0x91, 0x24, 0x4A, 0x00, 0x91, 0x30, 0x4A, 0x60, 0x81, 0x30, 0x00, 0x00, 0x81, 0x24, 0x00,
        0x00, 0x91, 0x24, 0x4F, 0x00, 0x91, 0x30, 0x4F, 0x60, 0x81, 0x30, 0x00, 0x00, 0x81, 0x24, 0x00,
        0x00, 0x91, 0x24, 0x4F, 0x00, 0x91, 0x30, 0x4F, 0x30, 0x81, 0x30, 0x00, 0x00, 0x81, 0x24, 0x00,
        0x00, 0x91, 0x24, 0x4D, 0x00, 0x91, 0x30, 0x4D, 0x60, 0x81, 0x30, 0x00, 0x00, 0x81, 0x24, 0x00,
        0x00, 0x91, 0x26, 0x4A, 0x00, 0x91, 0x32, 0x4A, 0x60, 0x81, 0x32, 0x00, 0x00, 0x81, 0x26, 0x00,
        0x00, 0x91, 0x26, 0x49, 0x00, 0x91, 0x32, 0x49, 0x60, 0x81, 0x32, 0x00, 0x00, 0x81, 0x26, 0x00,
        0x00, 0x91, 0x26, 0x53, 0x00, 0x91, 0x32, 0x53, 0x30, 0x81, 0x26, 0x00, 0x00, 0x81, 0x32, 0x00,
        0x00, 0x91, 0x26, 0x4B, 0x00, 0x91, 0x32, 0x4B, 0x60, 0x81, 0x32, 0x00, 0x00, 0x81, 0x26, 0x00,
        0x00, 0x91, 0x26, 0x4C, 0x00, 0x91, 0x32, 0x4C, 0x60, 0x81, 0x32, 0x00, 0x00, 0x81, 0x26, 0x00,
        0x00, 0x91, 0x26, 0x4C, 0x00, 0x91, 0x32, 0x4C, 0x60, 0x81, 0x32, 0x00, 0x00, 0x81, 0x26, 0x00,
        0x00, 0x91, 0x26, 0x51, 0x00, 0x91, 0x32, 0x51, 0x60, 0x81, 0x32, 0x00, 0x00, 0x81, 0x26, 0x00,
        0x00, 0x91, 0x26, 0x4D, 0x00, 0x91, 0x32, 0x4D, 0x30, 0x81, 0x32, 0x00, 0x00, 0x81, 0x26, 0x00,
        0x00, 0x91, 0x26, 0x49, 0x00, 0x91, 0x32, 0x49, 0x60, 0x81, 0x32, 0x00, 0x00, 0x81, 0x26, 0x00,
        0x00, 0x91, 0x24, 0x49, 0x00, 0x91, 0x30, 0x49, 0x60, 0x81, 0x30, 0x00, 0x00, 0x81, 0x24, 0x00,
        0x00, 0x91, 0x24, 0x4E, 0x00, 0x91, 0x30, 0x4E, 0x60, 0x81, 0x30, 0x00, 0x00, 0x81, 0x24, 0x00,
        0x00, 0x91, 0x24, 0x4E, 0x00, 0x91, 0x30, 0x4E, 0x30, 0x81, 0x24, 0x00, 0x00, 0x81, 0x30, 0x00,
        0x00, 0x91, 0x24, 0x4A, 0x00, 0x91, 0x30, 0x4A, 0x60, 0x81, 0x30, 0x00, 0x00, 0x81, 0x24, 0x00,
        0x00, 0x91, 0x24, 0x4E, 0x00, 0x91, 0x30, 0x4E, 0x60, 0x81, 0x30, 0x00, 0x00, 0x81, 0x24, 0x00,
        0x00, 0x91, 0x24, 0x4F, 0x00, 0x91, 0x30, 0x4F, 0x60, 0x81, 0x30, 0x00, 0x00, 0x81, 0x24, 0x00,
        0x00, 0x91, 0x24, 0x4B, 0x00, 0x91, 0x30, 0x4B, 0x60, 0x81, 0x30, 0x00, 0x00, 0x81, 0x24, 0x00,
        0x00, 0x91, 0x24, 0x4D, 0x00, 0x91, 0x30, 0x4D, 0x30, 0x81, 0x30, 0x00, 0x00, 0x81, 0x24, 0x00,
        0x00, 0x91, 0x24, 0x4B, 0x00, 0x91, 0x30, 0x4B, 0x60, 0x81, 0x30, 0x00, 0x00, 0x81, 0x24, 0x00,
        0x00, 0x91, 0x23, 0x47, 0x00, 0x91, 0x2F, 0x47, 0x60, 0x81, 0x2F, 0x00, 0x00, 0x81, 0x23, 0x00,
        0x00, 0x91, 0x23, 0x4F, 0x00, 0x91, 0x2F, 0x4F, 0x60, 0x81, 0x2F, 0x00, 0x00, 0x81, 0x23, 0x00,
        0x00, 0x91, 0x23, 0x4B, 0x00, 0x91, 0x2F, 0x4B, 0x30, 0x81, 0x23, 0x00, 0x00, 0x81, 0x2F, 0x00,
        0x00, 0x91, 0x2F, 0x4D, 0x00, 0x91, 0x23, 0x4D, 0x60, 0x81, 0x23, 0x00, 0x00, 0x81, 0x2F, 0x00,
        0x00, 0x91, 0x23, 0x4E, 0x00, 0x91, 0x2F, 0x4E, 0x60, 0x81, 0x2F, 0x00, 0x00, 0x81, 0x23, 0x00,
        0x00, 0x91, 0x2F, 0x4B, 0x00, 0x91, 0x23, 0x4B, 0x60, 0x81, 0x23, 0x00, 0x00, 0x81, 0x2F, 0x00,
        0x00, 0x91, 0x23, 0x49, 0x00, 0x91, 0x2F, 0x49, 0x60, 0x81, 0x2F, 0x00, 0x00, 0x81, 0x23, 0x00,
        0x00, 0x91, 0x2F, 0x4A, 0x00, 0x91, 0x23, 0x4A, 0x30, 0x81, 0x23, 0x00, 0x00, 0x81, 0x2F, 0x00,
        0x00, 0x91, 0x23, 0x4C, 0x00, 0x91, 0x2F, 0x4C, 0x60, 0x81, 0x2F, 0x00, 0x00, 0x81, 0x23, 0x00,
        0x00, 0x91, 0x22, 0x4F, 0x00, 0x91, 0x2E, 0x4F, 0x60, 0x81, 0x2E, 0x00, 0x00, 0x81, 0x22, 0x00,
        0x00, 0x91, 0x22, 0x4B, 0x00, 0x91, 0x2E, 0x4B, 0x60, 0x81, 0x2E, 0x00, 0x00, 0x81, 0x22, 0x00,
        0x00, 0x91, 0x22, 0x4B, 0x00, 0x91, 0x2E, 0x4B, 0x30, 0x81, 0x22, 0x00, 0x00, 0x81, 0x2E, 0x00,
        0x00, 0x91, 0x2E, 0x4D, 0x00, 0x91, 0x22, 0x4D, 0x60, 0x81, 0x22, 0x00, 0x00, 0x81, 0x2E, 0x00,
        0x00, 0x91, 0x24, 0x51, 0x00, 0x91, 0x30, 0x51, 0x60, 0x81, 0x24, 0x00, 0x00, 0x81, 0x30, 0x00,
        0x00, 0x91, 0x30, 0x4B, 0x00, 0x91, 0x24, 0x4B, 0x60, 0x81, 0x24, 0x00, 0x00, 0x81, 0x30, 0x00,
        0x00, 0x91, 0x24, 0x4F, 0x00, 0x91, 0x30, 0x4F, 0x60, 0x81, 0x30, 0x00, 0x00, 0x81, 0x24, 0x00,
        0x00, 0x91, 0x30, 0x4F, 0x00, 0x91, 0x24, 0x4F, 0x30, 0x81, 0x24, 0x00, 0x00, 0x81, 0x30, 0x00,
        0x00, 0x91, 0x24, 0x50, 0x00, 0x91, 0x30, 0x50, 0x60, 0x81, 0x30, 0x00, 0x00, 0x81, 0x24, 0x00,
        0x00, 0x91, 0x39, 0x53, 0x00, 0x91, 0x32, 0x53, 0x60, 0x81, 0x32, 0x00, 0x00, 0x81, 0x39, 0x00,
        0x00, 0x91, 0x32, 0x4D, 0x00, 0x91, 0x39, 0x4D, 0x60, 0x81, 0x39, 0x00, 0x00, 0x81, 0x32, 0x00,
        0x00, 0x91, 0x39, 0x4A, 0x00, 0x91, 0x32, 0x4A, 0x30, 0x81, 0x32, 0x00, 0x00, 0x81, 0x39, 0x00,
        0x00, 0x91, 0x32, 0x50, 0x00, 0x91, 0x39, 0x50, 0x60, 0x81, 0x39, 0x00, 0x00, 0x81, 0x32, 0x00,
        0x00, 0x91, 0x32, 0x51, 0x00, 0x91, 0x39, 0x51, 0x60, 0x81, 0x39, 0x00, 0x00, 0x81, 0x32, 0x00,
        0x00, 0x91, 0x39, 0x4C, 0x00, 0x91, 0x32, 0x4C, 0x60, 0x81, 0x39, 0x00, 0x00, 0x81, 0x32, 0x00,
        0x00, 0x91, 0x39, 0x4B, 0x00, 0x91, 0x32, 0x4B, 0x60, 0x81, 0x32, 0x00, 0x00, 0x81, 0x39, 0x00,
        0x00, 0x91, 0x32, 0x4C, 0x00, 0x91, 0x39, 0x4C, 0x30, 0x81, 0x39, 0x00, 0x00, 0x81, 0x32, 0x00,
        0x00, 0x91, 0x32, 0x49, 0x00, 0x91, 0x39, 0x49, 0x60, 0x81, 0x32, 0x00, 0x00, 0x81, 0x39, 0x00,
        0x00, 0x91, 0x37, 0x4D, 0x00, 0x91, 0x30, 0x4D, 0x60, 0x81, 0x30, 0x00, 0x00, 0x81, 0x37, 0x00,
        0x00, 0x91, 0x30, 0x4B, 0x00, 0x91, 0x37, 0x4B, 0x60, 0x81, 0x37, 0x00, 0x00, 0x81, 0x30, 0x00,
        0x00, 0x91, 0x30, 0x4F, 0x00, 0x91, 0x37, 0x4F, 0x30, 0x81, 0x37, 0x00, 0x00, 0x81, 0x30, 0x00,
        0x00, 0x91, 0x30, 0x4F, 0x00, 0x91, 0x37, 0x4F, 0x60, 0x81, 0x37, 0x00, 0x00, 0x81, 0x30, 0x00,
        0x00, 0x91, 0x37, 0x52, 0x00, 0x91, 0x30, 0x52, 0x60, 0x81, 0x30, 0x00, 0x00, 0x81, 0x37, 0x00,
        0x00, 0x91, 0x30, 0x4B, 0x00, 0x91, 0x37, 0x4B, 0x60, 0x81, 0x30, 0x00, 0x00, 0x81, 0x37, 0x00,
        0x00, 0x91, 0x30, 0x4C, 0x00, 0x91, 0x37, 0x4C, 0x60, 0x81, 0x37, 0x00, 0x00, 0x81, 0x30, 0x00,
        0x00, 0x91, 0x37, 0x47, 0x00, 0x91, 0x30, 0x47, 0x30, 0x81, 0x30, 0x00, 0x00, 0x81, 0x37, 0x00,
        0x00, 0x91, 0x30, 0x4C, 0x00, 0x91, 0x37, 0x4C, 0x60, 0x81, 0x30, 0x00, 0x00, 0x81, 0x37, 0x00,
        0x00, 0x91, 0x2F, 0x4D, 0x00, 0x91, 0x37, 0x4D, 0x60, 0x81, 0x37, 0x00, 0x00, 0x81, 0x2F, 0x00,
        0x00, 0x91, 0x2F, 0x4A, 0x00, 0x91, 0x37, 0x4A, 0x60, 0x81, 0x37, 0x00, 0x00, 0x81, 0x2F, 0x00,
        0x00, 0x91, 0x2F, 0x4D, 0x00, 0x91, 0x37, 0x4D, 0x30, 0x81, 0x37, 0x00, 0x00, 0x81, 0x2F, 0x00,
        0x00, 0x91, 0x37, 0x4D, 0x00, 0x91, 0x2F, 0x4D, 0x60, 0x81, 0x2F, 0x00, 0x00, 0x81, 0x37, 0x00,
        0x00, 0x91, 0x37, 0x50, 0x00, 0x91, 0x2F, 0x50, 0x60, 0x81, 0x2F, 0x00, 0x00, 0x81, 0x37, 0x00,
        0x00, 0x91, 0x2F, 0x50, 0x00, 0x91, 0x37, 0x50, 0x60, 0x81, 0x2F, 0x00, 0x00, 0x81, 0x37, 0x00,
        0x00, 0x91, 0x37, 0x49, 0x00, 0x91, 0x2F, 0x49, 0x60, 0x81, 0x37, 0x00, 0x00, 0x81, 0x2F, 0x00,
        0x00, 0x91, 0x2F, 0x4B, 0x00, 0x91, 0x37, 0x4B, 0x30, 0x81, 0x37, 0x00, 0x00, 0x81, 0x2F, 0x00,
        0x00, 0x91, 0x2F, 0x4E, 0x00, 0x91, 0x37, 0x4E, 0x60, 0x81, 0x2F, 0x00, 0x00, 0x81, 0x37, 0x00,
        0x00, 0x91, 0x2E, 0x48, 0x00, 0x91, 0x35, 0x48, 0x60, 0x81, 0x35, 0x00, 0x00, 0x81, 0x2E, 0x00,
        0x00, 0x91, 0x2E, 0x4B, 0x00, 0x91, 0x35, 0x4B, 0x60, 0x81, 0x35, 0x00, 0x00, 0x81, 0x2E, 0x00,
        0x00, 0x91, 0x2E, 0x4E, 0x00, 0x91, 0x35, 0x4E, 0x30, 0x81, 0x35, 0x00, 0x00, 0x81, 0x2E, 0x00,
        0x00, 0x91, 0x35, 0x4E, 0x00, 0x91, 0x2E, 0x4E, 0x60, 0x81, 0x35, 0x00, 0x00, 0x81, 0x2E, 0x00,
        0x00, 0x91, 0x37, 0x50, 0x00, 0x91, 0x30, 0x50, 0x60, 0x81, 0x30, 0x00, 0x00, 0x81, 0x37, 0x00,
        0x00, 0x91, 0x37, 0x4D, 0x00, 0x91, 0x30, 0x4D, 0x60, 0x81, 0x30, 0x00, 0x00, 0x81, 0x37, 0x00,
        0x00, 0x91, 0x37, 0x4C, 0x00, 0x91, 0x30, 0x4C, 0x60, 0x81, 0x30, 0x00, 0x00, 0x81, 0x37, 0x00,
        0x00, 0x91, 0x37, 0x4D, 0x00, 0x91, 0x30, 0x4D, 0x30, 0x81, 0x30, 0x00, 0x00, 0x81, 0x37, 0x00,
        0x00, 0x91, 0x30, 0x4D, 0x00, 0x91, 0x37, 0x4D, 0x60, 0x81, 0x37, 0x00, 0x00, 0x81, 0x30, 0x00,
        0x00, 0x91, 0x32, 0x4F, 0x00, 0x91, 0x39, 0x4F, 0x60, 0x81, 0x39, 0x00, 0x00, 0x81, 0x32, 0x00,
        0x00, 0x91, 0x39, 0x49, 0x00, 0x91, 0x32, 0x49, 0x60, 0x81, 0x39, 0x00, 0x00, 0x81, 0x32, 0x00,
        0x00, 0x91, 0x39, 0x4B, 0x00, 0x91, 0x32, 0x4B, 0x30, 0x81, 0x39, 0x00, 0x00, 0x81, 0x32, 0x00,
        0x00, 0x91, 0x32, 0x4B, 0x00, 0x91, 0x39, 0x4B, 0x60, 0x81, 0x39, 0x00, 0x00, 0x81, 0x32, 0x00,
        0x00, 0x91, 0x32, 0x52, 0x00, 0x91, 0x39, 0x52, 0x60, 0x81, 0x39, 0x00, 0x00, 0x81, 0x32, 0x00,
        0x00, 0x91, 0x32, 0x4E, 0x00, 0x91, 0x39, 0x4E, 0x60, 0x81, 0x39, 0x00, 0x00, 0x81, 0x32, 0x00,
        0x00, 0x91, 0x32, 0x4F, 0x00, 0x91, 0x39, 0x4F, 0x60, 0x81, 0x39, 0x00, 0x00, 0x81, 0x32, 0x00,
        0x00, 0x91, 0x32, 0x4A, 0x00, 0x91, 0x39, 0x4A, 0x30, 0x81, 0x39, 0x00, 0x00, 0x81, 0x32, 0x00,
        0x00, 0x91, 0x39, 0x4C, 0x00, 0x91, 0x32, 0x4C, 0x60, 0x81, 0x32, 0x00, 0x00, 0x81, 0x39, 0x00,
        0x00, 0x91, 0x37, 0x49, 0x00, 0x91, 0x30, 0x49, 0x60, 0x81, 0x30, 0x00, 0x00, 0x81, 0x37, 0x00,
        0x00, 0x91, 0x37, 0x4C, 0x00, 0x91, 0x30, 0x4C, 0x60, 0x81, 0x37, 0x00, 0x00, 0x81, 0x30, 0x00,
        0x00, 0x91, 0x37, 0x4A, 0x00, 0x91, 0x30, 0x4A, 0x30, 0x81, 0x37, 0x00, 0x00, 0x81, 0x30, 0x00,
        0x00, 0x91, 0x30, 0x4F, 0x00, 0x91, 0x37, 0x4F, 0x60, 0x81, 0x37, 0x00, 0x00, 0x81, 0x30, 0x00,
        0x00, 0x91, 0x30, 0x4C, 0x00, 0x91, 0x37, 0x4C, 0x60, 0x81, 0x37, 0x00, 0x00, 0x81, 0x30, 0x00,
        0x00, 0x91, 0x30, 0x50, 0x00, 0x91, 0x37, 0x50, 0x60, 0x81, 0x37, 0x00, 0x00, 0x81, 0x30, 0x00,
        0x00, 0x91, 0x30, 0x4D, 0x00, 0x91, 0x37, 0x4D, 0x60, 0x81, 0x37, 0x00, 0x00, 0x81, 0x30, 0x00,
        0x00, 0x91, 0x30, 0x4D, 0x00, 0x91, 0x37, 0x4D, 0x30, 0x81, 0x37, 0x00, 0x00, 0x81, 0x30, 0x00,
        0x00, 0x91, 0x37, 0x4B, 0x00, 0x91, 0x30, 0x4B, 0x60, 0x81, 0x30, 0x00, 0x00, 0x81, 0x37, 0x00,
        0x00, 0x91, 0x37, 0x4A, 0x00, 0x91, 0x2F, 0x4A, 0x60, 0x81, 0x2F, 0x00, 0x00, 0x81, 0x37, 0x00,
        0x00, 0x91, 0x37, 0x4E, 0x00, 0x91, 0x2F, 0x4E, 0x60, 0x81, 0x2F, 0x00, 0x00, 0x81, 0x37, 0x00,
        0x00, 0x91, 0x37, 0x4C, 0x00, 0x91, 0x2F, 0x4C, 0x30, 0x81, 0x37, 0x00, 0x00, 0x81, 0x2F, 0x00,
        0x00, 0x91, 0x37, 0x54, 0x00, 0x91, 0x2F, 0x54, 0x60, 0x81, 0x2F, 0x00, 0x00, 0x81, 0x37, 0x00,
        0x00, 0x91, 0x37, 0x4B, 0x00, 0x91, 0x2F, 0x4B, 0x60, 0x81, 0x2F, 0x00, 0x00, 0x81, 0x37, 0x00,
        0x00, 0x91, 0x37, 0x4E, 0x00, 0x91, 0x2F, 0x4E, 0x60, 0x81, 0x2F, 0x00, 0x00, 0x81, 0x37, 0x00,
        0x00, 0x91, 0x37, 0x4D, 0x00, 0x91, 0x2F, 0x4D, 0x60, 0x81, 0x2F, 0x00, 0x00, 0x81, 0x37, 0x00,
        0x00, 0x91, 0x37, 0x4C, 0x00, 0x91, 0x2F, 0x4C, 0x30, 0x81, 0x2F, 0x00, 0x00, 0x81, 0x37, 0x00,
        0x00, 0x91, 0x37, 0x4B, 0x00, 0x91, 0x2F, 0x4B, 0x60, 0x81, 0x37, 0x00, 0x00, 0x81, 0x2F, 0x00,
        0x00, 0x91, 0x35, 0x50, 0x00, 0x91, 0x2E, 0x50, 0x60, 0x81, 0x35, 0x00, 0x00, 0x81, 0x2E, 0x00,
        0x00, 0x91, 0x35, 0x4A, 0x00, 0x91, 0x2E, 0x4A, 0x60, 0x81, 0x35, 0x00, 0x00, 0x81, 0x2E, 0x00,
        0x00, 0x91, 0x35, 0x4B, 0x00, 0x91, 0x2E, 0x4B, 0x30, 0x81, 0x2E, 0x00, 0x00, 0x81, 0x35, 0x00,
        0x00, 0x91, 0x35, 0x4B, 0x00, 0x91, 0x2E, 0x4B, 0x60, 0x81, 0x2E, 0x00, 0x00, 0x81, 0x35, 0x00,
        0x00, 0x91, 0x37, 0x4E, 0x00, 0x91, 0x30, 0x4E, 0x60, 0x81, 0x30, 0x00, 0x00, 0x81, 0x37, 0x00,
        0x00, 0x91, 0x30, 0x4C, 0x00, 0x91, 0x37, 0x4C, 0x60, 0x81, 0x37, 0x00, 0x00, 0x81, 0x30, 0x00,
        0x00, 0x91, 0x37, 0x4B, 0x00, 0x91, 0x30, 0x4B, 0x60, 0x81, 0x30, 0x00, 0x00, 0x81, 0x37, 0x00,
        0x00, 0x91, 0x30, 0x48, 0x00, 0x91, 0x37, 0x48, 0x30, 0x81, 0x37, 0x00, 0x00, 0x81, 0x30, 0x00,
        0x00, 0x91, 0x30, 0x47, 0x00, 0x91, 0x37, 0x47, 0x60, 0x81, 0x37, 0x00, 0x00, 0x81, 0x30, 0x00,
        0x00, 0x91, 0x35, 0x49, 0x00, 0x91, 0x2E, 0x49, 0x60, 0x81, 0x35, 0x00, 0x00, 0x81, 0x2E, 0x00,
        0x00, 0x91, 0x35, 0x4C, 0x00, 0x91, 0x2E, 0x4C, 0x60, 0x81, 0x2E, 0x00, 0x00, 0x81, 0x35, 0x00,
        0x00, 0x91, 0x35, 0x4F, 0x00, 0x91, 0x2E, 0x4F, 0x30, 0x81, 0x35, 0x00, 0x00, 0x81, 0x2E, 0x00,
        0x00, 0x91, 0x35, 0x4C, 0x00, 0x91, 0x2E, 0x4C, 0x60, 0x81, 0x2E, 0x00, 0x00, 0x81, 0x35, 0x00,
        0x00, 0x91, 0x35, 0x4C, 0x00, 0x91, 0x2E, 0x4C, 0x60, 0x81, 0x2E, 0x00, 0x00, 0x81, 0x35, 0x00,
        0x00, 0x91, 0x35, 0x4C, 0x00, 0x91, 0x2E, 0x4C, 0x60, 0x81, 0x2E, 0x00, 0x00, 0x81, 0x35, 0x00,
        0x00, 0x91, 0x35, 0x4E, 0x00, 0x91, 0x2E, 0x4E, 0x60, 0x81, 0x2E, 0x00, 0x00, 0x81, 0x35, 0x00,
        0x00, 0x91, 0x35, 0x4E, 0x00, 0x91, 0x2E, 0x4E, 0x30, 0x81, 0x2E, 0x00, 0x00, 0x81, 0x35, 0x00,
        0x00, 0x91, 0x35, 0x4D, 0x00, 0x91, 0x2E, 0x4D, 0x60, 0x81, 0x2E, 0x00, 0x00, 0x81, 0x35, 0x00,
        0x00, 0x91, 0x37, 0x4F, 0x00, 0x91, 0x30, 0x4F, 0x60, 0x81, 0x37, 0x00, 0x00, 0x81, 0x30, 0x00,
        0x00, 0x91, 0x37, 0x47, 0x00, 0x91, 0x30, 0x47, 0x60, 0x81, 0x37, 0x00, 0x00, 0x81, 0x30, 0x00,
        0x00, 0x91, 0x37, 0x4E, 0x00, 0x91, 0x30, 0x4E, 0x30, 0x81, 0x37, 0x00, 0x00, 0x81, 0x30, 0x00,
        0x00, 0x91, 0x37, 0x4E, 0x00, 0x91, 0x30, 0x4E, 0x60, 0x81, 0x30, 0x00, 0x00, 0x81, 0x37, 0x00,
        0x00, 0x91, 0x37, 0x49, 0x00, 0x91, 0x30, 0x49, 0x60, 0x81, 0x30, 0x00, 0x00, 0x81, 0x37, 0x00,
        0x00, 0x91, 0x37, 0x49, 0x00, 0x91, 0x30, 0x49, 0x60, 0x81, 0x30, 0x00, 0x00, 0x81, 0x37, 0x00,
        0x00, 0x91, 0x37, 0x4D, 0x00, 0x91, 0x30, 0x4D, 0x60, 0x81, 0x30, 0x00, 0x00, 0x81, 0x37, 0x00,
        0x00, 0x91, 0x37, 0x46, 0x00, 0x91, 0x30, 0x46, 0x30, 0x81, 0x30, 0x00, 0x00, 0x81, 0x37, 0x00,
        0x00, 0x91, 0x37, 0x4A, 0x00, 0x91, 0x30, 0x4A, 0x60, 0x81, 0x30, 0x00, 0x00, 0x81, 0x37, 0x00,
        0x00, 0x91, 0x39, 0x54, 0x00, 0x91, 0x32, 0x54, 0x60, 0x81, 0x39, 0x00, 0x00, 0x81, 0x32, 0x00,
        0x00, 0x91, 0x39, 0x4C, 0x00, 0x91, 0x32, 0x4C, 0x60, 0x81, 0x32, 0x00, 0x00, 0x81, 0x39, 0x00,
        0x00, 0x91, 0x39, 0x48, 0x00, 0x91, 0x32, 0x48, 0x30, 0x81, 0x32, 0x00, 0x00, 0x81, 0x39, 0x00,
        0x00, 0x91, 0x39, 0x4E, 0x00, 0x91, 0x32, 0x4E, 0x60, 0x81, 0x32, 0x00, 0x00, 0x81, 0x39, 0x00,
        0x00, 0x91, 0x39, 0x4D, 0x00, 0x91, 0x32, 0x4D, 0x60, 0x81, 0x32, 0x00, 0x00, 0x81, 0x39, 0x00,
        0x00, 0x91, 0x39, 0x4C, 0x00, 0x91, 0x32, 0x4C, 0x60, 0x81, 0x32, 0x00, 0x00, 0x81, 0x39, 0x00,
        0x00, 0x91, 0x39, 0x4D, 0x00, 0x91, 0x32, 0x4D, 0x60, 0x81, 0x32, 0x00, 0x00, 0x81, 0x39, 0x00,
        0x00, 0x91, 0x39, 0x4E, 0x00, 0x91, 0x32, 0x4E, 0x30, 0x81, 0x32, 0x00, 0x00, 0x81, 0x39, 0x00,
        0x00, 0x91, 0x39, 0x4A, 0x00, 0x91, 0x32, 0x4A, 0x60, 0x81, 0x32, 0x00, 0x00, 0x81, 0x39, 0x00,
        0x00, 0x91, 0x38, 0x4B, 0x00, 0x91, 0x31, 0x4B, 0x60, 0x81, 0x31, 0x00, 0x00, 0x81, 0x38, 0x00,
        0x00, 0x91, 0x38, 0x4B, 0x00, 0x91, 0x31, 0x4B, 0x60, 0x81, 0x38, 0x00, 0x00, 0x81, 0x31, 0x00,
        0x00, 0x91, 0x38, 0x4B, 0x00, 0x91, 0x31, 0x4B, 0x30, 0x81, 0x38, 0x00, 0x00, 0x81, 0x31, 0x00,
        0x00, 0x91, 0x38, 0x52, 0x00, 0x91, 0x31, 0x52, 0x60, 0x81, 0x31, 0x00, 0x00, 0x81, 0x38, 0x00,
        0x00, 0x91, 0x3A, 0x4D, 0x00, 0x91, 0x33, 0x4D, 0x60, 0x81, 0x33, 0x00, 0x00, 0x81, 0x3A, 0x00,
        0x00, 0x91, 0x3A, 0x4D, 0x00, 0x91, 0x33, 0x4D, 0x60, 0x81, 0x33, 0x00, 0x00, 0x81, 0x3A, 0x00,
        0x00, 0x91, 0x3A, 0x4C, 0x00, 0x91, 0x33, 0x4C, 0x60, 0x81, 0x3A, 0x00, 0x00, 0x81, 0x33, 0x00,
        0x00, 0x91, 0x3A, 0x48, 0x00, 0x91, 0x33, 0x48, 0x30, 0x81, 0x33, 0x00, 0x00, 0x81, 0x3A, 0x00,
        0x00, 0x91, 0x3A, 0x4E, 0x00, 0x91, 0x33, 0x4E, 0x60, 0x81, 0x33, 0x00, 0x00, 0x81, 0x3A, 0x00,
        0x00, 0x91, 0x35, 0x47, 0x00, 0x91, 0x2E, 0x47, 0x60, 0x81, 0x2E, 0x00, 0x00, 0x81, 0x35, 0x00,
        0x00, 0x91, 0x35, 0x50, 0x00, 0x91, 0x2E, 0x50, 0x60, 0x81, 0x2E, 0x00, 0x00, 0x81, 0x35, 0x00,
        0x00, 0x91, 0x2E, 0x4E, 0x00, 0x91, 0x35, 0x4E, 0x30, 0x81, 0x2E, 0x00, 0x00, 0x81, 0x35, 0x00,
        0x00, 0x91, 0x2E, 0x4B, 0x00, 0x91, 0x35, 0x4B, 0x60, 0x81, 0x35, 0x00, 0x00, 0x81, 0x2E, 0x00,
        0x00, 0x91, 0x2E, 0x4B, 0x00, 0x91, 0x35, 0x4B, 0x60, 0x81, 0x35, 0x00, 0x00, 0x81, 0x2E, 0x00,
        0x00, 0x91, 0x2E, 0x50, 0x00, 0x91, 0x35, 0x50, 0x60, 0x81, 0x35, 0x00, 0x00, 0x81, 0x2E, 0x00,
        0x00, 0x91, 0x2E, 0x4C, 0x00, 0x91, 0x35, 0x4C, 0x60, 0x81, 0x35, 0x00, 0x00, 0x81, 0x2E, 0x00,
        0x00, 0x91, 0x2E, 0x4D, 0x00, 0x91, 0x35, 0x4D, 0x30, 0x81, 0x35, 0x00, 0x00, 0x81, 0x2E, 0x00,
        0x00, 0x91, 0x35, 0x51, 0x00, 0x91, 0x2E, 0x51, 0x60, 0x81, 0x2E, 0x00, 0x00, 0x81, 0x35, 0x00,
        0x00, 0x91, 0x37, 0x4B, 0x00, 0x91, 0x30, 0x4B, 0x60, 0x81, 0x30, 0x00, 0x00, 0x81, 0x37, 0x00,
        0x00, 0x91, 0x37, 0x4B, 0x00, 0x91, 0x30, 0x4B, 0x60, 0x81, 0x30, 0x00, 0x00, 0x81, 0x37, 0x00,
        0x00, 0x91, 0x30, 0x4E, 0x00, 0x91, 0x37, 0x4E, 0x30, 0x81, 0x30, 0x00, 0x00, 0x81, 0x37, 0x00,
        0x00, 0x91, 0x30, 0x4C, 0x00, 0x91, 0x37, 0x4C, 0x60, 0x81, 0x37, 0x00, 0x00, 0x81, 0x30, 0x00,
        0x00, 0x91, 0x30, 0x4E, 0x00, 0x91, 0x37, 0x4E, 0x60, 0x81, 0x37, 0x00, 0x00, 0x81, 0x30, 0x00,
        0x00, 0x91, 0x30, 0x4B, 0x00, 0x91, 0x37, 0x4B, 0x60, 0x81, 0x37, 0x00, 0x00, 0x81, 0x30, 0x00,
        0x00, 0x91, 0x30, 0x4E, 0x00, 0x91, 0x37, 0x4E, 0x60, 0x81, 0x37, 0x00, 0x00, 0x81, 0x30, 0x00,
        0x00, 0x91, 0x30, 0x4D, 0x00, 0x91, 0x37, 0x4D, 0x30, 0x81, 0x37, 0x00, 0x00, 0x81, 0x30, 0x00,
        0x00, 0x91, 0x37, 0x4D, 0x00, 0x91, 0x30, 0x4D, 0x60, 0x81, 0x30, 0x00, 0x00, 0x81, 0x37, 0x00,
        0x00, 0x91, 0x39, 0x4C, 0x00, 0x91, 0x32, 0x4C, 0x60, 0x81, 0x32, 0x00, 0x00, 0x81, 0x39, 0x00,
        0x00, 0x91, 0x39, 0x4C, 0x00, 0x91, 0x32, 0x4C, 0x60, 0x81, 0x32, 0x00, 0x00, 0x81, 0x39, 0x00,
        0x00, 0x91, 0x32, 0x51, 0x00, 0x91, 0x39, 0x51, 0x30, 0x81, 0x32, 0x00, 0x00, 0x81, 0x39, 0x00,
        0x00, 0x91, 0x32, 0x49, 0x00, 0x91, 0x39, 0x49, 0x60, 0x81, 0x39, 0x00, 0x00, 0x81, 0x32, 0x00,
        0x00, 0x91, 0x32, 0x4B, 0x00, 0x91, 0x39, 0x4B, 0x60, 0x81, 0x39, 0x00, 0x00, 0x81, 0x32, 0x00,
        0x00, 0x91, 0x32, 0x50, 0x00, 0x91, 0x39, 0x50, 0x60, 0x81, 0x39, 0x00, 0x00, 0x81, 0x32, 0x00,
        0x00, 0x91, 0x32, 0x4B, 0x00, 0x91, 0x39, 0x4B, 0x60, 0x81, 0x39, 0x00, 0x00, 0x81, 0x32, 0x00,
        0x00, 0x91, 0x32, 0x4A, 0x00, 0x91, 0x39, 0x4A, 0x30, 0x81, 0x39, 0x00, 0x00, 0x81, 0x32, 0x00,
        0x00, 0x91, 0x32, 0x4E, 0x00, 0x91, 0x39, 0x4E, 0x60, 0x81, 0x39, 0x00, 0x00, 0x81, 0x32, 0x00,
        0x00, 0x91, 0x38, 0x47, 0x00, 0x91, 0x31, 0x47, 0x60, 0x81, 0x31, 0x00, 0x00, 0x81, 0x38, 0x00,
        0x00, 0x91, 0x38, 0x4A, 0x00, 0x91, 0x31, 0x4A, 0x60, 0x81, 0x31, 0x00, 0x00, 0x81, 0x38, 0x00,
        0x00, 0x91, 0x31, 0x4E, 0x00, 0x91, 0x38, 0x4E, 0x30, 0x81, 0x31, 0x00, 0x00, 0x81, 0x38, 0x00,
        0x00, 0x91, 0x31, 0x4E, 0x00, 0x91, 0x38, 0x4E, 0x60, 0x81, 0x38, 0x00, 0x00, 0x81, 0x31, 0x00,
        0x00, 0x91, 0x33, 0x50, 0x00, 0x91, 0x3A, 0x50, 0x60, 0x81, 0x33, 0x00, 0x00, 0x81, 0x3A, 0x00,
        0x00, 0x91, 0x33, 0x4E, 0x00, 0x91, 0x3A, 0x4E, 0x60, 0x81, 0x3A, 0x00, 0x00, 0x81, 0x33, 0x00,
        0x00, 0x91, 0x33, 0x4C, 0x00, 0x91, 0x3A, 0x4C, 0x60, 0x81, 0x33, 0x00, 0x00, 0x81, 0x3A, 0x00,
        0x00, 0x91, 0x33, 0x4A, 0x00, 0x91, 0x3A, 0x4A, 0x30, 0x81, 0x3A, 0x00, 0x00, 0x81, 0x33, 0x00,
        0x00, 0x91, 0x3A, 0x4A, 0x00, 0x91, 0x33, 0x4A, 0x60, 0x81, 0x33, 0x00, 0x00, 0x81, 0x3A, 0x00,
        0x00, 0x91, 0x35, 0x45, 0x00, 0x91, 0x2E, 0x45, 0x60, 0x81, 0x2E, 0x00, 0x00, 0x81, 0x35, 0x00,
        0x00, 0x91, 0x35, 0x4B, 0x00, 0x91, 0x2E, 0x4B, 0x60, 0x81, 0x2E, 0x00, 0x00, 0x81, 0x35, 0x00,
        0x00, 0x91, 0x35, 0x4C, 0x00, 0x91, 0x2E, 0x4C, 0x30, 0x81, 0x35, 0x00, 0x00, 0x81, 0x2E, 0x00,
        0x00, 0x91, 0x35, 0x4E, 0x00, 0x91, 0x2E, 0x4E, 0x60, 0x81, 0x2E, 0x00, 0x00, 0x81, 0x35, 0x00,
        0x00, 0x91, 0x35, 0x46, 0x00, 0x91, 0x2E, 0x46, 0x60, 0x81, 0x2E, 0x00, 0x00, 0x81, 0x35, 0x00,
        0x00, 0x91, 0x35, 0x4A, 0x00, 0x91, 0x2E, 0x4A, 0x60, 0x81, 0x2E, 0x00, 0x00, 0x81, 0x35, 0x00,
        0x00, 0x91, 0x35, 0x4B, 0x00, 0x91, 0x2E, 0x4B, 0x60, 0x81, 0x2E, 0x00, 0x00, 0x81, 0x35, 0x00,
        0x00, 0x91, 0x35, 0x47, 0x00, 0x91, 0x2E, 0x47, 0x30, 0x81, 0x2E, 0x00, 0x00, 0x81, 0x35, 0x00,
        0x00, 0x91, 0x35, 0x49, 0x00, 0x91, 0x2E, 0x49, 0x60, 0x81, 0x2E, 0x00, 0x00, 0x81, 0x35, 0x00,
        0x00, 0x91, 0x37, 0x4F, 0x00, 0x91, 0x30, 0x4F, 0x60, 0x81, 0x37, 0x00, 0x00, 0x81, 0x30, 0x00,
        0x00, 0x91, 0x37, 0x4D, 0x00, 0x91, 0x30, 0x4D, 0x60, 0x81, 0x37, 0x00, 0x00, 0x81, 0x30, 0x00,
        0x00, 0x91, 0x37, 0x4E, 0x00, 0x91, 0x30, 0x4E, 0x30, 0x81, 0x37, 0x00, 0x00, 0x81, 0x30, 0x00,
        0x00, 0x91, 0x37, 0x4D, 0x00, 0x91, 0x30, 0x4D, 0x60, 0x81, 0x30, 0x00, 0x00, 0x81, 0x37, 0x00,
        0x00, 0x91, 0x37, 0x4E, 0x00, 0x91, 0x30, 0x4E, 0x60, 0x81, 0x30, 0x00, 0x00, 0x81, 0x37, 0x00,
        0x00, 0x91, 0x37, 0x49, 0x00, 0x91, 0x30, 0x49, 0x60, 0x81, 0x30, 0x00, 0x00, 0x81, 0x37, 0x00,
        0x00, 0x91, 0x37, 0x4C, 0x00, 0x91, 0x30, 0x4C, 0x60, 0x81, 0x30, 0x00, 0x00, 0x81, 0x37, 0x00,
        0x00, 0x91, 0x37, 0x4D, 0x00, 0x91, 0x30, 0x4D, 0x30, 0x81, 0x30, 0x00, 0x00, 0x81, 0x37, 0x00,
        0x00, 0x91, 0x37, 0x4B, 0x00, 0x91, 0x30, 0x4B, 0x60, 0x81, 0x30, 0x00, 0x00, 0x81, 0x37, 0x00,
        0x00, 0x91, 0x39, 0x4C, 0x00, 0x91, 0x32, 0x4C, 0x60, 0x81, 0x39, 0x00, 0x00, 0x81, 0x32, 0x00,
        0x00, 0x91, 0x39, 0x4C, 0x00, 0x91, 0x32, 0x4C, 0x60, 0x81, 0x32, 0x00, 0x00, 0x81, 0x39, 0x00,
        0x00, 0x91, 0x39, 0x4C, 0x00, 0x91, 0x32, 0x4C, 0x30, 0x81, 0x32, 0x00, 0x00, 0x81, 0x39, 0x00,
        0x00, 0x91, 0x39, 0x4F, 0x00, 0x91, 0x32, 0x4F, 0x60, 0x81, 0x32, 0x00, 0x00, 0x81, 0x39, 0x00,
        0x00, 0x91, 0x39, 0x4B, 0x00, 0x91, 0x32, 0x4B, 0x60, 0x81, 0x32, 0x00, 0x00, 0x81, 0x39, 0x00,
        0x00, 0x91, 0x39, 0x4E, 0x00, 0x91, 0x32, 0x4E, 0x60, 0x81, 0x32, 0x00, 0x00, 0x81, 0x39, 0x00,
        0x00, 0x91, 0x39, 0x4D, 0x00, 0x91, 0x32, 0x4D, 0x60, 0x81, 0x32, 0x00, 0x00, 0x81, 0x39, 0x00,
        0x00, 0x91, 0x39, 0x4E, 0x00, 0x91, 0x32, 0x4E, 0x30, 0x81, 0x32, 0x00, 0x00, 0x81, 0x39, 0x00,
        0x00, 0x91, 0x39, 0x4D, 0x00, 0x91, 0x32, 0x4D, 0x60, 0x81, 0x32, 0x00, 0x00, 0x81, 0x39, 0x00,
        0x00, 0x91, 0x38, 0x45, 0x00, 0x91, 0x31, 0x45, 0x60, 0x81, 0x38, 0x00, 0x00, 0x81, 0x31, 0x00,
        0x00, 0x91, 0x38, 0x4F, 0x00, 0x91, 0x31, 0x4F, 0x60, 0x81, 0x38, 0x00, 0x00, 0x81, 0x31, 0x00,
        0x00, 0x91, 0x38, 0x4C, 0x00, 0x91, 0x31, 0x4C, 0x30, 0x81, 0x31, 0x00, 0x00, 0x81, 0x38, 0x00,
        0x00, 0x91, 0x38, 0x4E, 0x00, 0x91, 0x31, 0x4E, 0x60, 0x81, 0x31, 0x00, 0x00, 0x81, 0x38, 0x00,
        0x00, 0x91, 0x3A, 0x4E, 0x00, 0x91, 0x33, 0x4E, 0x60, 0x81, 0x33, 0x00, 0x00, 0x81, 0x3A, 0x00,
        0x00, 0x91, 0x3A, 0x4C, 0x00, 0x91, 0x33, 0x4C, 0x60, 0x81, 0x33, 0x00, 0x00, 0x81, 0x3A, 0x00,
        0x00, 0x91, 0x3A, 0x4C, 0x00, 0x91, 0x33, 0x4C, 0x60, 0x81, 0x3A, 0x00, 0x00, 0x81, 0x33, 0x00,
        0x00, 0x91, 0x3A, 0x4C, 0x00, 0x91, 0x33, 0x4C, 0x30, 0x81, 0x33, 0x00, 0x00, 0x81, 0x3A, 0x00,
        0x00, 0x91, 0x3A, 0x50, 0x00, 0x91, 0x33, 0x50, 0x60, 0x81, 0x33, 0x00, 0x00, 0x81, 0x3A, 0x00,
        0x00, 0x91, 0x2E, 0x48, 0x00, 0x91, 0x35, 0x48, 0x60, 0x81, 0x35, 0x00, 0x00, 0x81, 0x2E, 0x00,
        0x00, 0x91, 0x35, 0x49, 0x00, 0x91, 0x2E, 0x49, 0x60, 0x81, 0x35, 0x00, 0x00, 0x81, 0x2E, 0x00,
        0x00, 0x91, 0x2E, 0x4A, 0x00, 0x91, 0x35, 0x4A, 0x30, 0x81, 0x35, 0x00, 0x00, 0x81, 0x2E, 0x00,
        0x00, 0x91, 0x2E, 0x4E, 0x00, 0x91, 0x35, 0x4E, 0x60, 0x81, 0x35, 0x00, 0x00, 0x81, 0x2E, 0x00,
        0x00, 0x91, 0x35, 0x4B, 0x00, 0x91, 0x2E, 0x4B, 0x60, 0x81, 0x2E, 0x00, 0x00, 0x81, 0x35, 0x00,
        0x00, 0x91, 0x2E, 0x4C, 0x00, 0x91, 0x35, 0x4C, 0x60, 0x81, 0x35, 0x00, 0x00, 0x81, 0x2E, 0x00,
        0x00, 0x91, 0x35, 0x4D, 0x00, 0x91, 0x2E, 0x4D, 0x60, 0x81, 0x2E, 0x00, 0x00, 0x81, 0x35, 0x00,
        0x00, 0x91, 0x2E, 0x4A, 0x00, 0x91, 0x35, 0x4A, 0x30, 0x81, 0x35, 0x00, 0x00, 0x81, 0x2E, 0x00,
        0x00, 0x91, 0x35, 0x4C, 0x00, 0x91, 0x2E, 0x4C, 0x60, 0x81, 0x2E, 0x00, 0x00, 0x81, 0x35, 0x00,
        0x00, 0x91, 0x30, 0x52, 0x00, 0x91, 0x37, 0x52, 0x60, 0x81, 0x37, 0x00, 0x00, 0x81, 0x30, 0x00,
        0x00, 0x91, 0x37, 0x4E, 0x00, 0x91, 0x30, 0x4E, 0x60, 0x81, 0x30, 0x00, 0x00, 0x81, 0x37, 0x00,
        0x00, 0x91, 0x30, 0x4D, 0x00, 0x91, 0x37, 0x4D, 0x30, 0x81, 0x37, 0x00, 0x00, 0x81, 0x30, 0x00,
        0x00, 0x91, 0x30, 0x4E, 0x00, 0x91, 0x37, 0x4E, 0x60, 0x81, 0x37, 0x00, 0x00, 0x81, 0x30, 0x00,
        0x00, 0x91, 0x37, 0x52, 0x00, 0x91, 0x30, 0x52, 0x60, 0x81, 0x30, 0x00, 0x00, 0x81, 0x37, 0x00,
        0x00, 0x91, 0x30, 0x4B, 0x00, 0x91, 0x37, 0x4B, 0x60, 0x81, 0x37, 0x00, 0x00, 0x81, 0x30, 0x00,
        0x00, 0x91, 0x37, 0x4B, 0x00, 0x91, 0x30, 0x4B, 0x60, 0x81, 0x30, 0x00, 0x00, 0x81, 0x37, 0x00,
        0x00, 0x91, 0x30, 0x4C, 0x00, 0x91, 0x37, 0x4C, 0x30, 0x81, 0x37, 0x00, 0x00, 0x81, 0x30, 0x00,
        0x00, 0x91, 0x37, 0x4B, 0x00, 0x91, 0x30, 0x4B, 0x60, 0x81, 0x30, 0x00, 0x00, 0x81, 0x37, 0x00,
        0x00, 0x91, 0x32, 0x53, 0x00, 0x91, 0x39, 0x53, 0x60, 0x81, 0x39, 0x00, 0x00, 0x81, 0x32, 0x00,
        0x00, 0x91, 0x39, 0x49, 0x00, 0x91, 0x32, 0x49, 0x60, 0x81, 0x32, 0x00, 0x00, 0x81, 0x39, 0x00,
        0x00, 0x91, 0x32, 0x4B, 0x00, 0x91, 0x39, 0x4B, 0x30, 0x81, 0x32, 0x00, 0x00, 0x81, 0x39, 0x00,
        0x00, 0x91, 0x32, 0x49, 0x00, 0x91, 0x39, 0x49, 0x60, 0x81, 0x39, 0x00, 0x00, 0x81, 0x32, 0x00,
        0x00, 0x91, 0x39, 0x50, 0x00, 0x91, 0x32, 0x50, 0x60, 0x81, 0x39, 0x00, 0x00, 0x81, 0x32, 0x00,
        0x00, 0x91, 0x32, 0x4E, 0x00, 0x91, 0x39, 0x4E, 0x60, 0x81, 0x39, 0x00, 0x00, 0x81, 0x32, 0x00,
        0x00, 0x91, 0x39, 0x4D, 0x00, 0x91, 0x32, 0x4D, 0x60, 0x81, 0x32, 0x00, 0x00, 0x81, 0x39, 0x00,
        0x00, 0x91, 0x32, 0x50, 0x00, 0x91, 0x39, 0x50, 0x30, 0x81, 0x39, 0x00, 0x00, 0x81, 0x32, 0x00,
        0x00, 0x91, 0x39, 0x4B, 0x00, 0x91, 0x32, 0x4B, 0x60, 0x81, 0x32, 0x00, 0x00, 0x81, 0x39, 0x00,
        0x00, 0x91, 0x31, 0x4E, 0x00, 0x91, 0x38, 0x4E, 0x60, 0x81, 0x31, 0x00, 0x00, 0x81, 0x38, 0x00,
        0x00, 0x91, 0x38, 0x4B, 0x00, 0x91, 0x31, 0x4B, 0x60, 0x81, 0x31, 0x00, 0x00, 0x81, 0x38, 0x00,
        0x00, 0x91, 0x31, 0x4A, 0x00, 0x91, 0x38, 0x4A, 0x30, 0x81, 0x31, 0x00, 0x00, 0x81, 0x38, 0x00,
        0x00, 0x91, 0x31, 0x4E, 0x00, 0x91, 0x38, 0x4E, 0x60, 0x81, 0x38, 0x00, 0x00, 0x81, 0x31, 0x00,
        0x00, 0x91, 0x3A, 0x51, 0x00, 0x91, 0x33, 0x51, 0x60, 0x81, 0x33, 0x00, 0x00, 0x81, 0x3A, 0x00,
        0x00, 0x91, 0x3A, 0x49, 0x00, 0x91, 0x33, 0x49, 0x60, 0x81, 0x33, 0x00, 0x00, 0x81, 0x3A, 0x00,
        0x00, 0x91, 0x3A, 0x48, 0x00, 0x91, 0x33, 0x48, 0x60, 0x81, 0x3A, 0x00, 0x00, 0x81, 0x33, 0x00,
        0x00, 0x91, 0x3A, 0x4B, 0x00, 0x91, 0x33, 0x4B, 0x30, 0x81, 0x33, 0x00, 0x00, 0x81, 0x3A, 0x00,
        0x00, 0x91, 0x3A, 0x4B, 0x00, 0x91, 0x33, 0x4B, 0x60, 0x81, 0x33, 0x00, 0x00, 0x81, 0x3A, 0x00,
        0x00, 0x91, 0x2E, 0x4E, 0x00, 0x91, 0x35, 0x4E, 0x60, 0x81, 0x35, 0x00, 0x00, 0x81, 0x2E, 0x00,
        0x00, 0x91, 0x2E, 0x4B, 0x00, 0x91, 0x35, 0x4B, 0x60, 0x81, 0x2E, 0x00, 0x00, 0x81, 0x35, 0x00,
        0x00, 0x91, 0x2E, 0x4A, 0x00, 0x91, 0x35, 0x4A, 0x30, 0x81, 0x2E, 0x00, 0x00, 0x81, 0x35, 0x00,
        0x00, 0x91, 0x35, 0x4A, 0x00, 0x91, 0x2E, 0x4A, 0x60, 0x81, 0x2E, 0x00, 0x00, 0x81, 0x35, 0x00,
        0x00, 0x91, 0x2E, 0x49, 0x00, 0x91, 0x35, 0x49, 0x60, 0x81, 0x35, 0x00, 0x00, 0x81, 0x2E, 0x00,
        0x00, 0x91, 0x2E, 0x49, 0x00, 0x91, 0x35, 0x49, 0x60, 0x81, 0x35, 0x00, 0x00, 0x81, 0x2E, 0x00,
        0x00, 0x91, 0x2E, 0x4B, 0x00, 0x91, 0x35, 0x4B, 0x60, 0x81, 0x35, 0x00, 0x00, 0x81, 0x2E, 0x00,
        0x00, 0x91, 0x2E, 0x4B, 0x00, 0x91, 0x35, 0x4B, 0x30, 0x81, 0x35, 0x00, 0x00, 0x81, 0x2E, 0x00,
        0x00, 0x91, 0x2E, 0x4F, 0x00, 0x91, 0x35, 0x4F, 0x60, 0x81, 0x35, 0x00, 0x00, 0x81, 0x2E, 0x00,
        0x00, 0x91, 0x37, 0x4D, 0x00, 0x91, 0x30, 0x4D, 0x60, 0x81, 0x37, 0x00, 0x00, 0x81, 0x30, 0x00,
        0x00, 0x91, 0x30, 0x4B, 0x00, 0x91, 0x37, 0x4B, 0x60, 0x81, 0x30, 0x00, 0x00, 0x81, 0x37, 0x00,
        0x00, 0x91, 0x37, 0x4E, 0x00, 0x91, 0x30, 0x4E, 0x30, 0x81, 0x37, 0x00, 0x00, 0x81, 0x30, 0x00,
        0x00, 0x91, 0x30, 0x4C, 0x00, 0x91, 0x37, 0x4C, 0x60, 0x81, 0x37, 0x00, 0x00, 0x81, 0x30, 0x00,
        0x00, 0x91, 0x30, 0x4B, 0x00, 0x91, 0x37, 0x4B, 0x60, 0x81, 0x37, 0x00, 0x00, 0x81, 0x30, 0x00,
        0x00, 0x91, 0x30, 0x4B, 0x00, 0x91, 0x37, 0x4B, 0x60, 0x81, 0x37, 0x00, 0x00, 0x81, 0x30, 0x00,
        0x00, 0x91, 0x30, 0x47, 0x00, 0x91, 0x37, 0x47, 0x60, 0x81, 0x37, 0x00, 0x00, 0x81, 0x30, 0x00,
        0x00, 0x91, 0x30, 0x4B, 0x00, 0x91, 0x37, 0x4B, 0x30, 0x81, 0x37, 0x00, 0x00, 0x81, 0x30, 0x00,
        0x00, 0x91, 0x30, 0x4D, 0x00, 0x91, 0x37, 0x4D, 0x60, 0x81, 0x37, 0x00, 0x00, 0x81, 0x30, 0x00,
        0x00, 0x91, 0x37, 0x4D, 0x00, 0x91, 0x2F, 0x4D, 0x60, 0x81, 0x37, 0x00, 0x00, 0x81, 0x2F, 0x00,
        0x00, 0x91, 0x37, 0x4D, 0x00, 0x91, 0x2F, 0x4D, 0x60, 0x81, 0x37, 0x00, 0x00, 0x81, 0x2F, 0x00,
        0x00, 0x91, 0x37, 0x4C, 0x00, 0x91, 0x2F, 0x4C, 0x30, 0x81, 0x37, 0x00, 0x00, 0x81, 0x2F, 0x00,
        0x00, 0x91, 0x37, 0x4C, 0x00, 0x91, 0x2F, 0x4C, 0x60, 0x81, 0x2F, 0x00, 0x00, 0x81, 0x37, 0x00,
        0x00, 0x91, 0x2F, 0x4C, 0x00, 0x91, 0x37, 0x4C, 0x60, 0x81, 0x37, 0x00, 0x00, 0x81, 0x2F, 0x00,
        0x00, 0x91, 0x37, 0x4C, 0x00, 0x91, 0x2F, 0x4C, 0x60, 0x81, 0x2F, 0x00, 0x00, 0x81, 0x37, 0x00,
        0x00, 0x91, 0x2F, 0x4E, 0x00, 0x91, 0x37, 0x4E, 0x60, 0x81, 0x37, 0x00, 0x00, 0x81, 0x2F, 0x00,
        0x00, 0x91, 0x37, 0x4A, 0x00, 0x91, 0x2F, 0x4A, 0x30, 0x81, 0x2F, 0x00, 0x00, 0x81, 0x37, 0x00,
        0x00, 0x91, 0x37, 0x4D, 0x00, 0x91, 0x2F, 0x4D, 0x60, 0x81, 0x2F, 0x00, 0x00, 0x81, 0x37, 0x00,
        0x00, 0x91, 0x2F, 0x4E, 0x00, 0x91, 0x37, 0x4E, 0x60, 0x81, 0x2F, 0x00, 0x00, 0x81, 0x37, 0x00,
        0x00, 0x91, 0x2F, 0x48, 0x00, 0x91, 0x37, 0x48, 0x60, 0x81, 0x2F, 0x00, 0x00, 0x81, 0x37, 0x00,
        0x00, 0x91, 0x2F, 0x47, 0x00, 0x91, 0x37, 0x47, 0x30, 0x81, 0x2F, 0x00, 0x00, 0x81, 0x37, 0x00,
        0x00, 0x91, 0x2F, 0x4B, 0x00, 0x91, 0x37, 0x4B, 0x60, 0x81, 0x37, 0x00, 0x00, 0x81, 0x2F, 0x00,
        0x00, 0x91, 0x2F, 0x4E, 0x00, 0x91, 0x37, 0x4E, 0x60, 0x81, 0x37, 0x00, 0x00, 0x81, 0x2F, 0x00,
        0x00, 0x91, 0x2F, 0x4E, 0x00, 0x91, 0x37, 0x4E, 0x60, 0x81, 0x37, 0x00, 0x00, 0x81, 0x2F, 0x00,
        0x00, 0x91, 0x2F, 0x49, 0x00, 0x91, 0x37, 0x49, 0x60, 0x81, 0x37, 0x00, 0x00, 0x81, 0x2F, 0x00,
        0x00, 0x91, 0x2F, 0x4E, 0x00, 0x91, 0x37, 0x4E, 0x30, 0x81, 0x37, 0x00, 0x00, 0x81, 0x2F, 0x00,
        0x00, 0x91, 0x2F, 0x4D, 0x00, 0x91, 0x37, 0x4D, 0x60, 0x81, 0x37, 0x00, 0x00, 0x81, 0x2F, 0x00,
        0x00, 0x91, 0x2E, 0x49, 0x00, 0x91, 0x35, 0x49, 0x60, 0x81, 0x35, 0x00, 0x00, 0x81, 0x2E, 0x00,
        0x00, 0x91, 0x2E, 0x4D, 0x00, 0x91, 0x35, 0x4D, 0x60, 0x81, 0x2E, 0x00, 0x00, 0x81, 0x35, 0x00,
        0x00, 0x91, 0x2E, 0x4E, 0x00, 0x91, 0x35, 0x4E, 0x30, 0x81, 0x2E, 0x00, 0x00, 0x81, 0x35, 0x00,
        0x00, 0x91, 0x2E, 0x4E, 0x00, 0x91, 0x35, 0x4E, 0x60, 0x81, 0x35, 0x00, 0x00, 0x81, 0x2E, 0x00,
        0x00, 0x91, 0x2E, 0x46, 0x00, 0x91, 0x35, 0x46, 0x60, 0x81, 0x35, 0x00, 0x00, 0x81, 0x2E, 0x00,
        0x00, 0x91, 0x2E, 0x53, 0x00, 0x91, 0x35, 0x53, 0x60, 0x81, 0x35, 0x00, 0x00, 0x81, 0x2E, 0x00,
        0x00, 0x91, 0x2E, 0x49, 0x00, 0x91, 0x35, 0x49, 0x60, 0x81, 0x35, 0x00, 0x00, 0x81, 0x2E, 0x00,
        0x00, 0x91, 0x2E, 0x4D, 0x00, 0x91, 0x35, 0x4D, 0x30, 0x81, 0x35, 0x00, 0x00, 0x81, 0x2E, 0x00,
        0x00, 0x91, 0x2E, 0x49, 0x00, 0x91, 0x35, 0x49, 0x30, 0x81, 0x35, 0x00, 0x00, 0x81, 0x2E, 0x00,
        0x00, 0x91, 0x2E, 0x4F, 0x00, 0x91, 0x35, 0x4F, 0x30, 0x81, 0x35, 0x00, 0x00, 0x81, 0x2E, 0x00,
        0x00, 0x91, 0x30, 0x51, 0x00, 0x91, 0x37, 0x51, 0x60, 0x81, 0x30, 0x00, 0x00, 0x81, 0x37, 0x00,
        0x00, 0x91, 0x30, 0x4D, 0x00, 0x91, 0x37, 0x4D, 0x60, 0x81, 0x30, 0x00, 0x00, 0x81, 0x37, 0x00,
        0x00, 0x91, 0x30, 0x4B, 0x00, 0x91, 0x37, 0x4B, 0x30, 0x81, 0x30, 0x00, 0x00, 0x81, 0x37, 0x00,
        0x00, 0x91, 0x30, 0x4E, 0x00, 0x91, 0x37, 0x4E, 0x60, 0x81, 0x37, 0x00, 0x00, 0x81, 0x30, 0x00,
        0x00, 0x91, 0x30, 0x51, 0x00, 0x91, 0x37, 0x51, 0x60, 0x81, 0x37, 0x00, 0x00, 0x81, 0x30, 0x00,
        0x00, 0x91, 0x30, 0x4F, 0x00, 0x91, 0x37, 0x4F, 0x60, 0x81, 0x37, 0x00, 0x00, 0x81, 0x30, 0x00,
        0x00, 0x91, 0x30, 0x4C, 0x00, 0x91, 0x37, 0x4C, 0x60, 0x81, 0x37, 0x00, 0x00, 0x81, 0x30, 0x00,
        0x00, 0x91, 0x30, 0x50, 0x00, 0x91, 0x37, 0x50, 0x30, 0x81, 0x37, 0x00, 0x00, 0x81, 0x30, 0x00,
        0x00, 0x91, 0x30, 0x4E, 0x00, 0x91, 0x37, 0x4E, 0x60, 0x81, 0x37, 0x00, 0x00, 0x81, 0x30, 0x00,
        0x00, 0x91, 0x32, 0x4D, 0x00, 0x91, 0x39, 0x4D, 0x60, 0x81, 0x32, 0x00, 0x00, 0x81, 0x39, 0x00,
        0x00, 0x91, 0x39, 0x4B, 0x00, 0x91, 0x32, 0x4B, 0x60, 0x81, 0x39, 0x00, 0x00, 0x81, 0x32, 0x00,
        0x00, 0x91, 0x32, 0x4D, 0x00, 0x91, 0x39, 0x4D, 0x30, 0x81, 0x32, 0x00, 0x00, 0x81, 0x39, 0x00,
        0x00, 0x91, 0x32, 0x4B, 0x00, 0x91, 0x39, 0x4B, 0x60, 0x81, 0x39, 0x00, 0x00, 0x81, 0x32, 0x00,
        0x00, 0x91, 0x39, 0x50, 0x00, 0x91, 0x32, 0x50, 0x60, 0x81, 0x32, 0x00, 0x00, 0x81, 0x39, 0x00,
        0x00, 0x91, 0x32, 0x49, 0x00, 0x91, 0x39, 0x49, 0x60, 0x81, 0x39, 0x00, 0x00, 0x81, 0x32, 0x00,
        0x00, 0x91, 0x39, 0x4C, 0x00, 0x91, 0x32, 0x4C, 0x60, 0x81, 0x32, 0x00, 0x00, 0x81, 0x39, 0x00,
        0x00, 0x91, 0x32, 0x45, 0x00, 0x91, 0x39, 0x45, 0x30, 0x81, 0x39, 0x00, 0x00, 0x81, 0x32, 0x00,
        0x00, 0x91, 0x39, 0x4B, 0x00, 0x91, 0x32, 0x4B, 0x60, 0x81, 0x32, 0x00, 0x00, 0x81, 0x39, 0x00,
        0x00, 0x91, 0x32, 0x4D, 0x00, 0x91, 0x39, 0x4D, 0x60, 0x81, 0x32, 0x00, 0x00, 0x81, 0x39, 0x00,
        0x00, 0x91, 0x39, 0x4E, 0x00, 0x91, 0x32, 0x4E, 0x60, 0x81, 0x39, 0x00, 0x00, 0x81, 0x32, 0x00,
        0x00, 0x91, 0x32, 0x49, 0x00, 0x91, 0x39, 0x49, 0x30, 0x81, 0x32, 0x00, 0x00, 0x81, 0x39, 0x00,
        0x00, 0x91, 0x32, 0x4C, 0x00, 0x91, 0x39, 0x4C, 0x60, 0x81, 0x39, 0x00, 0x00, 0x81, 0x32, 0x00,
        0x00, 0x91, 0x39, 0x4F, 0x00, 0x91, 0x32, 0x4F, 0x60, 0x81, 0x32, 0x00, 0x00, 0x81, 0x39, 0x00,
        0x00, 0x91, 0x32, 0x4B, 0x00, 0x91, 0x39, 0x4B, 0x60, 0x81, 0x39, 0x00, 0x00, 0x81, 0x32, 0x00,
        0x00, 0x91, 0x39, 0x4B, 0x00, 0x91, 0x32, 0x4B, 0x60, 0x81, 0x32, 0x00, 0x00, 0x81, 0x39, 0x00,
        0x00, 0x91, 0x32, 0x4C, 0x00, 0x91, 0x39, 0x4C, 0x30, 0x81, 0x39, 0x00, 0x00, 0x81, 0x32, 0x00,
        0x00, 0x91, 0x39, 0x4E, 0x00, 0x91, 0x32, 0x4E, 0x60, 0x81, 0x32, 0x00, 0x00, 0x81, 0x39, 0x00,
        0x00, 0x91, 0x35, 0x4A, 0x00, 0x91, 0x2E, 0x4A, 0x60, 0x81, 0x2E, 0x00, 0x00, 0x81, 0x35, 0x00,
        0x00, 0x91, 0x2E, 0x49, 0x00, 0x91, 0x35, 0x49, 0x60, 0x81, 0x2E, 0x00, 0x00, 0x81, 0x35, 0x00,
        0x00, 0x91, 0x35, 0x4D, 0x00, 0x91, 0x2E, 0x4D, 0x30, 0x81, 0x35, 0x00, 0x00, 0x81, 0x2E, 0x00,
        0x00, 0x91, 0x35, 0x4B, 0x00, 0x91, 0x2E, 0x4B, 0x60, 0x81, 0x2E, 0x00, 0x00, 0x81, 0x35, 0x00,
        0x00, 0x91, 0x35, 0x4E, 0x00, 0x91, 0x2E, 0x4E, 0x60, 0x81, 0x2E, 0x00, 0x00, 0x81, 0x35, 0x00,
        0x00, 0x91, 0x35, 0x48, 0x00, 0x91, 0x2E, 0x48, 0x60, 0x81, 0x2E, 0x00, 0x00, 0x81, 0x35, 0x00,
        0x00, 0x91, 0x35, 0x4E, 0x00, 0x91, 0x2E, 0x4E, 0x60, 0x81, 0x2E, 0x00, 0x00, 0x81, 0x35, 0x00,
        0x00, 0x91, 0x35, 0x47, 0x00, 0x91, 0x2E, 0x47, 0x30, 0x81, 0x2E, 0x00, 0x00, 0x81, 0x35, 0x00,
        0x00, 0x91, 0x35, 0x4C, 0x00, 0x91, 0x2E, 0x4C, 0x60, 0x81, 0x2E, 0x00, 0x00, 0x81, 0x35, 0x00,
        0x00, 0x91, 0x37, 0x53, 0x00, 0x91, 0x30, 0x53, 0x60, 0x81, 0x37, 0x00, 0x00, 0x81, 0x30, 0x00,
        0x00, 0x91, 0x30, 0x4B, 0x00, 0x91, 0x37, 0x4B, 0x60, 0x81, 0x30, 0x00, 0x00, 0x81, 0x37, 0x00,
        0x00, 0x91, 0x37, 0x48, 0x00, 0x91, 0x30, 0x48, 0x30, 0x81, 0x37, 0x00, 0x00, 0x81, 0x30, 0x00,
        0x00, 0x91, 0x37, 0x4B, 0x00, 0x91, 0x30, 0x4B, 0x60, 0x81, 0x30, 0x00, 0x00, 0x81, 0x37, 0x00,
        0x00, 0x91, 0x37, 0x4D, 0x00, 0x91, 0x30, 0x4D, 0x60, 0x81, 0x30, 0x00, 0x00, 0x81, 0x37, 0x00,
        0x00, 0x91, 0x37, 0x4A, 0x00, 0x91, 0x30, 0x4A, 0x60, 0x81, 0x30, 0x00, 0x00, 0x81, 0x37, 0x00,
        0x00, 0x91, 0x37, 0x4D, 0x00, 0x91, 0x30, 0x4D, 0x60, 0x81, 0x30, 0x00, 0x00, 0x81, 0x37, 0x00,
        0x00, 0x91, 0x37, 0x49, 0x00, 0x91, 0x30, 0x49, 0x30, 0x81, 0x30, 0x00, 0x00, 0x81, 0x37, 0x00,
        0x00, 0x91, 0x37, 0x4E, 0x00, 0x91, 0x30, 0x4E, 0x60, 0x81, 0x30, 0x00, 0x00, 0x81, 0x37, 0x00,
        0x00, 0x91, 0x2F, 0x4B, 0x00, 0x91, 0x37, 0x4B, 0x60, 0x81, 0x37, 0x00, 0x00, 0x81, 0x2F, 0x00,
        0x00, 0x91, 0x2F, 0x4D, 0x00, 0x91, 0x37, 0x4D, 0x60, 0x81, 0x37, 0x00, 0x00, 0x81, 0x2F, 0x00,
        0x00, 0x91, 0x37, 0x50, 0x00, 0x91, 0x2F, 0x50, 0x30, 0x81, 0x2F, 0x00, 0x00, 0x81, 0x37, 0x00,
        0x00, 0x91, 0x2F, 0x4C, 0x00, 0x91, 0x37, 0x4C, 0x60, 0x81, 0x37, 0x00, 0x00, 0x81, 0x2F, 0x00,
        0x00, 0x91, 0x2F, 0x49, 0x00, 0x91, 0x37, 0x49, 0x60, 0x81, 0x37, 0x00, 0x00, 0x81, 0x2F, 0x00,
        0x00, 0x91, 0x2F, 0x4D, 0x00, 0x91, 0x37, 0x4D, 0x60, 0x81, 0x37, 0x00, 0x00, 0x81, 0x2F, 0x00,
        0x00, 0x91, 0x2F, 0x4A, 0x00, 0x91, 0x37, 0x4A, 0x60, 0x81, 0x37, 0x00, 0x00, 0x81, 0x2F, 0x00,
        0x00, 0x91, 0x37, 0x4E, 0x00, 0x91, 0x2F, 0x4E, 0x30, 0x81, 0x2F, 0x00, 0x00, 0x81, 0x37, 0x00,
        0x00, 0x91, 0x2F, 0x49, 0x00, 0x91, 0x37, 0x49, 0x60, 0x81, 0x37, 0x00, 0x00, 0x81, 0x2F, 0x00,
        0x00, 0x91, 0x2F, 0x4B, 0x00, 0x91, 0x37, 0x4B, 0x60, 0x81, 0x2F, 0x00, 0x00, 0x81, 0x37, 0x00,
        0x00, 0x91, 0x2F, 0x4D, 0x00, 0x91, 0x37, 0x4D, 0x60, 0x81, 0x2F, 0x00, 0x00, 0x81, 0x37, 0x00,
        0x00, 0x91, 0x37, 0x50, 0x00, 0x91, 0x2F, 0x50, 0x30, 0x81, 0x37, 0x00, 0x00, 0x81, 0x2F, 0x00,
        0x00, 0x91, 0x2F, 0x4C, 0x00, 0x91, 0x37, 0x4C, 0x60, 0x81, 0x37, 0x00, 0x00, 0x81, 0x2F, 0x00,
        0x00, 0x91, 0x2F, 0x49, 0x00, 0x91, 0x37, 0x49, 0x60, 0x81, 0x37, 0x00, 0x00, 0x81, 0x2F, 0x00,
        0x00, 0x91, 0x2F, 0x4D, 0x00, 0x91, 0x37, 0x4D, 0x60, 0x81, 0x37, 0x00, 0x00, 0x81, 0x2F, 0x00,
        0x00, 0x91, 0x2F, 0x4A, 0x00, 0x91, 0x37, 0x4A, 0x60, 0x81, 0x37, 0x00, 0x00, 0x81, 0x2F, 0x00,
        0x00, 0x91, 0x37, 0x4E, 0x00, 0x91, 0x2F, 0x4E, 0x30, 0x81, 0x2F, 0x00, 0x00, 0x81, 0x37, 0x00,
        0x00, 0x91, 0x2F, 0x49, 0x00, 0x91, 0x37, 0x49, 0x60, 0x81, 0x37, 0x00, 0x00, 0x81, 0x2F, 0x00,
        0x00, 0x91, 0x35, 0x4F, 0x00, 0x91, 0x2E, 0x4F, 0x60, 0x81, 0x35, 0x00, 0x00, 0x81, 0x2E, 0x00,
        0x00, 0x91, 0x35, 0x4B, 0x00, 0x91, 0x2E, 0x4B, 0x60, 0x81, 0x35, 0x00, 0x00, 0x81, 0x2E, 0x00,
        0x00, 0x91, 0x2E, 0x4E, 0x00, 0x91, 0x35, 0x4E, 0x30, 0x81, 0x2E, 0x00, 0x00, 0x81, 0x35, 0x00,
        0x00, 0x91, 0x35, 0x4B, 0x00, 0x91, 0x2E, 0x4B, 0x60, 0x81, 0x2E, 0x00, 0x00, 0x81, 0x35, 0x00,
        0x00, 0x91, 0x2E, 0x4B, 0x00, 0x91, 0x35, 0x4B, 0x60, 0x81, 0x35, 0x00, 0x00, 0x81, 0x2E, 0x00,
        0x00, 0x91, 0x35, 0x4F, 0x00, 0x91, 0x2E, 0x4F, 0x60, 0x81, 0x2E, 0x00, 0x00, 0x81, 0x35, 0x00,
        0x00, 0x91, 0x2E, 0x4C, 0x00, 0x91, 0x35, 0x4C, 0x60, 0x81, 0x35, 0x00, 0x00, 0x81, 0x2E, 0x00,
        0x00, 0x91, 0x35, 0x4B, 0x00, 0x91, 0x2E, 0x4B, 0x30, 0x81, 0x2E, 0x00, 0x00, 0x81, 0x35, 0x00,
        0x00, 0x91, 0x35, 0x49, 0x00, 0x91, 0x2E, 0x49, 0x60, 0x81, 0x2E, 0x00, 0x00, 0x81, 0x35, 0x00,
        0x00, 0x91, 0x30, 0x4E, 0x00, 0x91, 0x37, 0x4E, 0x60, 0x81, 0x30, 0x00, 0x00, 0x81, 0x37, 0x00,
        0x00, 0x91, 0x37, 0x4D, 0x00, 0x91, 0x30, 0x4D, 0x60, 0x81, 0x37, 0x00, 0x00, 0x81, 0x30, 0x00,
        0x00, 0x91, 0x30, 0x47, 0x00, 0x91, 0x37, 0x47, 0x30, 0x81, 0x30, 0x00, 0x00, 0x81, 0x37, 0x00,
        0x00, 0x91, 0x37, 0x4F, 0x00, 0x91, 0x30, 0x4F, 0x60, 0x81, 0x30, 0x00, 0x00, 0x81, 0x37, 0x00,
        0x00, 0x91, 0x30, 0x50, 0x00, 0x91, 0x37, 0x50, 0x60, 0x81, 0x37, 0x00, 0x00, 0x81, 0x30, 0x00,
        0x00, 0x91, 0x37, 0x4A, 0x00, 0x91, 0x30, 0x4A, 0x60, 0x81, 0x30, 0x00, 0x00, 0x81, 0x37, 0x00,
        0x00, 0x91, 0x30, 0x4B, 0x00, 0x91, 0x37, 0x4B, 0x60, 0x81, 0x37, 0x00, 0x00, 0x81, 0x30, 0x00,
        0x00, 0x91, 0x37, 0x4B, 0x00, 0x91, 0x30, 0x4B, 0x30, 0x81, 0x30, 0x00, 0x00, 0x81, 0x37, 0x00,
        0x00, 0x91, 0x37, 0x4A, 0x00, 0x91, 0x30, 0x4A, 0x60, 0x81, 0x30, 0x00, 0x00, 0x81, 0x37, 0x00,
        0x00, 0x91, 0x39, 0x53, 0x00, 0x91, 0x32, 0x53, 0x00, 0x91, 0x3E, 0x53, 0x30, 0x81, 0x3E, 0x00,
        0x00, 0x81, 0x32, 0x00, 0x00, 0x81, 0x39, 0x00, 0x00, 0x91, 0x39, 0x53, 0x00, 0x91, 0x3E, 0x53,
        0x00, 0x91, 0x32, 0x53, 0x30, 0x81, 0x32, 0x00, 0x00, 0x81, 0x3E, 0x00, 0x00, 0x81, 0x39, 0x00,
        0x85, 0x20, 0x91, 0x39, 0x53, 0x00, 0x91, 0x32, 0x53, 0x00, 0x91, 0x3E, 0x53, 0x30, 0x81, 0x3E,
        0x00, 0x00, 0x81, 0x32, 0x00, 0x00, 0x81, 0x39, 0x00, 0x00, 0x91, 0x32, 0x53, 0x00, 0x91, 0x3E,
        0x53, 0x00, 0x91, 0x39, 0x53, 0x30, 0x81, 0x39, 0x00, 0x00, 0x81, 0x3E, 0x00, 0x00, 0x81, 0x32,
        0x00, 0x82, 0x50, 0x91, 0x39, 0x4A, 0x00, 0x91, 0x32, 0x4A, 0x60, 0x81, 0x32, 0x00, 0x00, 0x81,
        0x39, 0x00, 0x00, 0x91, 0x32, 0x4B, 0x00, 0x91, 0x39, 0x4B, 0x60, 0x81, 0x32, 0x00, 0x00, 0x81,
        0x39, 0x00, 0x00, 0x91, 0x39, 0x4B, 0x00, 0x91, 0x32, 0x4B, 0x30, 0x81, 0x32, 0x00, 0x00, 0x81,
        0x39, 0x00, 0x00, 0x91, 0x39, 0x4A, 0x00, 0x91, 0x32, 0x4A, 0x60, 0x81, 0x39, 0x00, 0x00, 0x81,
        0x32, 0x00, 0x00, 0x91, 0x35, 0x47, 0x00, 0x91, 0x2E, 0x47, 0x60, 0x81, 0x2E, 0x00, 0x00, 0x81,
        0x35, 0x00, 0x00, 0x91, 0x2E, 0x4F, 0x00, 0x91, 0x35, 0x4F, 0x60, 0x81, 0x35, 0x00, 0x00, 0x81,
        0x2E, 0x00, 0x00, 0x91, 0x35, 0x4E, 0x00, 0x91, 0x2E, 0x4E, 0x30, 0x81, 0x35, 0x00, 0x00, 0x81,
        0x2E, 0x00, 0x00, 0x91, 0x35, 0x4E, 0x00, 0x91, 0x2E, 0x4E, 0x60, 0x81, 0x2E, 0x00, 0x00, 0x81,
        0x35, 0x00, 0x00, 0x91, 0x2E, 0x4E, 0x00, 0x91, 0x35, 0x4E, 0x60, 0x81, 0x35, 0x00, 0x00, 0x81,
        0x2E, 0x00, 0x00, 0x91, 0x35, 0x4B, 0x00, 0x91, 0x2E, 0x4B, 0x60, 0x81, 0x2E, 0x00, 0x00, 0x81,
        0x35, 0x00, 0x00, 0x91, 0x2E, 0x4B, 0x00, 0x91, 0x35, 0x4B, 0x60, 0x81, 0x35, 0x00, 0x00, 0x81,
        0x2E, 0x00, 0x00, 0x91, 0x35, 0x50, 0x00, 0x91, 0x2E, 0x50, 0x30, 0x81, 0x2E, 0x00, 0x00, 0x81,
        0x35, 0x00, 0x00, 0x91, 0x2E, 0x4C, 0x00, 0x91, 0x35, 0x4C, 0x60, 0x81, 0x35, 0x00, 0x00, 0x81,
        0x2E, 0x00, 0x00, 0x91, 0x37, 0x4D, 0x00, 0x91, 0x30, 0x4D, 0x60, 0x81, 0x30, 0x00, 0x00, 0x81,
        0x37, 0x00, 0x00, 0x91, 0x30, 0x4A, 0x00, 0x91, 0x37, 0x4A, 0x60, 0x81, 0x37, 0x00, 0x00, 0x81,
        0x30, 0x00, 0x00, 0x91, 0x37, 0x4E, 0x00, 0x91, 0x30, 0x4E, 0x30, 0x81, 0x37, 0x00, 0x00, 0x81,
        0x30, 0x00, 0x00, 0x91, 0x37, 0x4B, 0x00, 0x91, 0x30, 0x4B, 0x60, 0x81, 0x30, 0x00, 0x00, 0x81,
        0x37, 0x00, 0x00, 0x91, 0x30, 0x49, 0x00, 0x91, 0x37, 0x49, 0x60, 0x81, 0x37, 0x00, 0x00, 0x81,
        0x30, 0x00, 0x00, 0x91, 0x37, 0x4A, 0x00, 0x91, 0x30, 0x4A, 0x60, 0x81, 0x30, 0x00, 0x00, 0x81,
        0x37, 0x00, 0x00, 0x91, 0x30, 0x4E, 0x00, 0x91, 0x37, 0x4E, 0x60, 0x81, 0x37, 0x00, 0x00, 0x81,
        0x30, 0x00, 0x00, 0x91, 0x37, 0x4C, 0x00, 0x91, 0x30, 0x4C, 0x30, 0x81, 0x30, 0x00, 0x00, 0x81,
        0x37, 0x00, 0x00, 0x91, 0x30, 0x4E, 0x00, 0x91, 0x37, 0x4E, 0x60, 0x81, 0x37, 0x00, 0x00, 0x81,
        0x30, 0x00, 0x00, 0x91, 0x39, 0x55, 0x00, 0x91, 0x32, 0x55, 0x60, 0x81, 0x32, 0x00, 0x00, 0x81,
        0x39, 0x00, 0x00, 0x91, 0x32, 0x4B, 0x00, 0x91, 0x39, 0x4B, 0x60, 0x81, 0x39, 0x00, 0x00, 0x81,
        0x32, 0x00, 0x00, 0x91, 0x39, 0x48, 0x00, 0x91, 0x32, 0x48, 0x30, 0x81, 0x39, 0x00, 0x00, 0x81,
        0x32, 0x00, 0x00, 0x91, 0x39, 0x4C, 0x00, 0x91, 0x32, 0x4C, 0x60, 0x81, 0x32, 0x00, 0x00, 0x81,
        0x39, 0x00, 0x00, 0x91, 0x31, 0x48, 0x00, 0x91, 0x38, 0x48, 0x60, 0x81, 0x38, 0x00, 0x00, 0x81,
        0x31, 0x00, 0x00, 0x91, 0x38, 0x51, 0x00, 0x91, 0x31, 0x51, 0x60, 0x81, 0x31, 0x00, 0x00, 0x81,
        0x38, 0x00, 0x00, 0x91, 0x31, 0x51, 0x00, 0x91, 0x38, 0x51, 0x60, 0x81, 0x38, 0x00, 0x00, 0x81,
        0x31, 0x00, 0x00, 0x91, 0x38, 0x4B, 0x00, 0x91, 0x31, 0x4B, 0x30, 0x81, 0x31, 0x00, 0x00, 0x81,
        0x38, 0x00, 0x00, 0x91, 0x31, 0x4F, 0x00, 0x91, 0x38, 0x4F, 0x60, 0x81, 0x38, 0x00, 0x00, 0x81,
        0x31, 0x00, 0x00, 0x91, 0x37, 0x4C, 0x00, 0x91, 0x30, 0x4C, 0x60, 0x81, 0x30, 0x00, 0x00, 0x81,
        0x37, 0x00, 0x00, 0x91, 0x30, 0x4B, 0x00, 0x91, 0x37, 0x4B, 0x60, 0x81, 0x37, 0x00, 0x00, 0x81,
        0x30, 0x00, 0x00, 0x91, 0x37, 0x4B, 0x00, 0x91, 0x30, 0x4B, 0x30, 0x81, 0x37, 0x00, 0x00, 0x81,
        0x30, 0x00, 0x00, 0x91, 0x37, 0x4B, 0x00, 0x91, 0x30, 0x4B, 0x60, 0x81, 0x30, 0x00, 0x00, 0x81,
        0x37, 0x00, 0x00, 0x91, 0x2F, 0x4A, 0x00, 0x91, 0x37, 0x4A, 0x60, 0x81, 0x2F, 0x00, 0x00, 0x81,
        0x37, 0x00, 0x00, 0x91, 0x37, 0x4D, 0x00, 0x91, 0x2F, 0x4D, 0x60, 0x81, 0x2F, 0x00, 0x00, 0x81,
        0x37, 0x00, 0x00, 0x91, 0x2F, 0x4C, 0x00, 0x91, 0x37, 0x4C, 0x60, 0x81, 0x37, 0x00, 0x00, 0x81,
        0x2F, 0x00, 0x00, 0x91, 0x37, 0x4D, 0x00, 0x91, 0x2F, 0x4D, 0x30, 0x81, 0x2F, 0x00, 0x00, 0x81,
        0x37, 0x00, 0x00, 0x91, 0x2F, 0x4A, 0x00, 0x91, 0x37, 0x4A, 0x60, 0x81, 0x37, 0x00, 0x00, 0x81,
        0x2F, 0x00, 0x00, 0x91, 0x35, 0x4D, 0x00, 0x91, 0x2E, 0x4D, 0x60, 0x81, 0x2E, 0x00, 0x00, 0x81,
        0x35, 0x00, 0x00, 0x91, 0x2E, 0x4B, 0x00, 0x91, 0x35, 0x4B, 0x60, 0x81, 0x35, 0x00, 0x00, 0x81,
        0x2E, 0x00, 0x00, 0x91, 0x35, 0x4E, 0x00, 0x91, 0x2E, 0x4E, 0x30, 0x81, 0x35, 0x00, 0x00, 0x81,
        0x2E, 0x00, 0x00, 0x91, 0x35, 0x4B, 0x00, 0x91, 0x2E, 0x4B, 0x60, 0x81, 0x2E, 0x00, 0x00, 0x81,
        0x35, 0x00, 0x00, 0x91, 0x2E, 0x4F, 0x00, 0x91, 0x35, 0x4F, 0x60, 0x81, 0x35, 0x00, 0x00, 0x81,
        0x2E, 0x00, 0x00, 0x91, 0x35, 0x50, 0x00, 0x91, 0x2E, 0x50, 0x60, 0x81, 0x2E, 0x00, 0x00, 0x81,
        0x35, 0x00, 0x00, 0x91, 0x2E, 0x4B, 0x00, 0x91, 0x35, 0x4B, 0x60, 0x81, 0x35, 0x00, 0x00, 0x81,
        0x2E, 0x00, 0x00, 0x91, 0x35, 0x4D, 0x00, 0x91, 0x2E, 0x4D, 0x30, 0x81, 0x2E, 0x00, 0x00, 0x81,
        0x35, 0x00, 0x00, 0x91, 0x2E, 0x51, 0x00, 0x91, 0x35, 0x51, 0x60, 0x81, 0x35, 0x00, 0x00, 0x81,
        0x2E, 0x00, 0x00, 0x91, 0x37, 0x4E, 0x00, 0x91, 0x30, 0x4E, 0x60, 0x81, 0x30, 0x00, 0x00, 0x81,
        0x37, 0x00, 0x00, 0x91, 0x30, 0x4D, 0x00, 0x91, 0x37, 0x4D, 0x60, 0x81, 0x37, 0x00, 0x00, 0x81,
        0x30, 0x00, 0x00, 0x91, 0x37, 0x4A, 0x00, 0x91, 0x30, 0x4A, 0x30, 0x81, 0x37, 0x00, 0x00, 0x81,
        0x30, 0x00, 0x00, 0x91, 0x37, 0x51, 0x00, 0x91, 0x30, 0x51, 0x60, 0x81, 0x30, 0x00, 0x00, 0x81,
        0x37, 0x00, 0x00, 0x91, 0x30, 0x4C, 0x00, 0x91, 0x37, 0x4C, 0x60, 0x81, 0x37, 0x00, 0x00, 0x81,
        0x30, 0x00, 0x00, 0x91, 0x37, 0x4E, 0x00, 0x91, 0x30, 0x4E, 0x60, 0x81, 0x30, 0x00, 0x00, 0x81,
        0x37, 0x00, 0x00, 0x91, 0x30, 0x49, 0x00, 0x91, 0x37, 0x49, 0x60, 0x81, 0x37, 0x00, 0x00, 0x81,
        0x30, 0x00, 0x00, 0x91, 0x37, 0x4F, 0x00, 0x91, 0x30, 0x4F, 0x30, 0x81, 0x30, 0x00, 0x00, 0x81,
        0x37, 0x00, 0x00, 0x91, 0x30, 0x4E, 0x00, 0x91, 0x37, 0x4E, 0x60, 0x81, 0x37, 0x00, 0x00, 0x81,
        0x30, 0x00, 0x00, 0x91, 0x39, 0x4C, 0x00, 0x91, 0x32, 0x4C, 0x60, 0x81, 0x32, 0x00, 0x00, 0x81,
        0x39, 0x00, 0x00, 0x91, 0x32, 0x4A, 0x00, 0x91, 0x39, 0x4A, 0x60, 0x81, 0x39, 0x00, 0x00, 0x81,
        0x32, 0x00, 0x00, 0x91, 0x39, 0x52, 0x00, 0x91, 0x32, 0x52, 0x30, 0x81, 0x39, 0x00, 0x00, 0x81,
        0x32, 0x00, 0x00, 0x91, 0x39, 0x4E, 0x00, 0x91, 0x32, 0x4E, 0x60, 0x81, 0x32, 0x00, 0x00, 0x81,
        0x39, 0x00, 0x00, 0x91, 0x32, 0x50, 0x00, 0x91, 0x39, 0x50, 0x60, 0x81, 0x39, 0x00, 0x00, 0x81,
        0x32, 0x00, 0x00, 0x91, 0x39, 0x4B, 0x00, 0x91, 0x32, 0x4B, 0x60, 0x81, 0x32, 0x00, 0x00, 0x81,
        0x39, 0x00, 0x00, 0x91, 0x32, 0x4F, 0x00, 0x91, 0x39, 0x4F, 0x60, 0x81, 0x39, 0x00, 0x00, 0x81,
        0x32, 0x00, 0x00, 0x91, 0x39, 0x4D, 0x00, 0x91, 0x32, 0x4D, 0x30, 0x81, 0x32, 0x00, 0x00, 0x81,
        0x39, 0x00, 0x00, 0x91, 0x32, 0x47, 0x00, 0x91, 0x39, 0x47, 0x60, 0x81, 0x39, 0x00, 0x00, 0x81,
        0x32, 0x00, 0x00, 0x91, 0x39, 0x4E, 0x00, 0x91, 0x32, 0x4E, 0x60, 0x81, 0x32, 0x00, 0x00, 0x81,
        0x39, 0x00, 0x00, 0x91, 0x32, 0x4E, 0x00, 0x91, 0x39, 0x4E, 0x60, 0x81, 0x39, 0x00, 0x00, 0x81,
        0x32, 0x00, 0x00, 0x91, 0x39, 0x4E, 0x00, 0x91, 0x32, 0x4E, 0x30, 0x81, 0x39, 0x00, 0x00, 0x81,
        0x32, 0x00, 0x00, 0x91, 0x39, 0x4F, 0x00, 0x91, 0x32, 0x4F, 0x60, 0x81, 0x32, 0x00, 0x00, 0x81,
        0x39, 0x00, 0x00, 0x91, 0x32, 0x4D, 0x00, 0x91, 0x39, 0x4D, 0x60, 0x81, 0x32, 0x00, 0x00, 0x81,
        0x39, 0x00, 0x00, 0x91, 0x39, 0x4B, 0x00, 0x91, 0x32, 0x4B, 0x60, 0x81, 0x32, 0x00, 0x00, 0x81,
        0x39, 0x00, 0x00, 0x91, 0x32, 0x4A, 0x00, 0x91, 0x39, 0x4A, 0x60, 0x81, 0x32, 0x00, 0x00, 0x81,
        0x39, 0x00, 0x00, 0x91, 0x39, 0x4C, 0x00, 0x91, 0x32, 0x4C, 0x30, 0x81, 0x32, 0x00, 0x00, 0x81,
        0x39, 0x00, 0x00, 0x91, 0x32, 0x48, 0x00, 0x91, 0x39, 0x48, 0x60, 0x81, 0x39, 0x00, 0x00, 0x81,
        0x32, 0x00, 0x00, 0x91, 0x35, 0x4A, 0x00, 0x91, 0x2E, 0x4A, 0x60, 0x81, 0x2E, 0x00, 0x00, 0x81,
        0x35, 0x00, 0x00, 0x91, 0x2E, 0x4B, 0x00, 0x91, 0x35, 0x4B, 0x60, 0x81, 0x35, 0x00, 0x00, 0x81,
        0x2E, 0x00, 0x00, 0x91, 0x35, 0x48, 0x00, 0x91, 0x2E, 0x48, 0x30, 0x81, 0x35, 0x00, 0x00, 0x81,
        0x2E, 0x00, 0x00, 0x91, 0x35, 0x4D, 0x00, 0x91, 0x2E, 0x4D, 0x60, 0x81, 0x2E, 0x00, 0x00, 0x81,
        0x35, 0x00, 0x00, 0x91, 0x2E, 0x4F, 0x00, 0x91, 0x35, 0x4F, 0x60, 0x81, 0x35, 0x00, 0x00, 0x81,
        0x2E, 0x00, 0x00, 0x91, 0x35, 0x4E, 0x00, 0x91, 0x2E, 0x4E, 0x60, 0x81, 0x2E, 0x00, 0x00, 0x81,
        0x35, 0x00, 0x00, 0x91, 0x2E, 0x4D, 0x00, 0x91, 0x35, 0x4D, 0x60, 0x81, 0x35, 0x00, 0x00, 0x81,
        0x2E, 0x00, 0x00, 0x91, 0x35, 0x49, 0x00, 0x91, 0x2E, 0x49, 0x30, 0x81, 0x2E, 0x00, 0x00, 0x81,
        0x35, 0x00, 0x00, 0x91, 0x2E, 0x52, 0x00, 0x91, 0x35, 0x52, 0x60, 0x81, 0x35, 0x00, 0x00, 0x81,
        0x2E, 0x00, 0x00, 0x91, 0x37, 0x4F, 0x00, 0x91, 0x30, 0x4F, 0x60, 0x81, 0x30, 0x00, 0x00, 0x81,
        0x37, 0x00, 0x00, 0x91, 0x30, 0x47, 0x00, 0x91, 0x37, 0x47, 0x60, 0x81, 0x37, 0x00, 0x00, 0x81,
        0x30, 0x00, 0x00, 0x91, 0x37, 0x50, 0x00, 0x91, 0x30, 0x50, 0x30, 0x81, 0x37, 0x00, 0x00, 0x81,
        0x30, 0x00, 0x00, 0x91, 0x37, 0x49, 0x00, 0x91, 0x30, 0x49, 0x60, 0x81, 0x30, 0x00, 0x00, 0x81,
        0x37, 0x00, 0x00, 0x91, 0x30, 0x4C, 0x00, 0x91, 0x37, 0x4C, 0x60, 0x81, 0x37, 0x00, 0x00, 0x81,
        0x30, 0x00, 0x00, 0x91, 0x37, 0x4E, 0x00, 0x91, 0x30, 0x4E, 0x60, 0x81, 0x30, 0x00, 0x00, 0x81,
        0x37, 0x00, 0x00, 0x91, 0x30, 0x4C, 0x00, 0x91, 0x37, 0x4C, 0x60, 0x81, 0x37, 0x00, 0x00, 0x81,
        0x30, 0x00, 0x00, 0x91, 0x37, 0x4B, 0x00, 0x91, 0x30, 0x4B, 0x30, 0x81, 0x30, 0x00, 0x00, 0x81,
        0x37, 0x00, 0x00, 0x91, 0x30, 0x4D, 0x00, 0x91, 0x37, 0x4D, 0x60, 0x81, 0x37, 0x00, 0x00, 0x81,
        0x30, 0x00, 0x00, 0x91, 0x39, 0x4E, 0x00, 0x91, 0x32, 0x4E, 0x60, 0x81, 0x32, 0x00, 0x00, 0x81,
        0x39, 0x00, 0x00, 0x91, 0x32, 0x4A, 0x00, 0x91, 0x39, 0x4A, 0x60, 0x81, 0x39, 0x00, 0x00, 0x81,
        0x32, 0x00, 0x00, 0x91, 0x39, 0x4E, 0x00, 0x91, 0x32, 0x4E, 0x30, 0x81, 0x39, 0x00, 0x00, 0x81,
        0x32, 0x00, 0x00, 0x91, 0x39, 0x4D, 0x00, 0x91, 0x32, 0x4D, 0x60, 0x81, 0x32, 0x00, 0x00, 0x81,
        0x39, 0x00, 0x00, 0x91, 0x31, 0x4B, 0x00, 0x91, 0x38, 0x4B, 0x60, 0x81, 0x38, 0x00, 0x00, 0x81,
        0x31, 0x00, 0x00, 0x91, 0x38, 0x50, 0x00, 0x91, 0x31, 0x50, 0x60, 0x81, 0x31, 0x00, 0x00, 0x81,
        0x38, 0x00, 0x00, 0x91, 0x31, 0x4A, 0x00, 0x91, 0x38, 0x4A, 0x60, 0x81, 0x38, 0x00, 0x00, 0x81,
        0x31, 0x00, 0x00, 0x91, 0x38, 0x4E, 0x00, 0x91, 0x31, 0x4E, 0x30, 0x81, 0x31, 0x00, 0x00, 0x81,
        0x38, 0x00, 0x00, 0x91, 0x31, 0x4F, 0x00, 0x91, 0x38, 0x4F, 0x60, 0x81, 0x38, 0x00, 0x00, 0x81,
        0x31, 0x00, 0x00, 0x91, 0x37, 0x4A, 0x00, 0x91, 0x30, 0x4A, 0x60, 0x81, 0x30, 0x00, 0x00, 0x81,
        0x37, 0x00, 0x00, 0x91, 0x30, 0x4D, 0x00, 0x91, 0x37, 0x4D, 0x60, 0x81, 0x37, 0x00, 0x00, 0x81,
        0x30, 0x00, 0x00, 0x91, 0x37, 0x4D, 0x00, 0x91, 0x30, 0x4D, 0x30, 0x81, 0x37, 0x00, 0x00, 0x81,
        0x30, 0x00, 0x00, 0x91, 0x37, 0x4B, 0x00, 0x91, 0x30, 0x4B, 0x60, 0x81, 0x30, 0x00, 0x00, 0x81,
        0x37, 0x00, 0x00, 0x91, 0x2F, 0x48, 0x00, 0x91, 0x37, 0x48, 0x60, 0x81, 0x2F, 0x00, 0x00, 0x81,
        0x37, 0x00, 0x00, 0x91, 0x37, 0x4C, 0x00, 0x91, 0x2F, 0x4C, 0x60, 0x81, 0x2F, 0x00, 0x00, 0x81,
        0x37, 0x00, 0x00, 0x91, 0x2F, 0x4C, 0x00, 0x91, 0x37, 0x4C, 0x60, 0x81, 0x37, 0x00, 0x00, 0x81,
        0x2F, 0x00, 0x00, 0x91, 0x37, 0x4E, 0x00, 0x91, 0x2F, 0x4E, 0x30, 0x81, 0x2F, 0x00, 0x00, 0x81,
        0x37, 0x00, 0x00, 0x91, 0x2F, 0x4B, 0x00, 0x91, 0x37, 0x4B, 0x60, 0x81, 0x37, 0x00, 0x00, 0x81,
        0x2F, 0x00, 0x00, 0x91, 0x35, 0x4B, 0x00, 0x91, 0x2E, 0x4B, 0x60, 0x81, 0x2E, 0x00, 0x00, 0x81,
        0x35, 0x00, 0x00, 0x91, 0x2E, 0x4E, 0x00, 0x91, 0x35, 0x4E, 0x60, 0x81, 0x35, 0x00, 0x00, 0x81,
        0x2E, 0x00, 0x00, 0x91, 0x35, 0x4B, 0x00, 0x91, 0x2E, 0x4B, 0x30, 0x81, 0x35, 0x00, 0x00, 0x81,
        0x2E, 0x00, 0x00, 0x91, 0x35, 0x4C, 0x00, 0x91, 0x2E, 0x4C, 0x60, 0x81, 0x2E, 0x00, 0x00, 0x81,
        0x35, 0x00, 0x00, 0x91, 0x2E, 0x49, 0x00, 0x91, 0x35, 0x49, 0x60, 0x81, 0x35, 0x00, 0x00, 0x81,
        0x2E, 0x00, 0x00, 0x91, 0x35, 0x4B, 0x00, 0x91, 0x2E, 0x4B, 0x60, 0x81, 0x2E, 0x00, 0x00, 0x81,
        0x35, 0x00, 0x00, 0x91, 0x2E, 0x4B, 0x00, 0x91, 0x35, 0x4B, 0x60, 0x81, 0x35, 0x00, 0x00, 0x81,
        0x2E, 0x00, 0x00, 0x91, 0x35, 0x4C, 0x00, 0x91, 0x2E, 0x4C, 0x30, 0x81, 0x2E, 0x00, 0x00, 0x81,
        0x35, 0x00, 0x00, 0x91, 0x2E, 0x4C, 0x00, 0x91, 0x35, 0x4C, 0x60, 0x81, 0x35, 0x00, 0x00, 0x81,
        0x2E, 0x00, 0x00, 0x91, 0x37, 0x4E, 0x00, 0x91, 0x30, 0x4E, 0x60, 0x81, 0x30, 0x00, 0x00, 0x81,
        0x37, 0x00, 0x00, 0x91, 0x30, 0x47, 0x00, 0x91, 0x37, 0x47, 0x60, 0x81, 0x37, 0x00, 0x00, 0x81,
        0x30, 0x00, 0x00, 0x91, 0x37, 0x4A, 0x00, 0x91, 0x30, 0x4A, 0x30, 0x81, 0x37, 0x00, 0x00, 0x81,
        0x30, 0x00, 0x00, 0x91, 0x37, 0x52, 0x00, 0x91, 0x30, 0x52, 0x60, 0x81, 0x30, 0x00, 0x00, 0x81,
        0x37, 0x00, 0x00, 0x91, 0x30, 0x4E, 0x00, 0x91, 0x37, 0x4E, 0x60, 0x81, 0x37, 0x00, 0x00, 0x81,
        0x30, 0x00, 0x00, 0x91, 0x37, 0x50, 0x00, 0x91, 0x30, 0x50, 0x60, 0x81, 0x30, 0x00, 0x00, 0x81,
        0x37, 0x00, 0x00, 0x91, 0x30, 0x4C, 0x00, 0x91, 0x37, 0x4C, 0x60, 0x81, 0x37, 0x00, 0x00, 0x81,
        0x30, 0x00, 0x00, 0x91, 0x37, 0x4D, 0x00, 0x91, 0x30, 0x4D, 0x30, 0x81, 0x30, 0x00, 0x00, 0x81,
        0x37, 0x00, 0x00, 0x91, 0x30, 0x4A, 0x00, 0x91, 0x37, 0x4A, 0x60, 0x81, 0x37, 0x00, 0x00, 0x81,
        0x30, 0x00, 0x00, 0x91, 0x39, 0x4B, 0x00, 0x91, 0x32, 0x4B, 0x60, 0x81, 0x39, 0x00, 0x00, 0x81,
        0x32, 0x00, 0x00, 0x91, 0x32, 0x4B, 0x00, 0x91, 0x39, 0x4B, 0x60, 0x81, 0x39, 0x00, 0x00, 0x81,
        0x32, 0x00, 0x00, 0x91, 0x39, 0x48, 0x00, 0x91, 0x32, 0x48, 0x30, 0x81, 0x39, 0x00, 0x00, 0x81,
        0x32, 0x00, 0x00, 0x91, 0x39, 0x46, 0x00, 0x91, 0x32, 0x46, 0x60, 0x81, 0x32, 0x00, 0x00, 0x81,
        0x39, 0x00, 0x00, 0x91, 0x32, 0x50, 0x00, 0x91, 0x39, 0x50, 0x60, 0x81, 0x39, 0x00, 0x00, 0x81,
        0x32, 0x00, 0x00, 0x91, 0x39, 0x4F, 0x00, 0x91, 0x32, 0x4F, 0x60, 0x81, 0x32, 0x00, 0x00, 0x81,
        0x39, 0x00, 0x00, 0x91, 0x32, 0x4B, 0x00, 0x91, 0x39, 0x4B, 0x60, 0x81, 0x39, 0x00, 0x00, 0x81,
        0x32, 0x00, 0x00, 0x91, 0x39, 0x48, 0x00, 0x91, 0x32, 0x48, 0x30, 0x81, 0x32, 0x00, 0x00, 0x81,
        0x39, 0x00, 0x00, 0x91, 0x32, 0x4E, 0x00, 0x91, 0x39, 0x4E, 0x60, 0x81, 0x39, 0x00, 0x00, 0x81,
        0x32, 0x00, 0x00, 0x91, 0x39, 0x4C, 0x00, 0x91, 0x32, 0x4C, 0x60, 0x81, 0x32, 0x00, 0x00, 0x81,
        0x39, 0x00, 0x00, 0x91, 0x32, 0x4B, 0x00, 0x91, 0x39, 0x4B, 0x60, 0x81, 0x39, 0x00, 0x00, 0x81,
        0x32, 0x00, 0x00, 0x91, 0x39, 0x49, 0x00, 0x91, 0x32, 0x49, 0x30, 0x81, 0x39, 0x00, 0x00, 0x81,
        0x32, 0x00, 0x00, 0x91, 0x39, 0x51, 0x00, 0x91, 0x32, 0x51, 0x60, 0x81, 0x32, 0x00, 0x00, 0x81,
        0x39, 0x00, 0x00, 0x91, 0x32, 0x50, 0x00, 0x91, 0x39, 0x50, 0x60, 0x81, 0x32, 0x00, 0x00, 0x81,
        0x39, 0x00, 0x00, 0x91, 0x39, 0x4F, 0x00, 0x91, 0x32, 0x4F, 0x60, 0x81, 0x32, 0x00, 0x00, 0x81,
        0x39, 0x00, 0x00, 0x91, 0x32, 0x47, 0x00, 0x91, 0x39, 0x47, 0x60, 0x81, 0x32, 0x00, 0x00, 0x81,
        0x39, 0x00, 0x00, 0x91, 0x39, 0x4B, 0x00, 0x91, 0x32, 0x4B, 0x30, 0x81, 0x32, 0x00, 0x00, 0x81,
        0x39, 0x00, 0x00, 0x91, 0x32, 0x4A, 0x00, 0x91, 0x39, 0x4A, 0x60, 0x81, 0x39, 0x00, 0x00, 0x81,
        0x32, 0x00, 0x00, 0xFF, 0x2F, 0x00
};
